  0
SECTION
  2
HEADER
  9
$ACADVER
  1
AC1009
  9
$DWGCODEPAGE
  3
ansi_1252
  9
$INSBASE
 10
0.0
 20
0.0
 30
0.0
  9
$EXTMIN
 10
-753.5939
 20
-4264.5308
 30
0.0
  9
$EXTMAX
 10
3447.0073
 20
741.0
 30
0.0
  9
$LIMMIN
 10
0.0
 20
0.0
  9
$LIMMAX
 10
1189.0
 20
841.0
  9
$ORTHOMODE
 70
     1
  9
$REGENMODE
 70
     1
  9
$FILLMODE
 70
     1
  9
$QTEXTMODE
 70
     0
  9
$MIRRTEXT
 70
     1
  9
$DRAGMODE
 70
     2
  9
$LTSCALE
 40
1.0
  9
$OSMODE
 70
    37
  9
$ATTMODE
 70
     1
  9
$TEXTSIZE
 40
25.0
  9
$TRACEWID
 40
1.0
  9
$TEXTSTYLE
  7
STANDARD
  9
$CLAYER
  8
DIMENSION
  9
$CELTYPE
  6
BYLAYER
  9
$CECOLOR
 62
   256
  9
$DIMSCALE
 40
10.0
  9
$DIMASZ
 40
2.5
  9
$DIMEXO
 40
0.625
  9
$DIMDLI
 40
3.75
  9
$DIMRND
 40
0.0
  9
$DIMDLE
 40
0.0
  9
$DIMEXE
 40
1.25
  9
$DIMTP
 40
0.0
  9
$DIMTM
 40
0.0
  9
$DIMTXT
 40
2.5
  9
$DIMCEN
 40
2.5
  9
$DIMTSZ
 40
0.0
  9
$DIMTOL
 70
     0
  9
$DIMLIM
 70
     0
  9
$DIMTIH
 70
     0
  9
$DIMTOH
 70
     0
  9
$DIMSE1
 70
     0
  9
$DIMSE2
 70
     0
  9
$DIMTAD
 70
     1
  9
$DIMZIN
 70
     8
  9
$DIMBLK
  1

  9
$DIMASO
 70
     1
  9
$DIMSHO
 70
     1
  9
$DIMPOST
  1

  9
$DIMAPOST
  1

  9
$DIMALT
 70
     0
  9
$DIMALTD
 70
     3
  9
$DIMALTF
 40
0.03937
  9
$DIMLFAC
 40
1.0
  9
$DIMTOFL
 70
     1
  9
$DIMTVP
 40
0.0
  9
$DIMTIX
 70
     0
  9
$DIMSOXD
 70
     0
  9
$DIMSAH
 70
     0
  9
$DIMBLK1
  1

  9
$DIMBLK2
  1

  9
$DIMSTYLE
  2
ISO-25
  9
$DIMCLRD
 70
     0
  9
$DIMCLRE
 70
     0
  9
$DIMCLRT
 70
     0
  9
$DIMTFAC
 40
1.0
  9
$DIMGAP
 40
0.625
  9
$LUNITS
 70
     2
  9
$LUPREC
 70
     4
  9
$SKETCHINC
 40
1.0
  9
$FILLETRAD
 40
10.0
  9
$AUNITS
 70
     0
  9
$AUPREC
 70
     0
  9
$MENU
  1
.
  9
$ELEVATION
 40
0.0
  9
$PELEVATION
 40
0.0
  9
$THICKNESS
 40
0.0
  9
$LIMCHECK
 70
     0
  9
$CHAMFERA
 40
10.0
  9
$CHAMFERB
 40
10.0
  9
$SKPOLY
 70
     0
  9
$TDCREATE
 40
2451579.516329248
  9
$TDUPDATE
 40
2460066.73965662
  9
$TDINDWG
 40
0.0082924769
  9
$TDUSRTIMER
 40
0.0082825116
  9
$USRTIMER
 70
     1
  9
$ANGBASE
 50
0.0
  9
$ANGDIR
 70
     0
  9
$PDMODE
 70
     0
  9
$PDSIZE
 40
0.0
  9
$PLINEWID
 40
0.0
  9
$COORDS
 70
     1
  9
$SPLFRAME
 70
     0
  9
$SPLINETYPE
 70
     6
  9
$SPLINESEGS
 70
     8
  9
$ATTDIA
 70
     0
  9
$ATTREQ
 70
     1
  9
$HANDLING
 70
     1
  9
$HANDSEED
  5
182C
  9
$SURFTAB1
 70
     6
  9
$SURFTAB2
 70
     6
  9
$SURFTYPE
 70
     6
  9
$SURFU
 70
     6
  9
$SURFV
 70
     6
  9
$UCSNAME
  2

  9
$UCSORG
 10
0.0
 20
0.0
 30
0.0
  9
$UCSXDIR
 10
1.0
 20
0.0
 30
0.0
  9
$UCSYDIR
 10
0.0
 20
1.0
 30
0.0
  9
$PUCSNAME
  2

  9
$PUCSORG
 10
0.0
 20
0.0
 30
0.0
  9
$PUCSXDIR
 10
1.0
 20
0.0
 30
0.0
  9
$PUCSYDIR
 10
0.0
 20
1.0
 30
0.0
  9
$USERI1
 70
     0
  9
$USERI2
 70
     0
  9
$USERI3
 70
     0
  9
$USERI4
 70
     0
  9
$USERI5
 70
     0
  9
$USERR1
 40
0.0
  9
$USERR2
 40
0.0
  9
$USERR3
 40
0.0
  9
$USERR4
 40
0.0
  9
$USERR5
 40
0.0
  9
$WORLDVIEW
 70
     1
  9
$SHADEDGE
 70
     3
  9
$SHADEDIF
 70
    70
  9
$TILEMODE
 70
     1
  9
$MAXACTVP
 70
    64
  9
$PLIMCHECK
 70
     0
  9
$PEXTMIN
 10
1.000000E+20
 20
1.000000E+20
 30
1.000000E+20
  9
$PEXTMAX
 10
-1.000000E+20
 20
-1.000000E+20
 30
-1.000000E+20
  9
$PLIMMIN
 10
0.0
 20
0.0
  9
$PLIMMAX
 10
420.0
 20
297.0
  9
$UNITMODE
 70
     0
  9
$VISRETAIN
 70
     1
  9
$PLINEGEN
 70
     0
  9
$PSLTSCALE
 70
     0
  0
ENDSEC
  0
SECTION
  2
TABLES
  0
TABLE
  2
VPORT
 70
     1
  0
VPORT
  2
*ACTIVE
 70
     0
 10
0.0
 20
0.0
 11
1.0
 21
1.0
 12
951.651761
 22
-3224.545801
 13
0.0
 23
0.0
 14
10.0
 24
10.0
 15
10.0
 25
10.0
 16
0.0
 26
0.0
 36
1.0
 17
0.0
 27
0.0
 37
0.0
 40
1831.916207
 41
2.193724
 42
50.0
 43
0.0
 44
0.0
 50
0.0
 51
0.0
 71
    16
 72
   100
 73
     1
 74
     3
 75
     0
 76
     0
 77
     0
 78
     0
  0
ENDTAB
  0
TABLE
  2
LTYPE
 70
     7
  0
LTYPE
  2
CONTINUOUS
 70
     0
  3
Solid line
 72
    65
 73
     0
 40
0.0
  0
LTYPE
  2
HIDDEN2
 70
     0
  3
Hidden (.5x) _ _ _ _ _ _ _ _ _ _ _ _ _ _ _ _ _
 72
    65
 73
     2
 40
5.1
 49
3.5
 49
-1.6
  0
LTYPE
  2
DASHDOT
 70
     0
  3
Dash dot __ . __ . __ . __ . __ . __ . __ . __
 72
    65
 73
     4
 40
10.4
 49
6.2
 49
-2.1
 49
0.0
 49
-2.1
  0
LTYPE
  2
DOT
 70
     0
  3
Dot . . . . . . . . . . . . . . . . . . . . . .
 72
    65
 73
     2
 40
2.2
 49
1.1
 49
-1.1
  0
LTYPE
  2
DASHED
 70
     0
  3
Dashed __ __ __ __ __ __ __ __ __ __ __ __ __ _
 72
    65
 73
     2
 40
11.05
 49
8.7
 49
-2.35
  0
LTYPE
  2
PHANTOM2
 70
     0
  3
Phantom (.5x) ___ _ _ ___ _ _ ___ _ _ ___ _ _
 72
    65
 73
     6
 40
18.3
 49
7.8
 49
-2.1
 49
2.1
 49
-2.1
 49
2.1
 49
-2.1
  0
LTYPE
  2
CENTER
 70
     0
  3
Center ____ _ ____ _ ____ _ ____ _ ____ _ ____
 72
    65
 73
     4
 40
14.1
 49
7.8
 49
-2.1
 49
2.1
 49
-2.1
  0
ENDTAB
  0
TABLE
  2
LAYER
 70
     8
  0
LAYER
  2
0
 70
     0
 62
     7
  6
CONTINUOUS
  0
LAYER
  2
OUTLINE
 70
     0
 62
     7
  6
CONTINUOUS
  0
LAYER
  2
AXIS
 70
     0
 62
     1
  6
CENTER
  0
LAYER
  2
DIMENSION
 70
     0
 62
     5
  6
CONTINUOUS
  0
LAYER
  2
HATCH
 70
     0
 62
     5
  6
CONTINUOUS
  0
LAYER
  2
AUXILIARY
 70
     0
 62
     1
  6
DOT
  0
LAYER
  2
INVISIBLE
 70
     0
 62
     6
  6
DOT
  0
LAYER
  2
DEFPOINTS
 70
     0
 62
     7
  6
CONTINUOUS
  0
ENDTAB
  0
TABLE
  2
STYLE
 70
    33
  0
STYLE
  2
STANDARD
 70
     0
 40
0.0
 41
1.0
 50
0.0
 71
     0
 42
25.0
  3
txt
  4

  0
STYLE
  2
VCDSTYLE01
 70
     0
 40
0.0
 41
1.0
 50
0.0
 71
     0
 42
2.5
  3
txt
  4

  0
STYLE
  2
VCDSTYLE02
 70
     0
 40
0.0
 41
1.0
 50
0.0
 71
     0
 42
2.5
  3
txt
  4

  0
STYLE
  2
VCDSTYLE03
 70
     0
 40
0.0
 41
1.0
 50
0.0
 71
     0
 42
2.5
  3
txt
  4

  0
STYLE
  2
VCDSTYLE04
 70
     0
 40
0.0
 41
1.0
 50
0.0
 71
     0
 42
2.5
  3
txt
  4

  0
STYLE
  2
VCDSTYLE05
 70
     0
 40
0.0
 41
1.0
 50
0.0
 71
     0
 42
2.5
  3
txt
  4

  0
STYLE
  2
VCDSTYLE06
 70
     0
 40
0.0
 41
1.0
 50
0.0
 71
     0
 42
2.5
  3
txt
  4

  0
STYLE
  2
VCDSTYLE07
 70
     0
 40
0.0
 41
1.0
 50
0.0
 71
     0
 42
2.5
  3
txt
  4

  0
STYLE
  2
VCDSTYLE08
 70
     0
 40
0.0
 41
1.0
 50
0.0
 71
     0
 42
2.5
  3
txt
  4

  0
STYLE
  2
VCDSTYLE09
 70
     0
 40
0.0
 41
1.0
 50
0.0
 71
     0
 42
2.5
  3
txt
  4

  0
STYLE
  2
VCDSTYLE10
 70
     0
 40
0.0
 41
1.0
 50
0.0
 71
     0
 42
2.5
  3
Sans Serif
  4

  0
STYLE
  2
VCDSTYLE11
 70
     0
 40
0.0
 41
1.0
 50
0.0
 71
     0
 42
2.5
  3
Sans Serif
  4

  0
STYLE
  2
VCDSTYLE12
 70
     0
 40
0.0
 41
1.0
 50
0.0
 71
     0
 42
2.5
  3
DejaVu Sans
  4

  0
STYLE
  2
VCDSTYLE13
 70
     0
 40
0.0
 41
1.0
 50
0.0
 71
     0
 42
2.5
  3
DejaVu Sans
  4

  0
STYLE
  2
VCDSTYLE14
 70
     0
 40
0.0
 41
1.0
 50
0.0
 71
     0
 42
2.5
  3
DejaVu Sans Mono
  4

  0
STYLE
  2
VCDSTYLE15
 70
     0
 40
0.0
 41
1.0
 50
0.0
 71
     0
 42
2.5
  3
DejaVu Sans Mono
  4

  0
STYLE
  2
VCDSTYLE16
 70
     0
 40
0.0
 41
1.0
 50
0.0
 71
     0
 42
2.5
  3
UnDotum
  4

  0
STYLE
  2
VCDSTYLE17
 70
     0
 40
0.0
 41
1.0
 50
0.0
 71
     0
 42
2.5
  3
UnDotum
  4

  0
STYLE
  2
VCDSTYLE18
 70
     0
 40
0.0
 41
1.0
 50
0.0
 71
     0
 42
2.5
  3
Bitstream Vera Sans
  4

  0
STYLE
  2
VCDSTYLE19
 70
     0
 40
0.0
 41
1.0
 50
0.0
 71
     0
 42
2.5
  3
Bitstream Vera Sans
  4

  0
STYLE
  2
VCDSTYLE20
 70
     0
 40
0.0
 41
1.0
 50
0.0
 71
     0
 42
2.5
  3
Bitstream Vera Sans Mono
  4

  0
STYLE
  2
VCDSTYLE21
 70
     0
 40
0.0
 41
1.0
 50
0.0
 71
     0
 42
2.5
  3
Bitstream Vera Sans Mono
  4

  0
STYLE
  2
VCDSTYLE22
 70
     0
 40
0.0
 41
1.0
 50
0.0
 71
     0
 42
2.5
  3
Monospace
  4

  0
STYLE
  2
VCDSTYLE23
 70
     0
 40
0.0
 41
1.0
 50
0.0
 71
     0
 42
2.5
  3
Monospace
  4

  0
STYLE
  2
VCDSTYLE24
 70
     0
 40
0.0
 41
1.0
 50
0.0
 71
     0
 42
2.5
  3
URW Gothic L
  4

  0
STYLE
  2
VCDSTYLE25
 70
     0
 40
0.0
 41
1.0
 50
0.0
 71
     0
 42
2.5
  3
URW Gothic L
  4

  0
STYLE
  2
VCDSTYLE26
 70
     0
 40
0.0
 41
1.0
 50
0.0
 71
     0
 42
2.5
  3
Waree
  4

  0
STYLE
  2
VCDSTYLE27
 70
     0
 40
0.0
 41
1.0
 50
0.0
 71
     0
 42
2.5
  3
Waree
  4

  0
STYLE
  2
VCDSTYLE28
 70
     0
 40
0.0
 41
1.0
 50
0.0
 71
     0
 42
2.5
  3
Nimbus Mono L
  4

  0
STYLE
  2
VCDSTYLE29
 70
     0
 40
0.0
 41
1.0
 50
0.0
 71
     0
 42
2.5
  3
Nimbus Sans L
  4

  0
STYLE
  2
VCDSTYLE30
 70
     0
 40
0.0
 41
1.0
 50
0.0
 71
     0
 42
2.5
  3
Nimbus Sans L
  4

  0
STYLE
  2
VCDSTYLE31
 70
     0
 40
0.0
 41
1.0
 50
0.0
 71
     0
 42
2.5
  3
Serif
  4

  0
STYLE
  2
VCDSTYLE32
 70
     0
 40
0.0
 41
1.0
 50
0.0
 71
     0
 42
2.5
  3
Serif
  4

  0
ENDTAB
  0
TABLE
  2
VIEW
 70
     0
  0
ENDTAB
  0
TABLE
  2
UCS
 70
     0
  0
ENDTAB
  0
TABLE
  2
APPID
 70
     7
  0
APPID
  2
ACAD
 70
     0
  0
APPID
  2
MCS_DIM1
 70
     0
  0
APPID
  2
MCSXDATA5
 70
     0
  0
APPID
  2
MCS_DOCUMENT_ID
 70
     0
  0
APPID
  2
MCS_PARAMS_DATA
 70
     0
  0
APPID
  2
MC_VERSION_DATA
 70
     0
  0
APPID
  2
ACAD_PSEXT
 70
     0
  0
ENDTAB
  0
TABLE
  2
DIMSTYLE
 70
     1
  0
DIMSTYLE
  2
ISO-25
 70
     0
  3

  4

  5

  6

  7

 40
1.0
 41
2.5
 42
0.625
 43
3.75
 44
1.25
 45
1.0
 46
0.0
 47
0.0
 48
0.0
140
2.5
141
2.5
142
0.0
143
0.03937
144
1.0
145
0.0
146
1.0
147
0.625
 71
     0
 72
     0
 73
     0
 74
     0
 75
     0
 76
     0
 77
     1
 78
     8
170
     0
171
     3
172
     1
173
     0
174
     0
175
     0
176
     0
177
     0
178
     0
  0
ENDTAB
  0
ENDSEC
  0
SECTION
  2
BLOCKS
  0
BLOCK
  8
0
  2
$MODEL_SPACE
 70
     0
 10
0.0
 20
0.0
 30
0.0
  3
$MODEL_SPACE
  1

  0
ENDBLK
  5
57
  8
0
  0
BLOCK
 67
     1
  8
0
  2
$PAPER_SPACE
 70
     0
 10
0.0
 20
0.0
 30
0.0
  3
$PAPER_SPACE
  1

  0
ENDBLK
  5
59
 67
     1
  8
0
  0
BLOCK
  8
DIMENSION
  2
*D0
 70
     1
 10
0.0
 20
0.0
 30
0.0
  3
*D0
  1

  0
LINE
  5
5C
  8
DIMENSION
 62
     0
 10
0.0
 20
-374.915871
 30
0.0
 11
0.0
 21
-374.290871
 31
0.0
  0
LINE
  5
5D
  8
DIMENSION
 62
     0
 10
0.0
 20
-374.915871
 30
0.0
 11
0.0
 21
-374.290871
 31
0.0
  0
LINE
  5
5E
  8
DIMENSION
 62
     0
 10
2.5
 20
-375.540871
 30
0.0
 11
7.5
 21
-375.540871
 31
0.0
  0
LINE
  5
5F
  8
DIMENSION
 62
     0
 10
0.0
 20
-375.540871
 30
0.0
 11
0.0
 21
-375.540871
 31
0.0
  0
LINE
  5
60
  8
DIMENSION
 62
     0
 10
-2.5
 20
-375.540871
 30
0.0
 11
-5.0
 21
-375.540871
 31
0.0
  0
SOLID
  5
61
  8
DIMENSION
 62
     0
 10
-2.5
 20
-375.957538
 30
0.0
 11
-2.5
 21
-375.124204
 31
0.0
 12
0.0
 22
-375.540871
 32
0.0
 13
0.0
 23
-375.540871
 33
0.0
  0
SOLID
  5
62
  8
DIMENSION
 62
     0
 10
2.5
 20
-375.124204
 30
0.0
 11
2.5
 21
-375.957538
 31
0.0
 12
0.0
 22
-375.540871
 32
0.0
 13
0.0
 23
-375.540871
 33
0.0
  0
TEXT
  5
63
  8
DIMENSION
  6
CONTINUOUS
 62
     0
 10
5.625
 20
-374.915871
 30
0.0
 40
2.5
  1
0
  0
POINT
  5
1365
  8
DEFPOINTS
 62
     0
 10
0.0
 20
-375.540871
 30
0.0
  0
POINT
  5
1366
  8
DEFPOINTS
 62
     0
 10
0.0
 20
-375.540871
 30
0.0
  0
POINT
  5
1367
  8
DEFPOINTS
 62
     0
 10
0.0
 20
-375.540871
 30
0.0
  0
ENDBLK
  5
64
  8
DIMENSION
  0
BLOCK
  8
DIMENSION
  2
*D1
 70
     1
 10
0.0
 20
0.0
 30
0.0
  3
*D1
  1

  0
LINE
  5
67
  8
DIMENSION
 62
     0
 10
0.0
 20
0.625
 30
0.0
 11
0.0
 21
1.25
 31
0.0
  0
LINE
  5
68
  8
DIMENSION
 62
     0
 10
0.0
 20
0.625
 30
0.0
 11
0.0
 21
1.25
 31
0.0
  0
LINE
  5
69
  8
DIMENSION
 62
     0
 10
2.5
 20
0.0
 30
0.0
 11
7.5
 21
0.0
 31
0.0
  0
LINE
  5
6A
  8
DIMENSION
 62
     0
 10
0.0
 20
0.0
 30
0.0
 11
0.0
 21
0.0
 31
0.0
  0
LINE
  5
6B
  8
DIMENSION
 62
     0
 10
-2.5
 20
0.0
 30
0.0
 11
-5.0
 21
0.0
 31
0.0
  0
SOLID
  5
6C
  8
DIMENSION
 62
     0
 10
-2.5
 20
-0.416667
 30
0.0
 11
-2.5
 21
0.416667
 31
0.0
 12
0.0
 22
0.0
 32
0.0
 13
0.0
 23
0.0
 33
0.0
  0
SOLID
  5
6D
  8
DIMENSION
 62
     0
 10
2.5
 20
0.416667
 30
0.0
 11
2.5
 21
-0.416667
 31
0.0
 12
0.0
 22
0.0
 32
0.0
 13
0.0
 23
0.0
 33
0.0
  0
TEXT
  5
6E
  8
DIMENSION
  6
CONTINUOUS
 62
     0
 10
5.625
 20
0.625
 30
0.0
 40
2.5
  1
0
  0
POINT
  5
1373
  8
DEFPOINTS
 62
     0
 10
0.0
 20
0.0
 30
0.0
  0
POINT
  5
1374
  8
DEFPOINTS
 62
     0
 10
0.0
 20
0.0
 30
0.0
  0
POINT
  5
1375
  8
DEFPOINTS
 62
     0
 10
0.0
 20
0.0
 30
0.0
  0
ENDBLK
  5
6F
  8
DIMENSION
  0
BLOCK
  8
DIMENSION
  2
*D2
 70
     1
 10
0.0
 20
0.0
 30
0.0
  3
*D2
  1

  0
LINE
  5
72
  8
DIMENSION
 62
     0
 10
0.0
 20
0.625
 30
0.0
 11
0.0
 21
1.25
 31
0.0
  0
LINE
  5
73
  8
DIMENSION
 62
     0
 10
0.0
 20
0.625
 30
0.0
 11
0.0
 21
1.25
 31
0.0
  0
LINE
  5
74
  8
DIMENSION
 62
     0
 10
2.5
 20
0.0
 30
0.0
 11
7.5
 21
0.0
 31
0.0
  0
LINE
  5
75
  8
DIMENSION
 62
     0
 10
0.0
 20
0.0
 30
0.0
 11
0.0
 21
0.0
 31
0.0
  0
LINE
  5
76
  8
DIMENSION
 62
     0
 10
-2.5
 20
0.0
 30
0.0
 11
-5.0
 21
0.0
 31
0.0
  0
SOLID
  5
77
  8
DIMENSION
 62
     0
 10
-2.5
 20
-0.416667
 30
0.0
 11
-2.5
 21
0.416667
 31
0.0
 12
0.0
 22
0.0
 32
0.0
 13
0.0
 23
0.0
 33
0.0
  0
SOLID
  5
78
  8
DIMENSION
 62
     0
 10
2.5
 20
0.416667
 30
0.0
 11
2.5
 21
-0.416667
 31
0.0
 12
0.0
 22
0.0
 32
0.0
 13
0.0
 23
0.0
 33
0.0
  0
TEXT
  5
79
  8
DIMENSION
  6
CONTINUOUS
 62
     0
 10
5.625
 20
0.625
 30
0.0
 40
2.5
  1
0
  0
POINT
  5
7A
  8
DEFPOINTS
 62
     0
 10
0.0
 20
0.0
 30
0.0
  0
POINT
  5
7B
  8
DEFPOINTS
 62
     0
 10
0.0
 20
0.0
 30
0.0
  0
POINT
  5
1372
  8
DEFPOINTS
 62
     0
 10
0.0
 20
0.0
 30
0.0
  0
ENDBLK
  5
7C
  8
DIMENSION
  0
BLOCK
  8
DIMENSION
  2
*D3
 70
     1
 10
0.0
 20
0.0
 30
0.0
  3
*D3
  1

  0
LINE
  5
7F
  8
DIMENSION
 62
     0
 10
0.0
 20
0.625
 30
0.0
 11
0.0
 21
1.25
 31
0.0
  0
LINE
  5
80
  8
DIMENSION
 62
     0
 10
0.0
 20
0.625
 30
0.0
 11
0.0
 21
1.25
 31
0.0
  0
LINE
  5
81
  8
DIMENSION
 62
     0
 10
2.5
 20
0.0
 30
0.0
 11
7.5
 21
0.0
 31
0.0
  0
LINE
  5
82
  8
DIMENSION
 62
     0
 10
0.0
 20
0.0
 30
0.0
 11
0.0
 21
0.0
 31
0.0
  0
LINE
  5
83
  8
DIMENSION
 62
     0
 10
-2.5
 20
0.0
 30
0.0
 11
-5.0
 21
0.0
 31
0.0
  0
SOLID
  5
84
  8
DIMENSION
 62
     0
 10
-2.5
 20
-0.416667
 30
0.0
 11
-2.5
 21
0.416667
 31
0.0
 12
0.0
 22
0.0
 32
0.0
 13
0.0
 23
0.0
 33
0.0
  0
SOLID
  5
85
  8
DIMENSION
 62
     0
 10
2.5
 20
0.416667
 30
0.0
 11
2.5
 21
-0.416667
 31
0.0
 12
0.0
 22
0.0
 32
0.0
 13
0.0
 23
0.0
 33
0.0
  0
TEXT
  5
86
  8
DIMENSION
  6
CONTINUOUS
 62
     0
 10
5.625
 20
0.625
 30
0.0
 40
2.5
  1
0
  0
POINT
  5
136F
  8
DEFPOINTS
 62
     0
 10
0.0
 20
0.0
 30
0.0
  0
POINT
  5
1370
  8
DEFPOINTS
 62
     0
 10
0.0
 20
0.0
 30
0.0
  0
POINT
  5
1371
  8
DEFPOINTS
 62
     0
 10
0.0
 20
0.0
 30
0.0
  0
ENDBLK
  5
87
  8
DIMENSION
  0
BLOCK
  8
0
  2
*D4
 70
     1
 10
0.0
 20
0.0
 30
0.0
  3
*D4
  1

  0
LINE
  5
139F
  8
DIMENSION
 62
     0
 10
-228.076229
 20
-2574.619483
 30
0.0
 11
-228.076229
 21
-2679.555112
 31
0.0
  0
LINE
  5
13A0
  8
DIMENSION
 62
     0
 10
196.787584
 20
-2678.930112
 30
0.0
 11
196.787584
 21
-2679.555112
 31
0.0
  0
LINE
  5
13A1
  8
DIMENSION
 62
     0
 10
-225.576229
 20
-2678.305112
 30
0.0
 11
194.287584
 21
-2678.305112
 31
0.0
  0
SOLID
  5
13A2
  8
DIMENSION
 62
     0
 10
-225.576229
 20
-2677.888445
 30
0.0
 11
-225.576229
 21
-2678.721778
 31
0.0
 12
-228.076229
 22
-2678.305112
 32
0.0
 13
-228.076229
 23
-2678.305112
 33
0.0
  0
SOLID
  5
13A3
  8
DIMENSION
 62
     0
 10
194.287584
 20
-2678.721778
 30
0.0
 11
194.287584
 21
-2677.888445
 31
0.0
 12
196.787584
 22
-2678.305112
 32
0.0
 13
196.787584
 23
-2678.305112
 33
0.0
  0
TEXT
  5
13A4
  8
DIMENSION
  6
CONTINUOUS
 62
     0
 10
-24.394323
 20
-2677.680112
 30
0.0
 40
2.5
  1
424.8638
  0
POINT
  5
13A5
  8
DEFPOINTS
 62
     0
 10
-228.076229
 20
-2573.994483
 30
0.0
  0
POINT
  5
13A6
  8
DEFPOINTS
 62
     0
 10
196.787584
 20
-2678.305112
 30
0.0
  0
POINT
  5
13A7
  8
DEFPOINTS
 62
     0
 10
196.787584
 20
-2678.305112
 30
0.0
  0
ENDBLK
  5
139E
  8
0
  0
BLOCK
  8
0
  2
*D5
 70
     1
 10
0.0
 20
0.0
 30
0.0
  3
*D5
  1

  0
LINE
  5
13B0
  8
DIMENSION
 62
     0
 10
-227.451229
 20
-2937.725176
 30
0.0
 11
293.173771
 21
-2937.725176
 31
0.0
  0
LINE
  5
13B1
  8
DIMENSION
 62
     0
 10
-227.451229
 20
-3639.927486
 30
0.0
 11
293.173771
 21
-3639.927486
 31
0.0
  0
LINE
  5
13B2
  8
DIMENSION
 62
     0
 10
291.923771
 20
-2940.225176
 30
0.0
 11
291.923771
 21
-3637.427486
 31
0.0
  0
SOLID
  5
13B3
  8
DIMENSION
 62
     0
 10
292.340438
 20
-2940.225176
 30
0.0
 11
291.507104
 21
-2940.225176
 31
0.0
 12
291.923771
 22
-2937.725176
 32
0.0
 13
291.923771
 23
-2937.725176
 33
0.0
  0
SOLID
  5
13B4
  8
DIMENSION
 62
     0
 10
291.507104
 20
-3637.427486
 30
0.0
 11
292.340438
 21
-3637.427486
 31
0.0
 12
291.923771
 22
-3639.927486
 32
0.0
 13
291.923771
 23
-3639.927486
 33
0.0
  0
TEXT
  5
13B5
  8
DIMENSION
  6
CONTINUOUS
 62
     0
 10
291.298771
 20
-3297.159665
 30
0.0
 40
2.5
  1
702.2023
 50
90.0
  0
POINT
  5
13B6
  8
DEFPOINTS
 62
     0
 10
-228.076229
 20
-2937.725176
 30
0.0
  0
POINT
  5
13B7
  8
DEFPOINTS
 62
     0
 10
-228.076229
 20
-3639.927486
 30
0.0
  0
POINT
  5
13B8
  8
DEFPOINTS
 62
     0
 10
291.923771
 20
-3639.927486
 30
0.0
  0
ENDBLK
  5
13AF
  8
0
  0
BLOCK
  8
0
  2
*D6
 70
     1
 10
0.0
 20
0.0
 30
0.0
  3
*D6
  1

  0
LINE
  5
13BF
  8
DIMENSION
 62
     0
 10
-228.076229
 20
-3639.302486
 30
0.0
 11
-228.076229
 21
-3638.677486
 31
0.0
  0
LINE
  5
13C0
  8
DIMENSION
 62
     0
 10
318.099836
 20
-3639.302486
 30
0.0
 11
318.099836
 21
-3638.677486
 31
0.0
  0
LINE
  5
13C1
  8
DIMENSION
 62
     0
 10
-225.576229
 20
-3639.927486
 30
0.0
 11
315.599836
 21
-3639.927486
 31
0.0
  0
SOLID
  5
13C2
  8
DIMENSION
 62
     0
 10
-225.576229
 20
-3639.51082
 30
0.0
 11
-225.576229
 21
-3640.344153
 31
0.0
 12
-228.076229
 22
-3639.927486
 32
0.0
 13
-228.076229
 23
-3639.927486
 33
0.0
  0
SOLID
  5
13C3
  8
DIMENSION
 62
     0
 10
315.599836
 20
-3640.344153
 30
0.0
 11
315.599836
 21
-3639.51082
 31
0.0
 12
318.099836
 22
-3639.927486
 32
0.0
 13
318.099836
 23
-3639.927486
 33
0.0
  0
TEXT
  5
13C4
  8
DIMENSION
  6
CONTINUOUS
 62
     0
 10
37.095137
 20
-3639.302486
 30
0.0
 40
2.5
  1
546.1761
  0
POINT
  5
13C5
  8
DEFPOINTS
 62
     0
 10
-228.076229
 20
-3639.927486
 30
0.0
  0
POINT
  5
13C6
  8
DEFPOINTS
 62
     0
 10
318.099836
 20
-3639.927486
 30
0.0
  0
POINT
  5
13C7
  8
DEFPOINTS
 62
     0
 10
318.099836
 20
-3639.927486
 30
0.0
  0
ENDBLK
  5
13BE
  8
0
  0
BLOCK
  8
0
  2
*D7
 70
     1
 10
0.0
 20
0.0
 30
0.0
  3
*D7
  1

  0
LINE
  5
13D0
  8
DIMENSION
 62
     0
 10
318.099836
 20
-3639.927486
 30
0.0
 11
313.933169
 21
-3639.927486
 31
0.0
  0
LINE
  5
13D1
  8
DIMENSION
 62
     0
 10
-227.451229
 20
-3639.927486
 30
0.0
 11
319.349836
 21
-3639.927486
 31
0.0
  0
LINE
  5
13D2
  8
DIMENSION
 62
     0
 10
318.099836
 20
-3639.302486
 30
0.0
 11
318.099836
 21
-3638.677486
 31
0.0
  0
ARC
  5
13D3
  8
DIMENSION
 62
     0
 10
318.099836
 20
-3639.927486
 30
0.0
 40
0.0
 50
0.0
 51
180.0
  0
ARC
  5
13D4
  8
DIMENSION
 62
     0
 10
318.099836
 20
-3639.927486
 30
0.0
 40
0.0
 50
180.0
 51
0.0
  0
ARC
  5
13D5
  8
DIMENSION
 62
     0
 10
318.099836
 20
-3639.927486
 30
0.0
 40
0.0
 50
0.0
 51
0.0
  0
SOLID
  5
13D6
  8
DIMENSION
 62
     0
 10
318.516503
 20
-3642.427486
 30
0.0
 11
317.683169
 21
-3642.427486
 31
0.0
 12
318.099836
 22
-3639.927486
 32
0.0
 13
318.099836
 23
-3639.927486
 33
0.0
  0
SOLID
  5
13D7
  8
DIMENSION
 62
     0
 10
318.516503
 20
-3642.427486
 30
0.0
 11
317.683169
 21
-3642.427486
 31
0.0
 12
318.099836
 22
-3639.927486
 32
0.0
 13
318.099836
 23
-3639.927486
 33
0.0
  0
TEXT
  5
13D8
  8
DIMENSION
  6
CONTINUOUS
 62
     0
 10
314.558169
 20
-3639.302486
 30
0.0
 40
2.5
  1
0°
  0
POINT
  5
13D9
  8
DEFPOINTS
 62
     0
 10
318.099836
 20
-3639.927486
 30
0.0
  0
POINT
  5
13DA
  8
DEFPOINTS
 62
     0
 10
-228.076229
 20
-3639.927486
 30
0.0
  0
POINT
  5
13DB
  8
DEFPOINTS
 62
     0
 10
318.099836
 20
-3639.927486
 30
0.0
  0
POINT
  5
13DC
  8
DEFPOINTS
 62
     0
 10
318.099836
 20
-3639.927486
 30
0.0
  0
ENDBLK
  5
13CF
  8
0
  0
BLOCK
  8
0
  2
*D8
 70
     1
 10
0.0
 20
0.0
 30
0.0
  3
*D8
  1

  0
LINE
  5
13E3
  8
DIMENSION
 62
     0
 10
-228.076229
 20
-3640.552486
 30
0.0
 11
-228.076229
 21
-3686.177486
 31
0.0
  0
LINE
  5
13E4
  8
DIMENSION
 62
     0
 10
318.099836
 20
-3640.552486
 30
0.0
 11
318.099836
 21
-3686.177486
 31
0.0
  0
LINE
  5
13E5
  8
DIMENSION
 62
     0
 10
-225.576229
 20
-3684.927486
 30
0.0
 11
315.599836
 21
-3684.927486
 31
0.0
  0
SOLID
  5
13E6
  8
DIMENSION
 62
     0
 10
-225.576229
 20
-3684.51082
 30
0.0
 11
-225.576229
 21
-3685.344153
 31
0.0
 12
-228.076229
 22
-3684.927486
 32
0.0
 13
-228.076229
 23
-3684.927486
 33
0.0
  0
SOLID
  5
13E7
  8
DIMENSION
 62
     0
 10
315.599836
 20
-3685.344153
 30
0.0
 11
315.599836
 21
-3684.51082
 31
0.0
 12
318.099836
 22
-3684.927486
 32
0.0
 13
318.099836
 23
-3684.927486
 33
0.0
  0
TEXT
  5
13E8
  8
DIMENSION
  6
CONTINUOUS
 62
     0
 10
37.095137
 20
-3684.302486
 30
0.0
 40
2.5
  1
546.1761
  0
POINT
  5
13E9
  8
DEFPOINTS
 62
     0
 10
-228.076229
 20
-3639.927486
 30
0.0
  0
POINT
  5
13EA
  8
DEFPOINTS
 62
     0
 10
318.099836
 20
-3639.927486
 30
0.0
  0
POINT
  5
13EB
  8
DEFPOINTS
 62
     0
 10
318.099836
 20
-3684.927486
 30
0.0
  0
ENDBLK
  5
13E2
  8
0
  0
BLOCK
  8
0
  2
*D9
 70
     1
 10
0.0
 20
0.0
 30
0.0
  3
*D9
  1

  0
LINE
  5
13F4
  8
DIMENSION
 62
     0
 10
-228.076229
 20
-3639.302486
 30
0.0
 11
-228.076229
 21
-3638.677486
 31
0.0
  0
LINE
  5
13F5
  8
DIMENSION
 62
     0
 10
318.099836
 20
-3639.302486
 30
0.0
 11
318.099836
 21
-3638.677486
 31
0.0
  0
LINE
  5
13F6
  8
DIMENSION
 62
     0
 10
-225.576229
 20
-3639.927486
 30
0.0
 11
315.599836
 21
-3639.927486
 31
0.0
  0
SOLID
  5
13F7
  8
DIMENSION
 62
     0
 10
-225.576229
 20
-3639.51082
 30
0.0
 11
-225.576229
 21
-3640.344153
 31
0.0
 12
-228.076229
 22
-3639.927486
 32
0.0
 13
-228.076229
 23
-3639.927486
 33
0.0
  0
SOLID
  5
13F8
  8
DIMENSION
 62
     0
 10
315.599836
 20
-3640.344153
 30
0.0
 11
315.599836
 21
-3639.51082
 31
0.0
 12
318.099836
 22
-3639.927486
 32
0.0
 13
318.099836
 23
-3639.927486
 33
0.0
  0
TEXT
  5
13F9
  8
DIMENSION
  6
CONTINUOUS
 62
     0
 10
34.386803
 20
-3639.302486
 30
0.0
 40
2.5
  1
54617.6065
  0
POINT
  5
13FA
  8
DEFPOINTS
 62
     0
 10
-228.076229
 20
-3639.927486
 30
0.0
  0
POINT
  5
13FB
  8
DEFPOINTS
 62
     0
 10
318.099836
 20
-3639.927486
 30
0.0
  0
POINT
  5
13FC
  8
DEFPOINTS
 62
     0
 10
318.099836
 20
-3639.927486
 30
0.0
  0
ENDBLK
  5
13F3
  8
0
  0
BLOCK
  8
0
  2
*D10
 70
     1
 10
0.0
 20
0.0
 30
0.0
  3
*D10
  1

  0
LINE
  5
1405
  8
DIMENSION
 62
     0
 10
318.099836
 20
-3639.927486
 30
0.0
 11
313.933169
 21
-3639.927486
 31
0.0
  0
LINE
  5
1406
  8
DIMENSION
 62
     0
 10
-227.451229
 20
-3639.927486
 30
0.0
 11
319.349836
 21
-3639.927486
 31
0.0
  0
LINE
  5
1407
  8
DIMENSION
 62
     0
 10
318.099836
 20
-3639.302486
 30
0.0
 11
318.099836
 21
-3638.677486
 31
0.0
  0
ARC
  5
1408
  8
DIMENSION
 62
     0
 10
318.099836
 20
-3639.927486
 30
0.0
 40
0.0
 50
0.0
 51
180.0
  0
ARC
  5
1409
  8
DIMENSION
 62
     0
 10
318.099836
 20
-3639.927486
 30
0.0
 40
0.0
 50
180.0
 51
0.0
  0
ARC
  5
140A
  8
DIMENSION
 62
     0
 10
318.099836
 20
-3639.927486
 30
0.0
 40
0.0
 50
0.0
 51
0.0
  0
SOLID
  5
140B
  8
DIMENSION
 62
     0
 10
318.516503
 20
-3642.427486
 30
0.0
 11
317.683169
 21
-3642.427486
 31
0.0
 12
318.099836
 22
-3639.927486
 32
0.0
 13
318.099836
 23
-3639.927486
 33
0.0
  0
SOLID
  5
140C
  8
DIMENSION
 62
     0
 10
318.516503
 20
-3642.427486
 30
0.0
 11
317.683169
 21
-3642.427486
 31
0.0
 12
318.099836
 22
-3639.927486
 32
0.0
 13
318.099836
 23
-3639.927486
 33
0.0
  0
TEXT
  5
140D
  8
DIMENSION
  6
CONTINUOUS
 62
     0
 10
314.558169
 20
-3639.302486
 30
0.0
 40
2.5
  1
0°
  0
POINT
  5
140E
  8
DEFPOINTS
 62
     0
 10
318.099836
 20
-3639.927486
 30
0.0
  0
POINT
  5
140F
  8
DEFPOINTS
 62
     0
 10
-228.076229
 20
-3639.927486
 30
0.0
  0
POINT
  5
1410
  8
DEFPOINTS
 62
     0
 10
318.099836
 20
-3639.927486
 30
0.0
  0
POINT
  5
1411
  8
DEFPOINTS
 62
     0
 10
318.099836
 20
-3639.927486
 30
0.0
  0
ENDBLK
  5
1404
  8
0
  0
BLOCK
  8
0
  2
*D11
 70
     1
 10
0.0
 20
0.0
 30
0.0
  3
*D11
  1

  0
LINE
  5
1418
  8
DIMENSION
 62
     0
 10
-228.076229
 20
-3639.302486
 30
0.0
 11
-228.076229
 21
-3638.677486
 31
0.0
  0
LINE
  5
1419
  8
DIMENSION
 62
     0
 10
318.099836
 20
-3639.302486
 30
0.0
 11
318.099836
 21
-3638.677486
 31
0.0
  0
LINE
  5
141A
  8
DIMENSION
 62
     0
 10
-225.576229
 20
-3639.927486
 30
0.0
 11
315.599836
 21
-3639.927486
 31
0.0
  0
SOLID
  5
141B
  8
DIMENSION
 62
     0
 10
-225.576229
 20
-3639.51082
 30
0.0
 11
-225.576229
 21
-3640.344153
 31
0.0
 12
-228.076229
 22
-3639.927486
 32
0.0
 13
-228.076229
 23
-3639.927486
 33
0.0
  0
SOLID
  5
141C
  8
DIMENSION
 62
     0
 10
315.599836
 20
-3640.344153
 30
0.0
 11
315.599836
 21
-3639.51082
 31
0.0
 12
318.099836
 22
-3639.927486
 32
0.0
 13
318.099836
 23
-3639.927486
 33
0.0
  0
TEXT
  5
141D
  8
DIMENSION
  6
CONTINUOUS
 62
     0
 10
34.386803
 20
-3639.302486
 30
0.0
 40
2.5
  1
54617.6065
  0
POINT
  5
141E
  8
DEFPOINTS
 62
     0
 10
-228.076229
 20
-3639.927486
 30
0.0
  0
POINT
  5
141F
  8
DEFPOINTS
 62
     0
 10
318.099836
 20
-3639.927486
 30
0.0
  0
POINT
  5
1420
  8
DEFPOINTS
 62
     0
 10
318.099836
 20
-3639.927486
 30
0.0
  0
ENDBLK
  5
1417
  8
0
  0
BLOCK
  8
0
  2
*D12
 70
     1
 10
0.0
 20
0.0
 30
0.0
  3
*D12
  1

  0
LINE
  5
1429
  8
DIMENSION
 62
     0
 10
-228.076229
 20
-3702.427486
 30
0.0
 11
-228.076229
 21
-3989.556552
 31
0.0
  0
LINE
  5
142A
  8
DIMENSION
 62
     0
 10
673.212216
 20
-3927.056552
 30
0.0
 11
673.212216
 21
-3989.556552
 31
0.0
  0
LINE
  5
142B
  8
DIMENSION
 62
     0
 10
673.212216
 20
-3864.556552
 30
0.0
 11
2673.212216
 21
-3864.556552
 31
0.0
  0
LINE
  5
142C
  8
DIMENSION
 62
     0
 10
21.923771
 20
-3864.556552
 30
0.0
 11
423.212216
 21
-3864.556552
 31
0.0
  0
SOLID
  5
142D
  8
DIMENSION
 62
     0
 10
21.923771
 20
-3822.889886
 30
0.0
 11
21.923771
 21
-3906.223219
 31
0.0
 12
-228.076229
 22
-3864.556552
 32
0.0
 13
-228.076229
 23
-3864.556552
 33
0.0
  0
SOLID
  5
142E
  8
DIMENSION
 62
     0
 10
423.212216
 20
-3906.223219
 30
0.0
 11
423.212216
 21
-3822.889886
 31
0.0
 12
673.212216
 22
-3864.556552
 32
0.0
 13
673.212216
 23
-3864.556552
 33
0.0
  0
TEXT
  5
142F
  8
DIMENSION
  6
CONTINUOUS
 62
     0
 10
985.712216
 20
-3802.056552
 30
0.0
 40
250.0
  1
901.2884
  0
POINT
  5
1430
  8
DEFPOINTS
 62
     0
 10
-228.076229
 20
-3639.927486
 30
0.0
  0
POINT
  5
1431
  8
DEFPOINTS
 62
     0
 10
673.212216
 20
-3864.556552
 30
0.0
  0
POINT
  5
1434
  8
DEFPOINTS
 62
     0
 10
673.212216
 20
-3864.556552
 30
0.0
  0
ENDBLK
  5
1428
  8
0
  0
BLOCK
  8
0
  2
*D13
 70
     1
 10
0.0
 20
0.0
 30
0.0
  3
*D13
  1

  0
LINE
  5
143A
  8
DIMENSION
 62
     0
 10
-228.076229
 20
-3633.677486
 30
0.0
 11
-228.076229
 21
-3627.427486
 31
0.0
  0
LINE
  5
143B
  8
DIMENSION
 62
     0
 10
318.099836
 20
-3633.677486
 30
0.0
 11
318.099836
 21
-3627.427486
 31
0.0
  0
LINE
  5
143C
  8
DIMENSION
 62
     0
 10
-203.076229
 20
-3639.927486
 30
0.0
 11
293.099836
 21
-3639.927486
 31
0.0
  0
SOLID
  5
143D
  8
DIMENSION
 62
     0
 10
-203.076229
 20
-3635.76082
 30
0.0
 11
-203.076229
 21
-3644.094153
 31
0.0
 12
-228.076229
 22
-3639.927486
 32
0.0
 13
-228.076229
 23
-3639.927486
 33
0.0
  0
SOLID
  5
143E
  8
DIMENSION
 62
     0
 10
293.099836
 20
-3644.094153
 30
0.0
 11
293.099836
 21
-3635.76082
 31
0.0
 12
318.099836
 22
-3639.927486
 32
0.0
 13
318.099836
 23
-3639.927486
 33
0.0
  0
TEXT
  5
143F
  8
DIMENSION
  6
CONTINUOUS
 62
     0
 10
-34.154863
 20
-3633.677486
 30
0.0
 40
25.0
  1
546.1761
  0
POINT
  5
1440
  8
DEFPOINTS
 62
     0
 10
-228.076229
 20
-3639.927486
 30
0.0
  0
POINT
  5
1441
  8
DEFPOINTS
 62
     0
 10
318.099836
 20
-3639.927486
 30
0.0
  0
POINT
  5
1442
  8
DEFPOINTS
 62
     0
 10
318.099836
 20
-3639.927486
 30
0.0
  0
ENDBLK
  5
1439
  8
0
  0
BLOCK
  8
0
  2
*D14
 70
     1
 10
0.0
 20
0.0
 30
0.0
  3
*D14
  1

  0
LINE
  5
144B
  8
DIMENSION
 62
     0
 10
318.099836
 20
-3639.927486
 30
0.0
 11
276.433169
 21
-3639.927486
 31
0.0
  0
LINE
  5
144C
  8
DIMENSION
 62
     0
 10
-221.826229
 20
-3639.927486
 30
0.0
 11
330.599836
 21
-3639.927486
 31
0.0
  0
LINE
  5
144D
  8
DIMENSION
 62
     0
 10
318.099836
 20
-3633.677486
 30
0.0
 11
318.099836
 21
-3627.427486
 31
0.0
  0
ARC
  5
144E
  8
DIMENSION
 62
     0
 10
318.099836
 20
-3639.927486
 30
0.0
 40
0.0
 50
0.0
 51
180.0
  0
ARC
  5
144F
  8
DIMENSION
 62
     0
 10
318.099836
 20
-3639.927486
 30
0.0
 40
0.0
 50
180.0
 51
0.0
  0
ARC
  5
1450
  8
DIMENSION
 62
     0
 10
318.099836
 20
-3639.927486
 30
0.0
 40
0.0
 50
0.0
 51
0.0
  0
SOLID
  5
1451
  8
DIMENSION
 62
     0
 10
322.266503
 20
-3664.927486
 30
0.0
 11
313.933169
 21
-3664.927486
 31
0.0
 12
318.099836
 22
-3639.927486
 32
0.0
 13
318.099836
 23
-3639.927486
 33
0.0
  0
SOLID
  5
1452
  8
DIMENSION
 62
     0
 10
322.266503
 20
-3664.927486
 30
0.0
 11
313.933169
 21
-3664.927486
 31
0.0
 12
318.099836
 22
-3639.927486
 32
0.0
 13
318.099836
 23
-3639.927486
 33
0.0
  0
TEXT
  5
1453
  8
DIMENSION
  6
CONTINUOUS
 62
     0
 10
282.683169
 20
-3633.677486
 30
0.0
 40
25.0
  1
0°
  0
POINT
  5
1454
  8
DEFPOINTS
 62
     0
 10
318.099836
 20
-3639.927486
 30
0.0
  0
POINT
  5
1455
  8
DEFPOINTS
 62
     0
 10
-228.076229
 20
-3639.927486
 30
0.0
  0
POINT
  5
1456
  8
DEFPOINTS
 62
     0
 10
318.099836
 20
-3639.927486
 30
0.0
  0
POINT
  5
1457
  8
DEFPOINTS
 62
     0
 10
318.099836
 20
-3639.927486
 30
0.0
  0
ENDBLK
  5
144A
  8
0
  0
BLOCK
  8
0
  2
*D15
 70
     1
 10
0.0
 20
0.0
 30
0.0
  3
*D15
  1

  0
LINE
  5
145E
  8
DIMENSION
 62
     0
 10
-228.076229
 20
-3739.809782
 30
0.0
 11
-228.076229
 21
-3733.559782
 31
0.0
  0
LINE
  5
145F
  8
DIMENSION
 62
     0
 10
318.099836
 20
-3646.177486
 30
0.0
 11
318.099836
 21
-3758.559782
 31
0.0
  0
LINE
  5
1460
  8
DIMENSION
 62
     0
 10
-203.076229
 20
-3746.059782
 30
0.0
 11
293.099836
 21
-3746.059782
 31
0.0
  0
SOLID
  5
1461
  8
DIMENSION
 62
     0
 10
-203.076229
 20
-3741.893116
 30
0.0
 11
-203.076229
 21
-3750.226449
 31
0.0
 12
-228.076229
 22
-3746.059782
 32
0.0
 13
-228.076229
 23
-3746.059782
 33
0.0
  0
SOLID
  5
1462
  8
DIMENSION
 62
     0
 10
293.099836
 20
-3750.226449
 30
0.0
 11
293.099836
 21
-3741.893116
 31
0.0
 12
318.099836
 22
-3746.059782
 32
0.0
 13
318.099836
 23
-3746.059782
 33
0.0
  0
TEXT
  5
1463
  8
DIMENSION
  6
CONTINUOUS
 62
     0
 10
11.67847
 20
-3739.809782
 30
0.0
 40
25.0
  1
546
  0
POINT
  5
1464
  8
DEFPOINTS
 62
     0
 10
-228.076229
 20
-3746.059782
 30
0.0
  0
POINT
  5
1465
  8
DEFPOINTS
 62
     0
 10
318.099836
 20
-3639.927486
 30
0.0
  0
POINT
  5
1466
  8
DEFPOINTS
 62
     0
 10
318.099836
 20
-3746.059782
 30
0.0
  0
ENDBLK
  5
145D
  8
0
  0
BLOCK
  8
0
  2
*D16
 70
     1
 10
0.0
 20
0.0
 30
0.0
  3
*D16
  1

  0
LINE
  5
1473
  8
DIMENSION
 62
     0
 10
-228.076229
 20
-3633.677486
 30
0.0
 11
-228.076229
 21
-3627.427486
 31
0.0
  0
LINE
  5
1474
  8
DIMENSION
 62
     0
 10
318.099836
 20
-3633.677486
 30
0.0
 11
318.099836
 21
-3627.427486
 31
0.0
  0
LINE
  5
1475
  8
DIMENSION
 62
     0
 10
-203.076229
 20
-3639.927486
 30
0.0
 11
293.099836
 21
-3639.927486
 31
0.0
  0
SOLID
  5
1476
  8
DIMENSION
 62
     0
 10
-203.076229
 20
-3635.76082
 30
0.0
 11
-203.076229
 21
-3644.094153
 31
0.0
 12
-228.076229
 22
-3639.927486
 32
0.0
 13
-228.076229
 23
-3639.927486
 33
0.0
  0
SOLID
  5
1477
  8
DIMENSION
 62
     0
 10
293.099836
 20
-3644.094153
 30
0.0
 11
293.099836
 21
-3635.76082
 31
0.0
 12
318.099836
 22
-3639.927486
 32
0.0
 13
318.099836
 23
-3639.927486
 33
0.0
  0
TEXT
  5
1478
  8
DIMENSION
  6
CONTINUOUS
 62
     0
 10
11.67847
 20
-3633.677486
 30
0.0
 40
25.0
  1
546
  0
POINT
  5
1479
  8
DEFPOINTS
 62
     0
 10
-228.076229
 20
-3639.927486
 30
0.0
  0
POINT
  5
147A
  8
DEFPOINTS
 62
     0
 10
318.099836
 20
-3639.927486
 30
0.0
  0
POINT
  5
147B
  8
DEFPOINTS
 62
     0
 10
318.099836
 20
-3639.927486
 30
0.0
  0
ENDBLK
  5
1472
  8
0
  0
BLOCK
  8
0
  2
*D17
 70
     1
 10
0.0
 20
0.0
 30
0.0
  3
*D17
  1

  0
LINE
  5
1484
  8
DIMENSION
 62
     0
 10
318.099836
 20
-3639.927486
 30
0.0
 11
276.433169
 21
-3639.927486
 31
0.0
  0
LINE
  5
1485
  8
DIMENSION
 62
     0
 10
-221.826229
 20
-3639.927486
 30
0.0
 11
330.599836
 21
-3639.927486
 31
0.0
  0
LINE
  5
1486
  8
DIMENSION
 62
     0
 10
318.099836
 20
-3633.677486
 30
0.0
 11
318.099836
 21
-3627.427486
 31
0.0
  0
ARC
  5
1487
  8
DIMENSION
 62
     0
 10
318.099836
 20
-3639.927486
 30
0.0
 40
0.0
 50
0.0
 51
180.0
  0
ARC
  5
1488
  8
DIMENSION
 62
     0
 10
318.099836
 20
-3639.927486
 30
0.0
 40
0.0
 50
180.0
 51
0.0
  0
ARC
  5
1489
  8
DIMENSION
 62
     0
 10
318.099836
 20
-3639.927486
 30
0.0
 40
0.0
 50
0.0
 51
0.0
  0
SOLID
  5
148A
  8
DIMENSION
 62
     0
 10
322.266503
 20
-3664.927486
 30
0.0
 11
313.933169
 21
-3664.927486
 31
0.0
 12
318.099836
 22
-3639.927486
 32
0.0
 13
318.099836
 23
-3639.927486
 33
0.0
  0
SOLID
  5
148B
  8
DIMENSION
 62
     0
 10
322.266503
 20
-3664.927486
 30
0.0
 11
313.933169
 21
-3664.927486
 31
0.0
 12
318.099836
 22
-3639.927486
 32
0.0
 13
318.099836
 23
-3639.927486
 33
0.0
  0
TEXT
  5
148C
  8
DIMENSION
  6
CONTINUOUS
 62
     0
 10
282.683169
 20
-3633.677486
 30
0.0
 40
25.0
  1
0°
  0
POINT
  5
148D
  8
DEFPOINTS
 62
     0
 10
318.099836
 20
-3639.927486
 30
0.0
  0
POINT
  5
148E
  8
DEFPOINTS
 62
     0
 10
-228.076229
 20
-3639.927486
 30
0.0
  0
POINT
  5
148F
  8
DEFPOINTS
 62
     0
 10
318.099836
 20
-3639.927486
 30
0.0
  0
POINT
  5
1490
  8
DEFPOINTS
 62
     0
 10
318.099836
 20
-3639.927486
 30
0.0
  0
ENDBLK
  5
1483
  8
0
  0
BLOCK
  8
0
  2
*D18
 70
     1
 10
0.0
 20
0.0
 30
0.0
  3
*D18
  1

  0
LINE
  5
1497
  8
DIMENSION
 62
     0
 10
-228.076229
 20
-3646.177486
 30
0.0
 11
-228.076229
 21
-3702.427486
 31
0.0
  0
LINE
  5
1498
  8
DIMENSION
 62
     0
 10
318.099836
 20
-3646.177486
 30
0.0
 11
318.099836
 21
-3702.427486
 31
0.0
  0
LINE
  5
1499
  8
DIMENSION
 62
     0
 10
-203.076229
 20
-3689.927486
 30
0.0
 11
293.099836
 21
-3689.927486
 31
0.0
  0
SOLID
  5
149A
  8
DIMENSION
 62
     0
 10
-203.076229
 20
-3685.76082
 30
0.0
 11
-203.076229
 21
-3694.094153
 31
0.0
 12
-228.076229
 22
-3689.927486
 32
0.0
 13
-228.076229
 23
-3689.927486
 33
0.0
  0
SOLID
  5
149B
  8
DIMENSION
 62
     0
 10
293.099836
 20
-3694.094153
 30
0.0
 11
293.099836
 21
-3685.76082
 31
0.0
 12
318.099836
 22
-3689.927486
 32
0.0
 13
318.099836
 23
-3689.927486
 33
0.0
  0
TEXT
  5
149C
  8
DIMENSION
  6
CONTINUOUS
 62
     0
 10
11.67847
 20
-3683.677486
 30
0.0
 40
25.0
  1
546
  0
POINT
  5
149D
  8
DEFPOINTS
 62
     0
 10
-228.076229
 20
-3639.927486
 30
0.0
  0
POINT
  5
149E
  8
DEFPOINTS
 62
     0
 10
318.099836
 20
-3639.927486
 30
0.0
  0
POINT
  5
149F
  8
DEFPOINTS
 62
     0
 10
318.099836
 20
-3689.927486
 30
0.0
  0
ENDBLK
  5
1496
  8
0
  0
BLOCK
  8
0
  2
*D19
 70
     1
 10
0.0
 20
0.0
 30
0.0
  3
*D19
  1

  0
LINE
  5
14A8
  8
DIMENSION
 62
     0
 10
-110.964639
 20
-3242.10204
 30
0.0
 11
-110.964639
 21
-3235.85204
 31
0.0
  0
LINE
  5
14A9
  8
DIMENSION
 62
     0
 10
318.099836
 20
-3242.10204
 30
0.0
 11
318.099836
 21
-3235.85204
 31
0.0
  0
LINE
  5
14AA
  8
DIMENSION
 62
     0
 10
-85.964639
 20
-3248.35204
 30
0.0
 11
293.099836
 21
-3248.35204
 31
0.0
  0
SOLID
  5
14AB
  8
DIMENSION
 62
     0
 10
-85.964639
 20
-3244.185374
 30
0.0
 11
-85.964639
 21
-3252.518707
 31
0.0
 12
-110.964639
 22
-3248.35204
 32
0.0
 13
-110.964639
 23
-3248.35204
 33
0.0
  0
SOLID
  5
14AC
  8
DIMENSION
 62
     0
 10
293.099836
 20
-3252.518707
 30
0.0
 11
293.099836
 21
-3244.185374
 31
0.0
 12
318.099836
 22
-3248.35204
 32
0.0
 13
318.099836
 23
-3248.35204
 33
0.0
  0
TEXT
  5
14AD
  8
DIMENSION
  6
CONTINUOUS
 62
     0
 10
70.234265
 20
-3242.10204
 30
0.0
 40
25.0
  1
429
  0
POINT
  5
14AE
  8
DEFPOINTS
 62
     0
 10
-110.964639
 20
-3248.35204
 30
0.0
  0
POINT
  5
14AF
  8
DEFPOINTS
 62
     0
 10
318.099836
 20
-3248.35204
 30
0.0
  0
POINT
  5
14B0
  8
DEFPOINTS
 62
     0
 10
318.099836
 20
-3248.35204
 30
0.0
  0
ENDBLK
  5
14A7
  8
0
  0
BLOCK
  8
0
  2
*D20
 70
     1
 10
0.0
 20
0.0
 30
0.0
  3
*D20
  1

  0
LINE
  5
14B9
  8
DIMENSION
 62
     0
 10
318.099836
 20
-3248.35204
 30
0.0
 11
276.433169
 21
-3248.35204
 31
0.0
  0
LINE
  5
14BA
  8
DIMENSION
 62
     0
 10
-104.714639
 20
-3248.35204
 30
0.0
 11
330.599836
 21
-3248.35204
 31
0.0
  0
LINE
  5
14BB
  8
DIMENSION
 62
     0
 10
318.099836
 20
-3242.10204
 30
0.0
 11
318.099836
 21
-3235.85204
 31
0.0
  0
ARC
  5
14BC
  8
DIMENSION
 62
     0
 10
318.099836
 20
-3248.35204
 30
0.0
 40
0.0
 50
0.0
 51
180.0
  0
ARC
  5
14BD
  8
DIMENSION
 62
     0
 10
318.099836
 20
-3248.35204
 30
0.0
 40
0.0
 50
180.0
 51
0.0
  0
ARC
  5
14BE
  8
DIMENSION
 62
     0
 10
318.099836
 20
-3248.35204
 30
0.0
 40
0.0
 50
0.0
 51
0.0
  0
SOLID
  5
14BF
  8
DIMENSION
 62
     0
 10
322.266503
 20
-3273.35204
 30
0.0
 11
313.933169
 21
-3273.35204
 31
0.0
 12
318.099836
 22
-3248.35204
 32
0.0
 13
318.099836
 23
-3248.35204
 33
0.0
  0
SOLID
  5
14C0
  8
DIMENSION
 62
     0
 10
322.266503
 20
-3273.35204
 30
0.0
 11
313.933169
 21
-3273.35204
 31
0.0
 12
318.099836
 22
-3248.35204
 32
0.0
 13
318.099836
 23
-3248.35204
 33
0.0
  0
TEXT
  5
14C1
  8
DIMENSION
  6
CONTINUOUS
 62
     0
 10
282.683169
 20
-3242.10204
 30
0.0
 40
25.0
  1
0°
  0
POINT
  5
14C2
  8
DEFPOINTS
 62
     0
 10
318.099836
 20
-3248.35204
 30
0.0
  0
POINT
  5
14C3
  8
DEFPOINTS
 62
     0
 10
-110.964639
 20
-3248.35204
 30
0.0
  0
POINT
  5
14C4
  8
DEFPOINTS
 62
     0
 10
318.099836
 20
-3248.35204
 30
0.0
  0
POINT
  5
14C5
  8
DEFPOINTS
 62
     0
 10
318.099836
 20
-3248.35204
 30
0.0
  0
ENDBLK
  5
14B8
  8
0
  0
BLOCK
  8
0
  2
*D21
 70
     1
 10
0.0
 20
0.0
 30
0.0
  3
*D21
  1

  0
LINE
  5
14CC
  8
DIMENSION
 62
     0
 10
-110.964639
 20
-3242.10204
 30
0.0
 11
-110.964639
 21
-3185.85204
 31
0.0
  0
LINE
  5
14CD
  8
DIMENSION
 62
     0
 10
318.099836
 20
-3242.10204
 30
0.0
 11
318.099836
 21
-3185.85204
 31
0.0
  0
LINE
  5
14CE
  8
DIMENSION
 62
     0
 10
-85.964639
 20
-3198.35204
 30
0.0
 11
293.099836
 21
-3198.35204
 31
0.0
  0
SOLID
  5
14CF
  8
DIMENSION
 62
     0
 10
-85.964639
 20
-3194.185374
 30
0.0
 11
-85.964639
 21
-3202.518707
 31
0.0
 12
-110.964639
 22
-3198.35204
 32
0.0
 13
-110.964639
 23
-3198.35204
 33
0.0
  0
SOLID
  5
14D0
  8
DIMENSION
 62
     0
 10
293.099836
 20
-3202.518707
 30
0.0
 11
293.099836
 21
-3194.185374
 31
0.0
 12
318.099836
 22
-3198.35204
 32
0.0
 13
318.099836
 23
-3198.35204
 33
0.0
  0
TEXT
  5
14D1
  8
DIMENSION
  6
CONTINUOUS
 62
     0
 10
70.234265
 20
-3192.10204
 30
0.0
 40
25.0
  1
429
  0
POINT
  5
14D2
  8
DEFPOINTS
 62
     0
 10
-110.964639
 20
-3248.35204
 30
0.0
  0
POINT
  5
14D3
  8
DEFPOINTS
 62
     0
 10
318.099836
 20
-3248.35204
 30
0.0
  0
POINT
  5
14D4
  8
DEFPOINTS
 62
     0
 10
318.099836
 20
-3198.35204
 30
0.0
  0
ENDBLK
  5
14CB
  8
0
  0
BLOCK
  8
0
  2
*D22
 70
     1
 10
0.0
 20
0.0
 30
0.0
  3
*D22
  1

  0
LINE
  5
14DD
  8
DIMENSION
 62
     0
 10
-110.964639
 20
-3254.60204
 30
0.0
 11
-110.964639
 21
-3300.85204
 31
0.0
  0
LINE
  5
14DE
  8
DIMENSION
 62
     0
 10
-340.029114
 20
-3294.60204
 30
0.0
 11
-340.029114
 21
-3300.85204
 31
0.0
  0
LINE
  5
14DF
  8
DIMENSION
 62
     0
 10
-135.964639
 20
-3288.35204
 30
0.0
 11
-315.029114
 21
-3288.35204
 31
0.0
  0
SOLID
  5
14E0
  8
DIMENSION
 62
     0
 10
-135.964639
 20
-3292.518707
 30
0.0
 11
-135.964639
 21
-3284.185374
 31
0.0
 12
-110.964639
 22
-3288.35204
 32
0.0
 13
-110.964639
 23
-3288.35204
 33
0.0
  0
SOLID
  5
14E1
  8
DIMENSION
 62
     0
 10
-315.029114
 20
-3284.185374
 30
0.0
 11
-315.029114
 21
-3292.518707
 31
0.0
 12
-340.029114
 22
-3288.35204
 32
0.0
 13
-340.029114
 23
-3288.35204
 33
0.0
  0
TEXT
  5
14E2
  8
DIMENSION
  6
CONTINUOUS
 62
     0
 10
-258.83021
 20
-3282.10204
 30
0.0
 40
25.0
  1
229
  0
POINT
  5
14E3
  8
DEFPOINTS
 62
     0
 10
-110.964639
 20
-3248.35204
 30
0.0
  0
POINT
  5
14E4
  8
DEFPOINTS
 62
     0
 10
-340.029114
 20
-3288.35204
 30
0.0
  0
POINT
  5
14E5
  8
DEFPOINTS
 62
     0
 10
-340.029114
 20
-3288.35204
 30
0.0
  0
ENDBLK
  5
14DC
  8
0
  0
BLOCK
  8
0
  2
*D23
 70
     1
 10
0.0
 20
0.0
 30
0.0
  3
*D23
  1

  0
LINE
  5
14EE
  8
DIMENSION
 62
     0
 10
-340.029114
 20
-3288.35204
 30
0.0
 11
-381.695781
 21
-3288.35204
 31
0.0
  0
LINE
  5
14EF
  8
DIMENSION
 62
     0
 10
-117.121473
 20
-3249.427167
 30
0.0
 11
-352.342782
 21
-3290.502294
 31
0.0
  0
LINE
  5
14F0
  8
DIMENSION
 62
     0
 10
-340.029114
 20
-3282.10204
 30
0.0
 11
-340.029114
 21
-3275.85204
 31
0.0
  0
ARC
  5
14F1
  8
DIMENSION
 62
     0
 10
-340.029114
 20
-3288.35204
 30
0.0
 40
0.0
 50
0.0
 51
180.0
  0
ARC
  5
14F2
  8
DIMENSION
 62
     0
 10
-340.029114
 20
-3288.35204
 30
0.0
 40
0.0
 50
180.0
 51
0.0
  0
ARC
  5
14F3
  8
DIMENSION
 62
     0
 10
-340.029114
 20
-3288.35204
 30
0.0
 40
0.0
 50
0.0
 51
0.0
  0
SOLID
  5
14F4
  8
DIMENSION
 62
     0
 10
-335.862447
 20
-3313.35204
 30
0.0
 11
-344.195781
 21
-3313.35204
 31
0.0
 12
-340.029114
 22
-3288.35204
 32
0.0
 13
-340.029114
 23
-3288.35204
 33
0.0
  0
SOLID
  5
14F5
  8
DIMENSION
 62
     0
 10
-335.862447
 20
-3313.35204
 30
0.0
 11
-344.195781
 21
-3313.35204
 31
0.0
 12
-340.029114
 22
-3288.35204
 32
0.0
 13
-340.029114
 23
-3288.35204
 33
0.0
  0
TEXT
  5
14F6
  8
DIMENSION
  6
CONTINUOUS
 62
     0
 10
-375.445781
 20
-3282.10204
 30
0.0
 40
25.0
  1
0°
  0
POINT
  5
14F7
  8
DEFPOINTS
 62
     0
 10
-340.029114
 20
-3288.35204
 30
0.0
  0
POINT
  5
14F8
  8
DEFPOINTS
 62
     0
 10
-110.964639
 20
-3248.35204
 30
0.0
  0
POINT
  5
14F9
  8
DEFPOINTS
 62
     0
 10
-340.029114
 20
-3288.35204
 30
0.0
  0
POINT
  5
14FA
  8
DEFPOINTS
 62
     0
 10
-340.029114
 20
-3288.35204
 30
0.0
  0
ENDBLK
  5
14ED
  8
0
  0
BLOCK
  8
0
  2
*D24
 70
     1
 10
0.0
 20
0.0
 30
0.0
  3
*D24
  1

  0
LINE
  5
1501
  8
DIMENSION
 62
     0
 10
-110.964639
 20
-3242.10204
 30
0.0
 11
-110.964639
 21
-3185.85204
 31
0.0
  0
LINE
  5
1502
  8
DIMENSION
 62
     0
 10
-340.029114
 20
-3282.10204
 30
0.0
 11
-340.029114
 21
-3185.85204
 31
0.0
  0
LINE
  5
1503
  8
DIMENSION
 62
     0
 10
-135.964639
 20
-3198.35204
 30
0.0
 11
-315.029114
 21
-3198.35204
 31
0.0
  0
SOLID
  5
1504
  8
DIMENSION
 62
     0
 10
-135.964639
 20
-3202.518707
 30
0.0
 11
-135.964639
 21
-3194.185374
 31
0.0
 12
-110.964639
 22
-3198.35204
 32
0.0
 13
-110.964639
 23
-3198.35204
 33
0.0
  0
SOLID
  5
1505
  8
DIMENSION
 62
     0
 10
-315.029114
 20
-3194.185374
 30
0.0
 11
-315.029114
 21
-3202.518707
 31
0.0
 12
-340.029114
 22
-3198.35204
 32
0.0
 13
-340.029114
 23
-3198.35204
 33
0.0
  0
TEXT
  5
1506
  8
DIMENSION
  6
CONTINUOUS
 62
     0
 10
-258.83021
 20
-3192.10204
 30
0.0
 40
25.0
  1
229
  0
POINT
  5
1507
  8
DEFPOINTS
 62
     0
 10
-110.964639
 20
-3248.35204
 30
0.0
  0
POINT
  5
1508
  8
DEFPOINTS
 62
     0
 10
-340.029114
 20
-3288.35204
 30
0.0
  0
POINT
  5
1509
  8
DEFPOINTS
 62
     0
 10
-340.029114
 20
-3198.35204
 30
0.0
  0
ENDBLK
  5
1500
  8
0
  0
BLOCK
  8
0
  2
*D25
 70
     1
 10
0.0
 20
0.0
 30
0.0
  3
*D25
  1

  0
LINE
  5
1512
  8
DIMENSION
 62
     0
 10
-511.22684
 20
-3300.257684
 30
0.0
 11
-511.22684
 21
-3294.007684
 31
0.0
  0
LINE
  5
1513
  8
DIMENSION
 62
     0
 10
-379.370615
 20
-3300.257684
 30
0.0
 11
-379.370615
 21
-3294.007684
 31
0.0
  0
LINE
  5
1514
  8
DIMENSION
 62
     0
 10
-486.22684
 20
-3306.507684
 30
0.0
 11
-404.370615
 21
-3306.507684
 31
0.0
  0
SOLID
  5
1515
  8
DIMENSION
 62
     0
 10
-486.22684
 20
-3302.341018
 30
0.0
 11
-486.22684
 21
-3310.674351
 31
0.0
 12
-511.22684
 22
-3306.507684
 32
0.0
 13
-511.22684
 23
-3306.507684
 33
0.0
  0
SOLID
  5
1516
  8
DIMENSION
 62
     0
 10
-404.370615
 20
-3310.674351
 30
0.0
 11
-404.370615
 21
-3302.341018
 31
0.0
 12
-379.370615
 22
-3306.507684
 32
0.0
 13
-379.370615
 23
-3306.507684
 33
0.0
  0
TEXT
  5
1517
  8
DIMENSION
  6
CONTINUOUS
 62
     0
 10
-474.465394
 20
-3300.257684
 30
0.0
 40
25.0
  1
132
  0
POINT
  5
1518
  8
DEFPOINTS
 62
     0
 10
-511.22684
 20
-3306.507684
 30
0.0
  0
POINT
  5
1519
  8
DEFPOINTS
 62
     0
 10
-379.370615
 20
-3306.507684
 30
0.0
  0
POINT
  5
151A
  8
DEFPOINTS
 62
     0
 10
-379.370615
 20
-3306.507684
 30
0.0
  0
ENDBLK
  5
1511
  8
0
  0
BLOCK
  8
0
  2
*D26
 70
     1
 10
0.0
 20
0.0
 30
0.0
  3
*D26
  1

  0
LINE
  5
1523
  8
DIMENSION
 62
     0
 10
-379.370615
 20
-3306.507684
 30
0.0
 11
-421.037282
 21
-3306.507684
 31
0.0
  0
LINE
  5
1524
  8
DIMENSION
 62
     0
 10
-504.97684
 20
-3306.507684
 30
0.0
 11
-366.870615
 21
-3306.507684
 31
0.0
  0
LINE
  5
1525
  8
DIMENSION
 62
     0
 10
-379.370615
 20
-3300.257684
 30
0.0
 11
-379.370615
 21
-3294.007684
 31
0.0
  0
ARC
  5
1526
  8
DIMENSION
 62
     0
 10
-379.370615
 20
-3306.507684
 30
0.0
 40
0.0
 50
0.0
 51
180.0
  0
ARC
  5
1527
  8
DIMENSION
 62
     0
 10
-379.370615
 20
-3306.507684
 30
0.0
 40
0.0
 50
180.0
 51
0.0
  0
ARC
  5
1528
  8
DIMENSION
 62
     0
 10
-379.370615
 20
-3306.507684
 30
0.0
 40
0.0
 50
0.0
 51
0.0
  0
SOLID
  5
1529
  8
DIMENSION
 62
     0
 10
-375.203948
 20
-3331.507684
 30
0.0
 11
-383.537282
 21
-3331.507684
 31
0.0
 12
-379.370615
 22
-3306.507684
 32
0.0
 13
-379.370615
 23
-3306.507684
 33
0.0
  0
SOLID
  5
152A
  8
DIMENSION
 62
     0
 10
-375.203948
 20
-3331.507684
 30
0.0
 11
-383.537282
 21
-3331.507684
 31
0.0
 12
-379.370615
 22
-3306.507684
 32
0.0
 13
-379.370615
 23
-3306.507684
 33
0.0
  0
TEXT
  5
152B
  8
DIMENSION
  6
CONTINUOUS
 62
     0
 10
-414.787282
 20
-3300.257684
 30
0.0
 40
25.0
  1
0°
  0
POINT
  5
152C
  8
DEFPOINTS
 62
     0
 10
-379.370615
 20
-3306.507684
 30
0.0
  0
POINT
  5
152D
  8
DEFPOINTS
 62
     0
 10
-511.22684
 20
-3306.507684
 30
0.0
  0
POINT
  5
152E
  8
DEFPOINTS
 62
     0
 10
-379.370615
 20
-3306.507684
 30
0.0
  0
POINT
  5
152F
  8
DEFPOINTS
 62
     0
 10
-379.370615
 20
-3306.507684
 30
0.0
  0
ENDBLK
  5
1522
  8
0
  0
BLOCK
  8
0
  2
*D27
 70
     1
 10
0.0
 20
0.0
 30
0.0
  3
*D27
  1

  0
LINE
  5
1536
  8
DIMENSION
 62
     0
 10
-511.22684
 20
-3300.257684
 30
0.0
 11
-511.22684
 21
-3194.007684
 31
0.0
  0
LINE
  5
1537
  8
DIMENSION
 62
     0
 10
-379.370615
 20
-3300.257684
 30
0.0
 11
-379.370615
 21
-3194.007684
 31
0.0
  0
LINE
  5
1538
  8
DIMENSION
 62
     0
 10
-486.22684
 20
-3206.507684
 30
0.0
 11
-404.370615
 21
-3206.507684
 31
0.0
  0
SOLID
  5
1539
  8
DIMENSION
 62
     0
 10
-486.22684
 20
-3202.341018
 30
0.0
 11
-486.22684
 21
-3210.674351
 31
0.0
 12
-511.22684
 22
-3206.507684
 32
0.0
 13
-511.22684
 23
-3206.507684
 33
0.0
  0
SOLID
  5
153A
  8
DIMENSION
 62
     0
 10
-404.370615
 20
-3210.674351
 30
0.0
 11
-404.370615
 21
-3202.341018
 31
0.0
 12
-379.370615
 22
-3206.507684
 32
0.0
 13
-379.370615
 23
-3206.507684
 33
0.0
  0
TEXT
  5
153B
  8
DIMENSION
  6
CONTINUOUS
 62
     0
 10
-474.465394
 20
-3200.257684
 30
0.0
 40
25.0
  1
132
  0
POINT
  5
153C
  8
DEFPOINTS
 62
     0
 10
-511.22684
 20
-3306.507684
 30
0.0
  0
POINT
  5
153D
  8
DEFPOINTS
 62
     0
 10
-379.370615
 20
-3306.507684
 30
0.0
  0
POINT
  5
153E
  8
DEFPOINTS
 62
     0
 10
-379.370615
 20
-3206.507684
 30
0.0
  0
ENDBLK
  5
1535
  8
0
  0
BLOCK
  8
0
  2
12
 70
     0
 10
0.0
 20
0.0
 30
0.0
  3
12
  1

  0
LINE
  5
1574
  8
AXIS
 10
-318.758298
 20
-3396.551612
 30
0.0
 11
476.325111
 21
-3396.551612
 31
0.0
  0
POLYLINE
  5
1575
  8
0
 66
     1
 10
0.0
 20
0.0
 30
0.0
 70
     1
  0
VERTEX
  5
17D9
  8
0
 10
462.336436
 20
-3433.224049
 30
0.0
  0
VERTEX
  5
17DA
  8
0
 10
620.501908
 20
-3433.224049
 30
0.0
  0
VERTEX
  5
17DB
  8
0
 10
620.501908
 20
-3359.879176
 30
0.0
  0
VERTEX
  5
17DC
  8
0
 10
462.336436
 20
-3359.879176
 30
0.0
  0
SEQEND
  5
1821
  8
0
  0
POLYLINE
  5
1576
  8
0
 66
     1
 10
0.0
 20
0.0
 30
0.0
 70
     1
  0
VERTEX
  5
17DD
  8
0
 10
-312.022544
 20
-3387.503042
 30
0.0
  0
VERTEX
  5
17DE
  8
0
 10
462.336436
 20
-3387.503042
 30
0.0
  0
VERTEX
  5
17DF
  8
0
 10
462.336436
 20
-3405.600183
 30
0.0
  0
VERTEX
  5
17E0
  8
0
 10
-312.022544
 20
-3405.600183
 30
0.0
  0
SEQEND
  5
1822
  8
0
  0
POLYLINE
  5
1577
  8
0
 66
     1
 10
0.0
 20
0.0
 30
0.0
  0
VERTEX
  5
17E1
  8
0
 10
-289.854154
 20
-3387.503042
 30
0.0
  0
VERTEX
  5
17E2
  8
0
 10
-289.854154
 20
-3354.494346
 30
0.0
  0
VERTEX
  5
17E3
  8
0
 10
-302.466367
 20
-3354.494346
 30
0.0
  0
VERTEX
  5
17E4
  8
0
 10
-302.466367
 20
-3387.503042
 30
0.0
  0
SEQEND
  5
1823
  8
0
  0
POLYLINE
  5
1578
  8
0
 66
     1
 10
0.0
 20
0.0
 30
0.0
  0
VERTEX
  5
17E5
  8
0
 10
-302.466367
 20
-3405.600183
 30
0.0
  0
VERTEX
  5
17E6
  8
0
 10
-302.466367
 20
-3437.124197
 30
0.0
  0
VERTEX
  5
17E7
  8
0
 10
-289.854154
 20
-3437.124197
 30
0.0
  0
VERTEX
  5
17E8
  8
0
 10
-289.854154
 20
-3405.600183
 30
0.0
  0
SEQEND
  5
1824
  8
0
  0
POLYLINE
  5
1579
  8
0
 66
     1
 10
0.0
 20
0.0
 30
0.0
  0
VERTEX
  5
17E9
  8
0
 10
386.264436
 20
-3405.600183
 30
0.0
  0
VERTEX
  5
17EA
  8
0
 10
386.264436
 20
-3437.124197
 30
0.0
  0
VERTEX
  5
17EB
  8
0
 10
398.876649
 20
-3437.124197
 30
0.0
  0
VERTEX
  5
17EC
  8
0
 10
398.876649
 20
-3405.600183
 30
0.0
  0
SEQEND
  5
1825
  8
0
  0
POLYLINE
  5
157A
  8
0
 66
     1
 10
0.0
 20
0.0
 30
0.0
  0
VERTEX
  5
17ED
  8
0
 10
398.876649
 20
-3387.503042
 30
0.0
  0
VERTEX
  5
17EE
  8
0
 10
398.876649
 20
-3354.494346
 30
0.0
  0
VERTEX
  5
17EF
  8
0
 10
386.264436
 20
-3354.494346
 30
0.0
  0
VERTEX
  5
17F0
  8
0
 10
386.264436
 20
-3387.503042
 30
0.0
  0
SEQEND
  5
1826
  8
0
  0
POLYLINE
  5
157B
  8
0
 66
     1
 10
0.0
 20
0.0
 30
0.0
  0
VERTEX
  5
17F1
  8
0
 10
410.77625
 20
-3387.503042
 30
0.0
  0
VERTEX
  5
17F2
  8
0
 10
410.77625
 20
-3379.698369
 30
0.0
  0
VERTEX
  5
17F3
  8
0
 10
453.352865
 20
-3379.698369
 30
0.0
  0
VERTEX
  5
17F4
  8
0
 10
453.352865
 20
-3387.503042
 30
0.0
  0
SEQEND
  5
1827
  8
0
  0
POLYLINE
  5
157C
  8
0
 66
     1
 10
0.0
 20
0.0
 30
0.0
  0
VERTEX
  5
17F5
  8
0
 10
453.352865
 20
-3405.600183
 30
0.0
  0
VERTEX
  5
17F6
  8
0
 10
453.352865
 20
-3413.404856
 30
0.0
  0
VERTEX
  5
17F7
  8
0
 10
410.77625
 20
-3413.404856
 30
0.0
  0
VERTEX
  5
17F8
  8
0
 10
410.77625
 20
-3405.600183
 30
0.0
  0
SEQEND
  5
1828
  8
0
  0
LINE
  5
157D
  8
0
 10
425.325724
 20
-3387.503042
 30
0.0
 11
425.325724
 21
-3405.600183
 31
0.0
  0
LINE
  5
157E
  8
0
 10
439.452224
 20
-3387.503042
 30
0.0
 11
439.452224
 21
-3405.600183
 31
0.0
  0
POLYLINE
  5
157F
  8
0
 66
     1
 10
0.0
 20
0.0
 30
0.0
 70
     1
  0
VERTEX
  5
17F9
  8
0
 10
322.779367
 20
-3272.159479
 30
0.0
  0
VERTEX
  5
17FA
  8
0
 10
313.420305
 20
-3272.159479
 30
0.0
  0
VERTEX
  5
17FB
  8
0
 10
313.420305
 20
-3379.698369
 30
0.0
  0
VERTEX
  5
17FC
  8
0
 10
322.779367
 20
-3379.698369
 30
0.0
  0
SEQEND
  5
1829
  8
0
  0
POLYLINE
  5
1580
  8
0
 66
     1
 10
0.0
 20
0.0
 30
0.0
  0
VERTEX
  5
17FD
  8
0
 10
296.811528
 20
-3387.503042
 30
0.0
  0
VERTEX
  5
17FE
  8
0
 10
296.811528
 20
-3379.698369
 30
0.0
  0
VERTEX
  5
17FF
  8
0
 10
339.388144
 20
-3379.698369
 30
0.0
  0
VERTEX
  5
1800
  8
0
 10
339.388144
 20
-3387.503042
 30
0.0
  0
SEQEND
  5
182A
  8
0
  0
POLYLINE
  5
1581
  8
0
 66
     1
 10
0.0
 20
0.0
 30
0.0
  0
VERTEX
  5
1801
  8
0
 10
339.388144
 20
-3405.600183
 30
0.0
  0
VERTEX
  5
1802
  8
0
 10
339.388144
 20
-3413.404856
 30
0.0
  0
VERTEX
  5
1803
  8
0
 10
296.811528
 20
-3413.404856
 30
0.0
  0
VERTEX
  5
1804
  8
0
 10
296.811528
 20
-3405.600183
 30
0.0
  0
SEQEND
  5
182B
  8
0
  0
ENDBLK
  5
1573
  8
0
  0
BLOCK
  8
0
  2
*D29
 70
     1
 10
0.0
 20
0.0
 30
0.0
  3
*D29
  1

  0
LINE
  5
1598
  8
DIMENSION
 62
     0
 10
-110.964639
 20
-2638.410126
 30
0.0
 11
-110.964639
 21
-2582.160126
 31
0.0
  0
LINE
  5
1599
  8
DIMENSION
 62
     0
 10
318.099836
 20
-2638.410126
 30
0.0
 11
318.099836
 21
-2582.160126
 31
0.0
  0
LINE
  5
159A
  8
DIMENSION
 62
     0
 10
-85.964639
 20
-2594.660126
 30
0.0
 11
293.099836
 21
-2594.660126
 31
0.0
  0
SOLID
  5
159B
  8
DIMENSION
 62
     0
 10
-85.964639
 20
-2590.49346
 30
0.0
 11
-85.964639
 21
-2598.826793
 31
0.0
 12
-110.964639
 22
-2594.660126
 32
0.0
 13
-110.964639
 23
-2594.660126
 33
0.0
  0
SOLID
  5
159C
  8
DIMENSION
 62
     0
 10
293.099836
 20
-2598.826793
 30
0.0
 11
293.099836
 21
-2590.49346
 31
0.0
 12
318.099836
 22
-2594.660126
 32
0.0
 13
318.099836
 23
-2594.660126
 33
0.0
  0
TEXT
  5
159D
  8
DIMENSION
  6
CONTINUOUS
 62
     0
 10
70.234265
 20
-2588.410126
 30
0.0
 40
25.0
  1
429
  0
POINT
  5
159E
  8
DEFPOINTS
 62
     0
 10
-110.964639
 20
-2644.660126
 30
0.0
  0
POINT
  5
159F
  8
DEFPOINTS
 62
     0
 10
318.099836
 20
-2644.660126
 30
0.0
  0
POINT
  5
15A0
  8
DEFPOINTS
 62
     0
 10
318.099836
 20
-2594.660126
 30
0.0
  0
ENDBLK
  5
1597
  8
0
  0
ENDSEC
  0
SECTION
  2
ENTITIES
  0
LINE
  5
88
  8
0
 10
-511.22684
 20
-2956.090357
 30
0.0
 11
-519.87384
 21
-2956.090357
 31
0.0
  0
LINE
  5
89
  8
0
 10
-511.22684
 20
-2954.737357
 30
0.0
 11
-521.22684
 21
-2954.737357
 31
0.0
  0
LINE
  5
8A
  8
0
 10
-511.22684
 20
-2956.090357
 30
0.0
 11
-502.57984
 21
-2956.090357
 31
0.0
  0
LINE
  5
8B
  8
0
 10
-501.22684
 20
-2954.737357
 30
0.0
 11
-511.22684
 21
-2954.737357
 31
0.0
  0
LINE
  5
8C
  8
0
 10
-501.22684
 20
-2954.737357
 30
0.0
 11
-501.22684
 21
-2925.090357
 31
0.0
  0
LINE
  5
8D
  8
0
 10
-521.22684
 20
-2954.737357
 30
0.0
 11
-521.22684
 21
-2925.090357
 31
0.0
  0
LINE
  5
8E
  8
0
 10
-501.22684
 20
-2954.737357
 30
0.0
 11
-502.57984
 21
-2956.090357
 31
0.0
  0
LINE
  5
8F
  8
0
 10
-521.22684
 20
-2954.737357
 30
0.0
 11
-519.87384
 21
-2956.090357
 31
0.0
  0
LINE
  5
90
  8
0
 10
-370.710361
 20
-2681.390357
 30
0.0
 11
-370.710361
 21
-2670.143229
 31
0.0
  0
LINE
  5
91
  8
0
 10
-362.050107
 20
-2681.390357
 30
0.0
 11
-362.050107
 21
-2670.143229
 31
0.0
  0
LINE
  5
92
  8
0
 10
-396.691123
 20
-2681.390357
 30
0.0
 11
-396.691123
 21
-2670.143229
 31
0.0
  0
LINE
  5
93
  8
0
 10
-388.030869
 20
-2681.390357
 30
0.0
 11
-388.030869
 21
-2670.143229
 31
0.0
  0
LINE
  5
94
  8
0
 10
-381.496968
 20
-2668.890357
 30
0.0
 11
-377.244262
 21
-2668.890357
 31
0.0
  0
LINE
  5
95
  8
0
 10
-367.443404
 20
-2668.890357
 30
0.0
 11
-365.317064
 21
-2668.890357
 31
0.0
  0
LINE
  5
96
  8
0
 10
-393.424166
 20
-2668.890357
 30
0.0
 11
-391.297826
 21
-2668.890357
 31
0.0
  0
LINE
  5
97
  8
0
 10
-377.244257
 20
-2668.890357
 30
0.0
 11
-367.443374
 21
-2668.890356
 31
0.0
  0
LINE
  5
98
  8
0
 10
-377.244257
 20
-2668.890357
 30
0.0
 11
-377.140987
 21
-2668.898879
 31
0.0
  0
LINE
  5
99
  8
0
 10
-377.140987
 20
-2668.898879
 30
0.0
 11
-375.674847
 21
-2669.062794
 31
0.0
  0
LINE
  5
9A
  8
0
 10
-375.674847
 20
-2669.062794
 30
0.0
 11
-374.138887
 21
-2669.315606
 31
0.0
  0
LINE
  5
9B
  8
0
 10
-374.138887
 20
-2669.315606
 30
0.0
 11
-372.498808
 21
-2669.669211
 31
0.0
  0
LINE
  5
9C
  8
0
 10
-372.498808
 20
-2669.669211
 30
0.0
 11
-370.710596
 21
-2670.143229
 31
0.0
  0
LINE
  5
9D
  8
0
 10
-370.710596
 20
-2670.143229
 30
0.0
 11
-369.816251
 21
-2669.669207
 31
0.0
  0
LINE
  5
9E
  8
0
 10
-369.816251
 20
-2669.669207
 30
0.0
 11
-368.995755
 21
-2669.315603
 31
0.0
  0
LINE
  5
9F
  8
0
 10
-368.995755
 20
-2669.315603
 30
0.0
 11
-368.228034
 21
-2669.062792
 31
0.0
  0
LINE
  5
A0
  8
0
 10
-368.228034
 20
-2669.062792
 30
0.0
 11
-367.495077
 21
-2668.898878
 31
0.0
  0
LINE
  5
A1
  8
0
 10
-367.495077
 20
-2668.898878
 30
0.0
 11
-367.443374
 21
-2668.890356
 31
0.0
  0
LINE
  5
A2
  8
0
 10
-391.297855
 20
-2668.890356
 30
0.0
 11
-391.246152
 21
-2668.898878
 31
0.0
  0
LINE
  5
A3
  8
0
 10
-391.246152
 20
-2668.898878
 30
0.0
 11
-390.513197
 21
-2669.062792
 31
0.0
  0
LINE
  5
A4
  8
0
 10
-390.513197
 20
-2669.062792
 30
0.0
 11
-389.745474
 21
-2669.315603
 31
0.0
  0
LINE
  5
A5
  8
0
 10
-389.745474
 20
-2669.315603
 30
0.0
 11
-388.924978
 21
-2669.669207
 31
0.0
  0
LINE
  5
A6
  8
0
 10
-388.924978
 20
-2669.669207
 30
0.0
 11
-388.030634
 21
-2670.143229
 31
0.0
  0
LINE
  5
A7
  8
0
 10
-388.030634
 20
-2670.143229
 30
0.0
 11
-386.242422
 21
-2669.669211
 31
0.0
  0
LINE
  5
A8
  8
0
 10
-386.242422
 20
-2669.669211
 30
0.0
 11
-384.602342
 21
-2669.315606
 31
0.0
  0
LINE
  5
A9
  8
0
 10
-384.602342
 20
-2669.315606
 30
0.0
 11
-383.066385
 21
-2669.062794
 31
0.0
  0
LINE
  5
AA
  8
0
 10
-383.066385
 20
-2669.062794
 30
0.0
 11
-381.600242
 21
-2668.898879
 31
0.0
  0
LINE
  5
AB
  8
0
 10
-381.600242
 20
-2668.898879
 30
0.0
 11
-381.496973
 21
-2668.890357
 31
0.0
  0
LINE
  5
AC
  8
0
 10
-391.297855
 20
-2668.890356
 30
0.0
 11
-381.496973
 21
-2668.890357
 31
0.0
  0
LINE
  5
AD
  8
0
 10
-396.690654
 20
-2670.143229
 30
0.0
 11
-395.796773
 21
-2669.669209
 31
0.0
  0
LINE
  5
AE
  8
0
 10
-395.796773
 20
-2669.669209
 30
0.0
 11
-394.977189
 21
-2669.315604
 31
0.0
  0
LINE
  5
AF
  8
0
 10
-394.977189
 20
-2669.315604
 30
0.0
 11
-394.208953
 21
-2669.062793
 31
0.0
  0
LINE
  5
B0
  8
0
 10
-394.208953
 20
-2669.062793
 30
0.0
 11
-393.475767
 21
-2668.898878
 31
0.0
  0
LINE
  5
B1
  8
0
 10
-393.475767
 20
-2668.898878
 30
0.0
 11
-393.4242
 21
-2668.890356
 31
0.0
  0
LINE
  5
B2
  8
0
 10
-394.520613
 20
-2668.890356
 30
0.0
 11
-393.4242
 21
-2668.890356
 31
0.0
  0
LINE
  5
B3
  8
0
 10
-365.31703
 20
-2668.890356
 30
0.0
 11
-365.265462
 21
-2668.898878
 31
0.0
  0
LINE
  5
B4
  8
0
 10
-365.265462
 20
-2668.898878
 30
0.0
 11
-364.532278
 21
-2669.062792
 31
0.0
  0
LINE
  5
B5
  8
0
 10
-364.532278
 20
-2669.062792
 30
0.0
 11
-363.764041
 21
-2669.315604
 31
0.0
  0
LINE
  5
B6
  8
0
 10
-363.764041
 20
-2669.315604
 30
0.0
 11
-362.944457
 21
-2669.669209
 31
0.0
  0
LINE
  5
B7
  8
0
 10
-362.944457
 20
-2669.669209
 30
0.0
 11
-362.050576
 21
-2670.143229
 31
0.0
  0
LINE
  5
B8
  8
0
 10
-365.31703
 20
-2668.890356
 30
0.0
 11
-364.220617
 21
-2668.890356
 31
0.0
  0
LINE
  5
BA
  8
0
 10
-370.21446
 20
-2779.390357
 30
0.0
 11
-379.370615
 21
-2779.390357
 31
0.0
  0
LINE
  5
BC
  8
0
 10
-379.370615
 20
-2779.390357
 30
0.0
 11
-388.52677
 21
-2779.390357
 31
0.0
  0
LINE
  5
BD
  8
0
 10
-389.370615
 20
-2754.390357
 30
0.0
 11
-389.370615
 21
-2691.390357
 31
0.0
  0
LINE
  5
BE
  8
0
 10
-369.370615
 20
-2754.390357
 30
0.0
 11
-369.370615
 21
-2691.390357
 31
0.0
  0
LINE
  5
BF
  8
0
 10
-362.050576
 20
-2670.143229
 30
0.0
 11
-364.220617
 21
-2668.890356
 31
0.0
  0
LINE
  5
C0
  8
0
 10
-396.690654
 20
-2670.143229
 30
0.0
 11
-394.520613
 21
-2668.890356
 31
0.0
  0
LINE
  5
C1
  8
0
 10
-588.461061
 20
-2924.390357
 30
0.0
 11
-588.461061
 21
-2724.390357
 31
0.0
  0
LINE
  5
C2
  8
0
 10
-580.461061
 20
-2924.390357
 30
0.0
 11
-580.461061
 21
-2724.390357
 31
0.0
  0
LINE
  5
C3
  8
0
 10
-580.461061
 20
-2924.390357
 30
0.0
 11
-588.461061
 21
-2924.390357
 31
0.0
  0
LINE
  5
C4
  8
0
 10
-580.461061
 20
-2724.390357
 30
0.0
 11
-588.461061
 21
-2724.390357
 31
0.0
  0
LINE
  5
C5
  8
0
 10
-513.353214
 20
-2907.090359
 30
0.0
 11
-513.456489
 21
-2907.098883
 31
0.0
  0
LINE
  5
C6
  8
0
 10
-513.456489
 20
-2907.098883
 30
0.0
 11
-514.922715
 21
-2907.262803
 31
0.0
  0
LINE
  5
C7
  8
0
 10
-514.922715
 20
-2907.262803
 30
0.0
 11
-516.458633
 21
-2907.515625
 31
0.0
  0
LINE
  5
C8
  8
0
 10
-516.458633
 20
-2907.515625
 30
0.0
 11
-518.098809
 21
-2907.869243
 31
0.0
  0
LINE
  5
C9
  8
0
 10
-518.098809
 20
-2907.869243
 30
0.0
 11
-519.887106
 21
-2908.343233
 31
0.0
  0
LINE
  5
CA
  8
0
 10
-513.353214
 20
-2925.090355
 30
0.0
 11
-513.456489
 21
-2925.081831
 31
0.0
  0
LINE
  5
CB
  8
0
 10
-513.456489
 20
-2925.081831
 30
0.0
 11
-514.922715
 21
-2924.91791
 31
0.0
  0
LINE
  5
CC
  8
0
 10
-514.922715
 20
-2924.91791
 30
0.0
 11
-516.458633
 21
-2924.665089
 31
0.0
  0
LINE
  5
CD
  8
0
 10
-516.458633
 20
-2924.665089
 30
0.0
 11
-518.098809
 21
-2924.31147
 31
0.0
  0
LINE
  5
CE
  8
0
 10
-518.098809
 20
-2924.31147
 30
0.0
 11
-519.887106
 21
-2923.837481
 31
0.0
  0
LINE
  5
CF
  8
0
 10
-502.566574
 20
-2923.837481
 30
0.0
 11
-504.354871
 21
-2924.31147
 31
0.0
  0
LINE
  5
D0
  8
0
 10
-504.354871
 20
-2924.31147
 30
0.0
 11
-505.995047
 21
-2924.665089
 31
0.0
  0
LINE
  5
D1
  8
0
 10
-505.995047
 20
-2924.665089
 30
0.0
 11
-507.530963
 21
-2924.91791
 31
0.0
  0
LINE
  5
D2
  8
0
 10
-507.530963
 20
-2924.91791
 30
0.0
 11
-508.997193
 21
-2925.081831
 31
0.0
  0
LINE
  5
D3
  8
0
 10
-508.997193
 20
-2925.081831
 30
0.0
 11
-509.100466
 21
-2925.090355
 31
0.0
  0
LINE
  5
D4
  8
0
 10
-502.566574
 20
-2908.343233
 30
0.0
 11
-504.354871
 21
-2907.869243
 31
0.0
  0
LINE
  5
D5
  8
0
 10
-504.354871
 20
-2907.869243
 30
0.0
 11
-505.995047
 21
-2907.515625
 31
0.0
  0
LINE
  5
D6
  8
0
 10
-505.995047
 20
-2907.515625
 30
0.0
 11
-507.530963
 21
-2907.262804
 31
0.0
  0
LINE
  5
D7
  8
0
 10
-507.530963
 20
-2907.262804
 30
0.0
 11
-508.997193
 21
-2907.098883
 31
0.0
  0
LINE
  5
D8
  8
0
 10
-508.997193
 20
-2907.098883
 30
0.0
 11
-509.100466
 21
-2907.090359
 31
0.0
  0
LINE
  5
D9
  8
0
 10
-525.280334
 20
-2925.090357
 30
0.0
 11
-526.37684
 21
-2925.090357
 31
0.0
  0
LINE
  5
DA
  8
0
 10
-496.07684
 20
-2925.090357
 30
0.0
 11
-497.173346
 21
-2925.090357
 31
0.0
  0
LINE
  5
DB
  8
0
 10
-499.299445
 20
-2925.090357
 30
0.0
 11
-509.100461
 21
-2925.090357
 31
0.0
  0
LINE
  5
DC
  8
0
 10
-513.353214
 20
-2925.090357
 30
0.0
 11
-509.100466
 21
-2925.090357
 31
0.0
  0
LINE
  5
DD
  8
0
 10
-513.353219
 20
-2925.090357
 30
0.0
 11
-523.154235
 21
-2925.090357
 31
0.0
  0
LINE
  5
DE
  8
0
 10
-525.280265
 20
-2907.090357
 30
0.0
 11
-525.331916
 21
-2907.098878
 31
0.0
  0
LINE
  5
DF
  8
0
 10
-525.331916
 20
-2907.098878
 30
0.0
 11
-526.06504
 21
-2907.262769
 31
0.0
  0
LINE
  5
E0
  8
0
 10
-526.06504
 20
-2907.262769
 30
0.0
 11
-526.833007
 21
-2907.515583
 31
0.0
  0
LINE
  5
E1
  8
0
 10
-526.833007
 20
-2907.515583
 30
0.0
 11
-527.653104
 21
-2907.869195
 31
0.0
  0
LINE
  5
E2
  8
0
 10
-527.653104
 20
-2907.869195
 30
0.0
 11
-528.547348
 21
-2908.343229
 31
0.0
  0
LINE
  5
E3
  8
0
 10
-525.280265
 20
-2925.090357
 30
0.0
 11
-525.331916
 21
-2925.081835
 31
0.0
  0
LINE
  5
E4
  8
0
 10
-525.331916
 20
-2925.081835
 30
0.0
 11
-526.06504
 21
-2924.917945
 31
0.0
  0
LINE
  5
E5
  8
0
 10
-526.06504
 20
-2924.917945
 30
0.0
 11
-526.833007
 21
-2924.665131
 31
0.0
  0
LINE
  5
E6
  8
0
 10
-526.833007
 20
-2924.665131
 30
0.0
 11
-527.653104
 21
-2924.311519
 31
0.0
  0
LINE
  5
E7
  8
0
 10
-527.653104
 20
-2924.311519
 30
0.0
 11
-528.547348
 21
-2923.837484
 31
0.0
  0
LINE
  5
E8
  8
0
 10
-525.280265
 20
-2925.090357
 30
0.0
 11
-523.154177
 21
-2925.090357
 31
0.0
  0
LINE
  5
E9
  8
0
 10
-519.887097
 20
-2923.837481
 30
0.0
 11
-519.887231
 21
-2923.837558
 31
0.0
  0
LINE
  5
EA
  8
0
 10
-519.887231
 20
-2923.837558
 30
0.0
 11
-520.781406
 21
-2924.311552
 31
0.0
  0
LINE
  5
EB
  8
0
 10
-520.781406
 20
-2924.311552
 30
0.0
 11
-521.601482
 21
-2924.665148
 31
0.0
  0
LINE
  5
EC
  8
0
 10
-521.601482
 20
-2924.665148
 30
0.0
 11
-522.369431
 21
-2924.917953
 31
0.0
  0
LINE
  5
ED
  8
0
 10
-522.369431
 20
-2924.917953
 30
0.0
 11
-523.102541
 21
-2925.081838
 31
0.0
  0
LINE
  5
EE
  8
0
 10
-523.102541
 20
-2925.081838
 30
0.0
 11
-523.154177
 21
-2925.090357
 31
0.0
  0
LINE
  5
EF
  8
0
 10
-519.887097
 20
-2923.837481
 30
0.0
 11
-519.887097
 21
-2908.343233
 31
0.0
  0
LINE
  5
F0
  8
0
 10
-519.887097
 20
-2908.343233
 30
0.0
 11
-519.887231
 21
-2908.343156
 31
0.0
  0
LINE
  5
F1
  8
0
 10
-519.887231
 20
-2908.343156
 30
0.0
 11
-520.781406
 21
-2907.869162
 31
0.0
  0
LINE
  5
F2
  8
0
 10
-520.781406
 20
-2907.869162
 30
0.0
 11
-521.601482
 21
-2907.515565
 31
0.0
  0
LINE
  5
F3
  8
0
 10
-521.601482
 20
-2907.515565
 30
0.0
 11
-522.369431
 21
-2907.262761
 31
0.0
  0
LINE
  5
F4
  8
0
 10
-522.369431
 20
-2907.262761
 30
0.0
 11
-523.102541
 21
-2907.098876
 31
0.0
  0
LINE
  5
F5
  8
0
 10
-523.102541
 20
-2907.098876
 30
0.0
 11
-523.154177
 21
-2907.090357
 31
0.0
  0
LINE
  5
F6
  8
0
 10
-528.547348
 20
-2923.837484
 30
0.0
 11
-528.547348
 21
-2908.343229
 31
0.0
  0
LINE
  5
F7
  8
0
 10
-499.299503
 20
-2907.090357
 30
0.0
 11
-499.35114
 21
-2907.098876
 31
0.0
  0
LINE
  5
F8
  8
0
 10
-499.35114
 20
-2907.098876
 30
0.0
 11
-500.084248
 21
-2907.26276
 31
0.0
  0
LINE
  5
F9
  8
0
 10
-500.084248
 20
-2907.26276
 30
0.0
 11
-500.852198
 21
-2907.515565
 31
0.0
  0
LINE
  5
FA
  8
0
 10
-500.852198
 20
-2907.515565
 30
0.0
 11
-501.672274
 21
-2907.869162
 31
0.0
  0
LINE
  5
FB
  8
0
 10
-501.672274
 20
-2907.869162
 30
0.0
 11
-502.566448
 21
-2908.343155
 31
0.0
  0
LINE
  5
FC
  8
0
 10
-502.566448
 20
-2908.343155
 30
0.0
 11
-502.566583
 21
-2908.343233
 31
0.0
  0
LINE
  5
FD
  8
0
 10
-502.566583
 20
-2923.837481
 30
0.0
 11
-502.566583
 21
-2908.343233
 31
0.0
  0
LINE
  5
FE
  8
0
 10
-499.299503
 20
-2925.090357
 30
0.0
 11
-499.35114
 21
-2925.081838
 31
0.0
  0
LINE
  5
FF
  8
0
 10
-499.35114
 20
-2925.081838
 30
0.0
 11
-500.084248
 21
-2924.917953
 31
0.0
  0
LINE
  5
100
  8
0
 10
-500.084248
 20
-2924.917953
 30
0.0
 11
-500.852198
 21
-2924.665148
 31
0.0
  0
LINE
  5
101
  8
0
 10
-500.852198
 20
-2924.665148
 30
0.0
 11
-501.672274
 21
-2924.311552
 31
0.0
  0
LINE
  5
102
  8
0
 10
-501.672274
 20
-2924.311552
 30
0.0
 11
-502.566448
 21
-2923.837559
 31
0.0
  0
LINE
  5
103
  8
0
 10
-502.566448
 20
-2923.837559
 30
0.0
 11
-502.566583
 21
-2923.837481
 31
0.0
  0
LINE
  5
104
  8
0
 10
-499.299503
 20
-2925.090357
 30
0.0
 11
-497.173415
 21
-2925.090357
 31
0.0
  0
LINE
  5
105
  8
0
 10
-493.906332
 20
-2923.837484
 30
0.0
 11
-494.800576
 21
-2924.311519
 31
0.0
  0
LINE
  5
106
  8
0
 10
-494.800576
 20
-2924.311519
 30
0.0
 11
-495.620673
 21
-2924.665131
 31
0.0
  0
LINE
  5
107
  8
0
 10
-495.620673
 20
-2924.665131
 30
0.0
 11
-496.388639
 21
-2924.917945
 31
0.0
  0
LINE
  5
108
  8
0
 10
-496.388639
 20
-2924.917945
 30
0.0
 11
-497.121764
 21
-2925.081836
 31
0.0
  0
LINE
  5
109
  8
0
 10
-497.121764
 20
-2925.081836
 30
0.0
 11
-497.173415
 21
-2925.090357
 31
0.0
  0
LINE
  5
10A
  8
0
 10
-493.906332
 20
-2923.837484
 30
0.0
 11
-493.906332
 21
-2908.343229
 31
0.0
  0
LINE
  5
10B
  8
0
 10
-493.906332
 20
-2908.343229
 30
0.0
 11
-494.800576
 21
-2907.869195
 31
0.0
  0
LINE
  5
10C
  8
0
 10
-494.800576
 20
-2907.869195
 30
0.0
 11
-495.620673
 21
-2907.515583
 31
0.0
  0
LINE
  5
10D
  8
0
 10
-495.620673
 20
-2907.515583
 30
0.0
 11
-496.388639
 21
-2907.262769
 31
0.0
  0
LINE
  5
10E
  8
0
 10
-496.388639
 20
-2907.262769
 30
0.0
 11
-497.121764
 21
-2907.098878
 31
0.0
  0
LINE
  5
10F
  8
0
 10
-497.121764
 20
-2907.098878
 30
0.0
 11
-497.173415
 21
-2907.090357
 31
0.0
  0
LINE
  5
110
  8
0
 10
-528.547348
 20
-2908.343229
 30
0.0
 11
-526.37684
 21
-2907.090357
 31
0.0
  0
LINE
  5
111
  8
0
 10
-493.906332
 20
-2908.343229
 30
0.0
 11
-496.07684
 21
-2907.090357
 31
0.0
  0
LINE
  5
112
  8
0
 10
-528.547348
 20
-2923.837484
 30
0.0
 11
-526.37684
 21
-2925.090357
 31
0.0
  0
LINE
  5
113
  8
0
 10
-493.906332
 20
-2923.837484
 30
0.0
 11
-496.07684
 21
-2925.090357
 31
0.0
  0
LINE
  5
114
  8
0
 10
-491.72684
 20
-2907.090357
 30
0.0
 11
-511.22684
 21
-2907.090357
 31
0.0
  0
LINE
  5
115
  8
0
 10
-511.22684
 20
-2907.090357
 30
0.0
 11
-530.72684
 21
-2907.090357
 31
0.0
  0
LINE
  5
116
  8
0
 10
-530.72684
 20
-2907.090357
 30
0.0
 11
-530.72684
 21
-2904.090357
 31
0.0
  0
LINE
  5
117
  8
0
 10
-491.72684
 20
-2907.090357
 30
0.0
 11
-491.72684
 21
-2904.090357
 31
0.0
  0
LINE
  5
118
  8
0
 10
-511.22684
 20
-2738.390357
 30
0.0
 11
-491.72684
 21
-2738.390357
 31
0.0
  0
LINE
  5
119
  8
0
 10
-530.72684
 20
-2738.390357
 30
0.0
 11
-511.22684
 21
-2738.390357
 31
0.0
  0
LINE
  5
11A
  8
0
 10
-530.72684
 20
-2741.390357
 30
0.0
 11
-530.72684
 21
-2738.390357
 31
0.0
  0
LINE
  5
11B
  8
0
 10
-491.72684
 20
-2741.390357
 30
0.0
 11
-491.72684
 21
-2738.390357
 31
0.0
  0
LINE
  5
11C
  8
0
 10
-560.461061
 20
-2894.090357
 30
0.0
 11
-560.461061
 21
-2904.090357
 31
0.0
  0
LINE
  5
11D
  8
0
 10
-511.22684
 20
-2894.090357
 30
0.0
 11
-511.22684
 21
-2904.090357
 31
0.0
  0
LINE
  5
11E
  8
0
 10
-511.22684
 20
-2894.090357
 30
0.0
 11
-560.461061
 21
-2894.090357
 31
0.0
  0
LINE
  5
11F
  8
0
 10
-511.22684
 20
-2894.090357
 30
0.0
 11
-471.22684
 21
-2894.090357
 31
0.0
  0
LINE
  5
120
  8
0
 10
-511.22684
 20
-2904.090357
 30
0.0
 11
-560.461061
 21
-2904.090357
 31
0.0
  0
LINE
  5
121
  8
0
 10
-471.22684
 20
-2904.090357
 30
0.0
 11
-511.22684
 21
-2904.090357
 31
0.0
  0
LINE
  5
122
  8
0
 10
-471.22684
 20
-2904.090357
 30
0.0
 11
-471.22684
 21
-2894.090357
 31
0.0
  0
LINE
  5
123
  8
0
 10
-560.461061
 20
-2774.390357
 30
0.0
 11
-560.461061
 21
-2764.390357
 31
0.0
  0
LINE
  5
124
  8
0
 10
-511.22684
 20
-2774.390357
 30
0.0
 11
-511.22684
 21
-2764.390357
 31
0.0
  0
LINE
  5
125
  8
0
 10
-560.461061
 20
-2774.390357
 30
0.0
 11
-511.22684
 21
-2774.390357
 31
0.0
  0
LINE
  5
126
  8
0
 10
-471.432398
 20
-2774.390357
 30
0.0
 11
-511.22684
 21
-2774.390357
 31
0.0
  0
LINE
  5
127
  8
0
 10
-560.461061
 20
-2764.390357
 30
0.0
 11
-511.22684
 21
-2764.390357
 31
0.0
  0
LINE
  5
128
  8
0
 10
-511.22684
 20
-2764.390357
 30
0.0
 11
-471.22684
 21
-2764.390357
 31
0.0
  0
LINE
  5
129
  8
0
 10
-471.22684
 20
-2764.390357
 30
0.0
 11
-471.22684
 21
-2774.390357
 31
0.0
  0
LINE
  5
12A
  8
0
 10
-461.483308
 20
-2768.290357
 30
0.0
 11
-389.3033
 21
-2768.290357
 31
0.0
  0
LINE
  5
131
  8
0
 10
-461.483308
 20
-2887.490357
 30
0.0
 11
-461.483308
 21
-2894.390357
 31
0.0
  0
LINE
  5
132
  8
0
 10
-461.483308
 20
-2880.490357
 30
0.0
 11
-461.483308
 21
-2887.490357
 31
0.0
  0
LINE
  5
133
  8
0
 10
-461.483308
 20
-2768.290357
 30
0.0
 11
-461.483308
 21
-2774.390357
 31
0.0
  0
LINE
  5
134
  8
0
 10
-461.483308
 20
-2874.390357
 30
0.0
 11
-461.483308
 21
-2880.490357
 31
0.0
  0
LINE
  5
135
  8
0
 10
-461.483308
 20
-2761.290357
 30
0.0
 11
-461.483308
 21
-2768.290357
 31
0.0
  0
LINE
  5
136
  8
0
 10
-461.483308
 20
-2754.390357
 30
0.0
 11
-461.483308
 21
-2761.290357
 31
0.0
  0
LINE
  5
137
  8
0
 10
-524.82684
 20
-2874.390357
 30
0.0
 11
-524.82684
 21
-2774.390357
 31
0.0
  0
LINE
  5
138
  8
0
 10
-247.665135
 20
-2874.390357
 30
0.0
 11
-247.665135
 21
-2774.390357
 31
0.0
  0
LINE
  5
139
  8
0
 10
-247.665135
 20
-2774.390357
 30
0.0
 11
-370.21446
 21
-2774.390357
 31
0.0
  0
LINE
  5
13A
  8
0
 10
-388.52677
 20
-2774.390357
 30
0.0
 11
-471.432398
 21
-2774.390357
 31
0.0
  0
LINE
  5
13B
  8
0
 10
-497.665135
 20
-2774.390357
 30
0.0
 11
-497.665135
 21
-2874.390357
 31
0.0
  0
LINE
  5
13C
  8
0
 10
-471.431216
 20
-2874.390357
 30
0.0
 11
-247.665135
 21
-2874.390357
 31
0.0
  0
LINE
  5
14D
  8
0
 10
-580.461061
 20
-2774.390357
 30
0.0
 11
-580.461061
 21
-2764.390357
 31
0.0
  0
LINE
  5
14E
  8
0
 10
-560.461061
 20
-2774.390357
 30
0.0
 11
-560.461061
 21
-2764.390357
 31
0.0
  0
LINE
  5
14F
  8
0
 10
-560.461061
 20
-2774.390357
 30
0.0
 11
-580.461061
 21
-2774.390357
 31
0.0
  0
LINE
  5
150
  8
0
 10
-560.461061
 20
-2764.390357
 30
0.0
 11
-580.461061
 21
-2764.390357
 31
0.0
  0
LINE
  5
151
  8
0
 10
-580.461061
 20
-2904.090357
 30
0.0
 11
-580.461061
 21
-2894.090357
 31
0.0
  0
LINE
  5
152
  8
0
 10
-560.461061
 20
-2904.090357
 30
0.0
 11
-560.461061
 21
-2894.090357
 31
0.0
  0
LINE
  5
153
  8
0
 10
-560.461061
 20
-2904.090357
 30
0.0
 11
-580.461061
 21
-2904.090357
 31
0.0
  0
LINE
  5
154
  8
0
 10
-560.461061
 20
-2894.090357
 30
0.0
 11
-580.461061
 21
-2894.090357
 31
0.0
  0
LINE
  5
155
  8
0
 10
-511.22684
 20
-2874.390357
 30
0.0
 11
-471.431216
 21
-2874.390357
 31
0.0
  0
LINE
  5
156
  8
0
 10
-551.22684
 20
-2874.390357
 30
0.0
 11
-511.22684
 21
-2874.390357
 31
0.0
  0
LINE
  5
157
  8
0
 10
-471.22684
 20
-2884.390357
 30
0.0
 11
-551.22684
 21
-2884.390357
 31
0.0
  0
LINE
  5
158
  8
0
 10
-471.22684
 20
-2874.390357
 30
0.0
 11
-471.22684
 21
-2884.390357
 31
0.0
  0
LINE
  5
159
  8
0
 10
-551.22684
 20
-2874.390357
 30
0.0
 11
-551.22684
 21
-2884.390357
 31
0.0
  0
LINE
  5
15A
  8
0
 10
-511.22684
 20
-2763.390357
 30
0.0
 11
-551.22684
 21
-2763.390357
 31
0.0
  0
LINE
  5
15B
  8
0
 10
-471.22684
 20
-2763.390357
 30
0.0
 11
-511.22684
 21
-2763.390357
 31
0.0
  0
LINE
  5
15C
  8
0
 10
-551.22684
 20
-2763.390357
 30
0.0
 11
-551.22684
 21
-2751.390357
 31
0.0
  0
LINE
  5
15D
  8
0
 10
-471.22684
 20
-2763.390357
 30
0.0
 11
-471.22684
 21
-2751.390357
 31
0.0
  0
LINE
  5
15E
  8
0
 10
-511.22684
 20
-2751.390357
 30
0.0
 11
-576.22684
 21
-2751.390357
 31
0.0
  0
LINE
  5
15F
  8
0
 10
-446.22684
 20
-2751.390357
 30
0.0
 11
-511.22684
 21
-2751.390357
 31
0.0
  0
LINE
  5
160
  8
0
 10
-576.22684
 20
-2741.390357
 30
0.0
 11
-446.22684
 21
-2741.390357
 31
0.0
  0
LINE
  5
161
  8
0
 10
-576.22684
 20
-2751.390357
 30
0.0
 11
-576.22684
 21
-2741.390357
 31
0.0
  0
LINE
  5
162
  8
0
 10
-446.22684
 20
-2751.390357
 30
0.0
 11
-446.22684
 21
-2741.390357
 31
0.0
  0
LINE
  5
163
  8
0
 10
-511.22684
 20
-2884.690357
 30
0.0
 11
-528.72684
 21
-2884.690357
 31
0.0
  0
LINE
  5
164
  8
0
 10
-493.72684
 20
-2884.690357
 30
0.0
 11
-511.22684
 21
-2884.690357
 31
0.0
  0
LINE
  5
165
  8
0
 10
-511.22684
 20
-2887.140357
 30
0.0
 11
-528.72684
 21
-2887.140357
 31
0.0
  0
LINE
  5
166
  8
0
 10
-493.72684
 20
-2887.140357
 30
0.0
 11
-511.22684
 21
-2887.140357
 31
0.0
  0
LINE
  5
167
  8
0
 10
-528.72684
 20
-2887.590357
 30
0.0
 11
-493.72684
 21
-2887.590357
 31
0.0
  0
LINE
  5
168
  8
0
 10
-511.22684
 20
-2891.190357
 30
0.0
 11
-528.72684
 21
-2891.190357
 31
0.0
  0
LINE
  5
169
  8
0
 10
-493.72684
 20
-2891.190357
 30
0.0
 11
-511.22684
 21
-2891.190357
 31
0.0
  0
LINE
  5
16A
  8
0
 10
-528.72684
 20
-2891.640357
 30
0.0
 11
-493.72684
 21
-2891.640357
 31
0.0
  0
LINE
  5
16B
  8
0
 10
-528.72684
 20
-2884.690357
 30
0.0
 11
-528.72684
 21
-2887.140357
 31
0.0
  0
LINE
  5
16C
  8
0
 10
-527.22684
 20
-2887.140357
 30
0.0
 11
-527.22684
 21
-2887.590357
 31
0.0
  0
LINE
  5
16D
  8
0
 10
-528.72684
 20
-2887.590357
 30
0.0
 11
-528.72684
 21
-2891.190357
 31
0.0
  0
LINE
  5
16E
  8
0
 10
-527.22684
 20
-2891.190357
 30
0.0
 11
-527.22684
 21
-2891.640357
 31
0.0
  0
LINE
  5
16F
  8
0
 10
-528.72684
 20
-2891.640357
 30
0.0
 11
-528.72684
 21
-2894.090357
 31
0.0
  0
ARC
  5
170
  8
0
 10
-528.42684
 20
-2884.690357
 30
0.0
 40
0.3
 50
95.625
 51
180.0
  0
LINE
  5
171
  8
0
 10
-493.72684
 20
-2884.690357
 30
0.0
 11
-493.72684
 21
-2887.140357
 31
0.0
  0
LINE
  5
172
  8
0
 10
-495.22684
 20
-2887.140357
 30
0.0
 11
-495.22684
 21
-2887.590357
 31
0.0
  0
LINE
  5
173
  8
0
 10
-493.72684
 20
-2887.590357
 30
0.0
 11
-493.72684
 21
-2891.190357
 31
0.0
  0
LINE
  5
174
  8
0
 10
-495.22684
 20
-2891.190357
 30
0.0
 11
-495.22684
 21
-2891.640357
 31
0.0
  0
LINE
  5
175
  8
0
 10
-493.72684
 20
-2891.640357
 30
0.0
 11
-493.72684
 21
-2894.090357
 31
0.0
  0
ARC
  5
176
  8
0
 10
-494.02684
 20
-2884.690357
 30
0.0
 40
0.3
 50
0.0
 51
84.375
  0
ARC
  5
177
  8
0
 10
-488.72684
 20
-2763.390357
 30
0.0
 40
1.0
 50
270.0
 51
0.0
  0
ARC
  5
178
  8
0
 10
-533.72684
 20
-2763.390357
 30
0.0
 40
1.0
 50
180.0
 51
270.0
  0
LINE
  5
179
  8
0
 10
-511.22684
 20
-2681.390357
 30
0.0
 11
-501.22684
 21
-2681.390357
 31
0.0
  0
LINE
  5
17A
  8
0
 10
-521.22684
 20
-2681.390357
 30
0.0
 11
-511.22684
 21
-2681.390357
 31
0.0
  0
LINE
  5
17B
  8
0
 10
-501.22684
 20
-2681.390357
 30
0.0
 11
-501.22684
 21
-2698.556052
 31
0.0
  0
LINE
  5
17C
  8
0
 10
-521.22684
 20
-2681.390357
 30
0.0
 11
-521.22684
 21
-2698.556052
 31
0.0
  0
LINE
  5
17D
  8
0
 10
-531.22684
 20
-2698.556052
 30
0.0
 11
-491.22684
 21
-2698.556052
 31
0.0
  0
LINE
  5
17E
  8
0
 10
-530.72684
 20
-2738.556052
 30
0.0
 11
-531.22684
 21
-2738.556052
 31
0.0
  0
LINE
  5
17F
  8
0
 10
-491.22684
 20
-2738.556052
 30
0.0
 11
-491.72684
 21
-2738.556052
 31
0.0
  0
LINE
  5
180
  8
0
 10
-531.22684
 20
-2698.556052
 30
0.0
 11
-531.22684
 21
-2738.556052
 31
0.0
  0
LINE
  5
181
  8
0
 10
-491.22684
 20
-2698.556052
 30
0.0
 11
-491.22684
 21
-2708.556052
 31
0.0
  0
LINE
  5
182
  8
0
 10
-491.22684
 20
-2728.556052
 30
0.0
 11
-491.22684
 21
-2738.556052
 31
0.0
  0
LINE
  5
183
  8
0
 10
-379.370615
 20
-2681.390357
 30
0.0
 11
-314.370615
 21
-2681.390357
 31
0.0
  0
LINE
  5
184
  8
0
 10
-444.370615
 20
-2681.390357
 30
0.0
 11
-379.370615
 21
-2681.390357
 31
0.0
  0
LINE
  5
185
  8
0
 10
-314.370615
 20
-2691.390357
 30
0.0
 11
-444.370615
 21
-2691.390357
 31
0.0
  0
LINE
  5
186
  8
0
 10
-314.370615
 20
-2681.390357
 30
0.0
 11
-314.370615
 21
-2691.390357
 31
0.0
  0
LINE
  5
187
  8
0
 10
-444.370615
 20
-2681.390357
 30
0.0
 11
-444.370615
 21
-2691.390357
 31
0.0
  0
LINE
  5
188
  8
0
 10
-428.287532
 20
-2621.390357
 30
0.0
 11
-418.287532
 21
-2621.390357
 31
0.0
  0
LINE
  5
189
  8
0
 10
-438.287532
 20
-2621.390357
 30
0.0
 11
-428.287532
 21
-2621.390357
 31
0.0
  0
LINE
  5
18A
  8
0
 10
-418.287532
 20
-2621.390357
 30
0.0
 11
-418.287532
 21
-2629.425638
 31
0.0
  0
LINE
  5
18B
  8
0
 10
-418.287532
 20
-2669.425638
 30
0.0
 11
-418.287532
 21
-2681.390357
 31
0.0
  0
LINE
  5
18C
  8
0
 10
-438.287532
 20
-2621.390357
 30
0.0
 11
-438.287532
 21
-2629.425638
 31
0.0
  0
LINE
  5
18D
  8
0
 10
-438.287532
 20
-2669.425638
 30
0.0
 11
-438.287532
 21
-2681.390357
 31
0.0
  0
LINE
  5
18E
  8
0
 10
-428.287532
 20
-2629.425638
 30
0.0
 11
-408.287532
 21
-2629.425638
 31
0.0
  0
LINE
  5
18F
  8
0
 10
-448.287532
 20
-2629.425638
 30
0.0
 11
-428.287532
 21
-2629.425638
 31
0.0
  0
LINE
  5
190
  8
0
 10
-408.287532
 20
-2669.425638
 30
0.0
 11
-448.287532
 21
-2669.425638
 31
0.0
  0
LINE
  5
191
  8
0
 10
-408.287532
 20
-2629.425638
 30
0.0
 11
-408.287532
 21
-2669.425638
 31
0.0
  0
LINE
  5
192
  8
0
 10
-448.287532
 20
-2629.425638
 30
0.0
 11
-448.287532
 21
-2639.425638
 31
0.0
  0
LINE
  5
193
  8
0
 10
-448.287532
 20
-2659.425638
 30
0.0
 11
-448.287532
 21
-2669.425638
 31
0.0
  0
LINE
  5
194
  8
0
 10
-558.597419
 20
-2629.425638
 30
0.0
 11
-578.597419
 21
-2629.425638
 31
0.0
  0
LINE
  5
195
  8
0
 10
-538.597419
 20
-2629.425638
 30
0.0
 11
-558.597419
 21
-2629.425638
 31
0.0
  0
LINE
  5
196
  8
0
 10
-578.597419
 20
-2589.425638
 30
0.0
 11
-538.597419
 21
-2589.425638
 31
0.0
  0
LINE
  5
197
  8
0
 10
-578.597419
 20
-2629.425638
 30
0.0
 11
-578.597419
 21
-2589.425638
 31
0.0
  0
LINE
  5
198
  8
0
 10
-538.597419
 20
-2629.425638
 30
0.0
 11
-538.597419
 21
-2619.425638
 31
0.0
  0
LINE
  5
199
  8
0
 10
-538.597419
 20
-2599.425638
 30
0.0
 11
-538.597419
 21
-2589.425638
 31
0.0
  0
LINE
  5
19A
  8
0
 10
-228.076229
 20
-2629.425638
 30
0.0
 11
-248.076229
 21
-2629.425638
 31
0.0
  0
LINE
  5
19B
  8
0
 10
-208.076229
 20
-2629.425638
 30
0.0
 11
-228.076229
 21
-2629.425638
 31
0.0
  0
LINE
  5
19C
  8
0
 10
-248.076229
 20
-2589.425638
 30
0.0
 11
-208.076229
 21
-2589.425638
 31
0.0
  0
LINE
  5
19D
  8
0
 10
-248.076229
 20
-2629.425638
 30
0.0
 11
-248.076229
 21
-2619.425638
 31
0.0
  0
LINE
  5
19E
  8
0
 10
-248.076229
 20
-2599.426567
 30
0.0
 11
-248.076229
 21
-2589.425638
 31
0.0
  0
LINE
  5
19F
  8
0
 10
-208.076229
 20
-2629.425638
 30
0.0
 11
-208.076229
 21
-2589.425638
 31
0.0
  0
LINE
  5
1A0
  8
0
 10
-538.597419
 20
-2619.425638
 30
0.0
 11
-248.076229
 21
-2619.425638
 31
0.0
  0
LINE
  5
1A1
  8
0
 10
-538.597419
 20
-2599.425638
 30
0.0
 11
-248.076229
 21
-2599.425638
 31
0.0
  0
LINE
  5
1A2
  8
0
 10
-399.370615
 20
-2698.556052
 30
0.0
 11
-389.370615
 21
-2698.556052
 31
0.0
  0
LINE
  5
1A3
  8
0
 10
-369.370615
 20
-2698.556052
 30
0.0
 11
-359.370615
 21
-2698.556052
 31
0.0
  0
LINE
  5
1A4
  8
0
 10
-389.370615
 20
-2738.556052
 30
0.0
 11
-399.370615
 21
-2738.556052
 31
0.0
  0
LINE
  5
1A5
  8
0
 10
-359.370615
 20
-2738.556052
 30
0.0
 11
-369.370615
 21
-2738.556052
 31
0.0
  0
LINE
  5
1A6
  8
0
 10
-399.370615
 20
-2698.556052
 30
0.0
 11
-399.370615
 21
-2708.556052
 31
0.0
  0
LINE
  5
1A7
  8
0
 10
-399.370615
 20
-2728.556052
 30
0.0
 11
-399.370615
 21
-2738.556052
 31
0.0
  0
LINE
  5
1A8
  8
0
 10
-359.370615
 20
-2698.556052
 30
0.0
 11
-359.370615
 21
-2738.556052
 31
0.0
  0
LINE
  5
1A9
  8
0
 10
-491.22684
 20
-2708.556052
 30
0.0
 11
-399.370615
 21
-2708.556052
 31
0.0
  0
LINE
  5
1AA
  8
0
 10
-491.22684
 20
-2728.556052
 30
0.0
 11
-399.370615
 21
-2728.556052
 31
0.0
  0
LINE
  5
1AB
  8
0
 10
-558.597419
 20
-2629.425638
 30
0.0
 11
-538.597419
 21
-2629.425638
 31
0.0
  0
LINE
  5
1AC
  8
0
 10
-578.597419
 20
-2629.425638
 30
0.0
 11
-558.597419
 21
-2629.425638
 31
0.0
  0
LINE
  5
1AD
  8
0
 10
-538.597419
 20
-2669.425638
 30
0.0
 11
-578.597419
 21
-2669.425638
 31
0.0
  0
LINE
  5
1AE
  8
0
 10
-538.597419
 20
-2629.425638
 30
0.0
 11
-538.597419
 21
-2639.425638
 31
0.0
  0
LINE
  5
1AF
  8
0
 10
-538.597419
 20
-2659.425638
 30
0.0
 11
-538.597419
 21
-2669.425638
 31
0.0
  0
LINE
  5
1B0
  8
0
 10
-578.597419
 20
-2629.425638
 30
0.0
 11
-578.597419
 21
-2669.425638
 31
0.0
  0
LINE
  5
1B1
  8
0
 10
-448.287532
 20
-2639.425638
 30
0.0
 11
-538.597419
 21
-2639.425638
 31
0.0
  0
LINE
  5
1B2
  8
0
 10
-448.287532
 20
-2659.425638
 30
0.0
 11
-538.597419
 21
-2659.425638
 31
0.0
  0
DIMENSION
  5
1B5
  8
DIMENSION
  2
*D1
 10
0.0
 20
0.0
 30
0.0
 11
6.25
 21
1.875
 31
0.0
 70
    32
  3
ISO-25
 13
0.0
 23
0.0
 33
0.0
 14
0.0
 24
0.0
 34
0.0
  0
DIMENSION
  5
1B6
  8
DIMENSION
  2
*D2
 10
0.0
 20
0.0
 30
0.0
 11
6.25
 21
1.875
 31
0.0
 70
    32
  3
ISO-25
 13
0.0
 23
0.0
 33
0.0
 14
0.0
 24
0.0
 34
0.0
  0
DIMENSION
  5
1B7
  8
DIMENSION
  2
*D3
 10
0.0
 20
0.0
 30
0.0
 11
6.25
 21
1.875
 31
0.0
 70
    32
  3
ISO-25
 13
0.0
 23
0.0
 33
0.0
 14
0.0
 24
0.0
 34
0.0
  0
LINE
  5
1B8
  8
0
 10
-90.964639
 20
-3282.159479
 30
0.0
 11
298.099836
 21
-3282.159479
 31
0.0
  0
LINE
  5
1B9
  8
0
 10
-90.964639
 20
-3302.159479
 30
0.0
 11
298.099836
 21
-3302.159479
 31
0.0
  0
LINE
  5
1BA
  8
0
 10
338.099836
 20
-3312.159479
 30
0.0
 11
338.099836
 21
-3272.159479
 31
0.0
  0
LINE
  5
1BB
  8
0
 10
298.099836
 20
-3282.159983
 30
0.0
 11
298.099836
 21
-3272.159479
 31
0.0
  0
LINE
  5
1BC
  8
0
 10
298.099836
 20
-3282.209138
 30
0.0
 11
298.099836
 21
-3282.207632
 31
0.0
  0
LINE
  5
1BD
  8
0
 10
298.099836
 20
-3301.968838
 30
0.0
 11
298.099836
 21
-3301.967332
 31
0.0
  0
LINE
  5
1BE
  8
0
 10
298.099836
 20
-3312.159479
 30
0.0
 11
298.099836
 21
-3302.159479
 31
0.0
  0
LINE
  5
1BF
  8
0
 10
298.099836
 20
-3272.159479
 30
0.0
 11
338.099836
 21
-3272.159479
 31
0.0
  0
LINE
  5
1C0
  8
0
 10
338.099836
 20
-3312.159479
 30
0.0
 11
318.099836
 21
-3312.159479
 31
0.0
  0
LINE
  5
1C1
  8
0
 10
318.099836
 20
-3312.159479
 30
0.0
 11
298.099836
 21
-3312.159479
 31
0.0
  0
LINE
  5
1C2
  8
0
 10
-90.964639
 20
-3282.159479
 30
0.0
 11
-90.964639
 21
-3272.159479
 31
0.0
  0
LINE
  5
1C3
  8
0
 10
-90.964639
 20
-3312.159479
 30
0.0
 11
-90.964639
 21
-3302.159479
 31
0.0
  0
LINE
  5
1C4
  8
0
 10
-130.964639
 20
-3312.159479
 30
0.0
 11
-130.964639
 21
-3272.159479
 31
0.0
  0
LINE
  5
1C5
  8
0
 10
-130.964639
 20
-3272.159479
 30
0.0
 11
-90.964639
 21
-3272.159479
 31
0.0
  0
LINE
  5
1C6
  8
0
 10
-90.964639
 20
-3312.159479
 30
0.0
 11
-110.964639
 21
-3312.159479
 31
0.0
  0
LINE
  5
1C7
  8
0
 10
-110.964639
 20
-3312.159479
 30
0.0
 11
-130.964639
 21
-3312.159479
 31
0.0
  0
LINE
  5
1C8
  8
0
 10
-320.029114
 20
-3312.159479
 30
0.0
 11
-320.029114
 21
-3322.159479
 31
0.0
  0
LINE
  5
1C9
  8
0
 10
-320.029114
 20
-3342.159479
 30
0.0
 11
-320.029114
 21
-3352.159479
 31
0.0
  0
LINE
  5
1CA
  8
0
 10
-360.029114
 20
-3312.159479
 30
0.0
 11
-360.029114
 21
-3352.159479
 31
0.0
  0
LINE
  5
1CB
  8
0
 10
-320.029114
 20
-3342.159479
 30
0.0
 11
-130.964639
 21
-3342.159479
 31
0.0
  0
LINE
  5
1CC
  8
0
 10
-320.029114
 20
-3322.159479
 30
0.0
 11
-130.964639
 21
-3322.159479
 31
0.0
  0
LINE
  5
1CD
  8
0
 10
-90.964639
 20
-3312.159479
 30
0.0
 11
-90.964639
 21
-3352.159479
 31
0.0
  0
LINE
  5
1CE
  8
0
 10
-130.964639
 20
-3312.159479
 30
0.0
 11
-130.964639
 21
-3322.159479
 31
0.0
  0
LINE
  5
1CF
  8
0
 10
-130.964639
 20
-3342.159479
 30
0.0
 11
-130.964639
 21
-3352.159479
 31
0.0
  0
LINE
  5
1D0
  8
0
 10
-320.029114
 20
-3342.159479
 30
0.0
 11
-320.053183
 21
-3342.111326
 31
0.0
  0
LINE
  5
1D1
  8
0
 10
-320.053183
 20
-3342.111326
 30
0.0
 11
-320.124498
 21
-3341.967332
 31
0.0
  0
LINE
  5
1D2
  8
0
 10
-320.124498
 20
-3341.967332
 30
0.0
 11
-320.125438
 21
-3341.965427
 31
0.0
  0
LINE
  5
1D3
  8
0
 10
-320.125438
 20
-3341.965427
 30
0.0
 11
-320.24108
 21
-3341.728882
 31
0.0
  0
LINE
  5
1D4
  8
0
 10
-320.24108
 20
-3341.728882
 30
0.0
 11
-320.398665
 21
-3341.398274
 31
0.0
  0
LINE
  5
1D5
  8
0
 10
-320.398665
 20
-3341.398274
 30
0.0
 11
-320.413409
 21
-3341.366861
 31
0.0
  0
LINE
  5
1D6
  8
0
 10
-320.413409
 20
-3341.366861
 30
0.0
 11
-320.592557
 21
-3340.97869
 31
0.0
  0
LINE
  5
1D7
  8
0
 10
-320.592557
 20
-3340.97869
 30
0.0
 11
-320.816288
 21
-3340.474173
 31
0.0
  0
LINE
  5
1D8
  8
0
 10
-320.816288
 20
-3340.474173
 30
0.0
 11
-320.890363
 21
-3340.301542
 31
0.0
  0
LINE
  5
1D9
  8
0
 10
-320.890363
 20
-3340.301542
 30
0.0
 11
-321.061929
 21
-3339.889581
 31
0.0
  0
LINE
  5
1DA
  8
0
 10
-321.061929
 20
-3339.889581
 30
0.0
 11
-321.320821
 21
-3339.230544
 31
0.0
  0
LINE
  5
1DB
  8
0
 10
-321.320821
 20
-3339.230544
 30
0.0
 11
-321.551554
 21
-3338.595335
 31
0.0
  0
LINE
  5
1DC
  8
0
 10
-321.551554
 20
-3338.595335
 30
0.0
 11
-321.583369
 21
-3338.50341
 31
0.0
  0
LINE
  5
1DD
  8
0
 10
-321.583369
 20
-3338.50341
 30
0.0
 11
-321.839392
 21
-3337.71518
 31
0.0
  0
LINE
  5
1DE
  8
0
 10
-321.839392
 20
-3337.71518
 30
0.0
 11
-321.856814
 21
-3337.657877
 31
0.0
  0
LINE
  5
1DF
  8
0
 10
-321.856814
 20
-3337.657877
 30
0.0
 11
-322.062673
 21
-3336.933576
 31
0.0
  0
LINE
  5
1E0
  8
0
 10
-322.062673
 20
-3336.933576
 30
0.0
 11
-322.078547
 21
-3336.873446
 31
0.0
  0
LINE
  5
1E1
  8
0
 10
-322.078547
 20
-3336.873446
 30
0.0
 11
-322.290777
 21
-3335.986313
 31
0.0
  0
LINE
  5
1E2
  8
0
 10
-322.290777
 20
-3335.986313
 30
0.0
 11
-322.390663
 21
-3335.493168
 31
0.0
  0
LINE
  5
1E3
  8
0
 10
-322.390663
 20
-3335.493168
 30
0.0
 11
-322.467042
 21
-3335.062325
 31
0.0
  0
LINE
  5
1E4
  8
0
 10
-322.467042
 20
-3335.062325
 30
0.0
 11
-322.598861
 21
-3334.110382
 31
0.0
  0
LINE
  5
1E5
  8
0
 10
-322.598861
 20
-3334.110382
 30
0.0
 11
-322.680781
 21
-3333.13965
 31
0.0
  0
LINE
  5
1E6
  8
0
 10
-322.680781
 20
-3333.13965
 30
0.0
 11
-322.708606
 21
-3332.15945
 31
0.0
  0
LINE
  5
1E7
  8
0
 10
-322.708606
 20
-3332.159507
 30
0.0
 11
-322.680781
 21
-3331.179308
 31
0.0
  0
LINE
  5
1E8
  8
0
 10
-322.680781
 20
-3331.179308
 30
0.0
 11
-322.598861
 21
-3330.208576
 31
0.0
  0
LINE
  5
1E9
  8
0
 10
-322.598861
 20
-3330.208576
 30
0.0
 11
-322.467042
 21
-3329.256632
 31
0.0
  0
LINE
  5
1EA
  8
0
 10
-322.467042
 20
-3329.256632
 30
0.0
 11
-322.390663
 21
-3328.825793
 31
0.0
  0
LINE
  5
1EB
  8
0
 10
-322.390663
 20
-3328.825793
 30
0.0
 11
-322.290777
 21
-3328.332645
 31
0.0
  0
LINE
  5
1EC
  8
0
 10
-322.290777
 20
-3328.332645
 30
0.0
 11
-322.078547
 21
-3327.445511
 31
0.0
  0
LINE
  5
1ED
  8
0
 10
-322.078547
 20
-3327.445511
 30
0.0
 11
-322.062671
 21
-3327.385376
 31
0.0
  0
LINE
  5
1EE
  8
0
 10
-322.062671
 20
-3327.385376
 30
0.0
 11
-321.856814
 21
-3326.661081
 31
0.0
  0
LINE
  5
1EF
  8
0
 10
-321.856814
 20
-3326.661081
 30
0.0
 11
-321.839392
 21
-3326.603777
 31
0.0
  0
LINE
  5
1F0
  8
0
 10
-321.839392
 20
-3326.603777
 30
0.0
 11
-321.583369
 21
-3325.815548
 31
0.0
  0
LINE
  5
1F1
  8
0
 10
-321.583369
 20
-3325.815548
 30
0.0
 11
-321.551554
 21
-3325.723622
 31
0.0
  0
LINE
  5
1F2
  8
0
 10
-321.551554
 20
-3325.723622
 30
0.0
 11
-321.320822
 21
-3325.088414
 31
0.0
  0
LINE
  5
1F3
  8
0
 10
-321.320822
 20
-3325.088414
 30
0.0
 11
-321.061928
 21
-3324.429377
 31
0.0
  0
LINE
  5
1F4
  8
0
 10
-321.061928
 20
-3324.429377
 30
0.0
 11
-320.890357
 21
-3324.017408
 31
0.0
  0
LINE
  5
1F5
  8
0
 10
-320.890357
 20
-3324.017408
 30
0.0
 11
-320.816285
 21
-3323.844784
 31
0.0
  0
LINE
  5
1F6
  8
0
 10
-320.816285
 20
-3323.844784
 30
0.0
 11
-320.592573
 21
-3323.340267
 31
0.0
  0
LINE
  5
1F7
  8
0
 10
-320.592573
 20
-3323.340267
 30
0.0
 11
-320.41347
 21
-3322.952102
 31
0.0
  0
LINE
  5
1F8
  8
0
 10
-320.41347
 20
-3322.952102
 30
0.0
 11
-320.398723
 21
-3322.920684
 31
0.0
  0
LINE
  5
1F9
  8
0
 10
-320.398723
 20
-3322.920684
 30
0.0
 11
-320.241079
 21
-3322.590076
 31
0.0
  0
LINE
  5
1FA
  8
0
 10
-320.241079
 20
-3322.590076
 30
0.0
 11
-320.125406
 21
-3322.353531
 31
0.0
  0
LINE
  5
1FB
  8
0
 10
-320.125406
 20
-3322.353531
 30
0.0
 11
-320.124467
 21
-3322.351626
 31
0.0
  0
LINE
  5
1FC
  8
0
 10
-320.124467
 20
-3322.351626
 30
0.0
 11
-320.053192
 21
-3322.207632
 31
0.0
  0
LINE
  5
1FD
  8
0
 10
-320.053192
 20
-3322.207632
 30
0.0
 11
-320.029114
 21
-3322.159479
 31
0.0
  0
LINE
  5
1FE
  8
0
 10
-320.029114
 20
-3352.159479
 30
0.0
 11
-340.029114
 21
-3352.159479
 31
0.0
  0
LINE
  5
1FF
  8
0
 10
-340.029114
 20
-3352.159479
 30
0.0
 11
-360.029114
 21
-3352.159479
 31
0.0
  0
LINE
  5
200
  8
0
 10
-360.029114
 20
-3312.159479
 30
0.0
 11
-320.029114
 21
-3312.159479
 31
0.0
  0
LINE
  5
201
  8
0
 10
-130.964639
 20
-3342.159479
 30
0.0
 11
-130.940606
 21
-3342.111284
 31
0.0
  0
LINE
  5
202
  8
0
 10
-130.940606
 20
-3342.111284
 30
0.0
 11
-130.869272
 21
-3341.967368
 31
0.0
  0
LINE
  5
203
  8
0
 10
-130.869272
 20
-3341.967368
 30
0.0
 11
-130.868333
 21
-3341.965461
 31
0.0
  0
LINE
  5
204
  8
0
 10
-130.868333
 20
-3341.965461
 30
0.0
 11
-130.752863
 21
-3341.728668
 31
0.0
  0
LINE
  5
205
  8
0
 10
-130.752863
 20
-3341.728668
 30
0.0
 11
-130.595112
 21
-3341.398178
 31
0.0
  0
LINE
  5
206
  8
0
 10
-130.595112
 20
-3341.398178
 30
0.0
 11
-130.58034
 21
-3341.366774
 31
0.0
  0
LINE
  5
207
  8
0
 10
-130.58034
 20
-3341.366774
 30
0.0
 11
-130.401167
 21
-3340.978734
 31
0.0
  0
LINE
  5
208
  8
0
 10
-130.401167
 20
-3340.978734
 30
0.0
 11
-130.177515
 21
-3340.474161
 31
0.0
  0
LINE
  5
209
  8
0
 10
-130.177515
 20
-3340.474161
 30
0.0
 11
-130.103416
 21
-3340.301475
 31
0.0
  0
LINE
  5
20A
  8
0
 10
-130.103416
 20
-3340.301475
 30
0.0
 11
-129.931834
 21
-3339.889572
 31
0.0
  0
LINE
  5
20B
  8
0
 10
-129.931834
 20
-3339.889572
 30
0.0
 11
-129.672926
 21
-3339.230552
 31
0.0
  0
LINE
  5
20C
  8
0
 10
-129.672926
 20
-3339.230552
 30
0.0
 11
-129.442227
 21
-3338.595414
 31
0.0
  0
LINE
  5
20D
  8
0
 10
-129.442227
 20
-3338.595414
 30
0.0
 11
-129.41037
 21
-3338.503374
 31
0.0
  0
LINE
  5
20E
  8
0
 10
-129.41037
 20
-3338.503374
 30
0.0
 11
-129.154356
 21
-3337.715186
 31
0.0
  0
LINE
  5
20F
  8
0
 10
-129.154356
 20
-3337.715186
 30
0.0
 11
-129.136936
 21
-3337.65788
 31
0.0
  0
LINE
  5
210
  8
0
 10
-129.136936
 20
-3337.65788
 30
0.0
 11
-128.931066
 21
-3336.933565
 31
0.0
  0
LINE
  5
211
  8
0
 10
-128.931066
 20
-3336.933565
 30
0.0
 11
-128.915183
 21
-3336.87343
 31
0.0
  0
LINE
  5
212
  8
0
 10
-128.915183
 20
-3336.87343
 30
0.0
 11
-128.702896
 21
-3335.986314
 31
0.0
  0
LINE
  5
213
  8
0
 10
-128.702896
 20
-3335.986314
 30
0.0
 11
-128.603051
 21
-3335.493122
 31
0.0
  0
LINE
  5
214
  8
0
 10
-128.603051
 20
-3335.493122
 30
0.0
 11
-128.526714
 21
-3335.062324
 31
0.0
  0
LINE
  5
215
  8
0
 10
-128.526714
 20
-3335.062324
 30
0.0
 11
-128.394735
 21
-3334.110426
 31
0.0
  0
LINE
  5
216
  8
0
 10
-128.394735
 20
-3334.110426
 30
0.0
 11
-128.312894
 21
-3333.139713
 31
0.0
  0
LINE
  5
217
  8
0
 10
-128.312894
 20
-3333.139713
 30
0.0
 11
-128.285147
 21
-3332.15945
 31
0.0
  0
LINE
  5
218
  8
0
 10
-128.285147
 20
-3332.159507
 30
0.0
 11
-128.312894
 21
-3331.179244
 31
0.0
  0
LINE
  5
219
  8
0
 10
-128.312894
 20
-3331.179244
 30
0.0
 11
-128.394735
 21
-3330.208531
 31
0.0
  0
LINE
  5
21A
  8
0
 10
-128.394735
 20
-3330.208531
 30
0.0
 11
-128.526714
 21
-3329.256634
 31
0.0
  0
LINE
  5
21B
  8
0
 10
-128.526714
 20
-3329.256634
 30
0.0
 11
-128.603051
 21
-3328.825835
 31
0.0
  0
LINE
  5
21C
  8
0
 10
-128.603051
 20
-3328.825835
 30
0.0
 11
-128.702896
 21
-3328.332643
 31
0.0
  0
LINE
  5
21D
  8
0
 10
-128.702896
 20
-3328.332643
 30
0.0
 11
-128.915183
 21
-3327.445527
 31
0.0
  0
LINE
  5
21E
  8
0
 10
-128.915183
 20
-3327.445527
 30
0.0
 11
-128.931066
 21
-3327.385393
 31
0.0
  0
LINE
  5
21F
  8
0
 10
-128.931066
 20
-3327.385393
 30
0.0
 11
-129.136936
 21
-3326.661078
 31
0.0
  0
LINE
  5
220
  8
0
 10
-129.136936
 20
-3326.661078
 30
0.0
 11
-129.154356
 21
-3326.603772
 31
0.0
  0
LINE
  5
221
  8
0
 10
-129.154356
 20
-3326.603772
 30
0.0
 11
-129.41037
 21
-3325.815584
 31
0.0
  0
LINE
  5
222
  8
0
 10
-129.41037
 20
-3325.815584
 30
0.0
 11
-129.442227
 21
-3325.723543
 31
0.0
  0
LINE
  5
223
  8
0
 10
-129.442227
 20
-3325.723543
 30
0.0
 11
-129.672926
 21
-3325.088406
 31
0.0
  0
LINE
  5
224
  8
0
 10
-129.672926
 20
-3325.088406
 30
0.0
 11
-129.931834
 21
-3324.429385
 31
0.0
  0
LINE
  5
225
  8
0
 10
-129.931834
 20
-3324.429385
 30
0.0
 11
-130.103416
 21
-3324.017482
 31
0.0
  0
LINE
  5
226
  8
0
 10
-130.103416
 20
-3324.017482
 30
0.0
 11
-130.177515
 21
-3323.844797
 31
0.0
  0
LINE
  5
227
  8
0
 10
-130.177515
 20
-3323.844797
 30
0.0
 11
-130.401167
 21
-3323.340224
 31
0.0
  0
LINE
  5
228
  8
0
 10
-130.401167
 20
-3323.340224
 30
0.0
 11
-130.58034
 21
-3322.952184
 31
0.0
  0
LINE
  5
229
  8
0
 10
-130.58034
 20
-3322.952184
 30
0.0
 11
-130.595112
 21
-3322.920779
 31
0.0
  0
LINE
  5
22A
  8
0
 10
-130.595112
 20
-3322.920779
 30
0.0
 11
-130.752863
 21
-3322.590289
 31
0.0
  0
LINE
  5
22B
  8
0
 10
-130.752863
 20
-3322.590289
 30
0.0
 11
-130.868333
 21
-3322.353496
 31
0.0
  0
LINE
  5
22C
  8
0
 10
-130.868333
 20
-3322.353496
 30
0.0
 11
-130.869272
 21
-3322.35159
 31
0.0
  0
LINE
  5
22D
  8
0
 10
-130.869272
 20
-3322.35159
 30
0.0
 11
-130.940606
 21
-3322.207673
 31
0.0
  0
LINE
  5
22E
  8
0
 10
-130.940606
 20
-3322.207673
 30
0.0
 11
-130.964639
 21
-3322.159479
 31
0.0
  0
LINE
  5
22F
  8
0
 10
-90.964639
 20
-3352.159479
 30
0.0
 11
-110.964639
 21
-3352.159479
 31
0.0
  0
LINE
  5
230
  8
0
 10
-110.964639
 20
-3352.159479
 30
0.0
 11
-130.964639
 21
-3352.159479
 31
0.0
  0
LINE
  5
231
  8
0
 10
-130.964639
 20
-3312.159479
 30
0.0
 11
-90.964639
 21
-3312.159479
 31
0.0
  0
LINE
  5
232
  8
0
 10
-350.029114
 20
-3352.159479
 30
0.0
 11
-350.029114
 21
-3364.124197
 31
0.0
  0
LINE
  5
233
  8
0
 10
-350.029114
 20
-3304.124197
 30
0.0
 11
-350.029114
 21
-3312.159479
 31
0.0
  0
LINE
  5
234
  8
0
 10
-330.029114
 20
-3352.159479
 30
0.0
 11
-330.029114
 21
-3364.124197
 31
0.0
  0
LINE
  5
235
  8
0
 10
-330.029114
 20
-3304.124197
 30
0.0
 11
-330.029114
 21
-3312.159479
 31
0.0
  0
LINE
  5
236
  8
0
 10
-350.029114
 20
-3304.124197
 30
0.0
 11
-340.029114
 21
-3304.124197
 31
0.0
  0
LINE
  5
237
  8
0
 10
-340.029114
 20
-3304.124197
 30
0.0
 11
-330.029114
 21
-3304.124197
 31
0.0
  0
LINE
  5
238
  8
0
 10
-444.370615
 20
-3364.124197
 30
0.0
 11
-444.370615
 21
-3374.124197
 31
0.0
  0
LINE
  5
239
  8
0
 10
-314.370615
 20
-3364.124197
 30
0.0
 11
-314.370615
 21
-3374.124197
 31
0.0
  0
LINE
  5
23A
  8
0
 10
-314.370615
 20
-3374.124197
 30
0.0
 11
-444.370615
 21
-3374.124197
 31
0.0
  0
LINE
  5
23B
  8
0
 10
-444.370615
 20
-3364.124197
 30
0.0
 11
-379.370615
 21
-3364.124197
 31
0.0
  0
LINE
  5
23C
  8
0
 10
-379.370615
 20
-3364.124197
 30
0.0
 11
-314.370615
 21
-3364.124197
 31
0.0
  0
LINE
  5
23D
  8
0
 10
-491.22684
 20
-3381.289892
 30
0.0
 11
-491.22684
 21
-3391.289892
 31
0.0
  0
LINE
  5
23E
  8
0
 10
-491.22684
 20
-3411.289892
 30
0.0
 11
-491.22684
 21
-3421.289892
 31
0.0
  0
LINE
  5
23F
  8
0
 10
-531.22684
 20
-3381.289892
 30
0.0
 11
-531.22684
 21
-3421.289892
 31
0.0
  0
LINE
  5
240
  8
0
 10
-491.22684
 20
-3411.289892
 30
0.0
 11
-399.370615
 21
-3411.289892
 31
0.0
  0
LINE
  5
241
  8
0
 10
-491.22684
 20
-3391.289892
 30
0.0
 11
-399.370615
 21
-3391.289892
 31
0.0
  0
LINE
  5
242
  8
0
 10
-359.370615
 20
-3381.289892
 30
0.0
 11
-359.370615
 21
-3421.289892
 31
0.0
  0
LINE
  5
243
  8
0
 10
-399.370615
 20
-3381.289892
 30
0.0
 11
-399.370615
 21
-3391.289892
 31
0.0
  0
LINE
  5
244
  8
0
 10
-399.370615
 20
-3411.289892
 30
0.0
 11
-399.370615
 21
-3421.289892
 31
0.0
  0
LINE
  5
245
  8
0
 10
-491.22684
 20
-3411.289892
 30
0.0
 11
-491.250908
 21
-3411.24174
 31
0.0
  0
LINE
  5
246
  8
0
 10
-491.250908
 20
-3411.24174
 30
0.0
 11
-491.322223
 21
-3411.097745
 31
0.0
  0
LINE
  5
247
  8
0
 10
-491.322223
 20
-3411.097745
 30
0.0
 11
-491.323163
 21
-3411.095841
 31
0.0
  0
LINE
  5
248
  8
0
 10
-491.323163
 20
-3411.095841
 30
0.0
 11
-491.438805
 21
-3410.859296
 31
0.0
  0
LINE
  5
249
  8
0
 10
-491.438805
 20
-3410.859296
 30
0.0
 11
-491.59639
 21
-3410.528687
 31
0.0
  0
LINE
  5
24A
  8
0
 10
-491.59639
 20
-3410.528687
 30
0.0
 11
-491.611134
 21
-3410.497275
 31
0.0
  0
LINE
  5
24B
  8
0
 10
-491.611134
 20
-3410.497275
 30
0.0
 11
-491.790282
 21
-3410.109104
 31
0.0
  0
LINE
  5
24C
  8
0
 10
-491.790282
 20
-3410.109104
 30
0.0
 11
-492.014014
 21
-3409.604587
 31
0.0
  0
LINE
  5
24D
  8
0
 10
-492.014014
 20
-3409.604587
 30
0.0
 11
-492.088088
 21
-3409.431956
 31
0.0
  0
LINE
  5
24E
  8
0
 10
-492.088088
 20
-3409.431956
 30
0.0
 11
-492.259654
 21
-3409.019994
 31
0.0
  0
LINE
  5
24F
  8
0
 10
-492.259654
 20
-3409.019994
 30
0.0
 11
-492.518546
 21
-3408.360957
 31
0.0
  0
LINE
  5
250
  8
0
 10
-492.518546
 20
-3408.360957
 30
0.0
 11
-492.749279
 21
-3407.725749
 31
0.0
  0
LINE
  5
251
  8
0
 10
-492.749279
 20
-3407.725749
 30
0.0
 11
-492.781094
 21
-3407.633823
 31
0.0
  0
LINE
  5
252
  8
0
 10
-492.781094
 20
-3407.633823
 30
0.0
 11
-493.037117
 21
-3406.845594
 31
0.0
  0
LINE
  5
253
  8
0
 10
-493.037117
 20
-3406.845594
 30
0.0
 11
-493.054539
 21
-3406.788291
 31
0.0
  0
LINE
  5
254
  8
0
 10
-493.054539
 20
-3406.788291
 30
0.0
 11
-493.260398
 21
-3406.063989
 31
0.0
  0
LINE
  5
255
  8
0
 10
-493.260398
 20
-3406.063989
 30
0.0
 11
-493.276272
 21
-3406.00386
 31
0.0
  0
LINE
  5
256
  8
0
 10
-493.276272
 20
-3406.00386
 30
0.0
 11
-493.488502
 21
-3405.116726
 31
0.0
  0
LINE
  5
257
  8
0
 10
-493.488502
 20
-3405.116726
 30
0.0
 11
-493.588388
 21
-3404.623582
 31
0.0
  0
LINE
  5
258
  8
0
 10
-493.588388
 20
-3404.623582
 30
0.0
 11
-493.664767
 21
-3404.192739
 31
0.0
  0
LINE
  5
259
  8
0
 10
-493.664767
 20
-3404.192739
 30
0.0
 11
-493.796586
 21
-3403.240795
 31
0.0
  0
LINE
  5
25A
  8
0
 10
-493.796586
 20
-3403.240795
 30
0.0
 11
-493.878506
 21
-3402.270064
 31
0.0
  0
LINE
  5
25B
  8
0
 10
-493.878506
 20
-3402.270064
 30
0.0
 11
-493.906331
 21
-3401.289864
 31
0.0
  0
LINE
  5
25C
  8
0
 10
-493.906331
 20
-3401.289921
 30
0.0
 11
-493.878506
 21
-3400.309721
 31
0.0
  0
LINE
  5
25D
  8
0
 10
-493.878506
 20
-3400.309721
 30
0.0
 11
-493.796586
 21
-3399.338989
 31
0.0
  0
LINE
  5
25E
  8
0
 10
-493.796586
 20
-3399.338989
 30
0.0
 11
-493.664767
 21
-3398.387046
 31
0.0
  0
LINE
  5
25F
  8
0
 10
-493.664767
 20
-3398.387046
 30
0.0
 11
-493.588388
 21
-3397.956206
 31
0.0
  0
LINE
  5
260
  8
0
 10
-493.588388
 20
-3397.956206
 30
0.0
 11
-493.488502
 21
-3397.463058
 31
0.0
  0
LINE
  5
261
  8
0
 10
-493.488502
 20
-3397.463058
 30
0.0
 11
-493.276272
 21
-3396.575925
 31
0.0
  0
LINE
  5
262
  8
0
 10
-493.276272
 20
-3396.575925
 30
0.0
 11
-493.260396
 21
-3396.51579
 31
0.0
  0
LINE
  5
263
  8
0
 10
-493.260396
 20
-3396.51579
 30
0.0
 11
-493.05454
 21
-3395.791495
 31
0.0
  0
LINE
  5
264
  8
0
 10
-493.05454
 20
-3395.791495
 30
0.0
 11
-493.037117
 21
-3395.734191
 31
0.0
  0
LINE
  5
265
  8
0
 10
-493.037117
 20
-3395.734191
 30
0.0
 11
-492.781094
 21
-3394.945962
 31
0.0
  0
LINE
  5
266
  8
0
 10
-492.781094
 20
-3394.945962
 30
0.0
 11
-492.749279
 21
-3394.854036
 31
0.0
  0
LINE
  5
267
  8
0
 10
-492.749279
 20
-3394.854036
 30
0.0
 11
-492.518547
 21
-3394.218827
 31
0.0
  0
LINE
  5
268
  8
0
 10
-492.518547
 20
-3394.218827
 30
0.0
 11
-492.259653
 21
-3393.559791
 31
0.0
  0
LINE
  5
269
  8
0
 10
-492.259653
 20
-3393.559791
 30
0.0
 11
-492.088082
 21
-3393.147822
 31
0.0
  0
LINE
  5
26A
  8
0
 10
-492.088082
 20
-3393.147822
 30
0.0
 11
-492.01401
 21
-3392.975198
 31
0.0
  0
LINE
  5
26B
  8
0
 10
-492.01401
 20
-3392.975198
 30
0.0
 11
-491.790298
 21
-3392.470681
 31
0.0
  0
LINE
  5
26C
  8
0
 10
-491.790298
 20
-3392.470681
 30
0.0
 11
-491.611195
 21
-3392.082516
 31
0.0
  0
LINE
  5
26D
  8
0
 10
-491.611195
 20
-3392.082516
 30
0.0
 11
-491.596448
 21
-3392.051097
 31
0.0
  0
LINE
  5
26E
  8
0
 10
-491.596448
 20
-3392.051097
 30
0.0
 11
-491.438804
 21
-3391.720489
 31
0.0
  0
LINE
  5
26F
  8
0
 10
-491.438804
 20
-3391.720489
 30
0.0
 11
-491.323131
 21
-3391.483944
 31
0.0
  0
LINE
  5
270
  8
0
 10
-491.323131
 20
-3391.483944
 30
0.0
 11
-491.322192
 21
-3391.48204
 31
0.0
  0
LINE
  5
271
  8
0
 10
-491.322192
 20
-3391.48204
 30
0.0
 11
-491.250917
 21
-3391.338045
 31
0.0
  0
LINE
  5
272
  8
0
 10
-491.250917
 20
-3391.338045
 30
0.0
 11
-491.22684
 21
-3391.289892
 31
0.0
  0
LINE
  5
273
  8
0
 10
-491.22684
 20
-3421.289892
 30
0.0
 11
-491.72684
 21
-3421.289892
 31
0.0
  0
LINE
  5
274
  8
0
 10
-530.72684
 20
-3421.289892
 30
0.0
 11
-531.22684
 21
-3421.289892
 31
0.0
  0
LINE
  5
275
  8
0
 10
-531.22684
 20
-3381.289892
 30
0.0
 11
-491.22684
 21
-3381.289892
 31
0.0
  0
LINE
  5
276
  8
0
 10
-399.370615
 20
-3411.289892
 30
0.0
 11
-399.346582
 21
-3411.241698
 31
0.0
  0
LINE
  5
277
  8
0
 10
-399.346582
 20
-3411.241698
 30
0.0
 11
-399.275248
 21
-3411.097781
 31
0.0
  0
LINE
  5
278
  8
0
 10
-399.275248
 20
-3411.097781
 30
0.0
 11
-399.274309
 21
-3411.095875
 31
0.0
  0
LINE
  5
279
  8
0
 10
-399.274309
 20
-3411.095875
 30
0.0
 11
-399.158839
 21
-3410.859082
 31
0.0
  0
LINE
  5
27A
  8
0
 10
-399.158839
 20
-3410.859082
 30
0.0
 11
-399.001088
 21
-3410.528592
 31
0.0
  0
LINE
  5
27B
  8
0
 10
-399.001088
 20
-3410.528592
 30
0.0
 11
-398.986316
 21
-3410.497188
 31
0.0
  0
LINE
  5
27C
  8
0
 10
-398.986316
 20
-3410.497188
 30
0.0
 11
-398.807144
 21
-3410.109148
 31
0.0
  0
LINE
  5
27D
  8
0
 10
-398.807144
 20
-3410.109148
 30
0.0
 11
-398.583491
 21
-3409.604574
 31
0.0
  0
LINE
  5
27E
  8
0
 10
-398.583491
 20
-3409.604574
 30
0.0
 11
-398.509392
 21
-3409.431889
 31
0.0
  0
LINE
  5
27F
  8
0
 10
-398.509392
 20
-3409.431889
 30
0.0
 11
-398.33781
 21
-3409.019986
 31
0.0
  0
LINE
  5
280
  8
0
 10
-398.33781
 20
-3409.019986
 30
0.0
 11
-398.078902
 21
-3408.360966
 31
0.0
  0
LINE
  5
281
  8
0
 10
-398.078902
 20
-3408.360966
 30
0.0
 11
-397.848203
 21
-3407.725828
 31
0.0
  0
LINE
  5
282
  8
0
 10
-397.848203
 20
-3407.725828
 30
0.0
 11
-397.816346
 21
-3407.633788
 31
0.0
  0
LINE
  5
283
  8
0
 10
-397.816346
 20
-3407.633788
 30
0.0
 11
-397.560332
 21
-3406.845599
 31
0.0
  0
LINE
  5
284
  8
0
 10
-397.560332
 20
-3406.845599
 30
0.0
 11
-397.542912
 21
-3406.788294
 31
0.0
  0
LINE
  5
285
  8
0
 10
-397.542912
 20
-3406.788294
 30
0.0
 11
-397.337042
 21
-3406.063978
 31
0.0
  0
LINE
  5
286
  8
0
 10
-397.337042
 20
-3406.063978
 30
0.0
 11
-397.321159
 21
-3406.003844
 31
0.0
  0
LINE
  5
287
  8
0
 10
-397.321159
 20
-3406.003844
 30
0.0
 11
-397.108872
 21
-3405.116728
 31
0.0
  0
LINE
  5
288
  8
0
 10
-397.108872
 20
-3405.116728
 30
0.0
 11
-397.009027
 21
-3404.623536
 31
0.0
  0
LINE
  5
289
  8
0
 10
-397.009027
 20
-3404.623536
 30
0.0
 11
-396.93269
 21
-3404.192737
 31
0.0
  0
LINE
  5
28A
  8
0
 10
-396.93269
 20
-3404.192737
 30
0.0
 11
-396.800711
 21
-3403.24084
 31
0.0
  0
LINE
  5
28B
  8
0
 10
-396.800711
 20
-3403.24084
 30
0.0
 11
-396.71887
 21
-3402.270127
 31
0.0
  0
LINE
  5
28C
  8
0
 10
-396.71887
 20
-3402.270127
 30
0.0
 11
-396.691123
 21
-3401.289864
 31
0.0
  0
LINE
  5
28D
  8
0
 10
-396.691123
 20
-3401.289921
 30
0.0
 11
-396.71887
 21
-3400.309658
 31
0.0
  0
LINE
  5
28E
  8
0
 10
-396.71887
 20
-3400.309658
 30
0.0
 11
-396.800711
 21
-3399.338945
 31
0.0
  0
LINE
  5
28F
  8
0
 10
-396.800711
 20
-3399.338945
 30
0.0
 11
-396.93269
 21
-3398.387048
 31
0.0
  0
LINE
  5
290
  8
0
 10
-396.93269
 20
-3398.387048
 30
0.0
 11
-397.009027
 21
-3397.956249
 31
0.0
  0
LINE
  5
291
  8
0
 10
-397.009027
 20
-3397.956249
 30
0.0
 11
-397.108872
 21
-3397.463057
 31
0.0
  0
LINE
  5
292
  8
0
 10
-397.108872
 20
-3397.463057
 30
0.0
 11
-397.321159
 21
-3396.575941
 31
0.0
  0
LINE
  5
293
  8
0
 10
-397.321159
 20
-3396.575941
 30
0.0
 11
-397.337042
 21
-3396.515806
 31
0.0
  0
LINE
  5
294
  8
0
 10
-397.337042
 20
-3396.515806
 30
0.0
 11
-397.542912
 21
-3395.791491
 31
0.0
  0
LINE
  5
295
  8
0
 10
-397.542912
 20
-3395.791491
 30
0.0
 11
-397.560332
 21
-3395.734185
 31
0.0
  0
LINE
  5
296
  8
0
 10
-397.560332
 20
-3395.734185
 30
0.0
 11
-397.816346
 21
-3394.945997
 31
0.0
  0
LINE
  5
297
  8
0
 10
-397.816346
 20
-3394.945997
 30
0.0
 11
-397.848203
 21
-3394.853957
 31
0.0
  0
LINE
  5
298
  8
0
 10
-397.848203
 20
-3394.853957
 30
0.0
 11
-398.078902
 21
-3394.218819
 31
0.0
  0
LINE
  5
299
  8
0
 10
-398.078902
 20
-3394.218819
 30
0.0
 11
-398.33781
 21
-3393.559799
 31
0.0
  0
LINE
  5
29A
  8
0
 10
-398.33781
 20
-3393.559799
 30
0.0
 11
-398.509392
 21
-3393.147896
 31
0.0
  0
LINE
  5
29B
  8
0
 10
-398.509392
 20
-3393.147896
 30
0.0
 11
-398.583491
 21
-3392.97521
 31
0.0
  0
LINE
  5
29C
  8
0
 10
-398.583491
 20
-3392.97521
 30
0.0
 11
-398.807144
 21
-3392.470637
 31
0.0
  0
LINE
  5
29D
  8
0
 10
-398.807144
 20
-3392.470637
 30
0.0
 11
-398.986316
 21
-3392.082597
 31
0.0
  0
LINE
  5
29E
  8
0
 10
-398.986316
 20
-3392.082597
 30
0.0
 11
-399.001088
 21
-3392.051193
 31
0.0
  0
LINE
  5
29F
  8
0
 10
-399.001088
 20
-3392.051193
 30
0.0
 11
-399.158839
 21
-3391.720703
 31
0.0
  0
LINE
  5
2A0
  8
0
 10
-399.158839
 20
-3391.720703
 30
0.0
 11
-399.274309
 21
-3391.48391
 31
0.0
  0
LINE
  5
2A1
  8
0
 10
-399.274309
 20
-3391.48391
 30
0.0
 11
-399.275248
 21
-3391.482004
 31
0.0
  0
LINE
  5
2A2
  8
0
 10
-399.275248
 20
-3391.482004
 30
0.0
 11
-399.346582
 21
-3391.338087
 31
0.0
  0
LINE
  5
2A3
  8
0
 10
-399.346582
 20
-3391.338087
 30
0.0
 11
-399.370615
 21
-3391.289892
 31
0.0
  0
LINE
  5
2A4
  8
0
 10
-359.370615
 20
-3421.289892
 30
0.0
 11
-369.370615
 21
-3421.289892
 31
0.0
  0
LINE
  5
2A5
  8
0
 10
-389.370615
 20
-3421.289892
 30
0.0
 11
-399.370615
 21
-3421.289892
 31
0.0
  0
LINE
  5
2A6
  8
0
 10
-369.370615
 20
-3381.289892
 30
0.0
 11
-359.370615
 21
-3381.289892
 31
0.0
  0
LINE
  5
2A7
  8
0
 10
-399.370615
 20
-3381.289892
 30
0.0
 11
-389.370615
 21
-3381.289892
 31
0.0
  0
LINE
  5
2A8
  8
0
 10
-521.22684
 20
-3364.124197
 30
0.0
 11
-521.22684
 21
-3381.289892
 31
0.0
  0
LINE
  5
2A9
  8
0
 10
-501.22684
 20
-3364.124197
 30
0.0
 11
-501.22684
 21
-3381.289892
 31
0.0
  0
LINE
  5
2AA
  8
0
 10
-521.22684
 20
-3364.124197
 30
0.0
 11
-511.22684
 21
-3364.124197
 31
0.0
  0
LINE
  5
2AB
  8
0
 10
-511.22684
 20
-3364.124197
 30
0.0
 11
-501.22684
 21
-3364.124197
 31
0.0
  0
ARC
  5
2AC
  8
0
 10
-533.72684
 20
-3446.124197
 30
0.0
 40
1.0
 50
180.0
 51
270.0
  0
ARC
  5
2AD
  8
0
 10
-488.72684
 20
-3446.124197
 30
0.0
 40
1.0
 50
270.0
 51
0.0
  0
ARC
  5
2AE
  8
0
 10
-494.02684
 20
-3567.424197
 30
0.0
 40
0.3
 50
0.0
 51
84.375
  0
LINE
  5
2AF
  8
0
 10
-493.72684
 20
-3574.374197
 30
0.0
 11
-493.72684
 21
-3576.824197
 31
0.0
  0
LINE
  5
2B0
  8
0
 10
-495.22684
 20
-3573.924197
 30
0.0
 11
-495.22684
 21
-3574.374197
 31
0.0
  0
LINE
  5
2B1
  8
0
 10
-493.72684
 20
-3570.324197
 30
0.0
 11
-493.72684
 21
-3573.924197
 31
0.0
  0
LINE
  5
2B2
  8
0
 10
-495.22684
 20
-3569.874197
 30
0.0
 11
-495.22684
 21
-3570.324197
 31
0.0
  0
LINE
  5
2B3
  8
0
 10
-493.72684
 20
-3567.424197
 30
0.0
 11
-493.72684
 21
-3569.874197
 31
0.0
  0
ARC
  5
2B4
  8
0
 10
-528.42684
 20
-3567.424197
 30
0.0
 40
0.3
 50
95.625
 51
180.0
  0
LINE
  5
2B5
  8
0
 10
-528.72684
 20
-3574.374197
 30
0.0
 11
-528.72684
 21
-3576.824197
 31
0.0
  0
LINE
  5
2B6
  8
0
 10
-527.22684
 20
-3573.924197
 30
0.0
 11
-527.22684
 21
-3574.374197
 31
0.0
  0
LINE
  5
2B7
  8
0
 10
-528.72684
 20
-3570.324197
 30
0.0
 11
-528.72684
 21
-3573.924197
 31
0.0
  0
LINE
  5
2B8
  8
0
 10
-527.22684
 20
-3569.874197
 30
0.0
 11
-527.22684
 21
-3570.324197
 31
0.0
  0
LINE
  5
2B9
  8
0
 10
-528.72684
 20
-3567.424197
 30
0.0
 11
-528.72684
 21
-3569.874197
 31
0.0
  0
LINE
  5
2BA
  8
0
 10
-528.72684
 20
-3574.374197
 30
0.0
 11
-493.72684
 21
-3574.374197
 31
0.0
  0
LINE
  5
2BB
  8
0
 10
-493.72684
 20
-3573.924197
 30
0.0
 11
-511.22684
 21
-3573.924197
 31
0.0
  0
LINE
  5
2BC
  8
0
 10
-511.22684
 20
-3573.924197
 30
0.0
 11
-528.72684
 21
-3573.924197
 31
0.0
  0
LINE
  5
2BD
  8
0
 10
-528.72684
 20
-3570.324197
 30
0.0
 11
-493.72684
 21
-3570.324197
 31
0.0
  0
LINE
  5
2BE
  8
0
 10
-493.72684
 20
-3569.874197
 30
0.0
 11
-511.22684
 21
-3569.874197
 31
0.0
  0
LINE
  5
2BF
  8
0
 10
-511.22684
 20
-3569.874197
 30
0.0
 11
-528.72684
 21
-3569.874197
 31
0.0
  0
LINE
  5
2C0
  8
0
 10
-493.72684
 20
-3567.424197
 30
0.0
 11
-511.22684
 21
-3567.424197
 31
0.0
  0
LINE
  5
2C1
  8
0
 10
-511.22684
 20
-3567.424197
 30
0.0
 11
-528.72684
 21
-3567.424197
 31
0.0
  0
LINE
  5
2C2
  8
0
 10
-446.22684
 20
-3434.124197
 30
0.0
 11
-446.22684
 21
-3424.124197
 31
0.0
  0
LINE
  5
2C3
  8
0
 10
-576.22684
 20
-3434.124197
 30
0.0
 11
-576.22684
 21
-3424.124197
 31
0.0
  0
LINE
  5
2C4
  8
0
 10
-576.22684
 20
-3424.124197
 30
0.0
 11
-446.22684
 21
-3424.124197
 31
0.0
  0
LINE
  5
2C5
  8
0
 10
-446.22684
 20
-3434.124197
 30
0.0
 11
-511.22684
 21
-3434.124197
 31
0.0
  0
LINE
  5
2C6
  8
0
 10
-511.22684
 20
-3434.124197
 30
0.0
 11
-576.22684
 21
-3434.124197
 31
0.0
  0
LINE
  5
2C7
  8
0
 10
-471.22684
 20
-3446.124197
 30
0.0
 11
-471.22684
 21
-3434.124197
 31
0.0
  0
LINE
  5
2C8
  8
0
 10
-551.22684
 20
-3446.124197
 30
0.0
 11
-551.22684
 21
-3434.124197
 31
0.0
  0
LINE
  5
2C9
  8
0
 10
-471.22684
 20
-3446.124197
 30
0.0
 11
-511.22684
 21
-3446.124197
 31
0.0
  0
LINE
  5
2CA
  8
0
 10
-511.22684
 20
-3446.124197
 30
0.0
 11
-551.22684
 21
-3446.124197
 31
0.0
  0
LINE
  5
2CB
  8
0
 10
-551.22684
 20
-3557.124197
 30
0.0
 11
-551.22684
 21
-3567.124197
 31
0.0
  0
LINE
  5
2CC
  8
0
 10
-471.22684
 20
-3557.124197
 30
0.0
 11
-471.22684
 21
-3567.124197
 31
0.0
  0
LINE
  5
2CD
  8
0
 10
-471.22684
 20
-3567.124197
 30
0.0
 11
-551.22684
 21
-3567.124197
 31
0.0
  0
LINE
  5
2CE
  8
0
 10
-551.22684
 20
-3557.124197
 30
0.0
 11
-511.22684
 21
-3557.124197
 31
0.0
  0
LINE
  5
2CF
  8
0
 10
-511.22684
 20
-3557.124197
 30
0.0
 11
-471.431216
 21
-3557.124197
 31
0.0
  0
LINE
  5
2D0
  8
0
 10
-560.461061
 20
-3576.824197
 30
0.0
 11
-580.461061
 21
-3576.824197
 31
0.0
  0
LINE
  5
2D1
  8
0
 10
-560.461061
 20
-3586.824197
 30
0.0
 11
-580.461061
 21
-3586.824197
 31
0.0
  0
LINE
  5
2D2
  8
0
 10
-560.461061
 20
-3586.824197
 30
0.0
 11
-560.461061
 21
-3576.824197
 31
0.0
  0
LINE
  5
2D3
  8
0
 10
-580.461061
 20
-3586.824197
 30
0.0
 11
-580.461061
 21
-3576.824197
 31
0.0
  0
LINE
  5
2D4
  8
0
 10
-560.461061
 20
-3447.124197
 30
0.0
 11
-580.461061
 21
-3447.124197
 31
0.0
  0
LINE
  5
2D5
  8
0
 10
-560.461061
 20
-3457.124197
 30
0.0
 11
-580.461061
 21
-3457.124197
 31
0.0
  0
LINE
  5
2D6
  8
0
 10
-560.461061
 20
-3457.124197
 30
0.0
 11
-560.461061
 21
-3447.124197
 31
0.0
  0
LINE
  5
2D7
  8
0
 10
-580.461061
 20
-3457.124197
 30
0.0
 11
-580.461061
 21
-3447.124197
 31
0.0
  0
LINE
  5
2EC
  8
0
 10
-471.431216
 20
-3557.124197
 30
0.0
 11
-247.665135
 21
-3557.124197
 31
0.0
  0
LINE
  5
2ED
  8
0
 10
-497.665135
 20
-3457.124197
 30
0.0
 11
-497.665135
 21
-3557.124197
 31
0.0
  0
LINE
  5
2EE
  8
0
 10
-291.318519
 20
-3457.124197
 30
0.0
 11
-471.432398
 21
-3457.124197
 31
0.0
  0
LINE
  5
2EF
  8
0
 10
-344.873386
 20
-3457.124197
 30
0.0
 11
-370.21446
 21
-3457.124197
 31
0.0
  0
LINE
  5
2F0
  8
0
 10
-344.873386
 20
-3557.124197
 30
0.0
 11
-344.873386
 21
-3457.124197
 31
0.0
  0
LINE
  5
2F1
  8
0
 10
-524.82684
 20
-3557.124197
 30
0.0
 11
-524.82684
 21
-3457.124197
 31
0.0
  0
LINE
  5
2F5
  8
0
 10
-461.483307
 20
-3437.124197
 30
0.0
 11
-461.483307
 21
-3444.024197
 31
0.0
  0
LINE
  5
2F6
  8
0
 10
-461.483307
 20
-3444.024197
 30
0.0
 11
-461.483307
 21
-3451.024197
 31
0.0
  0
LINE
  5
2F7
  8
0
 10
-461.483307
 20
-3557.124197
 30
0.0
 11
-461.483307
 21
-3563.224197
 31
0.0
  0
LINE
  5
2F8
  8
0
 10
-461.483307
 20
-3451.024197
 30
0.0
 11
-461.483307
 21
-3457.124197
 31
0.0
  0
LINE
  5
2F9
  8
0
 10
-461.483307
 20
-3563.224197
 30
0.0
 11
-461.483307
 21
-3570.224197
 31
0.0
  0
LINE
  5
2FA
  8
0
 10
-461.483307
 20
-3570.224197
 30
0.0
 11
-461.483307
 21
-3577.124197
 31
0.0
  0
LINE
  5
303
  8
0
 10
-461.483307
 20
-3451.024197
 30
0.0
 11
-292.095049
 21
-3451.024197
 31
0.0
  0
LINE
  5
304
  8
0
 10
-471.22684
 20
-3447.124197
 30
0.0
 11
-471.22684
 21
-3457.124197
 31
0.0
  0
LINE
  5
305
  8
0
 10
-511.22684
 20
-3447.124197
 30
0.0
 11
-471.22684
 21
-3447.124197
 31
0.0
  0
LINE
  5
306
  8
0
 10
-560.461061
 20
-3447.124197
 30
0.0
 11
-511.22684
 21
-3447.124197
 31
0.0
  0
LINE
  5
307
  8
0
 10
-471.432398
 20
-3457.124197
 30
0.0
 11
-511.22684
 21
-3457.124197
 31
0.0
  0
LINE
  5
308
  8
0
 10
-560.461061
 20
-3457.124197
 30
0.0
 11
-511.22684
 21
-3457.124197
 31
0.0
  0
LINE
  5
309
  8
0
 10
-511.22684
 20
-3457.124197
 30
0.0
 11
-511.22684
 21
-3447.124197
 31
0.0
  0
LINE
  5
30A
  8
0
 10
-560.461061
 20
-3457.124197
 30
0.0
 11
-560.461061
 21
-3447.124197
 31
0.0
  0
LINE
  5
30B
  8
0
 10
-471.22684
 20
-3586.824197
 30
0.0
 11
-471.22684
 21
-3576.824197
 31
0.0
  0
LINE
  5
30C
  8
0
 10
-471.22684
 20
-3586.824197
 30
0.0
 11
-511.22684
 21
-3586.824197
 31
0.0
  0
LINE
  5
30D
  8
0
 10
-511.22684
 20
-3586.824197
 30
0.0
 11
-560.461061
 21
-3586.824197
 31
0.0
  0
LINE
  5
30E
  8
0
 10
-511.22684
 20
-3576.824197
 30
0.0
 11
-471.22684
 21
-3576.824197
 31
0.0
  0
LINE
  5
30F
  8
0
 10
-511.22684
 20
-3576.824197
 30
0.0
 11
-560.461061
 21
-3576.824197
 31
0.0
  0
LINE
  5
310
  8
0
 10
-511.22684
 20
-3576.824197
 30
0.0
 11
-511.22684
 21
-3586.824197
 31
0.0
  0
LINE
  5
311
  8
0
 10
-560.461061
 20
-3576.824197
 30
0.0
 11
-560.461061
 21
-3586.824197
 31
0.0
  0
LINE
  5
312
  8
0
 10
-491.72684
 20
-3424.124197
 30
0.0
 11
-491.72684
 21
-3421.124197
 31
0.0
  0
LINE
  5
313
  8
0
 10
-530.72684
 20
-3424.124197
 30
0.0
 11
-530.72684
 21
-3421.124197
 31
0.0
  0
LINE
  5
314
  8
0
 10
-530.72684
 20
-3421.124197
 30
0.0
 11
-511.22684
 21
-3421.124197
 31
0.0
  0
LINE
  5
315
  8
0
 10
-511.22684
 20
-3421.124197
 30
0.0
 11
-491.72684
 21
-3421.124197
 31
0.0
  0
LINE
  5
316
  8
0
 10
-491.72684
 20
-3589.824197
 30
0.0
 11
-491.72684
 21
-3586.824197
 31
0.0
  0
LINE
  5
317
  8
0
 10
-530.72684
 20
-3589.824197
 30
0.0
 11
-530.72684
 21
-3586.824197
 31
0.0
  0
LINE
  5
318
  8
0
 10
-511.22684
 20
-3589.824197
 30
0.0
 11
-530.72684
 21
-3589.824197
 31
0.0
  0
LINE
  5
319
  8
0
 10
-491.72684
 20
-3589.824197
 30
0.0
 11
-511.22684
 21
-3589.824197
 31
0.0
  0
LINE
  5
31A
  8
0
 10
-493.906331
 20
-3606.571325
 30
0.0
 11
-496.07684
 21
-3607.824197
 31
0.0
  0
LINE
  5
31B
  8
0
 10
-528.547348
 20
-3606.571325
 30
0.0
 11
-526.37684
 21
-3607.824197
 31
0.0
  0
LINE
  5
31C
  8
0
 10
-493.906331
 20
-3591.07707
 30
0.0
 11
-496.07684
 21
-3589.824197
 31
0.0
  0
LINE
  5
31D
  8
0
 10
-528.547348
 20
-3591.07707
 30
0.0
 11
-526.37684
 21
-3589.824197
 31
0.0
  0
LINE
  5
31E
  8
0
 10
-493.906331
 20
-3591.07707
 30
0.0
 11
-494.800576
 21
-3590.603035
 31
0.0
  0
LINE
  5
31F
  8
0
 10
-494.800576
 20
-3590.603035
 30
0.0
 11
-495.620672
 21
-3590.249423
 31
0.0
  0
LINE
  5
320
  8
0
 10
-495.620672
 20
-3590.249423
 30
0.0
 11
-496.388639
 21
-3589.996609
 31
0.0
  0
LINE
  5
321
  8
0
 10
-496.388639
 20
-3589.996609
 30
0.0
 11
-497.121764
 21
-3589.832718
 31
0.0
  0
LINE
  5
322
  8
0
 10
-497.121764
 20
-3589.832718
 30
0.0
 11
-497.173414
 21
-3589.824197
 31
0.0
  0
LINE
  5
323
  8
0
 10
-493.906331
 20
-3606.571325
 30
0.0
 11
-493.906331
 21
-3591.07707
 31
0.0
  0
LINE
  5
324
  8
0
 10
-493.906331
 20
-3606.571325
 30
0.0
 11
-494.800576
 21
-3607.045359
 31
0.0
  0
LINE
  5
325
  8
0
 10
-494.800576
 20
-3607.045359
 30
0.0
 11
-495.620672
 21
-3607.398971
 31
0.0
  0
LINE
  5
326
  8
0
 10
-495.620672
 20
-3607.398971
 30
0.0
 11
-496.388639
 21
-3607.651785
 31
0.0
  0
LINE
  5
327
  8
0
 10
-496.388639
 20
-3607.651785
 30
0.0
 11
-497.121764
 21
-3607.815676
 31
0.0
  0
LINE
  5
328
  8
0
 10
-497.121764
 20
-3607.815676
 30
0.0
 11
-497.173414
 21
-3607.824197
 31
0.0
  0
LINE
  5
329
  8
0
 10
-499.299503
 20
-3607.824197
 30
0.0
 11
-497.173414
 21
-3607.824197
 31
0.0
  0
LINE
  5
32A
  8
0
 10
-499.299503
 20
-3607.824197
 30
0.0
 11
-499.35114
 21
-3607.815678
 31
0.0
  0
LINE
  5
32B
  8
0
 10
-499.35114
 20
-3607.815678
 30
0.0
 11
-500.084247
 21
-3607.651794
 31
0.0
  0
LINE
  5
32C
  8
0
 10
-500.084247
 20
-3607.651794
 30
0.0
 11
-500.852198
 21
-3607.398989
 31
0.0
  0
LINE
  5
32D
  8
0
 10
-500.852198
 20
-3607.398989
 30
0.0
 11
-501.672273
 21
-3607.045392
 31
0.0
  0
LINE
  5
32E
  8
0
 10
-501.672273
 20
-3607.045392
 30
0.0
 11
-502.566447
 21
-3606.571399
 31
0.0
  0
LINE
  5
32F
  8
0
 10
-502.566447
 20
-3606.571399
 30
0.0
 11
-502.566582
 21
-3606.571321
 31
0.0
  0
LINE
  5
330
  8
0
 10
-502.566582
 20
-3606.571321
 30
0.0
 11
-502.566582
 21
-3591.077073
 31
0.0
  0
LINE
  5
331
  8
0
 10
-499.299503
 20
-3589.824197
 30
0.0
 11
-499.35114
 21
-3589.832716
 31
0.0
  0
LINE
  5
332
  8
0
 10
-499.35114
 20
-3589.832716
 30
0.0
 11
-500.084247
 21
-3589.996601
 31
0.0
  0
LINE
  5
333
  8
0
 10
-500.084247
 20
-3589.996601
 30
0.0
 11
-500.852198
 21
-3590.249405
 31
0.0
  0
LINE
  5
334
  8
0
 10
-500.852198
 20
-3590.249405
 30
0.0
 11
-501.672273
 21
-3590.603002
 31
0.0
  0
LINE
  5
335
  8
0
 10
-501.672273
 20
-3590.603002
 30
0.0
 11
-502.566447
 21
-3591.076995
 31
0.0
  0
LINE
  5
336
  8
0
 10
-502.566447
 20
-3591.076995
 30
0.0
 11
-502.566582
 21
-3591.077073
 31
0.0
  0
LINE
  5
337
  8
0
 10
-528.547348
 20
-3606.571325
 30
0.0
 11
-528.547348
 21
-3591.07707
 31
0.0
  0
LINE
  5
338
  8
0
 10
-519.887097
 20
-3591.077073
 30
0.0
 11
-519.88723
 21
-3591.076996
 31
0.0
  0
LINE
  5
339
  8
0
 10
-519.88723
 20
-3591.076996
 30
0.0
 11
-520.781406
 21
-3590.603002
 31
0.0
  0
LINE
  5
33A
  8
0
 10
-520.781406
 20
-3590.603002
 30
0.0
 11
-521.601481
 21
-3590.249405
 31
0.0
  0
LINE
  5
33B
  8
0
 10
-521.601481
 20
-3590.249405
 30
0.0
 11
-522.369431
 21
-3589.996601
 31
0.0
  0
LINE
  5
33C
  8
0
 10
-522.369431
 20
-3589.996601
 30
0.0
 11
-523.10254
 21
-3589.832716
 31
0.0
  0
LINE
  5
33D
  8
0
 10
-523.10254
 20
-3589.832716
 30
0.0
 11
-523.154176
 21
-3589.824197
 31
0.0
  0
LINE
  5
33E
  8
0
 10
-519.887097
 20
-3606.571321
 30
0.0
 11
-519.887097
 21
-3591.077073
 31
0.0
  0
LINE
  5
33F
  8
0
 10
-519.887097
 20
-3606.571321
 30
0.0
 11
-519.88723
 21
-3606.571398
 31
0.0
  0
LINE
  5
340
  8
0
 10
-519.88723
 20
-3606.571398
 30
0.0
 11
-520.781406
 21
-3607.045392
 31
0.0
  0
LINE
  5
341
  8
0
 10
-520.781406
 20
-3607.045392
 30
0.0
 11
-521.601481
 21
-3607.398989
 31
0.0
  0
LINE
  5
342
  8
0
 10
-521.601481
 20
-3607.398989
 30
0.0
 11
-522.369431
 21
-3607.651793
 31
0.0
  0
LINE
  5
343
  8
0
 10
-522.369431
 20
-3607.651793
 30
0.0
 11
-523.10254
 21
-3607.815678
 31
0.0
  0
LINE
  5
344
  8
0
 10
-523.10254
 20
-3607.815678
 30
0.0
 11
-523.154176
 21
-3607.824197
 31
0.0
  0
LINE
  5
345
  8
0
 10
-525.280265
 20
-3607.824197
 30
0.0
 11
-523.154176
 21
-3607.824197
 31
0.0
  0
LINE
  5
346
  8
0
 10
-525.280265
 20
-3607.824197
 30
0.0
 11
-525.331916
 21
-3607.815676
 31
0.0
  0
LINE
  5
347
  8
0
 10
-525.331916
 20
-3607.815676
 30
0.0
 11
-526.065039
 21
-3607.651785
 31
0.0
  0
LINE
  5
348
  8
0
 10
-526.065039
 20
-3607.651785
 30
0.0
 11
-526.833007
 21
-3607.398971
 31
0.0
  0
LINE
  5
349
  8
0
 10
-526.833007
 20
-3607.398971
 30
0.0
 11
-527.653103
 21
-3607.045359
 31
0.0
  0
LINE
  5
34A
  8
0
 10
-527.653103
 20
-3607.045359
 30
0.0
 11
-528.547348
 21
-3606.571325
 31
0.0
  0
LINE
  5
34B
  8
0
 10
-525.280265
 20
-3589.824197
 30
0.0
 11
-525.331916
 21
-3589.832719
 31
0.0
  0
LINE
  5
34C
  8
0
 10
-525.331916
 20
-3589.832719
 30
0.0
 11
-526.065039
 21
-3589.996609
 31
0.0
  0
LINE
  5
34D
  8
0
 10
-526.065039
 20
-3589.996609
 30
0.0
 11
-526.833007
 21
-3590.249423
 31
0.0
  0
LINE
  5
34E
  8
0
 10
-526.833007
 20
-3590.249423
 30
0.0
 11
-527.653103
 21
-3590.603035
 31
0.0
  0
LINE
  5
34F
  8
0
 10
-527.653103
 20
-3590.603035
 30
0.0
 11
-528.547348
 21
-3591.07707
 31
0.0
  0
LINE
  5
350
  8
0
 10
-513.353219
 20
-3607.824197
 30
0.0
 11
-523.154235
 21
-3607.824197
 31
0.0
  0
LINE
  5
351
  8
0
 10
-513.353214
 20
-3607.824197
 30
0.0
 11
-509.100465
 21
-3607.824197
 31
0.0
  0
LINE
  5
352
  8
0
 10
-499.299444
 20
-3607.824197
 30
0.0
 11
-509.10046
 21
-3607.824197
 31
0.0
  0
LINE
  5
353
  8
0
 10
-496.07684
 20
-3607.824197
 30
0.0
 11
-497.173345
 21
-3607.824197
 31
0.0
  0
LINE
  5
354
  8
0
 10
-525.280334
 20
-3607.824197
 30
0.0
 11
-526.37684
 21
-3607.824197
 31
0.0
  0
LINE
  5
355
  8
0
 10
-502.566573
 20
-3591.077073
 30
0.0
 11
-504.35487
 21
-3590.603084
 31
0.0
  0
LINE
  5
356
  8
0
 10
-504.35487
 20
-3590.603084
 30
0.0
 11
-505.995047
 21
-3590.249465
 31
0.0
  0
LINE
  5
357
  8
0
 10
-505.995047
 20
-3590.249465
 30
0.0
 11
-507.530963
 21
-3589.996644
 31
0.0
  0
LINE
  5
358
  8
0
 10
-507.530963
 20
-3589.996644
 30
0.0
 11
-508.997192
 21
-3589.832723
 31
0.0
  0
LINE
  5
359
  8
0
 10
-508.997192
 20
-3589.832723
 30
0.0
 11
-509.100465
 21
-3589.824199
 31
0.0
  0
LINE
  5
35A
  8
0
 10
-502.566573
 20
-3606.571321
 30
0.0
 11
-504.35487
 21
-3607.045311
 31
0.0
  0
LINE
  5
35B
  8
0
 10
-504.35487
 20
-3607.045311
 30
0.0
 11
-505.995047
 21
-3607.398929
 31
0.0
  0
LINE
  5
35C
  8
0
 10
-505.995047
 20
-3607.398929
 30
0.0
 11
-507.530963
 21
-3607.65175
 31
0.0
  0
LINE
  5
35D
  8
0
 10
-507.530963
 20
-3607.65175
 30
0.0
 11
-508.997192
 21
-3607.815671
 31
0.0
  0
LINE
  5
35E
  8
0
 10
-508.997192
 20
-3607.815671
 30
0.0
 11
-509.100465
 21
-3607.824195
 31
0.0
  0
LINE
  5
35F
  8
0
 10
-513.353214
 20
-3607.824195
 30
0.0
 11
-513.456488
 21
-3607.815671
 31
0.0
  0
LINE
  5
360
  8
0
 10
-513.456488
 20
-3607.815671
 30
0.0
 11
-514.922715
 21
-3607.651751
 31
0.0
  0
LINE
  5
361
  8
0
 10
-514.922715
 20
-3607.651751
 30
0.0
 11
-516.458632
 21
-3607.398929
 31
0.0
  0
LINE
  5
362
  8
0
 10
-516.458632
 20
-3607.398929
 30
0.0
 11
-518.098809
 21
-3607.045311
 31
0.0
  0
LINE
  5
363
  8
0
 10
-518.098809
 20
-3607.045311
 30
0.0
 11
-519.887106
 21
-3606.571321
 31
0.0
  0
LINE
  5
364
  8
0
 10
-513.353214
 20
-3589.824199
 30
0.0
 11
-513.456488
 21
-3589.832723
 31
0.0
  0
LINE
  5
365
  8
0
 10
-513.456488
 20
-3589.832723
 30
0.0
 11
-514.922715
 21
-3589.996644
 31
0.0
  0
LINE
  5
366
  8
0
 10
-514.922715
 20
-3589.996644
 30
0.0
 11
-516.458632
 21
-3590.249465
 31
0.0
  0
LINE
  5
367
  8
0
 10
-516.458632
 20
-3590.249465
 30
0.0
 11
-518.098809
 21
-3590.603084
 31
0.0
  0
LINE
  5
368
  8
0
 10
-518.098809
 20
-3590.603084
 30
0.0
 11
-519.887106
 21
-3591.077073
 31
0.0
  0
LINE
  5
369
  8
0
 10
-580.461061
 20
-3407.124197
 30
0.0
 11
-588.461061
 21
-3407.124197
 31
0.0
  0
LINE
  5
36A
  8
0
 10
-580.461061
 20
-3607.124197
 30
0.0
 11
-588.461061
 21
-3607.124197
 31
0.0
  0
LINE
  5
36B
  8
0
 10
-580.461061
 20
-3607.124197
 30
0.0
 11
-580.461061
 21
-3407.124197
 31
0.0
  0
LINE
  5
36C
  8
0
 10
-588.461061
 20
-3607.124197
 30
0.0
 11
-588.461061
 21
-3407.124197
 31
0.0
  0
LINE
  5
38F
  8
0
 10
-396.690654
 20
-3352.87707
 30
0.0
 11
-394.520613
 21
-3351.624196
 31
0.0
  0
LINE
  5
390
  8
0
 10
-362.050576
 20
-3352.87707
 30
0.0
 11
-364.220617
 21
-3351.624196
 31
0.0
  0
LINE
  5
391
  8
0
 10
-369.370615
 20
-3437.124197
 30
0.0
 11
-369.370615
 21
-3374.124197
 31
0.0
  0
LINE
  5
392
  8
0
 10
-389.370615
 20
-3437.124197
 30
0.0
 11
-389.370615
 21
-3374.124197
 31
0.0
  0
LINE
  5
393
  8
0
 10
-379.370615
 20
-3462.124197
 30
0.0
 11
-388.52677
 21
-3462.124197
 31
0.0
  0
LINE
  5
395
  8
0
 10
-370.21446
 20
-3462.124197
 30
0.0
 11
-379.370615
 21
-3462.124197
 31
0.0
  0
LINE
  5
397
  8
0
 10
-365.31703
 20
-3351.624196
 30
0.0
 11
-364.220617
 21
-3351.624196
 31
0.0
  0
LINE
  5
398
  8
0
 10
-365.31703
 20
-3351.624196
 30
0.0
 11
-365.265463
 21
-3351.632718
 31
0.0
  0
LINE
  5
399
  8
0
 10
-365.265463
 20
-3351.632718
 30
0.0
 11
-364.532278
 21
-3351.796633
 31
0.0
  0
LINE
  5
39A
  8
0
 10
-364.532278
 20
-3351.796633
 30
0.0
 11
-363.764041
 21
-3352.049444
 31
0.0
  0
LINE
  5
39B
  8
0
 10
-363.764041
 20
-3352.049444
 30
0.0
 11
-362.944457
 21
-3352.403049
 31
0.0
  0
LINE
  5
39C
  8
0
 10
-362.944457
 20
-3352.403049
 30
0.0
 11
-362.050576
 21
-3352.87707
 31
0.0
  0
LINE
  5
39D
  8
0
 10
-394.520613
 20
-3351.624196
 30
0.0
 11
-393.4242
 21
-3351.624196
 31
0.0
  0
LINE
  5
39E
  8
0
 10
-396.690654
 20
-3352.87707
 30
0.0
 11
-395.796773
 21
-3352.403049
 31
0.0
  0
LINE
  5
39F
  8
0
 10
-395.796773
 20
-3352.403049
 30
0.0
 11
-394.977189
 21
-3352.049444
 31
0.0
  0
LINE
  5
3A0
  8
0
 10
-394.977189
 20
-3352.049444
 30
0.0
 11
-394.208953
 21
-3351.796633
 31
0.0
  0
LINE
  5
3A1
  8
0
 10
-394.208953
 20
-3351.796633
 30
0.0
 11
-393.475767
 21
-3351.632718
 31
0.0
  0
LINE
  5
3A2
  8
0
 10
-393.475767
 20
-3351.632718
 30
0.0
 11
-393.4242
 21
-3351.624196
 31
0.0
  0
LINE
  5
3A3
  8
0
 10
-391.297855
 20
-3351.624196
 30
0.0
 11
-381.496973
 21
-3351.624197
 31
0.0
  0
LINE
  5
3A4
  8
0
 10
-388.030634
 20
-3352.87707
 30
0.0
 11
-386.242422
 21
-3352.403052
 31
0.0
  0
LINE
  5
3A5
  8
0
 10
-386.242422
 20
-3352.403052
 30
0.0
 11
-384.602343
 21
-3352.049446
 31
0.0
  0
LINE
  5
3A6
  8
0
 10
-384.602343
 20
-3352.049446
 30
0.0
 11
-383.066385
 21
-3351.796634
 31
0.0
  0
LINE
  5
3A7
  8
0
 10
-383.066385
 20
-3351.796634
 30
0.0
 11
-381.600242
 21
-3351.632719
 31
0.0
  0
LINE
  5
3A8
  8
0
 10
-381.600242
 20
-3351.632719
 30
0.0
 11
-381.496973
 21
-3351.624197
 31
0.0
  0
LINE
  5
3A9
  8
0
 10
-391.297855
 20
-3351.624196
 30
0.0
 11
-391.246152
 21
-3351.632718
 31
0.0
  0
LINE
  5
3AA
  8
0
 10
-391.246152
 20
-3351.632718
 30
0.0
 11
-390.513197
 21
-3351.796632
 31
0.0
  0
LINE
  5
3AB
  8
0
 10
-390.513197
 20
-3351.796632
 30
0.0
 11
-389.745475
 21
-3352.049443
 31
0.0
  0
LINE
  5
3AC
  8
0
 10
-389.745475
 20
-3352.049443
 30
0.0
 11
-388.924978
 21
-3352.403048
 31
0.0
  0
LINE
  5
3AD
  8
0
 10
-388.924978
 20
-3352.403048
 30
0.0
 11
-388.030634
 21
-3352.87707
 31
0.0
  0
LINE
  5
3AE
  8
0
 10
-370.710596
 20
-3352.87707
 30
0.0
 11
-369.816252
 21
-3352.403048
 31
0.0
  0
LINE
  5
3AF
  8
0
 10
-369.816252
 20
-3352.403048
 30
0.0
 11
-368.995756
 21
-3352.049443
 31
0.0
  0
LINE
  5
3B0
  8
0
 10
-368.995756
 20
-3352.049443
 30
0.0
 11
-368.228034
 21
-3351.796632
 31
0.0
  0
LINE
  5
3B1
  8
0
 10
-368.228034
 20
-3351.796632
 30
0.0
 11
-367.495077
 21
-3351.632718
 31
0.0
  0
LINE
  5
3B2
  8
0
 10
-367.495077
 20
-3351.632718
 30
0.0
 11
-367.443375
 21
-3351.624196
 31
0.0
  0
LINE
  5
3B3
  8
0
 10
-377.244257
 20
-3351.624197
 30
0.0
 11
-377.140987
 21
-3351.632719
 31
0.0
  0
LINE
  5
3B4
  8
0
 10
-377.140987
 20
-3351.632719
 30
0.0
 11
-375.674847
 21
-3351.796634
 31
0.0
  0
LINE
  5
3B5
  8
0
 10
-375.674847
 20
-3351.796634
 30
0.0
 11
-374.138888
 21
-3352.049446
 31
0.0
  0
LINE
  5
3B6
  8
0
 10
-374.138888
 20
-3352.049446
 30
0.0
 11
-372.498808
 21
-3352.403052
 31
0.0
  0
LINE
  5
3B7
  8
0
 10
-372.498808
 20
-3352.403052
 30
0.0
 11
-370.710596
 21
-3352.87707
 31
0.0
  0
LINE
  5
3B8
  8
0
 10
-377.244257
 20
-3351.624197
 30
0.0
 11
-367.443375
 21
-3351.624196
 31
0.0
  0
LINE
  5
3B9
  8
0
 10
-393.424166
 20
-3351.624197
 30
0.0
 11
-391.297826
 21
-3351.624197
 31
0.0
  0
LINE
  5
3BA
  8
0
 10
-367.443404
 20
-3351.624197
 30
0.0
 11
-365.317064
 21
-3351.624197
 31
0.0
  0
LINE
  5
3BB
  8
0
 10
-381.496968
 20
-3351.624197
 30
0.0
 11
-377.244262
 21
-3351.624197
 31
0.0
  0
LINE
  5
3BC
  8
0
 10
-388.030869
 20
-3364.124197
 30
0.0
 11
-388.030869
 21
-3352.87707
 31
0.0
  0
LINE
  5
3BD
  8
0
 10
-396.691123
 20
-3364.124197
 30
0.0
 11
-396.691123
 21
-3352.87707
 31
0.0
  0
LINE
  5
3BE
  8
0
 10
-362.050107
 20
-3364.124197
 30
0.0
 11
-362.050107
 21
-3352.87707
 31
0.0
  0
LINE
  5
3BF
  8
0
 10
-370.710361
 20
-3364.124197
 30
0.0
 11
-370.710361
 21
-3352.87707
 31
0.0
  0
LINE
  5
3C0
  8
0
 10
-521.22684
 20
-3637.471197
 30
0.0
 11
-519.87384
 21
-3638.824197
 31
0.0
  0
LINE
  5
3C1
  8
0
 10
-501.22684
 20
-3637.471197
 30
0.0
 11
-502.57984
 21
-3638.824197
 31
0.0
  0
LINE
  5
3C2
  8
0
 10
-521.22684
 20
-3637.471197
 30
0.0
 11
-521.22684
 21
-3607.824197
 31
0.0
  0
LINE
  5
3C3
  8
0
 10
-501.22684
 20
-3637.471197
 30
0.0
 11
-501.22684
 21
-3607.824197
 31
0.0
  0
LINE
  5
3C4
  8
0
 10
-501.22684
 20
-3637.471197
 30
0.0
 11
-511.22684
 21
-3637.471197
 31
0.0
  0
LINE
  5
3C5
  8
0
 10
-511.22684
 20
-3638.824197
 30
0.0
 11
-502.57984
 21
-3638.824197
 31
0.0
  0
LINE
  5
3C6
  8
0
 10
-511.22684
 20
-3637.471197
 30
0.0
 11
-521.22684
 21
-3637.471197
 31
0.0
  0
LINE
  5
3C7
  8
0
 10
-511.22684
 20
-3638.824197
 30
0.0
 11
-519.87384
 21
-3638.824197
 31
0.0
  0
LINE
  5
1358
  8
0
 10
-272.229679
 20
-3451.024197
 30
0.0
 11
784.778348
 21
-3451.024197
 31
0.0
  0
LINE
  5
1359
  8
0
 10
-461.483307
 20
-3563.224197
 30
0.0
 11
784.778348
 21
-3563.224197
 31
0.0
  0
LINE
  5
135A
  8
0
 10
-461.483307
 20
-3570.224197
 30
0.0
 11
784.778348
 21
-3570.224197
 31
0.0
  0
LINE
  5
135B
  8
0
 10
-461.483307
 20
-3577.124197
 30
0.0
 11
784.778348
 21
-3577.124197
 31
0.0
  0
LINE
  5
135C
  8
0
 10
-461.483307
 20
-3437.124197
 30
0.0
 11
784.778348
 21
-3437.124197
 31
0.0
  0
LINE
  5
135D
  8
0
 10
-461.483307
 20
-3444.024197
 30
0.0
 11
784.778348
 21
-3444.024197
 31
0.0
  0
LINE
  5
135E
  8
0
 10
-461.483308
 20
-2761.290357
 30
0.0
 11
719.645495
 21
-2761.290357
 31
0.0
  0
LINE
  5
135F
  8
0
 10
-461.483308
 20
-2754.390357
 30
0.0
 11
719.645495
 21
-2754.390357
 31
0.0
  0
LINE
  5
1360
  8
0
 10
-461.483308
 20
-2894.390357
 30
0.0
 11
719.645495
 21
-2894.390357
 31
0.0
  0
LINE
  5
1361
  8
0
 10
-461.483308
 20
-2887.490357
 30
0.0
 11
719.645495
 21
-2887.490357
 31
0.0
  0
LINE
  5
1362
  8
0
 10
-461.483308
 20
-2880.490357
 30
0.0
 11
719.645495
 21
-2880.490357
 31
0.0
  0
LINE
  5
1363
  8
0
 10
-369.43793
 20
-2768.290357
 30
0.0
 11
719.645495
 21
-2768.290357
 31
0.0
  0
LINE
  5
138F
  8
AXIS
 10
-511.22684
 20
-2573.994483
 30
0.0
 11
-511.22684
 21
-2937.725176
 31
0.0
  0
LINE
  5
1391
  8
AXIS
 10
-379.370615
 20
-2573.994483
 30
0.0
 11
-379.370615
 21
-2937.725176
 31
0.0
  0
LINE
  5
1393
  8
AXIS
 10
-228.076229
 20
-2573.994483
 30
0.0
 11
-228.076229
 21
-2937.725176
 31
0.0
  0
LINE
  5
1395
  8
AXIS
 10
318.099836
 20
-2573.994483
 30
0.0
 11
318.099836
 21
-3306.507684
 31
0.0
  0
LINE
  5
1397
  8
AXIS
 10
318.099836
 20
-3306.507684
 30
0.0
 11
318.099836
 21
-3639.927486
 31
0.0
  0
LINE
  5
1398
  8
AXIS
 10
-228.076229
 20
-2937.725176
 30
0.0
 11
-228.076229
 21
-3639.927486
 31
0.0
  0
LINE
  5
1399
  8
AXIS
 10
-379.370615
 20
-3306.507684
 30
0.0
 11
-379.370615
 21
-3639.927486
 31
0.0
  0
LINE
  5
139A
  8
AXIS
 10
-511.22684
 20
-3306.507684
 30
0.0
 11
-511.22684
 21
-3639.927486
 31
0.0
  0
LINE
  5
146B
  8
AXIS
 10
-110.964639
 20
-3369.373071
 30
0.0
 11
-110.964639
 21
-3248.35204
 31
0.0
  0
LINE
  5
146E
  8
AXIS
 10
-340.029114
 20
-3409.373071
 30
0.0
 11
-340.029114
 21
-3288.35204
 31
0.0
  0
DIMENSION
  5
1493
  8
DIMENSION
  2
*D18
 10
318.099836
 20
-3689.927486
 30
0.0
 11
45.011803
 21
-3671.177486
 31
0.0
 70
    32
  3
ISO-25
 13
-228.076229
 23
-3639.927486
 33
0.0
 14
318.099836
 24
-3639.927486
 34
0.0
1001
ACAD
1000
DSTYLE
1002
{
1070
     7
1000

1070
     6
1000

1070
     5
1000

1070
   340
1005
11
1070
   144
1040
1.0
1070
    40
1040
10.0
1070
   173
1070
     1
1070
   283
1070
     1
1002
}
  0
DIMENSION
  5
14C8
  8
DIMENSION
  2
*D21
 10
318.099836
 20
-3198.35204
 30
0.0
 11
103.567599
 21
-3179.60204
 31
0.0
 70
    32
  3
ISO-25
 13
-110.964639
 23
-3248.35204
 33
0.0
 14
318.099836
 24
-3248.35204
 34
0.0
1001
ACAD
1000
DSTYLE
1002
{
1070
     7
1000

1070
     6
1000

1070
     5
1000

1070
   340
1005
11
1070
   144
1040
1.0
1070
    40
1040
10.0
1070
   173
1070
     1
1070
   283
1070
     1
1002
}
  0
DIMENSION
  5
14FD
  8
DIMENSION
  2
*D24
 10
-340.029114
 20
-3198.35204
 30
0.0
 11
-225.496876
 21
-3179.60204
 31
0.0
 70
    32
  3
ISO-25
 13
-110.964639
 23
-3248.35204
 33
0.0
 14
-340.029114
 24
-3288.35204
 34
0.0
1001
ACAD
1000
DSTYLE
1002
{
1070
     7
1000

1070
     6
1000

1070
     5
1000

1070
   340
1005
11
1070
   144
1040
1.0
1070
    40
1040
10.0
1070
   173
1070
     1
1070
   283
1070
     1
1002
}
  0
DIMENSION
  5
1532
  8
DIMENSION
  2
*D27
 10
-379.370615
 20
-3206.507684
 30
0.0
 11
-445.298727
 21
-3187.757684
 31
0.0
 70
    32
  3
ISO-25
 13
-511.22684
 23
-3306.507684
 33
0.0
 14
-379.370615
 24
-3306.507684
 34
0.0
1001
ACAD
1000
DSTYLE
1002
{
1070
     7
1000

1070
     6
1000

1070
     5
1000

1070
   340
1005
11
1070
   144
1040
1.0
1070
    40
1040
10.0
1070
   173
1070
     1
1070
   283
1070
     1
1002
}
  0
LINE
  5
1584
  8
AXIS
 10
-318.758298
 20
-2713.817772
 30
0.0
 11
476.325111
 21
-2713.817772
 31
0.0
  0
POLYLINE
  5
1586
  8
0
 66
     1
 10
0.0
 20
0.0
 30
0.0
 70
     1
  0
VERTEX
  5
176D
  8
0
 10
-312.022544
 20
-2704.769202
 30
0.0
  0
VERTEX
  5
176E
  8
0
 10
462.336436
 20
-2704.769202
 30
0.0
  0
VERTEX
  5
176F
  8
0
 10
462.336436
 20
-2722.866343
 30
0.0
  0
VERTEX
  5
1770
  8
0
 10
-312.022544
 20
-2722.866343
 30
0.0
  0
SEQEND
  5
1806
  8
0
  0
POLYLINE
  5
1587
  8
0
 66
     1
 10
0.0
 20
0.0
 30
0.0
  0
VERTEX
  5
1771
  8
0
 10
-289.854154
 20
-2704.769202
 30
0.0
  0
VERTEX
  5
1772
  8
0
 10
-289.854154
 20
-2671.760506
 30
0.0
  0
VERTEX
  5
1773
  8
0
 10
-302.466367
 20
-2671.760506
 30
0.0
  0
VERTEX
  5
1774
  8
0
 10
-302.466367
 20
-2704.769202
 30
0.0
  0
SEQEND
  5
1807
  8
0
  0
POLYLINE
  5
1588
  8
0
 66
     1
 10
0.0
 20
0.0
 30
0.0
  0
VERTEX
  5
1775
  8
0
 10
-302.466367
 20
-2722.866343
 30
0.0
  0
VERTEX
  5
1776
  8
0
 10
-302.466367
 20
-2754.390357
 30
0.0
  0
VERTEX
  5
1777
  8
0
 10
-289.854154
 20
-2754.390357
 30
0.0
  0
VERTEX
  5
1778
  8
0
 10
-289.854154
 20
-2722.866343
 30
0.0
  0
SEQEND
  5
1808
  8
0
  0
POLYLINE
  5
1589
  8
0
 66
     1
 10
0.0
 20
0.0
 30
0.0
  0
VERTEX
  5
1779
  8
0
 10
386.264436
 20
-2722.866343
 30
0.0
  0
VERTEX
  5
177A
  8
0
 10
386.264436
 20
-2754.390357
 30
0.0
  0
VERTEX
  5
177B
  8
0
 10
398.876649
 20
-2754.390357
 30
0.0
  0
VERTEX
  5
177C
  8
0
 10
398.876649
 20
-2722.866343
 30
0.0
  0
SEQEND
  5
1809
  8
0
  0
POLYLINE
  5
158A
  8
0
 66
     1
 10
0.0
 20
0.0
 30
0.0
  0
VERTEX
  5
177D
  8
0
 10
398.876649
 20
-2704.769202
 30
0.0
  0
VERTEX
  5
177E
  8
0
 10
398.876649
 20
-2671.760506
 30
0.0
  0
VERTEX
  5
177F
  8
0
 10
386.264436
 20
-2671.760506
 30
0.0
  0
VERTEX
  5
1780
  8
0
 10
386.264436
 20
-2704.769202
 30
0.0
  0
SEQEND
  5
180A
  8
0
  0
POLYLINE
  5
158B
  8
0
 66
     1
 10
0.0
 20
0.0
 30
0.0
  0
VERTEX
  5
1781
  8
0
 10
410.77625
 20
-2704.769202
 30
0.0
  0
VERTEX
  5
1782
  8
0
 10
410.77625
 20
-2696.964529
 30
0.0
  0
VERTEX
  5
1783
  8
0
 10
453.352865
 20
-2696.964529
 30
0.0
  0
VERTEX
  5
1784
  8
0
 10
453.352865
 20
-2704.769202
 30
0.0
  0
SEQEND
  5
180B
  8
0
  0
POLYLINE
  5
158C
  8
0
 66
     1
 10
0.0
 20
0.0
 30
0.0
  0
VERTEX
  5
1785
  8
0
 10
453.352865
 20
-2722.866343
 30
0.0
  0
VERTEX
  5
1786
  8
0
 10
453.352865
 20
-2730.671016
 30
0.0
  0
VERTEX
  5
1787
  8
0
 10
410.77625
 20
-2730.671016
 30
0.0
  0
VERTEX
  5
1788
  8
0
 10
410.77625
 20
-2722.866343
 30
0.0
  0
SEQEND
  5
180C
  8
0
  0
LINE
  5
158D
  8
0
 10
425.325724
 20
-2704.769202
 30
0.0
 11
425.325724
 21
-2722.866343
 31
0.0
  0
LINE
  5
158E
  8
0
 10
439.452224
 20
-2704.769202
 30
0.0
 11
439.452224
 21
-2722.866343
 31
0.0
  0
POLYLINE
  5
158F
  8
0
 66
     1
 10
0.0
 20
0.0
 30
0.0
 70
     1
  0
VERTEX
  5
1789
  8
0
 10
-224.064034
 20
-2589.425639
 30
0.0
  0
VERTEX
  5
178A
  8
0
 10
-233.423097
 20
-2589.425639
 30
0.0
  0
VERTEX
  5
178B
  8
0
 10
-233.423097
 20
-2696.964529
 30
0.0
  0
VERTEX
  5
178C
  8
0
 10
-224.064034
 20
-2696.964529
 30
0.0
  0
SEQEND
  5
180D
  8
0
  0
POLYLINE
  5
1590
  8
0
 66
     1
 10
0.0
 20
0.0
 30
0.0
  0
VERTEX
  5
178D
  8
0
 10
-250.031873
 20
-2704.769202
 30
0.0
  0
VERTEX
  5
178E
  8
0
 10
-250.031873
 20
-2696.964529
 30
0.0
  0
VERTEX
  5
178F
  8
0
 10
-207.455258
 20
-2696.964529
 30
0.0
  0
VERTEX
  5
1790
  8
0
 10
-207.455258
 20
-2704.769202
 30
0.0
  0
SEQEND
  5
180E
  8
0
  0
POLYLINE
  5
1591
  8
0
 66
     1
 10
0.0
 20
0.0
 30
0.0
  0
VERTEX
  5
1791
  8
0
 10
-207.455258
 20
-2722.866343
 30
0.0
  0
VERTEX
  5
1792
  8
0
 10
-207.455258
 20
-2730.671016
 30
0.0
  0
VERTEX
  5
1793
  8
0
 10
-250.031873
 20
-2730.671016
 30
0.0
  0
VERTEX
  5
1794
  8
0
 10
-250.031873
 20
-2722.866343
 30
0.0
  0
SEQEND
  5
180F
  8
0
  0
LINE
  5
15A3
  8
DIMENSION
 62
     3
 10
51.921192
 20
-2652.838087
 30
0.0
 11
184.593758
 21
-2652.838087
 31
0.0
1001
ACAD
1000
DSTYLE
1002
{
1070
   340
1005
11
1070
   144
1040
1.0
1070
    40
1040
10.0
1070
   173
1070
     1
1070
   343
1005
0
1070
   342
1005
0
1070
   344
1005
0
1070
   283
1070
     1
1002
}
  0
SOLID
  5
15A4
  8
DIMENSION
 62
     3
 10
51.921192
 20
-2647.004753
 30
0.0
 11
51.921192
 21
-2658.67142
 31
0.0
 12
16.921192
 22
-2652.838087
 32
0.0
 13
16.921192
 23
-2652.838087
 33
0.0
1001
ACAD
1000
DSTYLE
1002
{
1070
   340
1005
11
1070
   144
1040
1.0
1070
    40
1040
10.0
1070
   173
1070
     1
1070
   343
1005
0
1070
   342
1005
0
1070
   344
1005
0
1070
   283
1070
     1
1002
}
  0
LINE
  5
15A7
  8
DIMENSION
 62
     3
 10
184.593758
 20
-2687.300885
 30
0.0
 11
51.921192
 21
-2687.300885
 31
0.0
1001
ACAD
1000
DSTYLE
1002
{
1070
   340
1005
11
1070
   144
1040
1.0
1070
    40
1040
10.0
1070
   173
1070
     1
1070
   343
1005
0
1070
   342
1005
0
1070
   344
1005
0
1070
   283
1070
     1
1002
}
  0
SOLID
  5
15A8
  8
DIMENSION
 62
     3
 10
184.593758
 20
-2693.134218
 30
0.0
 11
184.593758
 21
-2681.467551
 31
0.0
 12
219.593758
 22
-2687.300885
 32
0.0
 13
219.593758
 23
-2687.300885
 33
0.0
1001
ACAD
1000
DSTYLE
1002
{
1070
   340
1005
11
1070
   144
1040
1.0
1070
    40
1040
10.0
1070
   173
1070
     1
1070
   343
1005
0
1070
   342
1005
0
1070
   344
1005
0
1070
   283
1070
     1
1002
}
  0
LINE
  5
15A9
  8
AXIS
 10
-318.758298
 20
-3396.551612
 30
0.0
 11
476.325111
 21
-3396.551612
 31
0.0
  0
POLYLINE
  5
15AB
  8
0
 66
     1
 10
0.0
 20
0.0
 30
0.0
 70
     1
  0
VERTEX
  5
1795
  8
0
 10
-312.022544
 20
-3387.503042
 30
0.0
  0
VERTEX
  5
1796
  8
0
 10
462.336436
 20
-3387.503042
 30
0.0
  0
VERTEX
  5
1797
  8
0
 10
462.336436
 20
-3405.600183
 30
0.0
  0
VERTEX
  5
1798
  8
0
 10
-312.022544
 20
-3405.600183
 30
0.0
  0
SEQEND
  5
1810
  8
0
  0
POLYLINE
  5
15AC
  8
0
 66
     1
 10
0.0
 20
0.0
 30
0.0
  0
VERTEX
  5
1799
  8
0
 10
-289.854154
 20
-3387.503042
 30
0.0
  0
VERTEX
  5
179A
  8
0
 10
-289.854154
 20
-3354.494346
 30
0.0
  0
VERTEX
  5
179B
  8
0
 10
-302.466367
 20
-3354.494346
 30
0.0
  0
VERTEX
  5
179C
  8
0
 10
-302.466367
 20
-3387.503042
 30
0.0
  0
SEQEND
  5
1811
  8
0
  0
POLYLINE
  5
15AD
  8
0
 66
     1
 10
0.0
 20
0.0
 30
0.0
  0
VERTEX
  5
179D
  8
0
 10
-302.466367
 20
-3405.600183
 30
0.0
  0
VERTEX
  5
179E
  8
0
 10
-302.466367
 20
-3437.124197
 30
0.0
  0
VERTEX
  5
179F
  8
0
 10
-289.854154
 20
-3437.124197
 30
0.0
  0
VERTEX
  5
17A0
  8
0
 10
-289.854154
 20
-3405.600183
 30
0.0
  0
SEQEND
  5
1812
  8
0
  0
POLYLINE
  5
15AE
  8
0
 66
     1
 10
0.0
 20
0.0
 30
0.0
  0
VERTEX
  5
17A1
  8
0
 10
386.264436
 20
-3405.600183
 30
0.0
  0
VERTEX
  5
17A2
  8
0
 10
386.264436
 20
-3437.124197
 30
0.0
  0
VERTEX
  5
17A3
  8
0
 10
398.876649
 20
-3437.124197
 30
0.0
  0
VERTEX
  5
17A4
  8
0
 10
398.876649
 20
-3405.600183
 30
0.0
  0
SEQEND
  5
1813
  8
0
  0
POLYLINE
  5
15AF
  8
0
 66
     1
 10
0.0
 20
0.0
 30
0.0
  0
VERTEX
  5
17A5
  8
0
 10
398.876649
 20
-3387.503042
 30
0.0
  0
VERTEX
  5
17A6
  8
0
 10
398.876649
 20
-3354.494346
 30
0.0
  0
VERTEX
  5
17A7
  8
0
 10
386.264436
 20
-3354.494346
 30
0.0
  0
VERTEX
  5
17A8
  8
0
 10
386.264436
 20
-3387.503042
 30
0.0
  0
SEQEND
  5
1814
  8
0
  0
POLYLINE
  5
15B0
  8
0
 66
     1
 10
0.0
 20
0.0
 30
0.0
  0
VERTEX
  5
17A9
  8
0
 10
410.77625
 20
-3387.503042
 30
0.0
  0
VERTEX
  5
17AA
  8
0
 10
410.77625
 20
-3379.698369
 30
0.0
  0
VERTEX
  5
17AB
  8
0
 10
453.352865
 20
-3379.698369
 30
0.0
  0
VERTEX
  5
17AC
  8
0
 10
453.352865
 20
-3387.503042
 30
0.0
  0
SEQEND
  5
1815
  8
0
  0
POLYLINE
  5
15B1
  8
0
 66
     1
 10
0.0
 20
0.0
 30
0.0
  0
VERTEX
  5
17AD
  8
0
 10
453.352865
 20
-3405.600183
 30
0.0
  0
VERTEX
  5
17AE
  8
0
 10
453.352865
 20
-3413.404856
 30
0.0
  0
VERTEX
  5
17AF
  8
0
 10
410.77625
 20
-3413.404856
 30
0.0
  0
VERTEX
  5
17B0
  8
0
 10
410.77625
 20
-3405.600183
 30
0.0
  0
SEQEND
  5
1816
  8
0
  0
LINE
  5
15B2
  8
0
 10
425.325724
 20
-3387.503042
 30
0.0
 11
425.325724
 21
-3405.600183
 31
0.0
  0
LINE
  5
15B3
  8
0
 10
439.452224
 20
-3387.503042
 30
0.0
 11
439.452224
 21
-3405.600183
 31
0.0
  0
POLYLINE
  5
15B4
  8
0
 66
     1
 10
0.0
 20
0.0
 30
0.0
 70
     1
  0
VERTEX
  5
17B1
  8
0
 10
322.779367
 20
-3272.159479
 30
0.0
  0
VERTEX
  5
17B2
  8
0
 10
313.420305
 20
-3272.159479
 30
0.0
  0
VERTEX
  5
17B3
  8
0
 10
313.420305
 20
-3379.698369
 30
0.0
  0
VERTEX
  5
17B4
  8
0
 10
322.779367
 20
-3379.698369
 30
0.0
  0
SEQEND
  5
1817
  8
0
  0
POLYLINE
  5
15B5
  8
0
 66
     1
 10
0.0
 20
0.0
 30
0.0
  0
VERTEX
  5
17B5
  8
0
 10
296.811528
 20
-3387.503042
 30
0.0
  0
VERTEX
  5
17B6
  8
0
 10
296.811528
 20
-3379.698369
 30
0.0
  0
VERTEX
  5
17B7
  8
0
 10
339.388144
 20
-3379.698369
 30
0.0
  0
VERTEX
  5
17B8
  8
0
 10
339.388144
 20
-3387.503042
 30
0.0
  0
SEQEND
  5
1818
  8
0
  0
POLYLINE
  5
15B6
  8
0
 66
     1
 10
0.0
 20
0.0
 30
0.0
  0
VERTEX
  5
17B9
  8
0
 10
339.388144
 20
-3405.600183
 30
0.0
  0
VERTEX
  5
17BA
  8
0
 10
339.388144
 20
-3413.404856
 30
0.0
  0
VERTEX
  5
17BB
  8
0
 10
296.811528
 20
-3413.404856
 30
0.0
  0
VERTEX
  5
17BC
  8
0
 10
296.811528
 20
-3405.600183
 30
0.0
  0
SEQEND
  5
1819
  8
0
  0
LINE
  5
15B7
  8
AXIS
 10
-558.597419
 20
-2686.63923
 30
0.0
 11
-558.597419
 21
-2565.618199
 31
0.0
  0
POLYLINE
  5
15B8
  8
0
 66
     1
 10
0.0
 20
0.0
 30
0.0
 70
     1
  0
VERTEX
  5
17BD
  8
0
 10
462.336436
 20
-3437.124197
 30
0.0
  0
VERTEX
  5
17BE
  8
0
 10
541.574611
 20
-3437.124197
 30
0.0
  0
VERTEX
  5
17BF
  8
0
 10
541.574611
 20
-3270.726233
 30
0.0
  0
VERTEX
  5
17C0
  8
0
 10
462.336436
 20
-3270.726233
 30
0.0
  0
SEQEND
  5
181A
  8
0
  0
POLYLINE
  5
15B9
  8
0
 66
     1
 10
0.0
 20
0.0
 30
0.0
 70
     1
  0
VERTEX
  5
17C1
  8
0
 10
439.452224
 20
-3387.503042
 30
0.0
  0
VERTEX
  5
17C2
  8
0
 10
462.336436
 20
-3387.503042
 30
0.0
  0
VERTEX
  5
17C3
  8
0
 10
462.336436
 20
-3405.600183
 30
0.0
  0
VERTEX
  5
17C4
  8
0
 10
439.452224
 20
-3405.600183
 30
0.0
  0
SEQEND
  5
181B
  8
0
  0
LINE
  5
15BA
  8
0
 10
541.574611
 20
-3387.503042
 30
0.0
 11
541.574611
 21
-3405.600183
 31
0.0
  0
POLYLINE
  5
15BB
  8
0
 66
     1
 10
0.0
 20
0.0
 30
0.0
 70
     1
  0
VERTEX
  5
17C5
  8
0
 10
541.574611
 20
-3387.503042
 30
0.0
  0
VERTEX
  5
17C6
  8
0
 10
564.458823
 20
-3387.503042
 30
0.0
  0
VERTEX
  5
17C7
  8
0
 10
564.458823
 20
-3405.600183
 30
0.0
  0
VERTEX
  5
17C8
  8
0
 10
541.574611
 20
-3405.600183
 30
0.0
  0
SEQEND
  5
181C
  8
0
  0
POLYLINE
  5
15BC
  8
0
 66
     1
 10
0.0
 20
0.0
 30
0.0
 70
     1
  0
VERTEX
  5
17C9
  8
0
 10
564.458823
 20
-3433.224049
 30
0.0
  0
VERTEX
  5
17CA
  8
0
 10
722.624296
 20
-3433.224049
 30
0.0
  0
VERTEX
  5
17CB
  8
0
 10
722.624296
 20
-3359.879176
 30
0.0
  0
VERTEX
  5
17CC
  8
0
 10
564.458823
 20
-3359.879176
 30
0.0
  0
SEQEND
  5
181D
  8
0
  0
POLYLINE
  5
15BD
  8
0
 66
     1
 10
0.0
 20
0.0
 30
0.0
 70
     1
  0
VERTEX
  5
17CD
  8
0
 10
462.336436
 20
-2754.390357
 30
0.0
  0
VERTEX
  5
17CE
  8
0
 10
541.574611
 20
-2754.390357
 30
0.0
  0
VERTEX
  5
17CF
  8
0
 10
541.574611
 20
-2587.992393
 30
0.0
  0
VERTEX
  5
17D0
  8
0
 10
462.336436
 20
-2587.992393
 30
0.0
  0
SEQEND
  5
181E
  8
0
  0
LINE
  5
15BE
  8
0
 10
541.574611
 20
-2704.769202
 30
0.0
 11
541.574611
 21
-2722.866343
 31
0.0
  0
POLYLINE
  5
15BF
  8
0
 66
     1
 10
0.0
 20
0.0
 30
0.0
 70
     1
  0
VERTEX
  5
17D1
  8
0
 10
541.574611
 20
-2704.769202
 30
0.0
  0
VERTEX
  5
17D2
  8
0
 10
564.458823
 20
-2704.769202
 30
0.0
  0
VERTEX
  5
17D3
  8
0
 10
564.458823
 20
-2722.866343
 30
0.0
  0
VERTEX
  5
17D4
  8
0
 10
541.574611
 20
-2722.866343
 30
0.0
  0
SEQEND
  5
181F
  8
0
  0
POLYLINE
  5
15C0
  8
0
 66
     1
 10
0.0
 20
0.0
 30
0.0
 70
     1
  0
VERTEX
  5
17D5
  8
0
 10
564.458823
 20
-2750.490209
 30
0.0
  0
VERTEX
  5
17D6
  8
0
 10
722.624296
 20
-2750.490209
 30
0.0
  0
VERTEX
  5
17D7
  8
0
 10
722.624296
 20
-2677.145336
 30
0.0
  0
VERTEX
  5
17D8
  8
0
 10
564.458823
 20
-2677.145336
 30
0.0
  0
SEQEND
  5
1820
  8
0
  0
ENDSEC
  0
EOF
