  0
SECTION
  2
HEADER
  9
$ACADVER
  1
AC1009
  9
$INSBASE
 10
0.0
 20
0.0
 30
0.0
  9
$LIMMIN
 10
0.0
 20
0.0
  9
$LIMMAX
 10
420.0000
 20
297.0000
  9
$EXTMIN
 10
71.5594
 20
-111.5577
  9
$EXTMAX
 10
463.6515
 20
325.6097
  9
$VIEWCTR
 10
231.8257
 20
107.0260
  9
$VIEWSIZE
 40
627.7414
  9
$DIMLFAC
 40
1.0000
  9
$MEASUREMENT
 70
     1
  9
$DWGCODEPAGE
 3
ANSI_1252
  9
$CLAYER
  8
OUTLINE
  9
$CELTYPE
  6
BYLAYER
  9
$CECOLOR
 62
  256
  9
$ORTHOMODE
 70
     0
  9
$REGENMODE
 70
     1
  9
$FILLMODE
 70
     1
  9
$QTEXTMODE
 70
     0
  9
$MIRRTEXT
 70
     1
  9
$DRAGMODE
 70
     2
  9
$LTSCALE
 40
1.0
  9
$OSMODE
 70
    37
  9
$ATTMODE
 70
     1
  9
$TEXTSIZE
 40
2.5
  9
$TRACEWID
 40
1.0
  9
$TEXTSTYLE
  7
STANDARD
  9
$CLAYER
  8
0
  9
$CELTYPE
  6
BYLAYER
  9
$CECOLOR
 62
   256
  9
$DIMSCALE
 40
1.0
  9
$DIMASZ
 40
2.5
  9
$DIMEXO
 40
0.625
  9
$DIMDLI
 40
3.75
  9
$DIMRND
 40
0.0
  9
$DIMDLE
 40
0.0
  9
$DIMEXE
 40
1.25
  9
$DIMTP
 40
0.0
  9
$DIMTM
 40
0.0
  9
$DIMTXT
 40
2.5
  9
$DIMCEN
 40
2.5
  9
$DIMTSZ
 40
0.0
  9
$DIMTOL
 70
     0
  9
$DIMLIM
 70
     0
  9
$DIMTIH
 70
     0
  9
$DIMTOH
 70
     0
  9
$DIMSE1
 70
     0
  9
$DIMSE2
 70
     0
  9
$DIMTAD
 70
     1
  9
$DIMZIN
 70
     8
  9
$DIMBLK
  1

  9
$DIMASO
 70
     1
  9
$DIMSHO
 70
     1
  9
$DIMPOST
  1

  9
$DIMAPOST
  1

  9
$DIMALT
 70
     0
  9
$DIMALTD
 70
     3
  9
$DIMALTF
 40
0.03937007874016
  9
$DIMTOFL
 70
     1
  9
$DIMTVP
 40
0.0
  9
$DIMTIX
 70
     0
  9
$DIMSOXD
 70
     0
  9
$DIMSAH
 70
     0
  9
$DIMBLK1
  1

  9
$DIMBLK2
  1

  9
$DIMSTYLE
  2
ISO-25
  9
$DIMCLRD
 70
     0
  9
$DIMCLRE
 70
     0
  9
$DIMCLRT
 70
     0
  9
$DIMTFAC
 40
1.0
  9
$DIMGAP
 40
0.625
  9
$LUNITS
 70
     2
  9
$LUPREC
 70
     4
  9
$SKETCHINC
 40
1.0
  9
$FILLETRAD
 40
10.0
  9
$AUNITS
 70
     0
  9
$AUPREC
 70
     0
  9
$MENU
  1
.
  9
$ELEVATION
 40
0.0
  9
$PELEVATION
 40
0.0
  9
$THICKNESS
 40
0.0
  9
$LIMCHECK
 70
     0
  9
$BLIPMODE
 70
     0
  9
$CHAMFERA
 40
10.0
  9
$CHAMFERB
 40
10.0
  9
$SKPOLY
 70
     0
  9
$TDCREATE
 40
2451579.5163292708
  9
$TDUPDATE
 40
2451579.6904035881
  9
$TDINDWG
 40
0.0082924769
  9
$TDUSRTIMER
 40
0.0082825116
  9
$USRTIMER
 70
     1
  9
$ANGBASE
 50
0.0
  9
$ANGDIR
 70
     0
  9
$PDMODE
 70
     0
  9
$PDSIZE
 40
0.0
  9
$PLINEWID
 40
0.0
  9
$COORDS
 70
     1
  9
$SPLFRAME
 70
     0
  9
$SPLINETYPE
 70
     6
  9
$SPLINESEGS
 70
     8
  9
$ATTDIA
 70
     0
  9
$ATTREQ
 70
     1
  9
$SURFTAB1
 70
     6
  9
$SURFTAB2
 70
     6
  9
$SURFTYPE
 70
     6
  9
$SURFU
 70
     6
  9
$SURFV
 70
     6
  9
$UCSNAME
  2

  9
$UCSORG
 10
0.0
 20
0.0
 30
0.0
  9
$UCSXDIR
 10
1.0
 20
0.0
 30
0.0
  9
$UCSYDIR
 10
0.0
 20
1.0
 30
0.0
  9
$PUCSNAME
  2

  9
$PUCSORG
 10
0.0
 20
0.0
 30
0.0
  9
$PUCSXDIR
 10
1.0
 20
0.0
 30
0.0
  9
$PUCSYDIR
 10
0.0
 20
1.0
 30
0.0
  9
$USERI1
 70
     0
  9
$USERI2
 70
     0
  9
$USERI3
 70
     0
  9
$USERI4
 70
     0
  9
$USERI5
 70
     0
  9
$USERR1
 40
0.0
  9
$USERR2
 40
0.0
  9
$USERR3
 40
0.0
  9
$USERR4
 40
0.0
  9
$USERR5
 40
0.0
  9
$WORLDVIEW
 70
     1
  9
$SHADEDGE
 70
     3
  9
$SHADEDIF
 70
    70
  9
$TILEMODE
 70
     1
  9
$MAXACTVP
 70
    64
  9
$PLIMCHECK
 70
     0
  9
$PEXTMIN
 10
1.0000000000000000E+020
 20
1.0000000000000000E+020
 30
1.0000000000000000E+020
  9
$PEXTMAX
 10
-1.0000000000000000E+020
 20
-1.0000000000000000E+020
 30
-1.0000000000000000E+020
  9
$PLIMMIN
 10
0.0
 20
0.0
  9
$PLIMMAX
 10
420.0
 20
297.0
  9
$UNITMODE
 70
     0
  9
$VISRETAIN
 70
     1
  9
$PLINEGEN
 70
     0
  9
$PSLTSCALE
 70
     1
  0
ENDSEC
  0
SECTION
  2
TABLES
  0
TABLE
  2
VPORT
 70
     2
  0
VPORT
  2
*ACTIVE
 70
     0
 10
0.0
 20
0.0
 11
1.0
 21
1.0
 12
231.8257
 22
107.0260
 13
0.0
 23
0.0
 14
10.0
 24
10.0
 15
10.0
 25
10.0
 16
0.0
 26
0.0
 36
1.0
 17
0.0
 27
0.0
 37
0.0
 40
627.7414
 41
1.6916
 42
50.0
 43
0.0
 44
0.0
 50
0.0
 51
0.0
 71
     0
 72
   100
 73
     1
 74
     3
 75
     0
 76
     0
 77
     0
 78
     0
  0
ENDTAB
  0
TABLE
  2
LTYPE
 70
     7
  0
LTYPE
  2
CONTINUOUS
 70
     0
  3
Solid line
 72
    65
 73
     0
 40
0.0
  0
LTYPE
  2
HIDDEN2
 70
     0
  3
Hidden (.5x) _ _ _ _ _ _ _ _ _ _ _ _ _ _ _ _ _
 72
    65
 73
     2
 40
5.1
 49
3.5
 49
-1.6
  0
LTYPE
  2
DASHDOT
 70
     0
  3
Dash dot __ . __ . __ . __ . __ . __ . __ . __
 72
    65
 73
     4
 40
10.4
 49
6.2
 49
-2.1
 49
0.0
 49
-2.1
  0
LTYPE
  2
DOT
 70
     0
  3
Dot . . . . . . . . . . . . . . . . . . . . . .
 72
    65
 73
     2
 40
2.2
 49
1.1
 49
-1.1
  0
LTYPE
  2
DASHED
 70
     0
  3
Dashed __ __ __ __ __ __ __ __ __ __ __ __ __ _
 72
    65
 73
     2
 40
11.049999999999979
 49
8.699999999999999
 49
-2.3499999999999979
  0
LTYPE
  2
PHANTOM2
 70
     0
  3
Phantom (.5x) ___ _ _ ___ _ _ ___ _ _ ___ _ _
 72
    65
 73
     6
 40
18.3
 49
7.8
 49
-2.1
 49
2.1
 49
-2.1
 49
2.1
 49
-2.1
  0
LTYPE
  2
CENTER
 70
     0
  3
Center ____ _ ____ _ ____ _ ____ _ ____ _ ____
 72
    65
 73
     4
 40
14.1
 49
7.8
 49
-2.1
 49
2.1
 49
-2.1
  0
ENDTAB
  0
TABLE
  2
LAYER
 70
     7
  0
LAYER
  2
0
 70
    64
 62
     7
  6
CONTINUOUS
  0
LAYER
  2
OUTLINE
 70
    64
 62
     7
  6
CONTINUOUS
  0
LAYER
  2
AXIS
 70
    64
 62
     5
  6
DASHDOT
  0
LAYER
  2
DIMENSION
 70
    64
 62
     7
  6
CONTINUOUS
  0
LAYER
  2
HATCH
 70
    64
 62
     5
  6
CONTINUOUS
  0
LAYER
  2
AUXILIARY
 70
    64
 62
     1
  6
DOT
  0
LAYER
  2
INVISIBLE
 70
    64
 62
     6
  6
DOT
  0
ENDTAB
  0
TABLE
  2
STYLE
 70
    33
  0
STYLE
  2
STANDARD
 70
     0
 40
0.0
 41
1.0
 50
0.0
 71
     0
 42
2.5
  3
txt
  4

  0
STYLE
  2
VCDSTYLE01
 70
     0
 40
0.0
 41
1.0
 50
0.0
 71
     0
 42
2.5
  3
txt
  4

  0
STYLE
  2
VCDSTYLE02
 70
     0
 40
0.0
 41
1.0
 50
0.0
 71
     0
 42
2.5
  3
txt
  4

  0
STYLE
  2
VCDSTYLE03
 70
     0
 40
0.0
 41
1.0
 50
0.0
 71
     0
 42
2.5
  3
txt
  4

  0
STYLE
  2
VCDSTYLE04
 70
     0
 40
0.0
 41
1.0
 50
0.0
 71
     0
 42
2.5
  3
txt
  4

  0
STYLE
  2
VCDSTYLE05
 70
     0
 40
0.0
 41
1.0
 50
0.0
 71
     0
 42
2.5
  3
txt
  4

  0
STYLE
  2
VCDSTYLE06
 70
     0
 40
0.0
 41
1.0
 50
0.0
 71
     0
 42
2.5
  3
txt
  4

  0
STYLE
  2
VCDSTYLE07
 70
     0
 40
0.0
 41
1.0
 50
0.0
 71
     0
 42
2.5
  3
txt
  4

  0
STYLE
  2
VCDSTYLE08
 70
     0
 40
0.0
 41
1.0
 50
0.0
 71
     0
 42
2.5
  3
txt
  4

  0
STYLE
  2
VCDSTYLE09
 70
     0
 40
0.0
 41
1.0
 50
0.0
 71
     0
 42
2.5
  3
txt
  4

  0
STYLE
  2
VCDSTYLE10
 70
     0
 40
0.0
 41
1.0
 50
0.0
 71
     0
 42
2.5
  3
Sans Serif
  4

  0
STYLE
  2
VCDSTYLE11
 70
     0
 40
0.0
 41
1.0
 50
0.0
 71
     0
 42
2.5
  3
Sans Serif
  4

  0
STYLE
  2
VCDSTYLE12
 70
     0
 40
0.0
 41
1.0
 50
0.0
 71
     0
 42
2.5
  3
DejaVu Sans
  4

  0
STYLE
  2
VCDSTYLE13
 70
     0
 40
0.0
 41
1.0
 50
0.0
 71
     0
 42
2.5
  3
DejaVu Sans
  4

  0
STYLE
  2
VCDSTYLE14
 70
     0
 40
0.0
 41
1.0
 50
0.0
 71
     0
 42
2.5
  3
DejaVu Sans Mono
  4

  0
STYLE
  2
VCDSTYLE15
 70
     0
 40
0.0
 41
1.0
 50
0.0
 71
     0
 42
2.5
  3
DejaVu Sans Mono
  4

  0
STYLE
  2
VCDSTYLE16
 70
     0
 40
0.0
 41
1.0
 50
0.0
 71
     0
 42
2.5
  3
UnDotum
  4

  0
STYLE
  2
VCDSTYLE17
 70
     0
 40
0.0
 41
1.0
 50
0.0
 71
     0
 42
2.5
  3
UnDotum
  4

  0
STYLE
  2
VCDSTYLE18
 70
     0
 40
0.0
 41
1.0
 50
0.0
 71
     0
 42
2.5
  3
Bitstream Vera Sans
  4

  0
STYLE
  2
VCDSTYLE19
 70
     0
 40
0.0
 41
1.0
 50
0.0
 71
     0
 42
2.5
  3
Bitstream Vera Sans
  4

  0
STYLE
  2
VCDSTYLE20
 70
     0
 40
0.0
 41
1.0
 50
0.0
 71
     0
 42
2.5
  3
Bitstream Vera Sans Mono
  4

  0
STYLE
  2
VCDSTYLE21
 70
     0
 40
0.0
 41
1.0
 50
0.0
 71
     0
 42
2.5
  3
Bitstream Vera Sans Mono
  4

  0
STYLE
  2
VCDSTYLE22
 70
     0
 40
0.0
 41
1.0
 50
0.0
 71
     0
 42
2.5
  3
Monospace
  4

  0
STYLE
  2
VCDSTYLE23
 70
     0
 40
0.0
 41
1.0
 50
0.0
 71
     0
 42
2.5
  3
Monospace
  4

  0
STYLE
  2
VCDSTYLE24
 70
     0
 40
0.0
 41
1.0
 50
0.0
 71
     0
 42
2.5
  3
URW Gothic L
  4

  0
STYLE
  2
VCDSTYLE25
 70
     0
 40
0.0
 41
1.0
 50
0.0
 71
     0
 42
2.5
  3
URW Gothic L
  4

  0
STYLE
  2
VCDSTYLE26
 70
     0
 40
0.0
 41
1.0
 50
0.0
 71
     0
 42
2.5
  3
Waree
  4

  0
STYLE
  2
VCDSTYLE27
 70
     0
 40
0.0
 41
1.0
 50
0.0
 71
     0
 42
2.5
  3
Waree
  4

  0
STYLE
  2
VCDSTYLE28
 70
     0
 40
0.0
 41
1.0
 50
0.0
 71
     0
 42
2.5
  3
Nimbus Mono L
  4

  0
STYLE
  2
VCDSTYLE29
 70
     0
 40
0.0
 41
1.0
 50
0.0
 71
     0
 42
2.5
  3
Nimbus Sans L
  4

  0
STYLE
  2
VCDSTYLE30
 70
     0
 40
0.0
 41
1.0
 50
0.0
 71
     0
 42
2.5
  3
Nimbus Sans L
  4

  0
STYLE
  2
VCDSTYLE31
 70
     0
 40
0.0
 41
1.0
 50
0.0
 71
     0
 42
2.5
  3
Serif
  4

  0
STYLE
  2
VCDSTYLE32
 70
     0
 40
0.0
 41
1.0
 50
0.0
 71
     0
 42
2.5
  3
Serif
  4

  0
ENDTAB
  0
TABLE
  2
VIEW
 70
     0
  0
ENDTAB
  0
TABLE
  2
UCS
 70
     0
  0
ENDTAB
  0
TABLE
  2
APPID
 70
     1
  0
APPID
  2
ACAD
 70
     0
  0
ENDTAB
  0
TABLE
  2
DIMSTYLE
 70
     1
  0
DIMSTYLE
  2
ISO-25
 70
     0
  3

  4

  5

  6

  7

 40
1.0
 41
2.5
 42
0.625
 43
3.75
 44
1.25
 45
0.0
 46
0.0
 47
0.0
 48
0.0
140
2.5
141
2.5
142
0.0
143
0.03937007874016
144
1.0
145
0.0
146
1.0
147
0.625
 71
     0
 72
     0
 73
     0
 74
     0
 75
     0
 76
     0
 77
     1
 78
     8
170
     0
171
     3
172
     1
173
     0
174
     0
175
     0
176
     0
177
     0
178
     0
  0
ENDTAB
  0
ENDSEC
  0
SECTION
  2
BLOCKS
  0
BLOCK
  8
0
  2
$MODEL_SPACE
 70
     0
 10
0.0
 20
0.0
 30
0.0
  3
$MODEL_SPACE
  1

  0
ENDBLK
  8
0
  0
BLOCK
 67
     1
  8
0
  2
$PAPER_SPACE
 70
     0
 10
0.0
 20
0.0
 30
0.0
  3
$PAPER_SPACE
  1

  0
ENDBLK
 67
     1
  8
0
  0
ENDSEC
  0
SECTION
  2
ENTITIES
  0
LINE
  8
0
 62
     4
 10
368.492138
 20
219.712490
 11
370.580763
 21
217.749881
  0
LINE
  8
0
 62
     4
 10
370.866932
 20
215.391210
 11
370.927294
 21
215.655215
  0
LINE
  8
0
 62
     4
 10
370.927294
 20
215.655215
 11
370.995600
 21
216.320259
  0
LINE
  8
0
 62
     4
 10
370.995600
 20
216.320259
 11
370.960220
 21
216.894584
  0
LINE
  8
0
 62
     4
 10
370.960220
 20
216.894584
 11
370.821496
 21
217.372659
  0
LINE
  8
0
 62
     4
 10
370.821496
 20
217.372659
 11
370.580763
 21
217.749881
  0
LINE
  8
0
 62
     4
 10
370.580763
 20
217.749881
 11
370.240340
 21
218.022616
  0
LINE
  8
0
 62
     4
 10
370.240340
 20
218.022616
 11
369.803505
 21
218.188239
  0
LINE
  8
0
 62
     4
 10
369.803505
 20
218.188239
 11
369.274466
 21
218.245153
  0
LINE
  8
0
 62
     4
 10
369.274466
 20
218.245153
 11
368.658317
 21
218.192811
  0
LINE
  8
0
 62
     4
 10
368.658317
 20
218.192811
 11
367.960992
 21
218.031716
  0
LINE
  8
0
 62
     4
 10
367.960992
 20
218.031716
 11
367.189207
 21
217.763421
  0
LINE
  8
0
 62
     4
 10
367.189207
 20
217.763421
 11
366.350394
 21
217.390510
  0
LINE
  8
0
 62
     4
 10
366.350394
 20
217.390510
 11
365.452631
 21
216.916572
  0
LINE
  8
0
 62
     4
 10
365.452631
 20
216.916572
 11
364.504566
 21
216.346173
  0
LINE
  8
0
 62
     4
 10
364.504566
 20
216.346173
 11
363.515327
 21
215.684807
  0
LINE
  8
0
 62
     4
 10
363.515327
 20
215.684807
 11
362.494442
 21
214.938841
  0
LINE
  8
0
 62
     4
 10
362.494442
 20
214.938841
 11
361.451743
 21
214.115461
  0
LINE
  8
0
 62
     4
 10
361.451743
 20
214.115461
 11
360.397271
 21
213.222596
  0
LINE
  8
0
 62
     4
 10
360.397271
 20
213.222596
 11
359.341181
 21
212.268845
  0
LINE
  8
0
 62
     4
 10
359.341181
 20
212.268845
 11
359.110097
 21
212.047044
  0
LINE
  8
0
 62
     4
 10
357.058244
 20
214.044948
 11
357.252556
 21
214.231454
  0
LINE
  8
0
 62
     4
 10
357.252556
 20
214.231454
 11
358.308646
 21
215.185205
  0
LINE
  8
0
 62
     4
 10
358.308646
 20
215.185205
 11
359.363118
 21
216.078070
  0
LINE
  8
0
 62
     4
 10
359.363118
 20
216.078070
 11
360.405817
 21
216.901451
  0
LINE
  8
0
 62
     4
 10
360.405817
 20
216.901451
 11
361.426702
 21
217.647416
  0
LINE
  8
0
 62
     4
 10
361.426702
 20
217.647416
 11
362.415941
 21
218.308783
  0
LINE
  8
0
 62
     4
 10
362.415941
 20
218.308783
 11
363.364007
 21
218.879182
  0
LINE
  8
0
 62
     4
 10
363.364007
 20
218.879182
 11
364.261769
 21
219.353119
  0
LINE
  8
0
 62
     4
 10
364.261769
 20
219.353119
 11
365.100582
 21
219.726031
  0
LINE
  8
0
 62
     4
 10
365.100582
 20
219.726031
 11
365.872367
 21
219.994326
  0
LINE
  8
0
 62
     4
 10
365.872367
 20
219.994326
 11
366.569692
 21
220.155420
  0
LINE
  8
0
 62
     4
 10
366.569692
 20
220.155420
 11
367.185841
 21
220.207762
  0
LINE
  8
0
 62
     4
 10
367.185841
 20
220.207762
 11
367.714881
 21
220.150848
  0
LINE
  8
0
 62
     4
 10
367.714881
 20
220.150848
 11
368.151715
 21
219.985226
  0
LINE
  8
0
 62
     4
 10
368.151715
 20
219.985226
 11
368.492138
 21
219.712490
  0
LINE
  8
0
 10
394.677969
 20
198.701875
 11
395.490662
 21
199.161682
  0
LINE
  8
0
 10
404.491860
 20
185.878994
 11
404.492765
 21
185.879506
  0
LINE
  8
0
 10
402.837233
 20
184.942836
 11
403.649926
 21
185.402643
  0
LINE
  8
0
 10
402.837233
 20
184.942836
 11
388.208802
 21
176.666334
  0
LINE
  8
0
 10
394.677969
 20
198.701875
 11
380.592949
 21
190.732825
  0
LINE
  8
0
 10
350.278549
 20
171.825623
 11
349.842921
 21
172.297873
  0
LINE
  8
0
 10
349.842921
 20
172.297873
 11
349.080860
 21
173.180210
  0
LINE
  8
0
 10
349.080860
 20
173.180210
 11
348.317311
 21
174.142680
  0
LINE
  8
0
 10
348.317311
 20
174.142680
 11
347.536148
 21
175.213591
  0
LINE
  8
0
 10
347.536148
 20
175.213591
 11
347.268543
 21
175.601046
  0
LINE
  8
0
 10
356.915722
 20
166.535921
 11
356.467313
 21
166.821280
  0
LINE
  8
0
 10
356.467313
 20
166.821280
 11
355.238499
 21
167.639077
  0
LINE
  8
0
 10
355.238499
 20
167.639077
 11
354.149532
 21
168.417350
  0
LINE
  8
0
 10
354.149532
 20
168.417350
 11
353.166570
 21
169.174754
  0
LINE
  8
0
 10
353.166570
 20
169.174754
 11
352.647415
 21
169.599681
  0
LINE
  8
0
 10
347.268543
 20
175.601046
 11
346.439616
 21
175.249532
  0
LINE
  8
0
 10
346.439616
 20
175.249532
 11
345.327067
 21
174.783397
  0
LINE
  8
0
 10
345.327067
 20
174.783397
 11
344.337328
 21
174.374711
  0
LINE
  8
0
 10
344.337328
 20
174.374711
 11
343.440986
 21
174.011257
  0
LINE
  8
0
 10
343.440986
 20
174.011257
 11
343.243684
 21
173.932178
  0
LINE
  8
0
 10
341.033199
 20
173.077539
 11
340.393807
 21
172.843499
  0
LINE
  8
0
 10
340.393807
 20
172.843499
 11
339.692254
 21
172.595059
  0
LINE
  8
0
 10
339.692254
 20
172.595059
 11
338.988183
 21
172.355343
  0
LINE
  8
0
 10
338.988183
 20
172.355343
 11
338.266831
 21
172.120716
  0
LINE
  8
0
 10
338.266831
 20
172.120716
 11
338.266634
 21
172.120339
  0
LINE
  8
0
 10
338.266634
 20
172.120339
 11
338.088860
 21
170.630812
  0
LINE
  8
0
 10
338.088860
 20
170.630812
 11
337.970439
 21
169.293325
  0
LINE
  8
0
 10
337.970439
 20
169.293325
 11
337.902725
 21
168.066628
  0
LINE
  8
0
 10
337.902725
 20
168.066628
 11
337.880616
 21
167.032182
  0
LINE
  8
0
 10
338.038952
 20
163.951643
 11
338.067358
 21
163.706843
  0
LINE
  8
0
 10
338.067358
 20
163.706843
 11
338.219343
 21
162.642935
  0
LINE
  8
0
 10
338.219343
 20
162.642935
 11
338.424262
 21
161.546657
  0
LINE
  8
0
 10
338.424262
 20
161.546657
 11
338.691785
 21
160.392379
  0
LINE
  8
0
 10
338.691785
 20
160.392379
 11
338.911663
 21
159.575015
  0
LINE
  8
0
 10
338.911663
 20
159.575015
 11
339.178879
 21
159.187787
  0
LINE
  8
0
 10
339.178879
 20
159.187787
 11
339.959915
 21
158.116644
  0
LINE
  8
0
 10
339.959915
 20
158.116644
 11
340.723541
 21
157.154299
  0
LINE
  8
0
 10
340.723541
 20
157.154299
 11
341.485558
 21
156.271889
  0
LINE
  8
0
 10
341.485558
 20
156.271889
 11
341.921235
 21
155.799731
  0
LINE
  8
0
 10
344.290101
 20
153.573789
 11
344.809207
 21
153.148769
  0
LINE
  8
0
 10
344.809207
 20
153.148769
 11
345.792215
 21
152.391440
  0
LINE
  8
0
 10
345.792215
 20
152.391440
 11
346.881101
 21
151.613040
  0
LINE
  8
0
 10
346.881101
 20
151.613040
 11
348.110044
 21
150.795475
  0
LINE
  8
0
 10
348.110044
 20
150.795475
 11
348.558601
 21
150.510398
  0
LINE
  8
0
 10
348.558601
 20
150.510398
 11
349.042143
 21
150.666500
  0
LINE
  8
0
 10
349.042143
 20
150.666500
 11
349.750385
 21
150.903885
  0
LINE
  8
0
 10
349.750385
 20
150.903885
 11
350.451180
 21
151.149093
  0
LINE
  8
0
 10
350.451180
 20
151.149093
 11
351.158465
 21
151.405581
  0
LINE
  8
0
 10
351.158465
 20
151.405581
 11
351.324963
 21
151.467231
  0
LINE
  8
0
 10
353.535448
 20
152.321871
 11
354.321219
 21
152.638730
  0
LINE
  8
0
 10
354.321219
 20
152.638730
 11
355.276955
 21
153.030982
  0
LINE
  8
0
 10
355.276955
 20
153.030982
 11
356.344676
 21
153.476444
  0
LINE
  8
0
 10
356.344676
 20
153.476444
 11
357.560312
 21
153.990728
  0
LINE
  8
0
 10
357.560312
 20
153.990728
 11
357.560509
 21
153.991106
  0
LINE
  8
0
 10
357.560509
 20
153.991106
 11
357.243999
 21
155.200975
  0
LINE
  8
0
 10
357.243999
 20
155.200975
 11
356.998771
 21
156.332716
  0
LINE
  8
0
 10
356.998771
 20
156.332716
 11
356.812301
 21
157.415600
  0
LINE
  8
0
 10
356.812301
 20
157.415600
 11
356.688031
 21
158.367228
  0
LINE
  8
0
 10
356.529695
 20
161.447767
 11
356.532093
 21
161.709996
  0
LINE
  8
0
 10
356.532093
 20
161.709996
 11
356.569165
 21
162.880868
  0
LINE
  8
0
 10
356.569165
 20
162.880868
 11
356.653190
 21
164.140626
  0
LINE
  8
0
 10
356.653190
 20
164.140626
 11
356.789974
 21
165.523654
  0
LINE
  8
0
 10
356.789974
 20
165.523654
 11
356.915722
 21
166.535921
  0
LINE
  8
0
 10
350.278526
 20
171.825641
 11
349.777500
 21
172.184127
  0
LINE
  8
0
 10
349.777500
 20
172.184127
 11
348.873636
 21
172.745925
  0
LINE
  8
0
 10
348.873636
 20
172.745925
 11
347.954425
 21
173.210996
  0
LINE
  8
0
 10
347.954425
 20
173.210996
 11
347.028762
 21
173.574834
  0
LINE
  8
0
 10
347.028762
 20
173.574834
 11
346.105559
 21
173.833936
  0
LINE
  8
0
 10
346.105559
 20
173.833936
 11
345.193709
 21
173.985806
  0
LINE
  8
0
 10
345.193709
 20
173.985806
 11
344.301993
 21
174.028980
  0
LINE
  8
0
 10
344.301993
 20
174.028980
 11
343.439068
 21
173.963054
  0
LINE
  8
0
 10
343.439068
 20
173.963054
 11
343.243729
 21
173.932191
  0
LINE
  8
0
 10
344.290124
 20
153.573771
 11
344.791150
 21
153.215285
  0
LINE
  8
0
 10
344.791150
 20
153.215285
 11
345.695014
 21
152.653487
  0
LINE
  8
0
 10
345.695014
 20
152.653487
 11
346.614225
 21
152.188416
  0
LINE
  8
0
 10
346.614225
 20
152.188416
 11
347.539889
 21
151.824578
  0
LINE
  8
0
 10
347.539889
 20
151.824578
 11
348.463091
 21
151.565476
  0
LINE
  8
0
 10
348.463091
 20
151.565476
 11
349.374941
 21
151.413606
  0
LINE
  8
0
 10
349.374941
 20
151.413606
 11
350.266657
 21
151.370431
  0
LINE
  8
0
 10
350.266657
 20
151.370431
 11
351.129582
 21
151.436358
  0
LINE
  8
0
 10
351.129582
 20
151.436358
 11
351.324921
 21
151.467220
  0
LINE
  8
0
 10
341.033161
 20
173.077520
 11
340.434776
 21
172.636546
  0
LINE
  8
0
 10
340.434776
 20
172.636546
 11
339.831802
 21
172.055195
  0
LINE
  8
0
 10
339.831802
 20
172.055195
 11
339.300596
 21
171.383739
  0
LINE
  8
0
 10
339.300596
 20
171.383739
 11
338.846281
 21
170.628648
  0
LINE
  8
0
 10
338.846281
 20
170.628648
 11
338.473232
 21
169.797194
  0
LINE
  8
0
 10
338.473232
 20
169.797194
 11
338.185041
 21
168.897386
  0
LINE
  8
0
 10
338.185041
 20
168.897386
 11
337.984485
 21
167.937896
  0
LINE
  8
0
 10
337.984485
 20
167.937896
 11
337.880618
 21
167.032240
  0
LINE
  8
0
 10
338.038960
 20
163.951585
 11
338.084213
 21
163.694646
  0
LINE
  8
0
 10
338.084213
 20
163.694646
 11
338.333411
 21
162.583695
  0
LINE
  8
0
 10
338.333411
 20
162.583695
 11
338.668831
 21
161.473773
  0
LINE
  8
0
 10
338.668831
 20
161.473773
 11
339.087225
 21
160.375658
  0
LINE
  8
0
 10
339.087225
 20
160.375658
 11
339.584564
 21
159.299925
  0
LINE
  8
0
 10
339.584564
 20
159.299925
 11
340.156058
 21
158.256935
  0
LINE
  8
0
 10
340.156058
 20
158.256935
 11
340.796204
 21
157.256732
  0
LINE
  8
0
 10
340.796204
 20
157.256732
 11
341.498803
 21
156.308991
  0
LINE
  8
0
 10
341.498803
 20
156.308991
 11
341.921215
 21
155.799754
  0
LINE
  8
0
 10
353.535489
 20
152.321892
 11
354.133874
 21
152.762866
  0
LINE
  8
0
 10
354.133874
 20
152.762866
 11
354.736849
 21
153.344216
  0
LINE
  8
0
 10
354.736849
 20
153.344216
 11
355.268054
 21
154.015673
  0
LINE
  8
0
 10
355.268054
 20
154.015673
 11
355.722369
 21
154.770764
  0
LINE
  8
0
 10
355.722369
 20
154.770764
 11
356.095418
 21
155.602218
  0
LINE
  8
0
 10
356.095418
 20
155.602218
 11
356.383609
 21
156.502026
  0
LINE
  8
0
 10
356.383609
 20
156.502026
 11
356.584165
 21
157.461516
  0
LINE
  8
0
 10
356.584165
 20
157.461516
 11
356.688032
 21
158.367172
  0
LINE
  8
0
 10
356.529690
 20
161.447826
 11
356.484437
 21
161.704766
  0
LINE
  8
0
 10
356.484437
 20
161.704766
 11
356.235239
 21
162.815717
  0
LINE
  8
0
 10
356.235239
 20
162.815717
 11
355.899819
 21
163.925639
  0
LINE
  8
0
 10
355.899819
 20
163.925639
 11
355.481425
 21
165.023754
  0
LINE
  8
0
 10
355.481425
 20
165.023754
 11
354.984086
 21
166.099487
  0
LINE
  8
0
 10
354.984086
 20
166.099487
 11
354.412592
 21
167.142477
  0
LINE
  8
0
 10
354.412592
 20
167.142477
 11
353.772446
 21
168.142679
  0
LINE
  8
0
 10
353.772446
 20
168.142679
 11
353.069847
 21
169.090421
  0
LINE
  8
0
 10
353.069847
 20
169.090421
 11
352.647436
 21
169.599657
  0
LINE
  8
0
 10
394.677969
 20
198.701875
 11
395.158798
 21
198.956184
  0
LINE
  8
0
 10
395.158798
 20
198.956184
 11
395.674285
 21
199.141791
  0
LINE
  8
0
 10
395.674285
 20
199.141791
 11
396.219466
 21
199.256907
  0
LINE
  8
0
 10
396.219466
 20
199.256907
 11
396.789090
 21
199.300425
  0
LINE
  8
0
 10
396.789090
 20
199.300425
 11
397.377673
 21
199.271925
  0
LINE
  8
0
 10
397.377673
 20
199.271925
 11
397.979544
 21
199.171681
  0
LINE
  8
0
 10
397.979544
 20
199.171681
 11
398.588909
 21
199.000659
  0
LINE
  8
0
 10
398.588909
 20
199.000659
 11
399.199899
 21
198.760507
  0
LINE
  8
0
 10
399.199899
 20
198.760507
 11
399.806629
 21
198.453536
  0
LINE
  8
0
 10
399.806629
 20
198.453536
 11
400.403256
 21
198.082703
  0
LINE
  8
0
 10
400.403256
 20
198.082703
 11
400.984035
 21
197.651580
  0
LINE
  8
0
 10
400.984035
 20
197.651580
 11
401.543372
 21
197.164318
  0
LINE
  8
0
 10
401.543372
 20
197.164318
 11
402.075880
 21
196.625610
  0
LINE
  8
0
 10
402.075880
 20
196.625610
 11
402.576432
 21
196.040644
  0
LINE
  8
0
 10
402.576432
 20
196.040644
 11
403.040206
 21
195.415054
  0
LINE
  8
0
 10
403.040206
 20
195.415054
 11
403.462737
 21
194.754864
  0
LINE
  8
0
 10
403.462737
 20
194.754864
 11
403.839954
 21
194.066432
  0
LINE
  8
0
 10
403.839954
 20
194.066432
 11
404.168225
 21
193.356389
  0
LINE
  8
0
 10
404.168225
 20
193.356389
 11
404.444390
 21
192.631572
  0
LINE
  8
0
 10
404.444390
 20
192.631572
 11
404.665787
 21
191.898962
  0
LINE
  8
0
 10
404.665787
 20
191.898962
 11
404.830285
 21
191.165614
  0
LINE
  8
0
 10
404.830285
 20
191.165614
 11
404.936300
 21
190.438591
  0
LINE
  8
0
 10
404.936300
 20
190.438591
 11
404.982811
 21
189.724894
  0
LINE
  8
0
 10
404.982811
 20
189.724894
 11
404.969370
 21
189.031397
  0
LINE
  8
0
 10
404.969370
 20
189.031397
 11
404.896106
 21
188.364779
  0
LINE
  8
0
 10
404.896106
 20
188.364779
 11
404.763725
 21
187.731458
  0
LINE
  8
0
 10
404.763725
 20
187.731458
 11
404.573501
 21
187.137536
  0
LINE
  8
0
 10
404.573501
 20
187.137536
 11
404.327267
 21
186.588731
  0
LINE
  8
0
 10
404.327267
 20
186.588731
 11
404.027394
 21
186.090328
  0
LINE
  8
0
 10
404.027394
 20
186.090328
 11
403.676771
 21
185.647128
  0
LINE
  8
0
 10
403.676771
 20
185.647128
 11
403.278773
 21
185.263399
  0
LINE
  8
0
 10
403.278773
 20
185.263399
 11
402.837233
 21
184.942836
  0
LINE
  8
0
 10
356.688032
 20
158.367172
 11
356.529690
 21
161.447826
  0
LINE
  8
0
 10
351.324921
 20
151.467220
 11
353.535489
 21
152.321892
  0
LINE
  8
0
 10
341.921215
 20
155.799754
 11
344.290124
 21
153.573771
  0
LINE
  8
0
 10
337.880618
 20
167.032240
 11
338.038960
 21
163.951585
  0
LINE
  8
0
 10
343.243729
 20
173.932191
 11
341.033161
 21
173.077520
  0
LINE
  8
0
 10
352.647436
 20
169.599657
 11
350.278526
 21
171.825641
  0
LINE
  8
0
 10
363.208498
 20
157.186344
 11
362.563682
 21
169.731739
  0
LINE
  8
0
 10
352.916738
 20
178.796644
 11
343.914610
 21
175.316153
  0
LINE
  8
0
 10
362.563682
 20
169.731739
 11
352.916738
 21
178.796644
  0
LINE
  8
0
 10
363.208498
 20
157.186344
 11
357.560516
 21
153.990818
  0
LINE
  8
0
 10
343.914610
 20
175.316153
 11
338.266627
 21
172.120627
  0
LINE
  8
0
 10
352.916738
 20
178.796644
 11
347.268755
 21
175.601117
  0
LINE
  8
0
 10
362.563682
 20
169.731739
 11
356.915700
 21
166.536213
  0
LINE
  8
0
 62
     4
 10
347.795412
 20
180.215810
 11
345.912244
 21
179.150347
  0
LINE
  8
0
 62
     4
 10
363.094033
 20
154.417613
 11
361.210864
 21
153.352150
  0
LINE
  8
0
 62
     4
 10
354.362844
 20
152.655813
 11
355.020411
 21
152.471264
  0
LINE
  8
0
 62
     4
 10
355.020411
 20
152.471264
 11
356.148920
 21
152.283307
  0
LINE
  8
0
 62
     4
 10
356.148920
 20
152.283307
 11
357.252512
 21
152.229869
  0
LINE
  8
0
 62
     4
 10
357.252512
 20
152.229869
 11
358.320558
 21
152.311464
  0
LINE
  8
0
 62
     4
 10
358.320558
 20
152.311464
 11
359.342773
 21
152.527308
  0
LINE
  8
0
 62
     4
 10
359.342773
 20
152.527308
 11
360.309311
 21
152.875320
  0
LINE
  8
0
 62
     4
 10
360.309311
 20
152.875320
 11
361.210864
 21
153.352150
  0
LINE
  8
0
 62
     4
 10
361.210864
 20
153.352150
 11
362.038750
 21
153.953205
  0
LINE
  8
0
 62
     4
 10
362.038750
 20
153.953205
 11
362.784996
 21
154.672697
  0
LINE
  8
0
 62
     4
 10
362.784996
 20
154.672697
 11
363.442416
 21
155.503697
  0
LINE
  8
0
 62
     4
 10
363.442416
 20
155.503697
 11
364.004677
 21
156.438202
  0
LINE
  8
0
 62
     4
 10
364.004677
 20
156.438202
 11
364.466366
 21
157.467211
  0
LINE
  8
0
 62
     4
 10
364.466366
 20
157.467211
 11
364.823035
 21
158.580816
  0
LINE
  8
0
 62
     4
 10
364.823035
 20
158.580816
 11
365.071250
 21
159.768292
  0
LINE
  8
0
 62
     4
 10
365.071250
 20
159.768292
 11
365.208620
 21
161.018201
  0
LINE
  8
0
 62
     4
 10
365.208620
 20
161.018201
 11
365.233822
 21
162.318508
  0
LINE
  8
0
 62
     4
 10
365.233822
 20
162.318508
 11
365.146615
 21
163.656689
  0
LINE
  8
0
 62
     4
 10
365.146615
 20
163.656689
 11
364.947836
 21
165.019857
  0
LINE
  8
0
 62
     4
 10
364.947836
 20
165.019857
 11
364.639402
 21
166.394885
  0
LINE
  8
0
 62
     4
 10
364.639402
 20
166.394885
 11
364.224282
 21
167.768529
  0
LINE
  8
0
 62
     4
 10
364.224282
 20
167.768529
 11
363.706474
 21
169.127560
  0
LINE
  8
0
 62
     4
 10
363.706474
 20
169.127560
 11
363.090965
 21
170.458891
  0
LINE
  8
0
 62
     4
 10
363.090965
 20
170.458891
 11
362.383682
 21
171.749701
  0
LINE
  8
0
 62
     4
 10
362.383682
 20
171.749701
 11
361.591438
 21
172.987557
  0
LINE
  8
0
 62
     4
 10
361.591438
 20
172.987557
 11
360.721861
 21
174.160539
  0
LINE
  8
0
 62
     4
 10
360.721861
 20
174.160539
 11
359.783327
 21
175.257350
  0
LINE
  8
0
 62
     4
 10
359.783327
 20
175.257350
 11
358.784874
 21
176.267427
  0
LINE
  8
0
 62
     4
 10
358.784874
 20
176.267427
 11
357.736117
 21
177.181044
  0
LINE
  8
0
 62
     4
 10
357.736117
 20
177.181044
 11
356.647157
 21
177.989400
  0
LINE
  8
0
 62
     4
 10
356.647157
 20
177.989400
 11
355.528481
 21
178.684711
  0
LINE
  8
0
 62
     4
 10
355.528481
 20
178.684711
 11
354.390862
 21
179.260282
  0
LINE
  8
0
 62
     4
 10
354.390862
 20
179.260282
 11
353.245256
 21
179.710568
  0
LINE
  8
0
 62
     4
 10
353.245256
 20
179.710568
 11
352.102697
 21
180.031234
  0
LINE
  8
0
 62
     4
 10
352.102697
 20
180.031234
 11
350.974187
 21
180.219190
  0
LINE
  8
0
 62
     4
 10
350.974187
 20
180.219190
 11
349.870595
 21
180.272628
  0
LINE
  8
0
 62
     4
 10
349.870595
 20
180.272628
 11
348.802549
 21
180.191033
  0
LINE
  8
0
 62
     4
 10
348.802549
 20
180.191033
 11
347.780335
 21
179.975190
  0
LINE
  8
0
 62
     4
 10
347.780335
 20
179.975190
 11
346.813797
 21
179.627177
  0
LINE
  8
0
 62
     4
 10
346.813797
 20
179.627177
 11
345.912244
 21
179.150347
  0
LINE
  8
0
 62
     4
 10
345.912244
 20
179.150347
 11
345.084358
 21
178.549292
  0
LINE
  8
0
 62
     4
 10
345.084358
 20
178.549292
 11
344.338111
 21
177.829800
  0
LINE
  8
0
 62
     4
 10
344.338111
 20
177.829800
 11
343.680692
 21
176.998800
  0
LINE
  8
0
 62
     4
 10
343.680692
 20
176.998800
 11
343.118430
 21
176.064295
  0
LINE
  8
0
 62
     4
 10
343.118430
 20
176.064295
 11
342.656742
 21
175.035286
  0
LINE
  8
0
 62
     4
 10
342.656742
 20
175.035286
 11
342.488220
 21
174.509121
  0
LINE
  8
0
 62
     4
 10
347.795412
 20
180.215810
 11
348.696966
 21
180.692640
  0
LINE
  8
0
 62
     4
 10
348.696966
 20
180.692640
 11
349.663504
 21
181.040652
  0
LINE
  8
0
 62
     4
 10
349.663504
 20
181.040652
 11
350.685718
 21
181.256496
  0
LINE
  8
0
 62
     4
 10
350.685718
 20
181.256496
 11
351.753764
 21
181.338091
  0
LINE
  8
0
 62
     4
 10
351.753764
 20
181.338091
 11
352.857356
 21
181.284653
  0
LINE
  8
0
 62
     4
 10
352.857356
 20
181.284653
 11
353.985866
 21
181.096696
  0
LINE
  8
0
 62
     4
 10
353.985866
 20
181.096696
 11
355.128425
 21
180.776031
  0
LINE
  8
0
 62
     4
 10
355.128425
 20
180.776031
 11
356.274030
 21
180.325744
  0
LINE
  8
0
 62
     4
 10
356.274030
 20
180.325744
 11
357.411649
 21
179.750174
  0
LINE
  8
0
 62
     4
 10
357.411649
 20
179.750174
 11
358.530325
 21
179.054863
  0
LINE
  8
0
 62
     4
 10
358.530325
 20
179.054863
 11
359.619286
 21
178.246506
  0
LINE
  8
0
 62
     4
 10
359.619286
 20
178.246506
 11
360.668042
 21
177.332890
  0
LINE
  8
0
 62
     4
 10
360.668042
 20
177.332890
 11
361.666496
 21
176.322813
  0
LINE
  8
0
 62
     4
 10
361.666496
 20
176.322813
 11
362.605030
 21
175.226002
  0
LINE
  8
0
 62
     4
 10
362.605030
 20
175.226002
 11
363.474607
 21
174.053020
  0
LINE
  8
0
 62
     4
 10
363.474607
 20
174.053020
 11
364.266851
 21
172.815164
  0
LINE
  8
0
 62
     4
 10
364.266851
 20
172.815164
 11
364.974134
 21
171.524354
  0
LINE
  8
0
 62
     4
 10
364.974134
 20
171.524354
 11
365.589643
 21
170.193023
  0
LINE
  8
0
 62
     4
 10
365.589643
 20
170.193023
 11
366.107451
 21
168.833991
  0
LINE
  8
0
 62
     4
 10
366.107451
 20
168.833991
 11
366.522571
 21
167.460347
  0
LINE
  8
0
 62
     4
 10
366.522571
 20
167.460347
 11
366.831005
 21
166.085320
  0
LINE
  8
0
 62
     4
 10
366.831005
 20
166.085320
 11
367.029783
 21
164.722152
  0
LINE
  8
0
 62
     4
 10
367.029783
 20
164.722152
 11
367.116991
 21
163.383971
  0
LINE
  8
0
 62
     4
 10
367.116991
 20
163.383971
 11
367.091788
 21
162.083664
  0
LINE
  8
0
 62
     4
 10
367.091788
 20
162.083664
 11
366.954418
 21
160.833754
  0
LINE
  8
0
 62
     4
 10
366.954418
 20
160.833754
 11
366.706203
 21
159.646279
  0
LINE
  8
0
 62
     4
 10
366.706203
 20
159.646279
 11
366.349534
 21
158.532674
  0
LINE
  8
0
 62
     4
 10
366.349534
 20
158.532674
 11
365.887846
 21
157.503665
  0
LINE
  8
0
 62
     4
 10
365.887846
 20
157.503665
 11
365.325585
 21
156.569160
  0
LINE
  8
0
 62
     4
 10
365.325585
 20
156.569160
 11
364.668165
 21
155.738160
  0
LINE
  8
0
 62
     4
 10
364.668165
 20
155.738160
 11
363.921919
 21
155.018668
  0
LINE
  8
0
 62
     4
 10
363.921919
 20
155.018668
 11
363.094033
 21
154.417613
  0
LINE
  8
0
 10
342.743260
 20
212.357363
 11
308.301599
 21
244.721016
  0
LINE
  8
0
 10
352.030906
 20
225.578232
 11
319.343148
 21
256.293803
  0
LINE
  8
0
 10
375.696934
 20
206.826803
 11
375.757473
 21
207.010827
  0
LINE
  8
0
 10
370.302130
 20
207.767098
 11
369.825430
 21
207.567114
  0
LINE
  8
0
 10
369.825430
 20
207.567114
 11
368.916198
 21
207.237115
  0
LINE
  8
0
 10
368.916198
 20
207.237115
 11
367.900679
 21
206.934207
  0
LINE
  8
0
 10
367.900679
 20
206.934207
 11
366.746169
 21
206.654752
  0
LINE
  8
0
 10
366.746169
 20
206.654752
 11
366.322959
 21
206.566273
  0
LINE
  8
0
 10
375.021155
 20
211.487555
 11
374.798784
 21
211.210776
  0
LINE
  8
0
 10
374.798784
 20
211.210776
 11
374.141035
 21
210.464889
  0
LINE
  8
0
 10
374.141035
 20
210.464889
 11
373.486271
 21
209.822779
  0
LINE
  8
0
 10
373.486271
 20
209.822779
 11
372.822135
 21
209.262595
  0
LINE
  8
0
 10
372.822135
 20
209.262595
 11
372.437973
 21
208.975519
  0
LINE
  8
0
 10
366.322959
 20
206.566273
 11
366.162650
 21
206.214614
  0
LINE
  8
0
 10
375.757473
 20
207.010827
 11
375.825127
 21
207.374011
  0
LINE
  8
0
 10
375.783301
 20
208.737401
 11
375.762801
 21
208.865679
  0
LINE
  8
0
 10
375.762801
 20
208.865679
 11
375.642765
 21
209.458708
  0
LINE
  8
0
 10
375.642765
 20
209.458708
 11
375.466632
 21
210.130743
  0
LINE
  8
0
 10
375.466632
 20
210.130743
 11
375.225046
 21
210.902749
  0
LINE
  8
0
 10
375.225046
 20
210.902749
 11
375.021155
 21
211.487555
  0
LINE
  8
0
 10
370.302109
 20
207.767084
 11
369.846501
 21
207.456173
  0
LINE
  8
0
 10
369.846501
 20
207.456173
 11
369.021650
 21
206.853452
  0
LINE
  8
0
 10
369.021650
 20
206.853452
 11
368.179136
 21
206.188152
  0
LINE
  8
0
 10
368.179136
 20
206.188152
 11
367.327109
 21
205.466706
  0
LINE
  8
0
 10
367.327109
 20
205.466706
 11
367.279538
 21
205.423745
  0
LINE
  8
0
 10
372.672581
 20
201.328704
 11
373.246643
 21
202.128153
  0
LINE
  8
0
 10
373.246643
 20
202.128153
 11
373.829825
 21
203.001215
  0
LINE
  8
0
 10
373.829825
 20
203.001215
 11
374.349077
 21
203.848832
  0
LINE
  8
0
 10
374.349077
 20
203.848832
 11
374.799395
 21
204.662832
  0
LINE
  8
0
 10
374.799395
 20
204.662832
 11
375.176442
 21
205.435376
  0
LINE
  8
0
 10
375.176442
 20
205.435376
 11
375.476585
 21
206.159025
  0
LINE
  8
0
 10
375.476585
 20
206.159025
 11
375.696934
 21
206.826803
  0
LINE
  8
0
 10
375.696934
 20
206.826803
 11
375.825123
 21
207.373984
  0
LINE
  8
0
 10
375.783295
 20
208.737426
 11
375.749875
 21
208.819961
  0
LINE
  8
0
 10
375.749875
 20
208.819961
 11
375.555377
 21
209.124737
  0
LINE
  8
0
 10
375.555377
 20
209.124737
 11
375.280313
 21
209.345114
  0
LINE
  8
0
 10
375.280313
 20
209.345114
 11
374.927347
 21
209.478940
  0
LINE
  8
0
 10
374.927347
 20
209.478940
 11
374.499876
 21
209.524928
  0
LINE
  8
0
 10
374.499876
 20
209.524928
 11
374.002019
 21
209.482634
  0
LINE
  8
0
 10
374.002019
 20
209.482634
 11
373.438570
 21
209.352465
  0
LINE
  8
0
 10
373.438570
 20
209.352465
 11
372.814983
 21
209.135687
  0
LINE
  8
0
 10
372.814983
 20
209.135687
 11
372.437991
 21
208.975527
  0
LINE
  8
0
 10
375.825123
 20
207.373984
 11
375.783295
 21
208.737426
  0
LINE
  8
0
 10
372.411029
 20
201.007471
 11
372.672581
 21
201.328704
  0
LINE
  8
0
 10
372.437991
 20
208.975527
 11
370.302109
 21
207.767084
  0
LINE
  8
0
 10
360.058976
 20
212.452755
 11
359.455112
 21
211.711100
  0
LINE
  8
0
 10
368.756959
 20
217.373917
 11
360.058976
 21
212.452755
  0
LINE
  8
0
 10
360.058976
 20
212.452755
 11
366.323160
 21
206.566515
  0
LINE
  8
0
 10
368.756959
 20
217.373917
 11
375.021143
 21
211.487677
  0
LINE
  8
0
 62
     3
 10
419.292541
 20
157.482277
 11
421.803433
 21
158.902894
  0
LINE
  8
0
 62
     3
 10
324.228882
 20
179.232174
 11
319.554096
 21
170.868233
  0
LINE
  8
0
 62
     3
 10
348.714808
 20
223.041419
 11
342.417425
 21
211.774393
  0
LINE
  8
0
 62
     3
 10
352.981179
 20
221.880309
 11
352.956972
 21
221.866414
  0
LINE
  8
0
 62
     3
 10
352.956972
 20
221.866414
 11
352.729479
 21
221.713826
  0
LINE
  8
0
 62
     3
 10
352.729479
 20
221.713826
 11
352.530307
 21
221.537725
  0
LINE
  8
0
 62
     3
 10
352.530307
 20
221.537725
 11
352.361107
 21
221.339569
  0
LINE
  8
0
 62
     3
 10
352.361107
 20
221.339569
 11
352.223597
 21
221.121322
  0
LINE
  8
0
 62
     3
 10
352.223597
 20
221.121322
 11
352.119117
 21
220.885173
  0
LINE
  8
0
 62
     3
 10
352.119117
 20
220.885173
 11
352.048525
 21
220.633062
  0
LINE
  8
0
 62
     3
 10
352.048525
 20
220.633062
 11
352.012569
 21
220.367662
  0
LINE
  8
0
 62
     3
 10
352.012569
 20
220.367662
 11
352.011542
 21
220.091136
  0
LINE
  8
0
 62
     3
 10
352.011542
 20
220.091136
 11
352.045489
 21
219.806248
  0
LINE
  8
0
 62
     3
 10
352.045489
 20
219.806248
 11
352.114036
 21
219.515858
  0
LINE
  8
0
 62
     3
 10
352.114036
 20
219.515858
 11
352.216623
 21
219.222335
  0
LINE
  8
0
 62
     3
 10
352.216623
 20
219.222335
 11
352.352164
 21
218.928790
  0
LINE
  8
0
 62
     3
 10
352.352164
 20
218.928790
 11
352.519543
 21
218.637637
  0
LINE
  8
0
 62
     3
 10
352.519543
 20
218.637637
 11
352.717126
 21
218.351772
  0
LINE
  8
0
 62
     3
 10
352.717126
 20
218.351772
 11
352.942909
 21
218.074053
  0
LINE
  8
0
 62
     3
 10
352.942909
 20
218.074053
 11
353.195022
 21
217.806779
  0
LINE
  8
0
 62
     3
 10
353.195022
 20
217.806779
 11
353.221570
 21
217.780747
  0
LINE
  8
INVISIBLE
 62
     5
  6
DASHDOT
 10
352.011745
 20
220.145837
 11
352.981179
 21
221.880309
  0
LINE
  8
0
 62
     3
 10
350.229896
 20
224.559253
 11
350.181497
 21
224.531473
  0
LINE
  8
0
 62
     3
 10
350.181497
 20
224.531473
 11
349.726611
 21
224.226375
  0
LINE
  8
0
 62
     3
 10
349.726611
 20
224.226375
 11
349.328043
 21
223.873975
  0
LINE
  8
0
 62
     3
 10
349.328043
 20
223.873975
 11
348.989758
 21
223.477781
  0
LINE
  8
0
 62
     3
 10
348.989758
 20
223.477781
 11
348.714808
 21
223.041419
  0
LINE
  8
0
 62
     3
 10
348.714808
 20
223.041419
 11
348.505772
 21
222.568982
  0
LINE
  8
0
 62
     3
 10
348.505772
 20
222.568982
 11
348.364588
 21
222.064756
  0
LINE
  8
0
 62
     3
 10
348.364588
 20
222.064756
 11
348.292664
 21
221.533786
  0
LINE
  8
0
 62
     3
 10
348.292664
 20
221.533786
 11
348.290623
 21
220.980908
  0
LINE
  8
0
 62
     3
 10
348.290623
 20
220.980908
 11
348.358484
 21
220.411314
  0
LINE
  8
0
 62
     3
 10
348.358484
 20
220.411314
 11
348.495609
 21
219.830355
  0
LINE
  8
0
 62
     3
 10
348.495609
 20
219.830355
 11
348.700784
 21
219.243306
  0
LINE
  8
0
 62
     3
 10
348.700784
 20
219.243306
 11
348.971959
 21
218.656037
  0
LINE
  8
0
 62
     3
 10
348.971959
 20
218.656037
 11
349.306632
 21
218.073897
  0
LINE
  8
0
 62
     3
 10
349.306632
 20
218.073897
 11
349.701664
 21
217.502348
  0
LINE
  8
0
 62
     3
 10
349.701664
 20
217.502348
 11
350.153485
 21
216.946597
  0
LINE
  8
0
 62
     3
 10
350.153485
 20
216.946597
 11
350.657599
 21
216.412177
  0
LINE
  8
0
 62
     3
 10
350.657599
 20
216.412177
 11
350.710678
 21
216.360130
  0
LINE
  8
INVISIBLE
 62
     5
  6
DASHDOT
 10
348.561739
 20
212.515333
 11
350.710678
 21
216.360130
  0
LINE
  8
INVISIBLE
 62
     5
  6
DASHDOT
 10
321.549967
 20
164.186943
 11
324.711455
 21
169.843353
  0
LINE
  8
0
 62
     3
 10
321.549967
 20
164.186943
 11
321.496887
 21
164.238990
  0
LINE
  8
0
 62
     3
 10
321.496887
 20
164.238990
 11
320.992773
 21
164.773411
  0
LINE
  8
0
 62
     3
 10
320.992773
 20
164.773411
 11
320.540953
 21
165.329162
  0
LINE
  8
0
 62
     3
 10
320.540953
 20
165.329162
 11
320.145921
 21
165.900711
  0
LINE
  8
0
 62
     3
 10
320.145921
 20
165.900711
 11
319.811247
 21
166.482850
  0
LINE
  8
0
 62
     3
 10
319.811247
 20
166.482850
 11
319.540073
 21
167.070119
  0
LINE
  8
0
 62
     3
 10
319.540073
 20
167.070119
 11
319.334898
 21
167.657169
  0
LINE
  8
0
 62
     3
 10
319.334898
 20
167.657169
 11
319.197773
 21
168.238128
  0
LINE
  8
0
 62
     3
 10
319.197773
 20
168.238128
 11
319.129912
 21
168.807721
  0
LINE
  8
0
 62
     3
 10
319.129912
 20
168.807721
 11
319.131953
 21
169.360600
  0
LINE
  8
0
 62
     3
 10
319.131953
 20
169.360600
 11
319.203876
 21
169.891569
  0
LINE
  8
0
 62
     3
 10
319.203876
 20
169.891569
 11
319.345061
 21
170.395795
  0
LINE
  8
0
 62
     3
 10
319.345061
 20
170.395795
 11
319.554096
 21
170.868233
  0
LINE
  8
INVISIBLE
 62
     5
  6
DASHDOT
 10
371.958721
 20
214.365274
 11
386.878214
 21
241.058639
  0
LINE
  8
0
 62
     3
 10
392.140388
 20
239.800312
 11
392.113604
 21
239.826210
  0
LINE
  8
0
 62
     3
 10
392.113604
 20
239.826210
 11
391.833183
 21
240.077468
  0
LINE
  8
0
 62
     3
 10
391.833183
 20
240.077468
 11
391.532217
 21
240.312649
  0
LINE
  8
0
 62
     3
 10
391.532217
 20
240.312649
 11
391.213195
 21
240.529806
  0
LINE
  8
0
 62
     3
 10
391.213195
 20
240.529806
 11
390.879299
 21
240.726748
  0
LINE
  8
0
 62
     3
 10
390.879299
 20
240.726748
 11
390.533861
 21
240.901536
  0
LINE
  8
0
 62
     3
 10
390.533861
 20
240.901536
 11
390.179719
 21
241.052734
  0
LINE
  8
0
 62
     3
 10
390.179719
 20
241.052734
 11
389.820628
 21
241.178738
  0
LINE
  8
0
 62
     3
 10
389.820628
 20
241.178738
 11
389.459515
 21
241.278522
  0
LINE
  8
0
 62
     3
 10
389.459515
 20
241.278522
 11
389.100000
 21
241.351060
  0
LINE
  8
0
 62
     3
 10
389.100000
 20
241.351060
 11
388.745682
 21
241.395651
  0
LINE
  8
0
 62
     3
 10
388.745682
 20
241.395651
 11
388.399452
 21
241.411931
  0
LINE
  8
0
 62
     3
 10
388.399452
 20
241.411931
 11
388.064978
 21
241.399728
  0
LINE
  8
0
 62
     3
 10
388.064978
 20
241.399728
 11
387.745010
 21
241.359142
  0
LINE
  8
0
 62
     3
 10
387.745010
 20
241.359142
 11
387.442745
 21
241.290552
  0
LINE
  8
0
 62
     3
 10
387.442745
 20
241.290552
 11
387.161192
 21
241.194667
  0
LINE
  8
0
 62
     3
 10
387.161192
 20
241.194667
 11
386.902680
 21
241.072282
  0
LINE
  8
0
 62
     3
 10
386.902680
 20
241.072282
 11
386.878214
 21
241.058639
  0
LINE
  8
INVISIBLE
 62
     5
  6
DASHDOT
 10
375.495617
 20
210.020148
 11
392.140388
 21
239.800312
  0
LINE
  8
0
 62
     3
 10
394.651280
 20
241.220929
 11
394.597729
 21
241.272709
  0
LINE
  8
0
 62
     3
 10
394.597729
 20
241.272709
 11
394.037024
 21
241.775111
  0
LINE
  8
0
 62
     3
 10
394.037024
 20
241.775111
 11
393.434751
 21
242.245739
  0
LINE
  8
0
 62
     3
 10
393.434751
 20
242.245739
 11
392.796906
 21
242.679909
  0
LINE
  8
0
 62
     3
 10
392.796906
 20
242.679909
 11
392.129310
 21
243.073687
  0
LINE
  8
0
 62
     3
 10
392.129310
 20
243.073687
 11
391.438225
 21
243.423378
  0
LINE
  8
0
 62
     3
 10
391.438225
 20
243.423378
 11
390.729936
 21
243.725775
  0
LINE
  8
0
 62
     3
 10
390.729936
 20
243.725775
 11
390.011529
 21
243.977854
  0
LINE
  8
0
 62
     3
 10
390.011529
 20
243.977854
 11
389.289533
 21
244.177350
  0
LINE
  8
0
 62
     3
 10
389.289533
 20
244.177350
 11
388.570730
 21
244.322388
  0
LINE
  8
0
 62
     3
 10
388.570730
 20
244.322388
 11
387.861872
 21
244.411606
  0
LINE
  8
0
 62
     3
 10
387.861872
 20
244.411606
 11
387.169406
 21
244.444167
  0
LINE
  8
0
 62
     3
 10
387.169406
 20
244.444167
 11
386.500258
 21
244.419745
  0
LINE
  8
0
 62
     3
 10
386.500258
 20
244.419745
 11
385.860511
 21
244.338587
  0
LINE
  8
0
 62
     3
 10
385.860511
 20
244.338587
 11
385.256167
 21
244.201458
  0
LINE
  8
0
 62
     3
 10
385.256167
 20
244.201458
 11
384.692742
 21
244.009580
  0
LINE
  8
0
 62
     3
 10
384.692742
 20
244.009580
 11
384.175847
 21
243.764861
  0
LINE
  8
0
 62
     3
 10
384.175847
 20
243.764861
 11
384.126932
 21
243.737584
  0
LINE
  8
0
 62
     3
 10
382.112976
 20
188.109696
 11
382.724108
 21
187.247705
  0
LINE
  8
0
 62
     3
 10
382.724108
 20
187.247705
 11
384.746606
 21
183.942973
  0
LINE
  8
0
 62
     3
 10
384.746606
 20
183.942973
 11
386.542746
 21
180.509723
  0
LINE
  8
0
 62
     3
 10
386.542746
 20
180.509723
 11
388.095655
 21
176.980208
  0
LINE
  8
0
 62
     3
 10
388.095655
 20
176.980208
 11
389.390745
 21
173.387586
  0
LINE
  8
0
 62
     3
 10
389.390745
 20
173.387586
 11
390.415849
 21
169.765607
  0
LINE
  8
0
 62
     3
 10
390.415849
 20
169.765607
 11
391.161337
 21
166.148296
  0
LINE
  8
0
 62
     3
 10
391.161337
 20
166.148296
 11
391.620206
 21
162.569637
  0
LINE
  8
0
 62
     3
 10
391.620206
 20
162.569637
 11
391.788145
 21
159.063247
  0
LINE
  8
0
 62
     3
 10
391.788145
 20
159.063247
 11
391.663576
 21
155.662068
  0
LINE
  8
0
 62
     3
 10
391.663576
 20
155.662068
 11
391.247669
 21
152.398051
  0
LINE
  8
0
 62
     3
 10
391.247669
 20
152.398051
 11
390.544332
 21
149.301860
  0
LINE
  8
0
 62
     3
 10
390.544332
 20
149.301860
 11
389.687682
 21
146.778246
  0
LINE
  8
0
 62
     3
 10
363.121235
 20
208.141368
 11
353.221570
 21
217.780747
  0
LINE
  8
0
 62
     3
 10
355.850266
 20
211.355675
 11
350.710678
 21
216.360130
  0
LINE
  8
0
 62
     3
 10
389.215679
 20
155.961436
 11
389.277253
 21
157.642630
  0
LINE
  8
0
 62
     3
 10
389.277253
 20
157.642630
 11
389.109315
 21
161.149020
  0
LINE
  8
0
 62
     3
 10
389.109315
 20
161.149020
 11
388.841818
 21
163.235195
  0
LINE
  8
0
 62
     3
 10
325.184063
 20
160.648396
 11
321.549967
 21
164.186943
  0
LINE
  8
0
 62
     3
 10
352.981179
 20
221.880309
 11
386.878214
 21
241.058639
  0
LINE
  8
0
 62
     3
 10
350.229896
 20
224.559253
 11
384.126932
 21
243.737584
  0
LINE
  8
0
 62
     3
 10
404.937452
 20
186.711961
 11
405.042592
 21
186.870924
  0
LINE
  8
0
 62
     3
 10
405.042592
 20
186.870924
 11
405.072859
 21
186.924273
  0
LINE
  8
0
 62
     3
 10
404.604449
 20
186.252281
 11
404.727179
 21
186.394043
  0
LINE
  8
0
 62
     3
 10
404.727179
 20
186.394043
 11
404.781123
 21
186.475602
  0
LINE
  8
0
 62
     3
 10
404.223324
 20
185.850337
 11
404.362752
 21
185.973102
  0
LINE
  8
0
 62
     3
 10
404.362752
 20
185.973102
 11
404.423845
 21
186.043669
  0
LINE
  8
0
 62
     3
 10
403.797516
 20
185.509795
 11
403.952670
 21
185.612029
  0
LINE
  8
0
 62
     3
 10
403.952670
 20
185.612029
 11
404.020056
 21
185.671362
  0
LINE
  8
0
 62
     3
 10
403.458252
 20
185.294198
 11
403.501046
 21
185.314446
  0
LINE
  8
0
 62
     3
 10
403.501046
 20
185.314446
 11
403.543608
 21
185.342490
  0
LINE
  8
0
 62
     3
 10
395.809149
 20
199.330129
 11
395.639541
 21
199.249879
  0
LINE
  8
0
 62
     3
 10
395.639541
 20
199.249879
 11
395.566820
 21
199.201962
  0
LINE
  8
0
 62
     3
 10
396.311421
 20
199.538387
 11
396.128655
 21
199.481303
  0
LINE
  8
0
 62
     3
 10
396.128655
 20
199.481303
 11
396.051518
 21
199.444806
  0
LINE
  8
0
 62
     3
 10
396.844651
 20
199.677121
 11
396.650344
 21
199.644243
  0
LINE
  8
0
 62
     3
 10
396.650344
 20
199.644243
 11
396.569793
 21
199.619084
  0
LINE
  8
0
 62
     3
 10
397.404212
 20
199.745138
 11
397.199938
 21
199.737239
  0
LINE
  8
0
 62
     3
 10
397.199938
 20
199.737239
 11
397.116897
 21
199.723188
  0
LINE
  8
0
 62
     3
 10
397.984230
 20
199.741713
 11
397.771904
 21
199.759356
  0
LINE
  8
0
 62
     3
 10
397.771904
 20
199.759356
 11
397.687375
 21
199.756087
  0
LINE
  8
0
 62
     3
 10
398.579715
 20
199.666884
 11
398.361131
 21
199.710395
  0
LINE
  8
0
 62
     3
 10
398.361131
 20
199.710395
 11
398.275998
 21
199.717469
  0
LINE
  8
0
 62
     3
 10
399.184371
 20
199.521433
 11
398.961679
 21
199.590851
  0
LINE
  8
0
 62
     3
 10
398.961679
 20
199.590851
 11
398.876898
 21
199.607727
  0
LINE
  8
0
 62
     3
 10
399.793042
 20
199.306608
 11
399.568190
 21
199.401789
  0
LINE
  8
0
 62
     3
 10
399.568190
 20
199.401789
 11
399.484569
 21
199.427855
  0
LINE
  8
0
 62
     3
 10
400.399245
 20
199.024689
 11
400.174539
 21
199.145119
  0
LINE
  8
0
 62
     3
 10
400.174539
 20
199.145119
 11
400.092950
 21
199.179656
  0
LINE
  8
0
 62
     3
 10
400.997860
 20
198.678062
 11
400.775328
 21
198.823127
  0
LINE
  8
0
 62
     3
 10
400.775328
 20
198.823127
 11
400.696467
 21
198.865392
  0
LINE
  8
0
 62
     3
 10
401.582458
 20
198.270443
 11
401.364480
 21
198.439069
  0
LINE
  8
0
 62
     3
 10
401.364480
 20
198.439069
 11
401.289101
 21
198.488207
  0
LINE
  8
0
 62
     3
 10
402.148156
 20
197.805242
 11
401.936758
 21
197.996359
  0
LINE
  8
0
 62
     3
 10
401.936758
 20
197.996359
 11
401.865421
 21
198.051544
  0
LINE
  8
0
 62
     3
 10
402.688962
 20
197.287351
 11
402.486365
 21
197.499481
  0
LINE
  8
0
 62
     3
 10
402.486365
 20
197.499481
 11
402.419679
 21
197.559768
  0
LINE
  8
0
 62
     3
 10
403.199790
 20
196.721714
 11
403.008262
 21
196.953026
  0
LINE
  8
0
 62
     3
 10
403.008262
 20
196.953026
 11
402.946706
 21
197.017479
  0
LINE
  8
0
 62
     3
 10
403.676217
 20
196.113188
 11
403.497640
 21
196.361995
  0
LINE
  8
0
 62
     3
 10
403.497640
 20
196.361995
 11
403.441528
 21
196.429763
  0
LINE
  8
0
 62
     3
 10
404.113029
 20
195.468415
 11
403.949541
 21
195.732372
  0
LINE
  8
0
 62
     3
 10
403.949541
 20
195.732372
 11
403.899228
 21
195.802472
  0
LINE
  8
0
 62
     3
 10
404.506653
 20
194.792681
 11
404.359948
 21
195.069756
  0
LINE
  8
0
 62
     3
 10
404.359948
 20
195.069756
 11
404.315601
 21
195.141355
  0
LINE
  8
0
 62
     3
 10
404.852761
 20
194.093395
 11
404.724709
 21
194.380847
  0
LINE
  8
0
 62
     3
 10
404.724709
 20
194.380847
 11
404.686509
 21
194.452995
  0
LINE
  8
0
 62
     3
 10
405.148541
 20
193.376254
 11
405.040578
 21
193.671781
  0
LINE
  8
0
 62
     3
 10
405.040578
 20
193.671781
 11
405.008534
 21
193.743715
  0
LINE
  8
0
 62
     3
 10
405.390722
 20
192.649160
 11
405.304365
 21
192.949716
  0
LINE
  8
0
 62
     3
 10
405.304365
 20
192.949716
 11
405.278482
 21
193.020565
  0
LINE
  8
0
 62
     3
 10
405.577349
 20
191.917997
 11
405.513715
 21
192.221096
  0
LINE
  8
0
 62
     3
 10
405.513715
 20
192.221096
 11
405.493860
 21
192.290201
  0
LINE
  8
0
 62
     3
 10
405.706345
 20
191.190866
 11
405.666520
 21
191.493265
  0
LINE
  8
0
 62
     3
 10
405.666520
 20
191.493265
 11
405.652536
 21
191.559870
  0
LINE
  8
0
 62
     3
 10
405.776676
 20
190.473604
 11
405.761412
 21
190.772728
  0
LINE
  8
0
 62
     3
 10
405.761412
 20
190.772728
 11
405.753039
 21
190.836307
  0
LINE
  8
0
 62
     3
 10
405.787547
 20
189.774211
 11
405.797438
 21
190.066737
  0
LINE
  8
0
 62
     3
 10
405.797438
 20
190.066737
 11
405.794379
 21
190.126679
  0
LINE
  8
0
 62
     3
 10
405.738875
 20
189.098249
 11
405.774274
 21
189.381614
  0
LINE
  8
0
 62
     3
 10
405.774274
 20
189.381614
 11
405.776165
 21
189.437544
  0
LINE
  8
0
 62
     3
 10
405.631192
 20
188.453312
 11
405.692153
 21
188.724243
  0
LINE
  8
0
 62
     3
 10
405.692153
 20
188.724243
 11
405.698583
 21
188.775714
  0
LINE
  8
0
 62
     3
 10
405.465347
 20
187.844479
 11
405.551812
 21
188.100521
  0
LINE
  8
0
 62
     3
 10
405.551812
 20
188.100521
 11
405.562342
 21
188.147319
  0
LINE
  8
0
 62
     3
 10
405.243091
 20
187.278398
 11
405.354658
 21
187.516705
  0
LINE
  8
0
 62
     3
 10
405.354658
 20
187.516705
 11
405.368793
 21
187.558561
  0
LINE
  8
0
 62
     3
 10
405.072859
 20
186.924273
 11
405.102545
 21
186.978189
  0
LINE
  8
0
 62
     3
 10
405.102545
 20
186.978189
 11
405.119768
 21
187.014978
  0
LINE
  8
0
 62
     3
 10
392.140388
 20
239.800312
 11
414.150649
 21
218.368756
  0
LINE
  8
0
 62
     3
 10
427.083120
 20
165.492717
 11
427.223163
 21
165.746848
  0
LINE
  8
0
 62
     3
 10
427.223163
 20
165.746848
 11
428.478924
 21
168.421980
  0
LINE
  8
0
 62
     3
 10
428.478924
 20
168.421980
 11
429.463150
 21
171.321424
  0
LINE
  8
0
 62
     3
 10
429.463150
 20
171.321424
 11
430.166487
 21
174.417616
  0
LINE
  8
0
 62
     3
 10
430.166487
 20
174.417616
 11
430.582394
 21
177.681633
  0
LINE
  8
0
 62
     3
 10
430.582394
 20
177.681633
 11
430.706963
 21
181.082812
  0
LINE
  8
0
 62
     3
 10
430.706963
 20
181.082812
 11
430.539025
 21
184.589201
  0
LINE
  8
0
 62
     3
 10
430.539025
 20
184.589201
 11
430.080156
 21
188.167861
  0
LINE
  8
0
 62
     3
 10
430.080156
 20
188.167861
 11
429.334668
 21
191.785171
  0
LINE
  8
0
 62
     3
 10
429.334668
 20
191.785171
 11
428.309564
 21
195.407150
  0
LINE
  8
0
 62
     3
 10
428.309564
 20
195.407150
 11
427.014474
 21
198.999773
  0
LINE
  8
0
 62
     3
 10
427.014474
 20
198.999773
 11
425.461565
 21
202.529288
  0
LINE
  8
0
 62
     3
 10
425.461565
 20
202.529288
 11
423.665424
 21
205.962538
  0
LINE
  8
0
 62
     3
 10
423.665424
 20
205.962538
 11
421.642927
 21
209.267270
  0
LINE
  8
0
 62
     3
 10
421.642927
 20
209.267270
 11
419.413072
 21
212.412439
  0
LINE
  8
0
 62
     3
 10
419.413072
 20
212.412439
 11
416.996660
 21
215.368665
  0
LINE
  8
0
 62
     3
 10
416.996660
 20
215.368665
 11
414.416662
 21
218.107844
  0
LINE
  8
0
 62
     3
 10
414.416662
 20
218.107844
 11
414.150649
 21
218.368756
  0
LINE
  8
0
 62
     3
 10
391.706372
 20
160.770572
 11
393.789697
 21
159.433377
  0
LINE
  8
0
 62
     3
 10
393.789697
 20
159.433377
 11
396.778879
 21
157.858199
  0
LINE
  8
0
 62
     3
 10
396.778879
 20
157.858199
 11
399.794285
 21
156.606411
  0
LINE
  8
0
 62
     3
 10
399.794285
 20
156.606411
 11
402.807587
 21
155.689771
  0
LINE
  8
0
 62
     3
 10
402.807587
 20
155.689771
 11
405.790476
 21
155.116893
  0
LINE
  8
0
 62
     3
 10
405.790476
 20
155.116893
 11
408.714931
 21
154.893157
  0
LINE
  8
0
 62
     3
 10
408.714931
 20
154.893157
 11
411.553479
 21
155.020665
  0
LINE
  8
0
 62
     3
 10
411.553479
 20
155.020665
 11
414.279452
 21
155.498220
  0
LINE
  8
0
 62
     3
 10
414.279452
 20
155.498220
 11
416.867243
 21
156.321334
  0
LINE
  8
0
 62
     3
 10
416.867243
 20
156.321334
 11
419.292541
 21
157.482277
  0
LINE
  8
0
 62
     3
 10
419.292541
 20
157.482277
 11
421.532562
 21
158.970140
  0
LINE
  8
0
 62
     3
 10
421.532562
 20
158.970140
 11
423.566263
 21
160.770947
  0
LINE
  8
0
 62
     3
 10
423.566263
 20
160.770947
 11
425.374637
 21
162.867912
  0
LINE
  8
0
 62
     3
 10
425.374637
 20
162.867912
 11
426.940491
 21
165.241104
  0
LINE
  8
0
 62
     3
 10
426.940491
 20
165.241104
 11
427.083120
 21
165.492717
  0
LINE
  8
0
 62
     3
 10
416.661541
 20
219.789373
 11
416.927554
 21
219.528462
  0
LINE
  8
0
 62
     3
 10
416.927554
 20
219.528462
 11
419.507552
 21
216.789282
  0
LINE
  8
0
 62
     3
 10
419.507552
 20
216.789282
 11
421.923963
 21
213.833056
  0
LINE
  8
0
 62
     3
 10
421.923963
 20
213.833056
 11
424.153818
 21
210.687887
  0
LINE
  8
0
 62
     3
 10
424.153818
 20
210.687887
 11
426.176316
 21
207.383155
  0
LINE
  8
0
 62
     3
 10
426.176316
 20
207.383155
 11
427.972456
 21
203.949905
  0
LINE
  8
0
 62
     3
 10
427.972456
 20
203.949905
 11
429.525365
 21
200.420390
  0
LINE
  8
0
 62
     3
 10
429.525365
 20
200.420390
 11
430.820455
 21
196.827768
  0
LINE
  8
0
 62
     3
 10
430.820455
 20
196.827768
 11
431.845560
 21
193.205788
  0
LINE
  8
0
 62
     3
 10
431.845560
 20
193.205788
 11
432.591048
 21
189.588478
  0
LINE
  8
0
 62
     3
 10
432.591048
 20
189.588478
 11
433.049916
 21
186.009818
  0
LINE
  8
0
 62
     3
 10
433.049916
 20
186.009818
 11
433.217855
 21
182.503429
  0
LINE
  8
0
 62
     3
 10
433.217855
 20
182.503429
 11
433.093286
 21
179.102250
  0
LINE
  8
0
 62
     3
 10
433.093286
 20
179.102250
 11
432.677379
 21
175.838233
  0
LINE
  8
0
 62
     3
 10
432.677379
 20
175.838233
 11
431.974042
 21
172.742041
  0
LINE
  8
0
 62
     3
 10
431.974042
 20
172.742041
 11
430.989816
 21
169.842597
  0
LINE
  8
0
 62
     3
 10
430.989816
 20
169.842597
 11
429.734054
 21
167.167465
  0
LINE
  8
0
 62
     3
 10
429.734054
 20
167.167465
 11
429.594011
 21
166.913334
  0
LINE
  8
0
 62
     3
 10
394.651280
 20
241.220929
 11
416.661541
 21
219.789373
  0
LINE
  8
0
 62
     3
 10
429.594011
 20
166.913334
 11
429.451383
 21
166.661721
  0
LINE
  8
0
 62
     3
 10
429.451383
 20
166.661721
 11
427.885528
 21
164.288529
  0
LINE
  8
0
 62
     3
 10
427.885528
 20
164.288529
 11
426.077154
 21
162.191564
  0
LINE
  8
0
 62
     3
 10
426.077154
 20
162.191564
 11
424.043454
 21
160.390757
  0
LINE
  8
0
 62
     3
 10
424.043454
 20
160.390757
 11
421.803433
 21
158.902894
  0
LINE
  8
INVISIBLE
 62
     5
  6
DASHDOT
 10
416.661541
 20
219.789373
 11
414.150649
 21
218.368756
  0
LINE
  8
0
 62
     3
 10
338.749216
 20
210.419428
 11
336.238325
 21
208.998811
  0
LINE
  8
0
 62
     3
 10
329.913739
 20
113.109980
 11
392.077312
 21
94.495269
  0
LINE
  8
0
 62
     3
 10
392.057507
 20
100.671490
 11
392.059429
 21
100.636456
  0
LINE
  8
0
 62
     3
 10
392.059429
 20
100.636456
 11
392.091598
 21
100.293974
  0
LINE
  8
0
 62
     3
 10
392.091598
 20
100.293974
 11
392.147009
 21
99.968560
  0
LINE
  8
0
 62
     3
 10
392.147009
 20
99.968560
 11
392.225204
 21
99.662908
  0
LINE
  8
0
 62
     3
 10
392.225204
 20
99.662908
 11
392.325419
 21
99.380097
  0
LINE
  8
0
 62
     3
 10
392.325419
 20
99.380097
 11
392.446639
 21
99.122915
  0
LINE
  8
0
 62
     3
 10
392.446639
 20
99.122915
 11
392.587867
 21
98.893480
  0
LINE
  8
0
 62
     3
 10
392.587867
 20
98.893480
 11
392.747605
 21
98.694220
  0
LINE
  8
0
 62
     3
 10
392.747605
 20
98.694220
 11
392.924553
 21
98.526761
  0
LINE
  8
0
 62
     3
 10
392.924553
 20
98.526761
 11
393.116951
 21
98.392814
  0
LINE
  8
0
 62
     3
 10
393.116951
 20
98.392814
 11
393.322857
 21
98.293687
  0
LINE
  8
0
 62
     3
 10
393.322857
 20
98.293687
 11
393.540593
 21
98.230190
  0
LINE
  8
0
 62
     3
 10
393.540593
 20
98.230190
 11
393.767850
 21
98.202995
  0
LINE
  8
0
 62
     3
 10
393.767850
 20
98.202995
 11
394.002761
 21
98.212325
  0
LINE
  8
0
 62
     3
 10
394.002761
 20
98.212325
 11
394.242995
 21
98.258121
  0
LINE
  8
0
 62
     3
 10
394.242995
 20
98.258121
 11
394.486145
 21
98.339894
  0
LINE
  8
0
 62
     3
 10
394.486145
 20
98.339894
 11
394.730196
 21
98.456965
  0
LINE
  8
0
 62
     3
 10
394.730196
 20
98.456965
 11
394.754541
 21
98.470564
  0
LINE
  8
INVISIBLE
 62
     5
  6
DASHDOT
 10
394.754541
 20
98.470564
 11
392.425377
 21
99.168025
  0
LINE
  8
0
 62
     3
 10
329.913739
 20
113.109980
 11
329.501802
 21
113.308306
  0
LINE
  8
0
 62
     3
 10
329.501802
 20
113.308306
 11
329.117133
 21
113.576127
  0
LINE
  8
0
 62
     3
 10
329.117133
 20
113.576127
 11
328.763346
 21
113.910926
  0
LINE
  8
0
 62
     3
 10
328.763346
 20
113.910926
 11
328.443763
 21
114.309560
  0
LINE
  8
0
 62
     3
 10
328.443763
 20
114.309560
 11
328.161306
 21
114.768435
  0
LINE
  8
0
 62
     3
 10
328.161306
 20
114.768435
 11
327.918799
 21
115.282963
  0
LINE
  8
0
 62
     3
 10
327.918799
 20
115.282963
 11
327.718432
 21
115.848431
  0
LINE
  8
0
 62
     3
 10
327.718432
 20
115.848431
 11
327.562086
 21
116.459535
  0
LINE
  8
0
 62
     3
 10
327.562086
 20
116.459535
 11
327.451201
 21
117.110731
  0
LINE
  8
0
 62
     3
 10
327.451201
 20
117.110731
 11
327.386885
 21
117.795538
  0
LINE
  8
0
 62
     3
 10
327.386885
 20
117.795538
 11
327.383042
 21
117.865585
  0
LINE
  8
INVISIBLE
 62
     5
  6
DASHDOT
 10
389.546615
 20
99.250873
 11
327.383042
 21
117.865585
  0
LINE
  8
0
 62
     3
 10
389.546615
 20
99.250873
 11
389.550458
 21
99.180827
  0
LINE
  8
0
 62
     3
 10
389.550458
 20
99.180827
 11
389.614775
 21
98.496020
  0
LINE
  8
0
 62
     3
 10
389.614775
 20
98.496020
 11
389.725659
 21
97.844824
  0
LINE
  8
0
 62
     3
 10
389.725659
 20
97.844824
 11
389.882006
 21
97.233720
  0
LINE
  8
0
 62
     3
 10
389.882006
 20
97.233720
 11
390.082372
 21
96.668251
  0
LINE
  8
0
 62
     3
 10
390.082372
 20
96.668251
 11
390.324879
 21
96.153724
  0
LINE
  8
0
 62
     3
 10
390.324879
 20
96.153724
 11
390.607337
 21
95.694849
  0
LINE
  8
0
 62
     3
 10
390.607337
 20
95.694849
 11
390.926920
 21
95.296215
  0
LINE
  8
0
 62
     3
 10
390.926920
 20
95.296215
 11
391.280707
 21
94.961415
  0
LINE
  8
0
 62
     3
 10
391.280707
 20
94.961415
 11
391.665375
 21
94.693595
  0
LINE
  8
0
 62
     3
 10
391.665375
 20
94.693595
 11
392.077312
 21
94.495269
  0
LINE
  8
0
 62
     3
 10
392.077312
 20
94.495269
 11
392.512787
 21
94.368272
  0
LINE
  8
0
 62
     3
 10
392.512787
 20
94.368272
 11
392.967443
 21
94.313877
  0
LINE
  8
0
 62
     3
 10
392.967443
 20
94.313877
 11
393.437132
 21
94.332544
  0
LINE
  8
0
 62
     3
 10
393.437132
 20
94.332544
 11
393.917447
 21
94.424096
  0
LINE
  8
0
 62
     3
 10
393.917447
 20
94.424096
 11
394.404021
 21
94.587734
  0
LINE
  8
0
 62
     3
 10
394.404021
 20
94.587734
 11
394.892009
 21
94.821831
  0
LINE
  8
0
 62
     3
 10
394.892009
 20
94.821831
 11
394.940683
 21
94.849020
  0
LINE
  8
0
 62
     3
 10
434.928805
 20
121.200437
 11
434.953133
 21
121.214376
  0
LINE
  8
0
 62
     3
 10
434.953133
 20
121.214376
 11
435.195086
 21
121.372278
  0
LINE
  8
0
 62
     3
 10
435.195086
 20
121.372278
 11
435.432661
 21
121.562490
  0
LINE
  8
0
 62
     3
 10
435.432661
 20
121.562490
 11
435.663893
 21
121.783441
  0
LINE
  8
0
 62
     3
 10
435.663893
 20
121.783441
 11
435.886459
 21
122.032943
  0
LINE
  8
0
 62
     3
 10
435.886459
 20
122.032943
 11
436.098156
 21
122.308490
  0
LINE
  8
0
 62
     3
 10
436.098156
 20
122.308490
 11
436.297243
 21
122.607818
  0
LINE
  8
0
 62
     3
 10
436.297243
 20
122.607818
 11
436.481610
 21
122.927755
  0
LINE
  8
0
 62
     3
 10
436.481610
 20
122.927755
 11
436.649754
 21
123.265690
  0
LINE
  8
0
 62
     3
 10
436.649754
 20
123.265690
 11
436.799973
 21
123.618253
  0
LINE
  8
0
 62
     3
 10
436.799973
 20
123.618253
 11
436.930779
 21
123.981898
  0
LINE
  8
0
 62
     3
 10
436.930779
 20
123.981898
 11
437.041106
 21
124.353659
  0
LINE
  8
0
 62
     3
 10
437.041106
 20
124.353659
 11
437.129784
 21
124.729597
  0
LINE
  8
0
 62
     3
 10
437.129784
 20
124.729597
 11
437.196085
 21
125.106620
  0
LINE
  8
0
 62
     3
 10
437.196085
 20
125.106620
 11
437.239328
 21
125.480980
  0
LINE
  8
0
 62
     3
 10
437.239328
 20
125.480980
 11
437.259101
 21
125.848931
  0
LINE
  8
0
 62
     3
 10
437.259101
 20
125.848931
 11
437.255241
 21
126.207430
  0
LINE
  8
0
 62
     3
 10
437.255241
 20
126.207430
 11
437.253554
 21
126.242597
  0
LINE
  8
INVISIBLE
 62
     5
  6
DASHDOT
 10
434.928805
 20
121.200437
 11
390.315699
 21
134.559709
  0
LINE
  8
INVISIBLE
 62
     5
  6
DASHDOT
 10
437.253554
 20
126.242597
 11
390.016147
 21
140.387709
  0
LINE
  8
0
 62
     3
 10
435.114948
 20
117.578893
 11
435.163587
 21
117.606762
  0
LINE
  8
0
 62
     3
 10
435.163587
 20
117.606762
 11
435.647380
 21
117.922482
  0
LINE
  8
0
 62
     3
 10
435.647380
 20
117.922482
 11
436.122800
 21
118.303122
  0
LINE
  8
0
 62
     3
 10
436.122800
 20
118.303122
 11
436.585114
 21
118.744892
  0
LINE
  8
0
 62
     3
 10
436.585114
 20
118.744892
 11
437.030123
 21
119.243745
  0
LINE
  8
0
 62
     3
 10
437.030123
 20
119.243745
 11
437.453649
 21
119.795001
  0
LINE
  8
0
 62
     3
 10
437.453649
 20
119.795001
 11
437.851826
 21
120.393661
  0
LINE
  8
0
 62
     3
 10
437.851826
 20
120.393661
 11
438.220670
 21
121.033739
  0
LINE
  8
0
 62
     3
 10
438.220670
 20
121.033739
 11
438.556845
 21
121.709400
  0
LINE
  8
0
 62
     3
 10
438.556845
 20
121.709400
 11
438.857193
 21
122.414298
  0
LINE
  8
0
 62
     3
 10
438.857193
 20
122.414298
 11
439.118893
 21
123.141811
  0
LINE
  8
0
 62
     3
 10
439.118893
 20
123.141811
 11
439.339549
 21
123.885338
  0
LINE
  8
0
 62
     3
 10
439.339549
 20
123.885338
 11
439.516953
 21
124.637444
  0
LINE
  8
0
 62
     3
 10
439.516953
 20
124.637444
 11
439.649509
 21
125.391274
  0
LINE
  8
0
 62
     3
 10
439.649509
 20
125.391274
 11
439.735975
 21
126.139757
  0
LINE
  8
0
 62
     3
 10
439.735975
 20
126.139757
 11
439.775543
 21
126.876076
  0
LINE
  8
0
 62
     3
 10
439.775543
 20
126.876076
 11
439.767817
 21
127.592901
  0
LINE
  8
0
 62
     3
 10
439.767817
 20
127.592901
 11
439.764446
 21
127.663214
  0
LINE
  8
0
 62
     3
 10
351.739426
 20
170.596961
 11
351.739257
 21
170.598800
  0
LINE
  8
0
 62
     3
 10
388.706943
 20
165.859276
 11
392.057507
 21
100.671490
  0
LINE
  8
0
 62
     3
 10
355.763732
 20
211.382068
 11
356.065114
 21
211.290145
  0
LINE
  8
0
 62
     3
 10
356.065114
 20
211.290145
 11
359.083104
 21
210.185468
  0
LINE
  8
0
 62
     3
 10
359.083104
 20
210.185468
 11
362.087557
 21
208.751723
  0
LINE
  8
0
 62
     3
 10
362.087557
 20
208.751723
 11
365.049912
 21
207.002545
  0
LINE
  8
0
 62
     3
 10
365.049912
 20
207.002545
 11
367.942516
 21
204.954290
  0
LINE
  8
0
 62
     3
 10
367.942516
 20
204.954290
 11
370.738195
 21
202.626200
  0
LINE
  8
0
 62
     3
 10
370.738195
 20
202.626200
 11
373.410687
 21
200.040146
  0
LINE
  8
0
 62
     3
 10
373.410687
 20
200.040146
 11
375.934884
 21
197.220422
  0
LINE
  8
0
 62
     3
 10
375.934884
 20
197.220422
 11
378.287073
 21
194.193518
  0
LINE
  8
0
 62
     3
 10
378.287073
 20
194.193518
 11
380.445158
 21
190.987870
  0
LINE
  8
0
 62
     3
 10
380.445158
 20
190.987870
 11
382.388865
 21
187.633591
  0
LINE
  8
0
 62
     3
 10
382.388865
 20
187.633591
 11
384.099933
 21
184.162194
  0
LINE
  8
0
 62
     3
 10
384.099933
 20
184.162194
 11
385.562289
 21
180.606290
  0
LINE
  8
0
 62
     3
 10
385.562289
 20
180.606290
 11
386.762195
 21
176.999284
  0
LINE
  8
0
 62
     3
 10
386.762195
 20
176.999284
 11
387.688378
 21
173.375062
  0
LINE
  8
0
 62
     3
 10
387.688378
 20
173.375062
 11
388.332167
 21
169.767458
  0
LINE
  8
0
 62
     3
 10
388.332167
 20
169.767458
 11
388.687439
 21
166.210770
  0
LINE
  8
0
 62
     3
 10
388.687439
 20
166.210770
 11
388.706943
 21
165.859276
  0
LINE
  8
0
 62
     3
 10
338.749216
 20
210.419428
 11
341.235264
 21
211.460771
  0
LINE
  8
0
 62
     3
 10
341.235264
 20
211.460771
 11
343.875284
 21
212.161156
  0
LINE
  8
0
 62
     3
 10
343.875284
 20
212.161156
 11
346.644475
 21
212.514002
  0
LINE
  8
0
 62
     3
 10
346.644475
 20
212.514002
 11
349.516821
 21
212.515996
  0
LINE
  8
0
 62
     3
 10
349.516821
 20
212.515996
 11
352.465516
 21
212.167086
  0
LINE
  8
0
 62
     3
 10
352.465516
 20
212.167086
 11
355.462526
 21
211.470588
  0
LINE
  8
0
 62
     3
 10
355.462526
 20
211.470588
 11
355.763732
 21
211.382068
  0
LINE
  8
0
 62
     3
 10
324.032478
 20
183.053370
 11
327.383042
 21
117.865585
  0
LINE
  8
0
 62
     3
 10
353.252841
 20
209.961451
 11
352.951635
 21
210.049971
  0
LINE
  8
0
 62
     3
 10
352.951635
 20
210.049971
 11
349.954624
 21
210.746469
  0
LINE
  8
0
 62
     3
 10
349.954624
 20
210.746469
 11
347.005930
 21
211.095379
  0
LINE
  8
0
 62
     3
 10
347.005930
 20
211.095379
 11
344.133583
 21
211.093385
  0
LINE
  8
0
 62
     3
 10
344.133583
 20
211.093385
 11
341.364393
 21
210.740539
  0
LINE
  8
0
 62
     3
 10
341.364393
 20
210.740539
 11
338.724373
 21
210.040154
  0
LINE
  8
0
 62
     3
 10
338.724373
 20
210.040154
 11
336.238325
 21
208.998811
  0
LINE
  8
0
 62
     3
 10
336.238325
 20
208.998811
 11
333.929603
 21
207.626291
  0
LINE
  8
0
 62
     3
 10
333.929603
 20
207.626291
 11
331.819897
 21
205.935490
  0
LINE
  8
0
 62
     3
 10
331.819897
 20
205.935490
 11
329.929026
 21
203.942290
  0
LINE
  8
0
 62
     3
 10
329.929026
 20
203.942290
 11
328.274753
 21
201.665417
  0
LINE
  8
0
 62
     3
 10
328.274753
 20
201.665417
 11
326.872619
 21
199.126260
  0
LINE
  8
0
 62
     3
 10
326.872619
 20
199.126260
 11
325.735796
 21
196.348673
  0
LINE
  8
0
 62
     3
 10
325.735796
 20
196.348673
 11
324.874963
 21
193.358749
  0
LINE
  8
0
 62
     3
 10
324.874963
 20
193.358749
 11
324.298208
 21
190.184577
  0
LINE
  8
0
 62
     3
 10
324.298208
 20
190.184577
 11
324.010941
 21
186.855776
  0
LINE
  8
0
 62
     3
 10
324.010941
 20
186.855776
 11
324.015895
 21
183.403990
  0
LINE
  8
0
 62
     3
 10
324.015895
 20
183.403990
 11
324.032478
 21
183.053370
  0
LINE
  8
0
 62
     3
 10
386.196052
 20
164.438659
 11
386.176548
 21
164.790153
  0
LINE
  8
0
 62
     3
 10
386.176548
 20
164.790153
 11
385.821275
 21
168.346841
  0
LINE
  8
0
 62
     3
 10
385.821275
 20
168.346841
 11
385.177486
 21
171.954445
  0
LINE
  8
0
 62
     3
 10
385.177486
 20
171.954445
 11
384.251303
 21
175.578667
  0
LINE
  8
0
 62
     3
 10
384.251303
 20
175.578667
 11
383.051398
 21
179.185673
  0
LINE
  8
0
 62
     3
 10
383.051398
 20
179.185673
 11
381.589042
 21
182.741577
  0
LINE
  8
0
 62
     3
 10
381.589042
 20
182.741577
 11
379.877973
 21
186.212974
  0
LINE
  8
0
 62
     3
 10
379.877973
 20
186.212974
 11
377.934267
 21
189.567253
  0
LINE
  8
0
 62
     3
 10
377.934267
 20
189.567253
 11
375.776182
 21
192.772901
  0
LINE
  8
0
 62
     3
 10
375.776182
 20
192.772901
 11
373.423992
 21
195.799805
  0
LINE
  8
0
 62
     3
 10
373.423992
 20
195.799805
 11
370.899795
 21
198.619529
  0
LINE
  8
0
 62
     3
 10
370.899795
 20
198.619529
 11
368.227304
 21
201.205583
  0
LINE
  8
0
 62
     3
 10
368.227304
 20
201.205583
 11
365.431624
 21
203.533673
  0
LINE
  8
0
 62
     3
 10
365.431624
 20
203.533673
 11
362.539020
 21
205.581928
  0
LINE
  8
0
 62
     3
 10
362.539020
 20
205.581928
 11
359.576666
 21
207.331106
  0
LINE
  8
0
 62
     3
 10
359.576666
 20
207.331106
 11
356.572213
 21
208.764851
  0
LINE
  8
0
 62
     3
 10
356.572213
 20
208.764851
 11
353.554222
 21
209.869528
  0
LINE
  8
0
 62
     3
 10
353.554222
 20
209.869528
 11
353.252841
 21
209.961451
  0
LINE
  8
0
 62
     3
 10
386.196052
 20
164.438659
 11
389.546615
 21
99.250873
  0
LINE
  8
0
 62
     3
 10
423.926384
 20
121.959062
 11
423.878374
 21
121.973267
  0
LINE
  8
0
 62
     3
 10
423.878374
 20
121.973267
 11
423.402878
 21
122.096907
  0
LINE
  8
0
 62
     3
 10
423.402878
 20
122.096907
 11
422.896568
 21
122.198970
  0
LINE
  8
0
 62
     3
 10
422.896568
 20
122.198970
 11
422.364430
 21
122.278469
  0
LINE
  8
0
 62
     3
 10
422.364430
 20
122.278469
 11
421.811150
 21
122.334703
  0
LINE
  8
0
 62
     3
 10
421.811150
 20
122.334703
 11
421.242378
 21
122.367098
  0
LINE
  8
0
 62
     3
 10
421.242378
 20
122.367098
 11
420.663093
 21
122.375369
  0
LINE
  8
0
 62
     3
 10
420.663093
 20
122.375369
 11
420.079040
 21
122.359421
  0
LINE
  8
0
 62
     3
 10
420.079040
 20
122.359421
 11
419.495976
 21
122.319426
  0
LINE
  8
0
 62
     3
 10
419.495976
 20
122.319426
 11
418.919003
 21
122.255732
  0
LINE
  8
0
 62
     3
 10
418.919003
 20
122.255732
 11
418.354046
 21
122.168995
  0
LINE
  8
0
 62
     3
 10
418.354046
 20
122.168995
 11
417.806028
 21
122.059970
  0
LINE
  8
0
 62
     3
 10
417.806028
 20
122.059970
 11
417.280398
 21
121.929725
  0
LINE
  8
0
 62
     3
 10
417.280398
 20
121.929725
 11
416.782344
 21
121.779562
  0
LINE
  8
0
 62
     3
 10
416.782344
 20
121.779562
 11
416.316195
 21
121.610788
  0
LINE
  8
0
 62
     3
 10
416.316195
 20
121.610788
 11
415.886766
 21
121.425144
  0
LINE
  8
0
 62
     3
 10
415.886766
 20
121.425144
 11
415.497779
 21
121.224240
  0
LINE
  8
0
 62
     3
 10
415.497779
 20
121.224240
 11
415.153122
 21
121.010062
  0
LINE
  8
0
 62
     3
 10
415.153122
 20
121.010062
 11
414.856188
 21
120.784742
  0
LINE
  8
0
 62
     3
 10
414.856188
 20
120.784742
 11
414.609551
 21
120.550235
  0
LINE
  8
0
 62
     3
 10
414.609551
 20
120.550235
 11
414.415757
 21
120.308963
  0
LINE
  8
0
 62
     3
 10
414.415757
 20
120.308963
 11
414.276492
 21
120.063022
  0
LINE
  8
0
 62
     3
 10
414.276492
 20
120.063022
 11
414.193168
 21
119.814846
  0
LINE
  8
0
 62
     3
 10
414.193168
 20
119.814846
 11
414.166578
 21
119.566896
  0
LINE
  8
0
 62
     3
 10
414.166578
 20
119.566896
 11
414.196953
 21
119.321334
  0
LINE
  8
0
 62
     3
 10
414.196953
 20
119.321334
 11
414.283980
 21
119.080681
  0
LINE
  8
0
 62
     3
 10
414.283980
 20
119.080681
 11
414.426899
 21
118.847043
  0
LINE
  8
0
 62
     3
 10
414.426899
 20
118.847043
 11
414.624333
 21
118.622728
  0
LINE
  8
0
 62
     3
 10
414.624333
 20
118.622728
 11
414.874294
 21
118.409956
  0
LINE
  8
0
 62
     3
 10
414.874294
 20
118.409956
 11
415.174592
 21
118.210588
  0
LINE
  8
0
 62
     3
 10
415.174592
 20
118.210588
 11
415.522158
 21
118.026662
  0
LINE
  8
0
 62
     3
 10
415.522158
 20
118.026662
 11
415.913933
 21
117.859797
  0
LINE
  8
0
 62
     3
 10
415.913933
 20
117.859797
 11
416.346096
 21
117.711640
  0
LINE
  8
0
 62
     3
 10
416.346096
 20
117.711640
 11
416.393709
 21
117.697211
  0
LINE
  8
0
 62
     3
 10
416.393709
 20
117.697211
 11
416.441719
 21
117.683006
  0
LINE
  8
0
 62
     3
 10
416.441719
 20
117.683006
 11
416.917215
 21
117.559367
  0
LINE
  8
0
 62
     3
 10
416.917215
 20
117.559367
 11
417.423525
 21
117.457303
  0
LINE
  8
0
 62
     3
 10
417.423525
 20
117.457303
 11
417.955663
 21
117.377804
  0
LINE
  8
0
 62
     3
 10
417.955663
 20
117.377804
 11
418.508944
 21
117.321570
  0
LINE
  8
0
 62
     3
 10
418.508944
 20
117.321570
 11
419.077716
 21
117.289175
  0
LINE
  8
0
 62
     3
 10
419.077716
 20
117.289175
 11
419.657000
 21
117.280904
  0
LINE
  8
0
 62
     3
 10
419.657000
 20
117.280904
 11
420.241053
 21
117.296852
  0
LINE
  8
0
 62
     3
 10
420.241053
 20
117.296852
 11
420.824117
 21
117.336848
  0
LINE
  8
0
 62
     3
 10
420.824117
 20
117.336848
 11
421.401090
 21
117.400541
  0
LINE
  8
0
 62
     3
 10
421.401090
 20
117.400541
 11
421.966048
 21
117.487278
  0
LINE
  8
0
 62
     3
 10
421.966048
 20
117.487278
 11
422.514066
 21
117.596303
  0
LINE
  8
0
 62
     3
 10
422.514066
 20
117.596303
 11
423.039696
 21
117.726548
  0
LINE
  8
0
 62
     3
 10
423.039696
 20
117.726548
 11
423.537750
 21
117.876711
  0
LINE
  8
0
 62
     3
 10
423.537750
 20
117.876711
 11
424.003898
 21
118.045485
  0
LINE
  8
0
 62
     3
 10
424.003898
 20
118.045485
 11
424.433328
 21
118.231129
  0
LINE
  8
0
 62
     3
 10
424.433328
 20
118.231129
 11
424.822315
 21
118.432033
  0
LINE
  8
0
 62
     3
 10
424.822315
 20
118.432033
 11
425.166971
 21
118.646212
  0
LINE
  8
0
 62
     3
 10
425.166971
 20
118.646212
 11
425.463905
 21
118.871531
  0
LINE
  8
0
 62
     3
 10
425.463905
 20
118.871531
 11
425.710543
 21
119.106038
  0
LINE
  8
0
 62
     3
 10
425.710543
 20
119.106038
 11
425.904336
 21
119.347310
  0
LINE
  8
0
 62
     3
 10
425.904336
 20
119.347310
 11
426.043601
 21
119.593251
  0
LINE
  8
0
 62
     3
 10
426.043601
 20
119.593251
 11
426.126926
 21
119.841428
  0
LINE
  8
0
 62
     3
 10
426.126926
 20
119.841428
 11
426.153515
 21
120.089377
  0
LINE
  8
0
 62
     3
 10
426.153515
 20
120.089377
 11
426.123141
 21
120.334939
  0
LINE
  8
0
 62
     3
 10
426.123141
 20
120.334939
 11
426.036113
 21
120.575592
  0
LINE
  8
0
 62
     3
 10
426.036113
 20
120.575592
 11
425.893195
 21
120.809230
  0
LINE
  8
0
 62
     3
 10
425.893195
 20
120.809230
 11
425.695760
 21
121.033545
  0
LINE
  8
0
 62
     3
 10
425.695760
 20
121.033545
 11
425.445799
 21
121.246317
  0
LINE
  8
0
 62
     3
 10
425.445799
 20
121.246317
 11
425.145502
 21
121.445685
  0
LINE
  8
0
 62
     3
 10
425.145502
 20
121.445685
 11
424.797935
 21
121.629611
  0
LINE
  8
0
 62
     3
 10
424.797935
 20
121.629611
 11
424.406161
 21
121.796476
  0
LINE
  8
0
 62
     3
 10
424.406161
 20
121.796476
 11
423.973998
 21
121.944633
  0
LINE
  8
0
 62
     3
 10
423.973998
 20
121.944633
 11
423.926384
 21
121.959062
  0
LINE
  8
0
 62
     3
 10
394.940867
 20
105.559580
 11
394.892857
 21
105.573785
  0
LINE
  8
0
 62
     3
 10
394.892857
 20
105.573785
 11
394.417361
 21
105.697424
  0
LINE
  8
0
 62
     3
 10
394.417361
 20
105.697424
 11
393.911051
 21
105.799488
  0
LINE
  8
0
 62
     3
 10
393.911051
 20
105.799488
 11
393.378913
 21
105.878987
  0
LINE
  8
0
 62
     3
 10
393.378913
 20
105.878987
 11
392.825632
 21
105.935221
  0
LINE
  8
0
 62
     3
 10
392.825632
 20
105.935221
 11
392.256860
 21
105.967616
  0
LINE
  8
0
 62
     3
 10
392.256860
 20
105.967616
 11
391.784947
 21
105.974354
  0
LINE
  8
0
 62
     3
 10
392.042683
 20
100.959895
 11
392.415573
 21
101.001059
  0
LINE
  8
0
 62
     3
 10
392.415573
 20
101.001059
 11
392.980530
 21
101.087796
  0
LINE
  8
0
 62
     3
 10
392.980530
 20
101.087796
 11
393.528548
 21
101.196821
  0
LINE
  8
0
 62
     3
 10
393.528548
 20
101.196821
 11
394.054178
 21
101.327066
  0
LINE
  8
0
 62
     3
 10
394.054178
 20
101.327066
 11
394.552232
 21
101.477229
  0
LINE
  8
0
 62
     3
 10
394.552232
 20
101.477229
 11
395.018381
 21
101.646003
  0
LINE
  8
0
 62
     3
 10
395.018381
 20
101.646003
 11
395.447810
 21
101.831647
  0
LINE
  8
0
 62
     3
 10
395.447810
 20
101.831647
 11
395.836797
 21
102.032551
  0
LINE
  8
0
 62
     3
 10
395.836797
 20
102.032551
 11
396.181454
 21
102.246730
  0
LINE
  8
0
 62
     3
 10
396.181454
 20
102.246730
 11
396.478388
 21
102.472049
  0
LINE
  8
0
 62
     3
 10
396.478388
 20
102.472049
 11
396.725025
 21
102.706556
  0
LINE
  8
0
 62
     3
 10
396.725025
 20
102.706556
 11
396.918819
 21
102.947828
  0
LINE
  8
0
 62
     3
 10
396.918819
 20
102.947828
 11
397.058084
 21
103.193769
  0
LINE
  8
0
 62
     3
 10
397.058084
 20
103.193769
 11
397.141408
 21
103.441946
  0
LINE
  8
0
 62
     3
 10
397.141408
 20
103.441946
 11
397.167998
 21
103.689895
  0
LINE
  8
0
 62
     3
 10
397.167998
 20
103.689895
 11
397.137623
 21
103.935457
  0
LINE
  8
0
 62
     3
 10
397.137623
 20
103.935457
 11
397.050596
 21
104.176110
  0
LINE
  8
0
 62
     3
 10
397.050596
 20
104.176110
 11
396.907677
 21
104.409748
  0
LINE
  8
0
 62
     3
 10
396.907677
 20
104.409748
 11
396.710243
 21
104.634063
  0
LINE
  8
0
 62
     3
 10
396.710243
 20
104.634063
 11
396.460282
 21
104.846835
  0
LINE
  8
0
 62
     3
 10
396.460282
 20
104.846835
 11
396.159984
 21
105.046203
  0
LINE
  8
0
 62
     3
 10
396.159984
 20
105.046203
 11
395.812418
 21
105.230129
  0
LINE
  8
0
 62
     3
 10
395.812418
 20
105.230129
 11
395.420643
 21
105.396994
  0
LINE
  8
0
 62
     3
 10
395.420643
 20
105.396994
 11
394.988480
 21
105.545151
  0
LINE
  8
0
 62
     3
 10
394.988480
 20
105.545151
 11
394.940867
 21
105.559580
  0
LINE
  8
0
 62
     3
 10
394.754541
 20
98.470564
 11
434.928805
 21
121.200437
  0
LINE
  8
0
 62
     3
 10
416.075096
 20
117.804546
 11
416.502338
 21
117.989244
  0
LINE
  8
0
 62
     3
 10
416.502338
 20
117.989244
 11
416.968486
 21
118.158019
  0
LINE
  8
0
 62
     3
 10
416.968486
 20
118.158019
 11
417.466540
 21
118.308181
  0
LINE
  8
0
 62
     3
 10
417.466540
 20
118.308181
 11
417.992170
 21
118.438426
  0
LINE
  8
0
 62
     3
 10
417.992170
 20
118.438426
 11
418.540188
 21
118.547451
  0
LINE
  8
0
 62
     3
 10
418.540188
 20
118.547451
 11
419.105145
 21
118.634188
  0
LINE
  8
0
 62
     3
 10
419.105145
 20
118.634188
 11
419.682119
 21
118.697882
  0
LINE
  8
0
 62
     3
 10
419.682119
 20
118.697882
 11
420.265183
 21
118.737878
  0
LINE
  8
0
 62
     3
 10
420.265183
 20
118.737878
 11
420.849235
 21
118.753826
  0
LINE
  8
0
 62
     3
 10
420.849235
 20
118.753826
 11
421.428520
 21
118.745555
  0
LINE
  8
0
 62
     3
 10
421.428520
 20
118.745555
 11
421.997292
 21
118.713160
  0
LINE
  8
0
 62
     3
 10
421.997292
 20
118.713160
 11
422.550573
 21
118.656925
  0
LINE
  8
0
 62
     3
 10
422.550573
 20
118.656925
 11
423.082711
 21
118.577427
  0
LINE
  8
0
 62
     3
 10
423.082711
 20
118.577427
 11
423.589021
 21
118.475363
  0
LINE
  8
0
 62
     3
 10
423.589021
 20
118.475363
 11
424.064517
 21
118.351724
  0
LINE
  8
0
 62
     3
 10
424.064517
 20
118.351724
 11
424.112526
 21
118.337519
  0
LINE
  8
0
 62
     3
 10
424.112526
 20
118.337519
 11
424.160140
 21
118.323089
  0
LINE
  8
0
 62
     3
 10
424.160140
 20
118.323089
 11
424.431140
 21
118.230184
  0
LINE
  8
0
 62
     3
 10
391.971089
 20
102.352811
 11
392.443002
 21
102.346072
  0
LINE
  8
0
 62
     3
 10
392.443002
 20
102.346072
 11
393.011774
 21
102.313677
  0
LINE
  8
0
 62
     3
 10
393.011774
 20
102.313677
 11
393.565055
 21
102.257443
  0
LINE
  8
0
 62
     3
 10
393.565055
 20
102.257443
 11
394.097193
 21
102.177944
  0
LINE
  8
0
 62
     3
 10
394.097193
 20
102.177944
 11
394.603503
 21
102.075881
  0
LINE
  8
0
 62
     3
 10
394.603503
 20
102.075881
 11
395.078999
 21
101.952241
  0
LINE
  8
0
 62
     3
 10
395.078999
 20
101.952241
 11
395.127009
 21
101.938036
  0
LINE
  8
0
 62
     3
 10
395.127009
 20
101.938036
 11
395.174623
 21
101.923607
  0
LINE
  8
0
 62
     3
 10
395.174623
 20
101.923607
 11
395.447484
 21
101.830063
  0
LINE
  8
0
 62
     3
 10
394.940683
 20
94.849020
 11
435.114948
 21
117.578893
  0
LINE
  8
0
 62
     3
 10
400.959780
 20
236.953175
 11
400.658574
 21
237.041695
  0
LINE
  8
0
 62
     3
 10
400.658574
 20
237.041695
 11
398.405651
 21
237.565269
  0
LINE
  8
0
 62
     3
 10
433.902991
 20
191.430383
 11
433.883487
 21
191.781878
  0
LINE
  8
0
 62
     3
 10
433.883487
 20
191.781878
 11
433.528214
 21
195.338566
  0
LINE
  8
0
 62
     3
 10
433.528214
 20
195.338566
 11
432.884425
 21
198.946169
  0
LINE
  8
0
 62
     3
 10
432.884425
 20
198.946169
 11
431.958242
 21
202.570391
  0
LINE
  8
0
 62
     3
 10
431.958242
 20
202.570391
 11
430.758337
 21
206.177397
  0
LINE
  8
0
 62
     3
 10
430.758337
 20
206.177397
 11
429.295981
 21
209.733301
  0
LINE
  8
0
 62
     3
 10
429.295981
 20
209.733301
 11
427.584912
 21
213.204698
  0
LINE
  8
0
 62
     3
 10
427.584912
 20
213.204698
 11
425.641206
 21
216.558977
  0
LINE
  8
0
 62
     3
 10
425.641206
 20
216.558977
 11
423.483121
 21
219.764625
  0
LINE
  8
0
 62
     3
 10
423.483121
 20
219.764625
 11
421.130931
 21
222.791529
  0
LINE
  8
0
 62
     3
 10
421.130931
 20
222.791529
 11
418.606734
 21
225.611253
  0
LINE
  8
0
 62
     3
 10
418.606734
 20
225.611253
 11
415.934243
 21
228.197307
  0
LINE
  8
0
 62
     3
 10
415.934243
 20
228.197307
 11
413.138563
 21
230.525397
  0
LINE
  8
0
 62
     3
 10
413.138563
 20
230.525397
 11
410.245959
 21
232.573652
  0
LINE
  8
0
 62
     3
 10
410.245959
 20
232.573652
 11
407.283605
 21
234.322831
  0
LINE
  8
0
 62
     3
 10
407.283605
 20
234.322831
 11
404.279152
 21
235.756575
  0
LINE
  8
0
 62
     3
 10
404.279152
 20
235.756575
 11
401.261161
 21
236.861252
  0
LINE
  8
0
 62
     3
 10
401.261161
 20
236.861252
 11
400.959780
 21
236.953175
  0
LINE
  8
0
 62
     3
 10
437.253554
 20
126.242597
 11
433.902991
 21
191.430383
  0
LINE
  8
0
 62
     3
 10
396.411329
 20
239.507156
 11
397.223760
 21
239.507720
  0
LINE
  8
0
 62
     3
 10
397.223760
 20
239.507720
 11
400.172455
 21
239.158811
  0
LINE
  8
0
 62
     3
 10
400.172455
 20
239.158811
 11
403.169465
 21
238.462313
  0
LINE
  8
0
 62
     3
 10
403.169465
 20
238.462313
 11
403.470671
 21
238.373792
  0
LINE
  8
0
 62
     3
 10
439.764446
 20
127.663214
 11
436.413882
 21
192.851000
  0
LINE
  8
0
 62
     3
 10
403.470671
 20
238.373792
 11
403.772053
 21
238.281869
  0
LINE
  8
0
 62
     3
 10
403.772053
 20
238.281869
 11
406.790043
 21
237.177192
  0
LINE
  8
0
 62
     3
 10
406.790043
 20
237.177192
 11
409.794496
 21
235.743448
  0
LINE
  8
0
 62
     3
 10
409.794496
 20
235.743448
 11
412.756851
 21
233.994269
  0
LINE
  8
0
 62
     3
 10
412.756851
 20
233.994269
 11
415.649455
 21
231.946014
  0
LINE
  8
0
 62
     3
 10
415.649455
 20
231.946014
 11
418.445134
 21
229.617924
  0
LINE
  8
0
 62
     3
 10
418.445134
 20
229.617924
 11
421.117626
 21
227.031870
  0
LINE
  8
0
 62
     3
 10
421.117626
 20
227.031870
 11
423.641823
 21
224.212146
  0
LINE
  8
0
 62
     3
 10
423.641823
 20
224.212146
 11
425.994012
 21
221.185242
  0
LINE
  8
0
 62
     3
 10
425.994012
 20
221.185242
 11
428.152097
 21
217.979594
  0
LINE
  8
0
 62
     3
 10
428.152097
 20
217.979594
 11
430.095804
 21
214.625315
  0
LINE
  8
0
 62
     3
 10
430.095804
 20
214.625315
 11
431.806872
 21
211.153919
  0
LINE
  8
0
 62
     3
 10
431.806872
 20
211.153919
 11
433.269228
 21
207.598014
  0
LINE
  8
0
 62
     3
 10
433.269228
 20
207.598014
 11
434.469134
 21
203.991008
  0
LINE
  8
0
 62
     3
 10
434.469134
 20
203.991008
 11
435.395317
 21
200.366786
  0
LINE
  8
0
 62
     3
 10
435.395317
 20
200.366786
 11
436.039106
 21
196.759183
  0
LINE
  8
0
 62
     3
 10
436.039106
 20
196.759183
 11
436.394378
 21
193.202495
  0
LINE
  8
0
 62
     3
 10
436.394378
 20
193.202495
 11
436.413882
 21
192.851000
  0
LINE
  8
INVISIBLE
 62
     5
  6
DASHDOT
 10
386.196052
 20
164.438659
 11
388.706943
 21
165.859276
  0
LINE
  8
INVISIBLE
 62
     5
  6
DASHDOT
 10
436.413882
 20
192.851000
 11
433.902991
 21
191.430383
  0
LINE
  8
0
 10
269.626646
 20
273.380697
 11
304.437057
 21
240.670541
  0
LINE
  8
0
 10
288.397278
 20
293.054435
 11
323.207689
 21
260.344279
  0
LINE
  8
0
 10
319.343148
 20
256.293803
 11
319.161589
 21
256.439262
  0
LINE
  8
0
 10
319.161589
 20
256.439262
 11
318.928610
 21
256.527594
  0
LINE
  8
0
 10
318.928610
 20
256.527594
 11
318.646456
 21
256.557948
  0
LINE
  8
0
 10
318.646456
 20
256.557948
 11
318.317843
 21
256.530032
  0
LINE
  8
0
 10
318.317843
 20
256.530032
 11
317.945936
 21
256.444116
  0
LINE
  8
0
 10
317.945936
 20
256.444116
 11
317.534317
 21
256.301025
  0
LINE
  8
0
 10
317.534317
 20
256.301025
 11
317.086951
 21
256.102139
  0
LINE
  8
0
 10
317.086951
 20
256.102139
 11
316.608144
 21
255.849372
  0
LINE
  8
0
 10
316.608144
 20
255.849372
 11
316.102509
 21
255.545159
  0
LINE
  8
0
 10
316.102509
 20
255.545159
 11
315.574915
 21
255.192430
  0
LINE
  8
0
 10
315.574915
 20
255.192430
 11
315.030443
 21
254.794582
  0
LINE
  8
0
 10
315.030443
 20
254.794582
 11
314.474337
 21
254.355446
  0
LINE
  8
0
 10
314.474337
 20
254.355446
 11
313.911952
 21
253.879251
  0
LINE
  8
0
 10
313.911952
 20
253.879251
 11
313.348704
 21
253.370584
  0
LINE
  8
0
 10
313.348704
 20
253.370584
 11
312.790018
 21
252.834342
  0
LINE
  8
0
 10
312.790018
 20
252.834342
 11
312.241274
 21
252.275691
  0
LINE
  8
0
 10
312.241274
 20
252.275691
 11
311.707757
 21
251.700011
  0
LINE
  8
0
 10
311.707757
 20
251.700011
 11
311.194605
 21
251.112845
  0
LINE
  8
0
 10
311.194605
 20
251.112845
 11
310.706759
 21
250.519849
  0
LINE
  8
0
 10
310.706759
 20
250.519849
 11
310.248919
 21
249.926732
  0
LINE
  8
0
 10
310.248919
 20
249.926732
 11
309.825493
 21
249.339208
  0
LINE
  8
0
 10
309.825493
 20
249.339208
 11
309.440559
 21
248.762934
  0
LINE
  8
0
 10
309.440559
 20
248.762934
 11
309.097825
 21
248.203461
  0
LINE
  8
0
 10
309.097825
 20
248.203461
 11
308.800590
 21
247.666176
  0
LINE
  8
0
 10
308.800590
 20
247.666176
 11
308.551718
 21
247.156253
  0
LINE
  8
0
 10
308.551718
 20
247.156253
 11
308.353606
 21
246.678604
  0
LINE
  8
0
 10
308.353606
 20
246.678604
 11
308.208160
 21
246.237829
  0
LINE
  8
0
 10
308.208160
 20
246.237829
 11
308.116783
 21
245.838171
  0
LINE
  8
0
 10
308.116783
 20
245.838171
 11
308.080353
 21
245.483482
  0
LINE
  8
0
 10
308.080353
 20
245.483482
 11
308.099222
 21
245.177175
  0
LINE
  8
0
 10
308.099222
 20
245.177175
 11
308.173208
 21
244.922201
  0
LINE
  8
0
 10
308.173208
 20
244.922201
 11
308.301599
 21
244.721016
  0
LINE
  8
0
 10
269.626646
 20
273.380697
 11
269.408382
 21
273.722711
  0
LINE
  8
0
 10
269.408382
 20
273.722711
 11
269.282605
 21
274.156166
  0
LINE
  8
0
 10
269.282605
 20
274.156166
 11
269.250527
 21
274.676888
  0
LINE
  8
0
 10
269.250527
 20
274.676888
 11
269.312458
 21
275.279860
  0
LINE
  8
0
 10
269.312458
 20
275.279860
 11
269.467799
 21
275.959278
  0
LINE
  8
0
 10
269.467799
 20
275.959278
 11
269.715057
 21
276.708596
  0
LINE
  8
0
 10
269.715057
 20
276.708596
 11
270.051848
 21
277.520599
  0
LINE
  8
0
 10
270.051848
 20
277.520599
 11
270.474931
 21
278.387468
  0
LINE
  8
0
 10
270.474931
 20
278.387468
 11
270.980230
 21
279.300853
  0
LINE
  8
0
 10
270.980230
 20
279.300853
 11
271.562878
 21
280.251957
  0
LINE
  8
0
 10
271.562878
 20
280.251957
 11
272.217266
 21
281.231623
  0
LINE
  8
0
 10
272.217266
 20
281.231623
 11
272.937090
 21
282.230414
  0
LINE
  8
0
 10
272.937090
 20
282.230414
 11
273.715418
 21
283.238712
  0
LINE
  8
0
 10
273.715418
 20
283.238712
 11
274.544755
 21
284.246806
  0
LINE
  8
0
 10
274.544755
 20
284.246806
 11
275.417114
 21
285.244988
  0
LINE
  8
0
 10
275.417114
 20
285.244988
 11
276.324093
 21
286.223645
  0
LINE
  8
0
 10
276.324093
 20
286.223645
 11
277.256957
 21
287.173351
  0
LINE
  8
0
 10
277.256957
 20
287.173351
 11
278.206724
 21
288.084962
  0
LINE
  8
0
 10
278.206724
 20
288.084962
 11
279.164245
 21
288.949696
  0
LINE
  8
0
 10
279.164245
 20
288.949696
 11
280.120300
 21
289.759227
  0
LINE
  8
0
 10
280.120300
 20
289.759227
 11
281.065680
 21
290.505759
  0
LINE
  8
0
 10
281.065680
 20
290.505759
 11
281.991283
 21
291.182101
  0
LINE
  8
0
 10
281.991283
 20
291.182101
 11
282.888192
 21
291.781740
  0
LINE
  8
0
 10
282.888192
 20
291.781740
 11
283.747772
 21
292.298901
  0
LINE
  8
0
 10
283.747772
 20
292.298901
 11
284.561743
 21
292.728605
  0
LINE
  8
0
 10
284.561743
 20
292.728605
 11
285.322267
 21
293.066711
  0
LINE
  8
0
 10
285.322267
 20
293.066711
 11
286.022019
 21
293.309965
  0
LINE
  8
0
 10
286.022019
 20
293.309965
 11
286.654260
 21
293.456024
  0
LINE
  8
0
 10
286.654260
 20
293.456024
 11
287.212902
 21
293.503481
  0
LINE
  8
0
 10
287.212902
 20
293.503481
 11
287.692564
 21
293.451879
  0
LINE
  8
0
 10
287.692564
 20
293.451879
 11
288.088628
 21
293.301715
  0
LINE
  8
0
 10
288.088628
 20
293.301715
 11
288.397278
 21
293.054435
  0
LINE
  8
0
 10
321.663681
 20
254.113277
 11
321.854106
 21
254.424123
  0
LINE
  8
0
 10
321.854106
 20
254.424123
 11
322.359405
 21
255.337508
  0
LINE
  8
0
 10
322.359405
 20
255.337508
 11
322.782487
 21
256.204376
  0
LINE
  8
0
 10
322.782487
 20
256.204376
 11
323.119279
 21
257.016380
  0
LINE
  8
0
 10
323.119279
 20
257.016380
 11
323.366536
 21
257.765698
  0
LINE
  8
0
 10
323.366536
 20
257.765698
 11
323.521878
 21
258.445115
  0
LINE
  8
0
 10
323.521878
 20
258.445115
 11
323.583808
 21
259.048088
  0
LINE
  8
0
 10
323.583808
 20
259.048088
 11
323.551730
 21
259.568809
  0
LINE
  8
0
 10
323.551730
 20
259.568809
 11
323.425954
 21
260.002264
  0
LINE
  8
0
 10
323.425954
 20
260.002264
 11
323.207689
 21
260.344279
  0
LINE
  8
0
 10
323.207689
 20
260.344279
 11
322.899039
 21
260.591559
  0
LINE
  8
0
 10
322.899039
 20
260.591559
 11
322.502976
 21
260.741723
  0
LINE
  8
0
 10
322.502976
 20
260.741723
 11
322.023314
 21
260.793325
  0
LINE
  8
0
 10
322.023314
 20
260.793325
 11
321.464672
 21
260.745868
  0
LINE
  8
0
 10
321.464672
 20
260.745868
 11
320.832430
 21
260.599809
  0
LINE
  8
0
 10
320.832430
 20
260.599809
 11
320.132678
 21
260.356555
  0
LINE
  8
0
 10
320.132678
 20
260.356555
 11
319.372155
 21
260.018449
  0
LINE
  8
0
 10
319.372155
 20
260.018449
 11
318.558183
 21
259.588745
  0
LINE
  8
0
 10
318.558183
 20
259.588745
 11
317.698604
 21
259.071584
  0
LINE
  8
0
 10
317.698604
 20
259.071584
 11
316.801694
 21
258.471945
  0
LINE
  8
0
 10
316.801694
 20
258.471945
 11
315.876092
 21
257.795603
  0
LINE
  8
0
 10
315.876092
 20
257.795603
 11
314.930711
 21
257.049071
  0
LINE
  8
0
 10
314.930711
 20
257.049071
 11
313.974656
 21
256.239540
  0
LINE
  8
0
 10
313.974656
 20
256.239540
 11
313.017135
 21
255.374806
  0
LINE
  8
0
 10
313.017135
 20
255.374806
 11
312.067369
 21
254.463195
  0
LINE
  8
0
 10
312.067369
 20
254.463195
 11
311.134504
 21
253.513489
  0
LINE
  8
0
 10
311.134504
 20
253.513489
 11
310.227525
 21
252.534832
  0
LINE
  8
0
 10
310.227525
 20
252.534832
 11
309.355166
 21
251.536650
  0
LINE
  8
0
 10
309.355166
 20
251.536650
 11
308.525829
 21
250.528556
  0
LINE
  8
0
 10
308.525829
 20
250.528556
 11
307.747501
 21
249.520258
  0
LINE
  8
0
 10
307.747501
 20
249.520258
 11
307.027677
 21
248.521467
  0
LINE
  8
0
 10
307.027677
 20
248.521467
 11
306.373290
 21
247.541801
  0
LINE
  8
0
 10
306.373290
 20
247.541801
 11
305.790641
 21
246.590697
  0
LINE
  8
0
 10
305.790641
 20
246.590697
 11
305.285342
 21
245.677312
  0
LINE
  8
0
 10
305.285342
 20
245.677312
 11
304.862260
 21
244.810444
  0
LINE
  8
0
 10
304.862260
 20
244.810444
 11
304.525468
 21
243.998440
  0
LINE
  8
0
 10
304.525468
 20
243.998440
 11
304.278211
 21
243.249122
  0
LINE
  8
0
 10
304.278211
 20
243.249122
 11
304.122869
 21
242.569704
  0
LINE
  8
0
 10
304.122869
 20
242.569704
 11
304.060939
 21
241.966732
  0
LINE
  8
0
 10
304.060939
 20
241.966732
 11
304.093016
 21
241.446010
  0
LINE
  8
0
 10
304.093016
 20
241.446010
 11
304.218793
 21
241.012555
  0
LINE
  8
0
 10
304.218793
 20
241.012555
 11
304.437057
 21
240.670541
  0
LINE
  8
0
 10
304.437057
 20
240.670541
 11
304.745708
 21
240.423261
  0
LINE
  8
0
 10
304.745708
 20
240.423261
 11
305.141771
 21
240.273097
  0
LINE
  8
0
 10
305.141771
 20
240.273097
 11
305.621433
 21
240.221495
  0
LINE
  8
0
 10
305.621433
 20
240.221495
 11
306.180075
 21
240.268951
  0
LINE
  8
0
 10
306.180075
 20
240.268951
 11
306.812316
 21
240.415010
  0
LINE
  8
0
 10
306.812316
 20
240.415010
 11
307.512069
 21
240.658264
  0
LINE
  8
0
 10
307.512069
 20
240.658264
 11
308.272592
 21
240.996371
  0
LINE
  8
0
 10
308.272592
 20
240.996371
 11
309.086563
 21
241.426074
  0
LINE
  8
0
 10
309.086563
 20
241.426074
 11
309.946143
 21
241.943236
  0
LINE
  8
0
 10
309.946143
 20
241.943236
 11
310.712489
 21
242.455585
  0
LINE
  8
0
 62
     1
 10
182.359407
 20
201.517685
 11
190.477007
 21
201.517685
  0
LINE
  8
0
 62
     1
 10
158.853699
 20
201.517685
 11
160.559407
 21
201.517685
  0
LINE
  8
0
 62
     1
 10
153.559407
 20
201.517685
 11
154.453383
 21
201.517685
  0
LINE
  8
0
 62
     1
 10
182.359407
 20
185.517685
 11
190.477007
 21
185.517685
  0
LINE
  8
0
 62
     1
 10
158.854075
 20
185.517685
 11
160.559407
 21
185.517685
  0
LINE
  8
0
 62
     1
 10
153.559407
 20
185.517685
 11
154.854075
 21
185.517685
  0
LINE
  8
0
 62
     1
 10
88.854075
 20
185.517685
 11
88.559407
 21
185.517685
  0
LINE
  8
0
 62
     1
 10
153.559407
 20
185.517685
 11
92.854075
 21
185.517685
  0
LINE
  8
0
 62
     6
 10
154.854075
 20
186.600085
 11
153.559407
 21
186.600085
  0
LINE
  8
0
 62
     6
 10
160.559407
 20
186.600085
 11
158.854075
 21
186.600085
  0
LINE
  8
0
 62
     6
 10
191.559407
 20
186.600085
 11
182.359407
 21
186.600085
  0
LINE
  8
0
 62
     1
 10
88.854450
 20
201.517685
 11
88.559407
 21
201.517685
  0
LINE
  8
0
 62
     1
 10
153.559407
 20
201.517685
 11
93.254766
 21
201.517685
  0
LINE
  8
0
 62
     6
 10
154.824937
 20
200.435285
 11
153.559407
 21
200.435285
  0
LINE
  8
0
 62
     6
 10
160.559407
 20
200.435285
 11
158.853699
 21
200.435285
  0
LINE
  8
0
 62
     6
 10
191.559407
 20
200.435285
 11
182.359407
 21
200.435285
  0
LINE
  8
0
 62
     1
 10
190.477007
 20
201.517685
 11
191.559407
 21
200.435285
  0
LINE
  8
0
 62
     1
 10
190.477007
 20
185.517685
 11
191.559407
 21
186.600085
  0
LINE
  8
0
 62
     1
 10
190.477007
 20
201.517685
 11
190.477007
 21
189.517685
  0
LINE
  8
0
 62
     1
 10
190.477007
 20
189.517685
 11
190.477007
 21
185.517685
  0
LINE
  8
0
 62
     1
 10
71.559407
 20
188.991019
 11
71.676000
 21
189.940819
  0
LINE
  8
0
 62
     1
 10
71.676000
 20
189.940819
 11
71.878465
 21
191.045384
  0
LINE
  8
0
 62
     1
 10
71.878465
 20
191.045384
 11
72.168123
 21
192.226376
  0
LINE
  8
0
 62
     1
 10
72.168123
 20
192.226376
 11
72.561835
 21
193.517402
  0
LINE
  8
0
 62
     1
 10
72.561835
 20
193.517402
 11
72.561835
 21
193.517967
  0
LINE
  8
0
 62
     1
 10
72.561835
 20
181.517675
 11
72.286725
 21
182.392819
  0
LINE
  8
0
 62
     1
 10
72.286725
 20
182.392819
 11
71.964683
 21
183.606165
  0
LINE
  8
0
 62
     1
 10
71.964683
 20
183.606165
 11
71.734531
 21
184.733063
  0
LINE
  8
0
 62
     1
 10
71.734531
 20
184.733063
 11
71.583941
 21
185.801862
  0
LINE
  8
0
 62
     1
 10
71.583941
 20
185.801862
 11
71.559407
 21
186.044346
  0
LINE
  8
0
 62
     1
 10
72.561835
 20
193.517967
 11
72.168123
 21
194.808994
  0
LINE
  8
0
 62
     1
 10
72.168123
 20
194.808994
 11
71.878465
 21
195.989986
  0
LINE
  8
0
 62
     1
 10
71.878465
 20
195.989986
 11
71.676000
 21
197.094551
  0
LINE
  8
0
 62
     1
 10
71.676000
 20
197.094551
 11
71.559405
 21
198.044379
  0
LINE
  8
0
 62
     1
 10
71.559405
 20
200.990995
 11
71.583941
 21
201.233513
  0
LINE
  8
0
 62
     1
 10
71.583941
 20
201.233513
 11
71.734531
 21
202.302304
  0
LINE
  8
0
 62
     1
 10
71.734531
 20
202.302304
 11
71.964683
 21
203.429204
  0
LINE
  8
0
 62
     1
 10
71.964683
 20
203.429204
 11
72.286725
 21
204.642551
  0
LINE
  8
0
 62
     1
 10
72.286725
 20
204.642551
 11
72.561835
 21
205.517695
  0
LINE
  8
0
 62
     1
 10
72.561835
 20
205.517695
 11
71.559405
 21
205.517689
  0
LINE
  8
0
 62
     1
 10
71.559405
 20
181.517680
 11
72.561835
 21
181.517675
  0
LINE
  8
0
 62
     1
 10
71.559407
 20
188.991048
 11
71.559407
 21
198.044321
  0
LINE
  8
0
 62
     1
 10
71.559407
 20
200.991048
 11
71.559407
 21
205.517685
  0
LINE
  8
0
 62
     1
 10
71.559407
 20
181.517685
 11
71.559407
 21
186.044321
  0
LINE
  8
0
 62
     2
 10
153.559407
 20
185.517685
 11
153.559407
 21
189.517685
  0
LINE
  8
0
 62
     2
 10
153.559407
 20
189.517685
 11
153.559407
 21
201.517685
  0
LINE
  8
0
 62
     1
 10
191.559407
 20
200.435285
 11
191.559407
 21
186.600085
  0
LINE
  8
0
 62
     1
 10
71.559407
 20
198.044321
 11
71.559407
 21
200.991048
  0
LINE
  8
0
 62
     1
 10
71.559407
 20
186.044321
 11
71.559407
 21
188.991048
  0
LINE
  8
0
 62
     1
 10
81.559407
 20
205.517685
 11
72.561835
 21
205.517685
  0
LINE
  8
0
 62
     1
 10
81.559407
 20
193.517685
 11
72.561835
 21
193.517685
  0
LINE
  8
0
 62
     1
 10
81.559407
 20
181.517685
 11
72.561835
 21
181.517685
  0
LINE
  8
0
 62
     1
 10
182.359407
 20
188.991019
 11
182.242815
 21
189.940819
  0
LINE
  8
0
 62
     1
 10
182.242815
 20
189.940819
 11
182.040350
 21
191.045384
  0
LINE
  8
0
 62
     1
 10
182.040350
 20
191.045384
 11
181.750692
 21
192.226376
  0
LINE
  8
0
 62
     1
 10
181.750692
 20
192.226376
 11
181.356980
 21
193.517402
  0
LINE
  8
0
 62
     1
 10
181.356980
 20
193.517402
 11
181.356980
 21
193.517967
  0
LINE
  8
0
 62
     1
 10
181.356980
 20
181.517675
 11
181.632089
 21
182.392819
  0
LINE
  8
0
 62
     1
 10
181.632089
 20
182.392819
 11
181.954132
 21
183.606165
  0
LINE
  8
0
 62
     1
 10
181.954132
 20
183.606165
 11
182.184284
 21
184.733063
  0
LINE
  8
0
 62
     1
 10
182.184284
 20
184.733063
 11
182.334874
 21
185.801862
  0
LINE
  8
0
 62
     1
 10
182.334874
 20
185.801862
 11
182.359407
 21
186.044346
  0
LINE
  8
0
 62
     1
 10
182.359407
 20
186.044321
 11
182.359407
 21
181.517685
  0
LINE
  8
0
 62
     1
 10
182.359407
 20
205.517685
 11
182.359407
 21
200.991048
  0
LINE
  8
0
 62
     1
 10
182.359407
 20
198.044321
 11
182.359407
 21
188.991048
  0
LINE
  8
0
 62
     1
 10
181.356980
 20
193.517967
 11
181.750692
 21
194.808994
  0
LINE
  8
0
 62
     1
 10
181.750692
 20
194.808994
 11
182.040350
 21
195.989986
  0
LINE
  8
0
 62
     1
 10
182.040350
 20
195.989986
 11
182.242815
 21
197.094551
  0
LINE
  8
0
 62
     1
 10
182.242815
 20
197.094551
 11
182.359407
 21
198.044349
  0
LINE
  8
0
 62
     1
 10
182.359407
 20
200.991025
 11
182.334873
 21
201.233513
  0
LINE
  8
0
 62
     1
 10
182.334873
 20
201.233513
 11
182.184284
 21
202.302304
  0
LINE
  8
0
 62
     1
 10
182.184284
 20
202.302304
 11
181.954132
 21
203.429204
  0
LINE
  8
0
 62
     1
 10
181.954132
 20
203.429204
 11
181.632089
 21
204.642551
  0
LINE
  8
0
 62
     1
 10
181.632089
 20
204.642551
 11
181.356980
 21
205.517695
  0
LINE
  8
0
 62
     1
 10
181.356980
 20
205.517695
 11
182.359407
 21
205.517689
  0
LINE
  8
0
 62
     1
 10
182.359407
 20
181.517680
 11
181.356980
 21
181.517675
  0
LINE
  8
0
 62
     1
 10
167.559407
 20
188.991019
 11
167.676000
 21
189.940819
  0
LINE
  8
0
 62
     1
 10
167.676000
 20
189.940819
 11
167.878465
 21
191.045384
  0
LINE
  8
0
 62
     1
 10
167.878465
 20
191.045384
 11
168.168123
 21
192.226376
  0
LINE
  8
0
 62
     1
 10
168.168123
 20
192.226376
 11
168.561835
 21
193.517402
  0
LINE
  8
0
 62
     1
 10
168.561835
 20
193.517402
 11
168.561835
 21
193.517967
  0
LINE
  8
0
 62
     1
 10
168.561835
 20
181.517675
 11
168.286725
 21
182.392819
  0
LINE
  8
0
 62
     1
 10
168.286725
 20
182.392819
 11
167.964683
 21
183.606165
  0
LINE
  8
0
 62
     1
 10
167.964683
 20
183.606165
 11
167.734531
 21
184.733063
  0
LINE
  8
0
 62
     1
 10
167.734531
 20
184.733063
 11
167.583941
 21
185.801862
  0
LINE
  8
0
 62
     1
 10
167.583941
 20
185.801862
 11
167.559407
 21
186.044346
  0
LINE
  8
0
 62
     1
 10
168.561835
 20
193.517967
 11
168.168123
 21
194.808994
  0
LINE
  8
0
 62
     1
 10
168.168123
 20
194.808994
 11
167.878465
 21
195.989986
  0
LINE
  8
0
 62
     1
 10
167.878465
 20
195.989986
 11
167.676000
 21
197.094551
  0
LINE
  8
0
 62
     1
 10
167.676000
 20
197.094551
 11
167.559407
 21
198.044349
  0
LINE
  8
0
 62
     1
 10
167.559407
 20
200.991025
 11
167.583941
 21
201.233513
  0
LINE
  8
0
 62
     1
 10
167.583941
 20
201.233513
 11
167.734531
 21
202.302304
  0
LINE
  8
0
 62
     1
 10
167.734531
 20
202.302304
 11
167.964683
 21
203.429204
  0
LINE
  8
0
 62
     1
 10
167.964683
 20
203.429204
 11
168.286725
 21
204.642551
  0
LINE
  8
0
 62
     1
 10
168.286725
 20
204.642551
 11
168.561835
 21
205.517695
  0
LINE
  8
0
 62
     1
 10
168.561835
 20
205.517695
 11
167.559407
 21
205.517689
  0
LINE
  8
0
 62
     1
 10
167.559407
 20
181.517680
 11
168.561835
 21
181.517675
  0
LINE
  8
0
 62
     1
 10
168.561835
 20
193.517685
 11
181.356980
 21
193.517685
  0
LINE
  8
0
 62
     1
 10
168.561835
 20
181.517685
 11
181.356980
 21
181.517685
  0
LINE
  8
0
 62
     1
 10
168.561835
 20
205.517685
 11
181.356980
 21
205.517685
  0
LINE
  8
0
 62
     1
 10
182.359407
 20
188.991048
 11
182.359407
 21
186.044321
  0
LINE
  8
0
 62
     1
 10
182.359407
 20
200.991043
 11
182.359407
 21
198.044327
  0
LINE
  8
0
 62
     1
 10
164.559407
 20
178.517685
 11
167.559407
 21
178.517685
  0
LINE
  8
0
 62
     1
 10
164.559407
 20
208.517685
 11
167.559407
 21
208.517685
  0
LINE
  8
0
 62
     1
 10
167.559407
 20
208.517685
 11
167.559407
 21
178.517685
  0
LINE
  8
0
 62
     1
 10
84.559407
 20
208.517685
 11
81.559407
 21
208.517685
  0
LINE
  8
0
 62
     1
 10
84.559407
 20
178.517685
 11
81.559407
 21
178.517685
  0
LINE
  8
0
 62
     1
 10
81.559407
 20
178.517685
 11
81.559407
 21
208.517685
  0
LINE
  8
0
 62
     1
 10
115.854075
 20
224.535387
 11
115.854075
 21
270.019216
  0
LINE
  8
0
 62
     1
 10
131.854075
 20
224.535387
 11
131.854075
 21
270.019216
  0
LINE
  8
0
 62
     1
 10
122.152812
 20
203.121827
 11
121.467110
 21
203.179377
  0
LINE
  8
0
 62
     1
 10
121.467110
 20
203.179377
 11
120.213872
 21
203.331818
  0
LINE
  8
0
 62
     1
 10
120.213872
 20
203.331818
 11
119.497142
 21
203.452692
  0
LINE
  8
0
 62
     1
 10
128.211007
 20
203.452692
 11
127.494271
 21
203.331817
  0
LINE
  8
0
 62
     1
 10
127.494271
 20
203.331817
 11
126.241040
 21
203.179377
  0
LINE
  8
0
 62
     1
 10
126.241040
 20
203.179377
 11
125.555337
 21
203.121827
  0
LINE
  8
0
 62
     1
 10
125.555368
 20
203.121829
 11
122.152781
 21
203.121829
  0
LINE
  8
0
 62
     1
 10
92.854075
 20
153.517685
 11
88.854075
 21
153.517685
  0
LINE
  8
0
 62
     1
 10
154.854075
 20
153.517685
 11
158.854075
 21
153.517685
  0
LINE
  8
0
 62
     1
 10
158.853699
 20
200.102814
 11
158.853699
 21
241.722165
  0
LINE
  8
0
 62
     1
 10
88.854450
 20
200.102814
 11
88.854450
 21
241.722165
  0
LINE
  8
0
 62
     1
 10
96.854075
 20
203.452692
 11
96.815306
 21
203.452532
  0
LINE
  8
0
 62
     1
 10
96.815306
 20
203.452532
 11
96.428189
 21
203.433274
  0
LINE
  8
0
 62
     1
 10
96.428189
 20
203.433274
 11
96.045277
 21
203.382131
  0
LINE
  8
0
 62
     1
 10
96.045277
 20
203.382131
 11
95.669740
 21
203.299522
  0
LINE
  8
0
 62
     1
 10
95.669740
 20
203.299522
 11
95.305346
 21
203.186249
  0
LINE
  8
0
 62
     1
 10
95.305346
 20
203.186249
 11
94.955706
 21
203.043466
  0
LINE
  8
0
 62
     1
 10
94.955706
 20
203.043466
 11
94.623695
 21
202.872346
  0
LINE
  8
0
 62
     1
 10
94.623695
 20
202.872346
 11
94.312830
 21
202.674702
  0
LINE
  8
0
 62
     1
 10
94.312830
 20
202.674702
 11
94.025648
 21
202.452147
  0
LINE
  8
0
 62
     1
 10
94.025648
 20
202.452147
 11
93.765050
 21
202.206888
  0
LINE
  8
0
 62
     1
 10
93.765050
 20
202.206888
 11
93.533622
 21
201.941403
  0
LINE
  8
0
 62
     1
 10
93.533622
 20
201.941403
 11
93.333251
 21
201.657859
  0
LINE
  8
0
 62
     1
 10
93.333251
 20
201.657859
 11
93.166062
 21
201.359260
  0
LINE
  8
0
 62
     1
 10
93.166062
 20
201.359260
 11
93.033427
 21
201.048061
  0
LINE
  8
0
 62
     1
 10
93.033427
 20
201.048061
 11
92.936697
 21
200.727345
  0
LINE
  8
0
 62
     1
 10
92.936697
 20
200.727345
 11
92.876812
 21
200.400331
  0
LINE
  8
0
 62
     1
 10
92.876812
 20
200.400331
 11
92.854263
 21
200.069726
  0
LINE
  8
0
 62
     1
 10
92.854263
 20
200.069726
 11
92.854075
 21
200.036616
  0
LINE
  8
0
 62
     1
 10
96.854075
 20
206.868768
 11
96.776561
 21
206.868447
  0
LINE
  8
0
 62
     1
 10
96.776561
 20
206.868447
 11
96.002509
 21
206.829951
  0
LINE
  8
0
 62
     1
 10
96.002509
 20
206.829951
 11
95.236252
 21
206.727606
  0
LINE
  8
0
 62
     1
 10
95.236252
 20
206.727606
 11
94.485420
 21
206.562432
  0
LINE
  8
0
 62
     1
 10
94.485420
 20
206.562432
 11
93.756836
 21
206.335961
  0
LINE
  8
0
 62
     1
 10
93.756836
 20
206.335961
 11
93.057337
 21
206.050316
  0
LINE
  8
0
 62
     1
 10
93.057337
 20
206.050316
 11
92.393309
 21
205.708072
  0
LINE
  8
0
 62
     1
 10
92.393309
 20
205.708072
 11
91.771394
 21
205.312654
  0
LINE
  8
0
 62
     1
 10
91.771394
 20
205.312654
 11
91.197220
 21
204.867677
  0
LINE
  8
0
 62
     1
 10
91.197220
 20
204.867677
 11
90.676182
 21
204.377322
  0
LINE
  8
0
 62
     1
 10
90.676182
 20
204.377322
 11
90.213173
 21
203.846195
  0
LINE
  8
0
 62
     1
 10
90.213173
 20
203.846195
 11
89.812428
 21
203.279102
  0
LINE
  8
0
 62
     1
 10
89.812428
 20
203.279102
 11
89.477957
 21
202.681717
  0
LINE
  8
0
 62
     1
 10
89.477957
 20
202.681717
 11
89.212774
 21
202.059492
  0
LINE
  8
0
 62
     1
 10
89.212774
 20
202.059492
 11
89.019367
 21
201.418267
  0
LINE
  8
0
 62
     1
 10
89.019367
 20
201.418267
 11
88.899527
 21
200.763870
  0
LINE
  8
0
 62
     1
 10
88.899527
 20
200.763870
 11
88.854450
 21
200.102814
  0
LINE
  8
0
 62
     1
 10
88.854450
 20
200.102814
 11
88.854075
 21
200.036616
  0
LINE
  8
0
 62
     1
 10
88.854450
 20
241.722165
 11
88.899527
 21
242.383220
  0
LINE
  8
0
 62
     1
 10
88.899527
 20
242.383220
 11
89.019367
 21
243.037618
  0
LINE
  8
0
 62
     1
 10
89.019367
 20
243.037618
 11
89.212774
 21
243.678843
  0
LINE
  8
0
 62
     1
 10
89.212774
 20
243.678843
 11
89.477957
 21
244.301067
  0
LINE
  8
0
 62
     1
 10
89.477957
 20
244.301067
 11
89.812428
 21
244.898453
  0
LINE
  8
0
 62
     1
 10
89.812428
 20
244.898453
 11
90.213173
 21
245.465545
  0
LINE
  8
0
 62
     1
 10
90.213173
 20
245.465545
 11
90.676182
 21
245.996673
  0
LINE
  8
0
 62
     1
 10
90.676182
 20
245.996673
 11
91.197220
 21
246.487028
  0
LINE
  8
0
 62
     1
 10
91.197220
 20
246.487028
 11
91.771394
 21
246.932004
  0
LINE
  8
0
 62
     1
 10
91.771394
 20
246.932004
 11
92.393309
 21
247.327423
  0
LINE
  8
0
 62
     1
 10
92.393309
 20
247.327423
 11
93.057337
 21
247.669666
  0
LINE
  8
0
 62
     1
 10
93.057337
 20
247.669666
 11
93.756836
 21
247.955311
  0
LINE
  8
0
 62
     1
 10
93.756836
 20
247.955311
 11
94.485420
 21
248.181782
  0
LINE
  8
0
 62
     1
 10
94.485420
 20
248.181782
 11
95.236252
 21
248.346956
  0
LINE
  8
0
 62
     1
 10
95.236252
 20
248.346956
 11
96.002509
 21
248.449302
  0
LINE
  8
0
 62
     1
 10
96.002509
 20
248.449302
 11
96.776561
 21
248.487798
  0
LINE
  8
0
 62
     1
 10
96.776561
 20
248.487798
 11
96.854075
 21
248.488118
  0
LINE
  8
0
 62
     1
 10
96.854075
 20
248.488118
 11
96.854075
 21
206.868768
  0
LINE
  8
0
 62
     1
 10
154.854075
 20
200.036616
 11
154.853887
 21
200.069726
  0
LINE
  8
0
 62
     1
 10
154.853887
 20
200.069726
 11
154.831338
 21
200.400331
  0
LINE
  8
0
 62
     1
 10
154.831338
 20
200.400331
 11
154.771452
 21
200.727345
  0
LINE
  8
0
 62
     1
 10
154.771452
 20
200.727345
 11
154.674723
 21
201.048061
  0
LINE
  8
0
 62
     1
 10
154.674723
 20
201.048061
 11
154.542088
 21
201.359260
  0
LINE
  8
0
 62
     1
 10
154.542088
 20
201.359260
 11
154.374898
 21
201.657859
  0
LINE
  8
0
 62
     1
 10
154.374898
 20
201.657859
 11
154.174527
 21
201.941403
  0
LINE
  8
0
 62
     1
 10
154.174527
 20
201.941403
 11
153.943099
 21
202.206888
  0
LINE
  8
0
 62
     1
 10
153.943099
 20
202.206888
 11
153.682502
 21
202.452147
  0
LINE
  8
0
 62
     1
 10
153.682502
 20
202.452147
 11
153.395320
 21
202.674702
  0
LINE
  8
0
 62
     1
 10
153.395320
 20
202.674702
 11
153.084455
 21
202.872346
  0
LINE
  8
0
 62
     1
 10
153.084455
 20
202.872346
 11
152.752444
 21
203.043466
  0
LINE
  8
0
 62
     1
 10
152.752444
 20
203.043466
 11
152.402803
 21
203.186249
  0
LINE
  8
0
 62
     1
 10
152.402803
 20
203.186249
 11
152.038409
 21
203.299522
  0
LINE
  8
0
 62
     1
 10
152.038409
 20
203.299522
 11
151.662872
 21
203.382131
  0
LINE
  8
0
 62
     1
 10
151.662872
 20
203.382131
 11
151.279961
 21
203.433274
  0
LINE
  8
0
 62
     1
 10
151.279961
 20
203.433274
 11
150.892844
 21
203.452532
  0
LINE
  8
0
 62
     1
 10
150.892844
 20
203.452532
 11
150.854075
 21
203.452692
  0
LINE
  8
0
 62
     1
 10
158.854075
 20
200.036616
 11
158.853699
 21
200.102814
  0
LINE
  8
0
 62
     1
 10
158.853699
 20
200.102814
 11
158.808623
 21
200.763870
  0
LINE
  8
0
 62
     1
 10
158.808623
 20
200.763870
 11
158.688783
 21
201.418267
  0
LINE
  8
0
 62
     1
 10
158.688783
 20
201.418267
 11
158.495375
 21
202.059492
  0
LINE
  8
0
 62
     1
 10
158.495375
 20
202.059492
 11
158.230192
 21
202.681717
  0
LINE
  8
0
 62
     1
 10
158.230192
 20
202.681717
 11
157.895721
 21
203.279102
  0
LINE
  8
0
 62
     1
 10
157.895721
 20
203.279102
 11
157.494976
 21
203.846195
  0
LINE
  8
0
 62
     1
 10
157.494976
 20
203.846195
 11
157.031967
 21
204.377322
  0
LINE
  8
0
 62
     1
 10
157.031967
 20
204.377322
 11
156.510929
 21
204.867677
  0
LINE
  8
0
 62
     1
 10
156.510929
 20
204.867677
 11
155.936755
 21
205.312654
  0
LINE
  8
0
 62
     1
 10
155.936755
 20
205.312654
 11
155.314840
 21
205.708072
  0
LINE
  8
0
 62
     1
 10
155.314840
 20
205.708072
 11
154.650812
 21
206.050316
  0
LINE
  8
0
 62
     1
 10
154.650812
 20
206.050316
 11
153.951313
 21
206.335961
  0
LINE
  8
0
 62
     1
 10
153.951313
 20
206.335961
 11
153.222729
 21
206.562432
  0
LINE
  8
0
 62
     1
 10
153.222729
 20
206.562432
 11
152.471897
 21
206.727606
  0
LINE
  8
0
 62
     1
 10
152.471897
 20
206.727606
 11
151.705641
 21
206.829951
  0
LINE
  8
0
 62
     1
 10
151.705641
 20
206.829951
 11
150.931588
 21
206.868447
  0
LINE
  8
0
 62
     1
 10
150.931588
 20
206.868447
 11
150.854075
 21
206.868768
  0
LINE
  8
0
 62
     1
 10
150.854075
 20
248.488118
 11
150.854075
 21
206.868768
  0
LINE
  8
0
 62
     1
 10
150.854075
 20
248.488118
 11
150.931588
 21
248.487798
  0
LINE
  8
0
 62
     1
 10
150.931588
 20
248.487798
 11
151.705641
 21
248.449302
  0
LINE
  8
0
 62
     1
 10
151.705641
 20
248.449302
 11
152.471897
 21
248.346956
  0
LINE
  8
0
 62
     1
 10
152.471897
 20
248.346956
 11
153.222729
 21
248.181782
  0
LINE
  8
0
 62
     1
 10
153.222729
 20
248.181782
 11
153.951313
 21
247.955311
  0
LINE
  8
0
 62
     1
 10
153.951313
 20
247.955311
 11
154.650812
 21
247.669666
  0
LINE
  8
0
 62
     1
 10
154.650812
 20
247.669666
 11
155.314840
 21
247.327423
  0
LINE
  8
0
 62
     1
 10
155.314840
 20
247.327423
 11
155.936755
 21
246.932004
  0
LINE
  8
0
 62
     1
 10
155.936755
 20
246.932004
 11
156.510929
 21
246.487028
  0
LINE
  8
0
 62
     1
 10
156.510929
 20
246.487028
 11
157.031967
 21
245.996673
  0
LINE
  8
0
 62
     1
 10
157.031967
 20
245.996673
 11
157.494976
 21
245.465545
  0
LINE
  8
0
 62
     1
 10
157.494976
 20
245.465545
 11
157.895721
 21
244.898453
  0
LINE
  8
0
 62
     1
 10
157.895721
 20
244.898453
 11
158.230192
 21
244.301067
  0
LINE
  8
0
 62
     1
 10
158.230192
 20
244.301067
 11
158.495375
 21
243.678843
  0
LINE
  8
0
 62
     1
 10
158.495375
 20
243.678843
 11
158.688783
 21
243.037618
  0
LINE
  8
0
 62
     1
 10
158.688783
 20
243.037618
 11
158.808623
 21
242.383220
  0
LINE
  8
0
 62
     1
 10
158.808623
 20
242.383220
 11
158.853699
 21
241.722165
  0
LINE
  8
0
 62
     1
 10
92.854075
 20
172.708010
 11
92.854075
 21
153.517685
  0
LINE
  8
0
 62
     1
 10
92.854075
 20
172.708010
 11
92.854075
 21
200.036616
  0
LINE
  8
0
 62
     1
 10
88.854075
 20
172.708010
 11
88.854075
 21
200.036616
  0
LINE
  8
0
 62
     1
 10
88.854075
 20
153.517685
 11
88.854075
 21
172.708010
  0
LINE
  8
0
 62
     1
 10
96.854075
 20
203.452692
 11
150.854075
 21
203.452692
  0
LINE
  8
0
 62
     1
 10
96.854075
 20
206.868768
 11
150.854075
 21
206.868768
  0
LINE
  8
0
 62
     1
 10
131.854075
 20
248.488118
 11
150.854075
 21
248.488118
  0
LINE
  8
0
 62
     1
 10
96.854075
 20
248.488118
 11
115.854075
 21
248.488118
  0
LINE
  8
0
 62
     1
 10
154.854075
 20
200.036616
 11
154.854075
 21
172.708010
  0
LINE
  8
0
 62
     1
 10
154.854075
 20
153.517685
 11
154.854075
 21
172.708010
  0
LINE
  8
0
 62
     1
 10
158.854075
 20
172.708010
 11
158.854075
 21
153.517685
  0
LINE
  8
0
 62
     1
 10
158.854075
 20
200.036616
 11
158.854075
 21
172.708010
  0
LINE
  8
0
 62
     1
 10
88.854075
 20
172.708010
 11
92.854075
 21
172.708010
  0
LINE
  8
0
 62
     1
 10
158.854075
 20
172.708010
 11
154.854075
 21
172.708010
  0
LINE
  8
0
 62
     1
 10
160.559407
 20
153.517685
 11
164.559407
 21
153.517685
  0
LINE
  8
0
 62
     1
 10
160.559407
 20
233.517685
 11
164.559407
 21
233.517685
  0
LINE
  8
0
 62
     1
 10
88.559407
 20
233.517685
 11
84.559407
 21
233.517685
  0
LINE
  8
0
 62
     1
 10
88.559407
 20
153.517685
 11
84.559407
 21
153.517685
  0
LINE
  8
0
 62
     1
 10
88.559407
 20
153.517685
 11
88.854075
 21
153.517685
  0
LINE
  8
0
 62
     1
 10
88.854450
 20
233.517685
 11
88.559407
 21
233.517685
  0
LINE
  8
0
 62
     1
 10
158.854075
 20
153.517685
 11
160.559407
 21
153.517685
  0
LINE
  8
0
 62
     1
 10
160.559407
 20
233.517685
 11
158.853699
 21
233.517685
  0
LINE
  8
0
 62
     1
 10
88.559407
 20
193.517685
 11
88.559407
 21
153.517685
  0
LINE
  8
0
 62
     1
 10
88.559407
 20
233.517685
 11
88.559407
 21
193.517685
  0
LINE
  8
0
 62
     1
 10
84.559407
 20
193.517685
 11
84.559407
 21
233.517685
  0
LINE
  8
0
 62
     1
 10
84.559407
 20
153.517685
 11
84.559407
 21
193.517685
  0
ARC
  8
0
 62
     1
 10
145.890090
 20
163.904969
 40
6.000000
 50
0.000000
 51
180.000000
  0
ARC
  8
0
 62
     1
 10
145.890090
 20
163.904969
 40
6.000000
 50
180.000000
 51
360.000000
  0
ARC
  8
0
 62
     1
 10
99.714431
 20
163.904969
 40
6.000000
 50
0.000000
 51
180.000000
  0
ARC
  8
0
 62
     1
 10
99.714431
 20
163.904969
 40
6.000000
 50
180.000000
 51
360.000000
  0
LINE
  8
0
 62
     1
 10
92.854075
 20
153.517685
 11
154.854075
 21
153.517685
  0
LINE
  8
0
 62
     1
 10
160.559407
 20
193.517685
 11
160.559407
 21
233.517685
  0
LINE
  8
0
 62
     1
 10
160.559407
 20
153.517685
 11
160.559407
 21
193.517685
  0
LINE
  8
0
 62
     1
 10
164.559407
 20
233.517685
 11
164.559407
 21
193.517685
  0
LINE
  8
0
 62
     1
 10
164.559407
 20
193.517685
 11
164.559407
 21
153.517685
  0
LINE
  8
0
 62
     1
 10
84.559407
 20
153.517685
 11
88.559407
 21
153.517685
  0
LINE
  8
0
 62
     1
 10
164.559407
 20
153.517685
 11
160.559407
 21
153.517685
  0
LINE
  8
0
 62
     1
 10
84.559407
 20
233.517685
 11
88.559407
 21
233.517685
  0
LINE
  8
0
 62
     1
 10
164.559407
 20
233.517685
 11
160.559407
 21
233.517685
  0
LINE
  8
0
 62
     1
 10
110.254075
 20
318.809743
 11
110.254075
 21
275.508472
  0
LINE
  8
0
 62
     1
 10
137.454075
 20
318.809743
 11
137.454075
 21
275.508472
  0
LINE
  8
0
 62
     1
 10
123.854075
 20
322.809743
 11
123.069938
 21
322.790481
  0
LINE
  8
0
 62
     1
 10
123.069938
 20
322.790481
 11
122.293352
 21
322.732884
  0
LINE
  8
0
 62
     1
 10
122.293352
 20
322.732884
 11
121.531797
 21
322.637504
  0
LINE
  8
0
 62
     1
 10
121.531797
 20
322.637504
 11
120.792607
 21
322.505261
  0
LINE
  8
0
 62
     1
 10
120.792607
 20
322.505261
 11
120.082901
 21
322.337428
  0
LINE
  8
0
 62
     1
 10
120.082901
 20
322.337428
 11
119.409513
 21
322.135621
  0
LINE
  8
0
 62
     1
 10
119.409513
 20
322.135621
 11
118.778928
 21
321.901784
  0
LINE
  8
0
 62
     1
 10
118.778928
 20
321.901784
 11
118.197220
 21
321.638170
  0
LINE
  8
0
 62
     1
 10
118.197220
 20
321.638170
 11
117.669991
 21
321.347316
  0
LINE
  8
0
 62
     1
 10
117.669991
 20
321.347316
 11
117.202318
 21
321.032023
  0
LINE
  8
0
 62
     1
 10
117.202318
 20
321.032023
 11
116.798705
 21
320.695329
  0
LINE
  8
0
 62
     1
 10
116.798705
 20
320.695329
 11
116.463038
 21
320.340476
  0
LINE
  8
0
 62
     1
 10
116.463038
 20
320.340476
 11
116.198552
 21
319.970881
  0
LINE
  8
0
 62
     1
 10
116.198552
 20
319.970881
 11
116.007792
 21
319.590104
  0
LINE
  8
0
 62
     1
 10
116.007792
 20
319.590104
 11
115.892597
 21
319.201811
  0
LINE
  8
0
 62
     1
 10
115.892597
 20
319.201811
 11
115.854075
 21
318.809743
  0
LINE
  8
0
 62
     1
 10
115.854075
 20
318.809743
 11
115.892597
 21
318.417674
  0
LINE
  8
0
 62
     1
 10
115.892597
 20
318.417674
 11
116.007792
 21
318.029381
  0
LINE
  8
0
 62
     1
 10
116.007792
 20
318.029381
 11
116.198552
 21
317.648604
  0
LINE
  8
0
 62
     1
 10
116.198552
 20
317.648604
 11
116.463038
 21
317.279009
  0
LINE
  8
0
 62
     1
 10
116.463038
 20
317.279009
 11
116.798705
 21
316.924156
  0
LINE
  8
0
 62
     1
 10
116.798705
 20
316.924156
 11
117.202318
 21
316.587462
  0
LINE
  8
0
 62
     1
 10
117.202318
 20
316.587462
 11
117.669991
 21
316.272169
  0
LINE
  8
0
 62
     1
 10
117.669991
 20
316.272169
 11
118.197220
 21
315.981315
  0
LINE
  8
0
 62
     1
 10
118.197220
 20
315.981315
 11
118.778928
 21
315.717701
  0
LINE
  8
0
 62
     1
 10
118.778928
 20
315.717701
 11
119.409513
 21
315.483864
  0
LINE
  8
0
 62
     1
 10
119.409513
 20
315.483864
 11
120.082901
 21
315.282057
  0
LINE
  8
0
 62
     1
 10
120.082901
 20
315.282057
 11
120.792607
 21
315.114224
  0
LINE
  8
0
 62
     1
 10
120.792607
 20
315.114224
 11
121.531797
 21
314.981981
  0
LINE
  8
0
 62
     1
 10
121.531797
 20
314.981981
 11
122.293352
 21
314.886601
  0
LINE
  8
0
 62
     1
 10
122.293352
 20
314.886601
 11
123.069938
 21
314.829004
  0
LINE
  8
0
 62
     1
 10
123.069938
 20
314.829004
 11
123.854075
 21
314.809743
  0
LINE
  8
0
 62
     1
 10
123.854075
 20
314.809743
 11
124.638212
 21
314.829004
  0
LINE
  8
0
 62
     1
 10
124.638212
 20
314.829004
 11
125.414797
 21
314.886601
  0
LINE
  8
0
 62
     1
 10
125.414797
 20
314.886601
 11
126.176352
 21
314.981981
  0
LINE
  8
0
 62
     1
 10
126.176352
 20
314.981981
 11
126.915542
 21
315.114224
  0
LINE
  8
0
 62
     1
 10
126.915542
 20
315.114224
 11
127.625249
 21
315.282057
  0
LINE
  8
0
 62
     1
 10
127.625249
 20
315.282057
 11
128.298637
 21
315.483864
  0
LINE
  8
0
 62
     1
 10
128.298637
 20
315.483864
 11
128.929221
 21
315.717701
  0
LINE
  8
0
 62
     1
 10
128.929221
 20
315.717701
 11
129.510929
 21
315.981315
  0
LINE
  8
0
 62
     1
 10
129.510929
 20
315.981315
 11
130.038158
 21
316.272169
  0
LINE
  8
0
 62
     1
 10
130.038158
 20
316.272169
 11
130.505832
 21
316.587462
  0
LINE
  8
0
 62
     1
 10
130.505832
 20
316.587462
 11
130.909445
 21
316.924156
  0
LINE
  8
0
 62
     1
 10
130.909445
 20
316.924156
 11
131.245111
 21
317.279009
  0
LINE
  8
0
 62
     1
 10
131.245111
 20
317.279009
 11
131.509597
 21
317.648604
  0
LINE
  8
0
 62
     1
 10
131.509597
 20
317.648604
 11
131.700357
 21
318.029381
  0
LINE
  8
0
 62
     1
 10
131.700357
 20
318.029381
 11
131.815552
 21
318.417674
  0
LINE
  8
0
 62
     1
 10
131.815552
 20
318.417674
 11
131.854075
 21
318.809743
  0
LINE
  8
0
 62
     1
 10
131.854075
 20
318.809743
 11
131.815552
 21
319.201811
  0
LINE
  8
0
 62
     1
 10
131.815552
 20
319.201811
 11
131.700357
 21
319.590104
  0
LINE
  8
0
 62
     1
 10
131.700357
 20
319.590104
 11
131.509597
 21
319.970881
  0
LINE
  8
0
 62
     1
 10
131.509597
 20
319.970881
 11
131.245111
 21
320.340476
  0
LINE
  8
0
 62
     1
 10
131.245111
 20
320.340476
 11
130.909445
 21
320.695329
  0
LINE
  8
0
 62
     1
 10
130.909445
 20
320.695329
 11
130.505832
 21
321.032023
  0
LINE
  8
0
 62
     1
 10
130.505832
 20
321.032023
 11
130.038158
 21
321.347316
  0
LINE
  8
0
 62
     1
 10
130.038158
 20
321.347316
 11
129.510929
 21
321.638170
  0
LINE
  8
0
 62
     1
 10
129.510929
 20
321.638170
 11
128.929221
 21
321.901784
  0
LINE
  8
0
 62
     1
 10
128.929221
 20
321.901784
 11
128.298637
 21
322.135621
  0
LINE
  8
0
 62
     1
 10
128.298637
 20
322.135621
 11
127.625249
 21
322.337428
  0
LINE
  8
0
 62
     1
 10
127.625249
 20
322.337428
 11
126.915542
 21
322.505261
  0
LINE
  8
0
 62
     1
 10
126.915542
 20
322.505261
 11
126.176352
 21
322.637504
  0
LINE
  8
0
 62
     1
 10
126.176352
 20
322.637504
 11
125.414797
 21
322.732884
  0
LINE
  8
0
 62
     1
 10
125.414797
 20
322.732884
 11
124.638212
 21
322.790481
  0
LINE
  8
0
 62
     1
 10
124.638212
 20
322.790481
 11
123.854075
 21
322.809743
  0
LINE
  8
0
 62
     1
 10
123.854075
 20
325.609743
 11
122.521042
 21
325.576999
  0
LINE
  8
0
 62
     1
 10
122.521042
 20
325.576999
 11
121.200846
 21
325.479082
  0
LINE
  8
0
 62
     1
 10
121.200846
 20
325.479082
 11
119.906203
 21
325.316937
  0
LINE
  8
0
 62
     1
 10
119.906203
 20
325.316937
 11
118.649580
 21
325.092123
  0
LINE
  8
0
 62
     1
 10
118.649580
 20
325.092123
 11
117.443079
 21
324.806807
  0
LINE
  8
0
 62
     1
 10
117.443079
 20
324.806807
 11
116.298319
 21
324.463736
  0
LINE
  8
0
 62
     1
 10
116.298319
 20
324.463736
 11
115.226326
 21
324.066214
  0
LINE
  8
0
 62
     1
 10
115.226326
 20
324.066214
 11
114.237422
 21
323.618069
  0
LINE
  8
0
 62
     1
 10
114.237422
 20
323.618069
 11
113.341132
 21
323.123617
  0
LINE
  8
0
 62
     1
 10
113.341132
 20
323.123617
 11
112.546088
 21
322.587620
  0
LINE
  8
0
 62
     1
 10
112.546088
 20
322.587620
 11
111.859945
 21
322.015240
  0
LINE
  8
0
 62
     1
 10
111.859945
 20
322.015240
 11
111.289313
 21
321.411990
  0
LINE
  8
0
 62
     1
 10
111.289313
 20
321.411990
 11
110.839686
 21
320.783678
  0
LINE
  8
0
 62
     1
 10
110.839686
 20
320.783678
 11
110.515395
 21
320.136357
  0
LINE
  8
0
 62
     1
 10
110.515395
 20
320.136357
 11
110.319562
 21
319.476259
  0
LINE
  8
0
 62
     1
 10
110.319562
 20
319.476259
 11
110.254075
 21
318.809743
  0
LINE
  8
0
 62
     1
 10
110.254075
 20
318.809743
 11
110.319562
 21
318.143226
  0
LINE
  8
0
 62
     1
 10
110.319562
 20
318.143226
 11
110.515395
 21
317.483128
  0
LINE
  8
0
 62
     1
 10
110.515395
 20
317.483128
 11
110.839686
 21
316.835807
  0
LINE
  8
0
 62
     1
 10
110.839686
 20
316.835807
 11
111.289313
 21
316.207495
  0
LINE
  8
0
 62
     1
 10
111.289313
 20
316.207495
 11
111.859945
 21
315.604245
  0
LINE
  8
0
 62
     1
 10
111.859945
 20
315.604245
 11
112.546088
 21
315.031865
  0
LINE
  8
0
 62
     1
 10
112.546088
 20
315.031865
 11
113.341132
 21
314.495868
  0
LINE
  8
0
 62
     1
 10
113.341132
 20
314.495868
 11
114.237422
 21
314.001416
  0
LINE
  8
0
 62
     1
 10
114.237422
 20
314.001416
 11
115.226326
 21
313.553271
  0
LINE
  8
0
 62
     1
 10
115.226326
 20
313.553271
 11
116.298319
 21
313.155749
  0
LINE
  8
0
 62
     1
 10
116.298319
 20
313.155749
 11
117.443079
 21
312.812678
  0
LINE
  8
0
 62
     1
 10
117.443079
 20
312.812678
 11
118.649580
 21
312.527362
  0
LINE
  8
0
 62
     1
 10
118.649580
 20
312.527362
 11
119.906203
 21
312.302548
  0
LINE
  8
0
 62
     1
 10
119.906203
 20
312.302548
 11
121.200846
 21
312.140403
  0
LINE
  8
0
 62
     1
 10
121.200846
 20
312.140403
 11
122.521042
 21
312.042486
  0
LINE
  8
0
 62
     1
 10
122.521042
 20
312.042486
 11
123.854075
 21
312.009743
  0
LINE
  8
0
 62
     1
 10
123.854075
 20
312.009743
 11
125.187108
 21
312.042486
  0
LINE
  8
0
 62
     1
 10
125.187108
 20
312.042486
 11
126.507303
 21
312.140403
  0
LINE
  8
0
 62
     1
 10
126.507303
 20
312.140403
 11
127.801946
 21
312.302548
  0
LINE
  8
0
 62
     1
 10
127.801946
 20
312.302548
 11
129.058569
 21
312.527362
  0
LINE
  8
0
 62
     1
 10
129.058569
 20
312.527362
 11
130.265070
 21
312.812678
  0
LINE
  8
0
 62
     1
 10
130.265070
 20
312.812678
 11
131.409830
 21
313.155749
  0
LINE
  8
0
 62
     1
 10
131.409830
 20
313.155749
 11
132.481823
 21
313.553271
  0
LINE
  8
0
 62
     1
 10
132.481823
 20
313.553271
 11
133.470727
 21
314.001416
  0
LINE
  8
0
 62
     1
 10
133.470727
 20
314.001416
 11
134.367017
 21
314.495868
  0
LINE
  8
0
 62
     1
 10
134.367017
 20
314.495868
 11
135.162061
 21
315.031865
  0
LINE
  8
0
 62
     1
 10
135.162061
 20
315.031865
 11
135.848204
 21
315.604245
  0
LINE
  8
0
 62
     1
 10
135.848204
 20
315.604245
 11
136.418836
 21
316.207495
  0
LINE
  8
0
 62
     1
 10
136.418836
 20
316.207495
 11
136.868463
 21
316.835807
  0
LINE
  8
0
 62
     1
 10
136.868463
 20
316.835807
 11
137.192754
 21
317.483128
  0
LINE
  8
0
 62
     1
 10
137.192754
 20
317.483128
 11
137.388587
 21
318.143226
  0
LINE
  8
0
 62
     1
 10
137.388587
 20
318.143226
 11
137.454075
 21
318.809743
  0
LINE
  8
0
 62
     1
 10
137.454075
 20
318.809743
 11
137.388587
 21
319.476259
  0
LINE
  8
0
 62
     1
 10
137.388587
 20
319.476259
 11
137.192754
 21
320.136357
  0
LINE
  8
0
 62
     1
 10
137.192754
 20
320.136357
 11
136.868463
 21
320.783678
  0
LINE
  8
0
 62
     1
 10
136.868463
 20
320.783678
 11
136.418836
 21
321.411990
  0
LINE
  8
0
 62
     1
 10
136.418836
 20
321.411990
 11
135.848204
 21
322.015240
  0
LINE
  8
0
 62
     1
 10
135.848204
 20
322.015240
 11
135.162061
 21
322.587620
  0
LINE
  8
0
 62
     1
 10
135.162061
 20
322.587620
 11
134.367017
 21
323.123617
  0
LINE
  8
0
 62
     1
 10
134.367017
 20
323.123617
 11
133.470727
 21
323.618069
  0
LINE
  8
0
 62
     1
 10
133.470727
 20
323.618069
 11
132.481823
 21
324.066214
  0
LINE
  8
0
 62
     1
 10
132.481823
 20
324.066214
 11
131.409830
 21
324.463736
  0
LINE
  8
0
 62
     1
 10
131.409830
 20
324.463736
 11
130.265070
 21
324.806807
  0
LINE
  8
0
 62
     1
 10
130.265070
 20
324.806807
 11
129.058569
 21
325.092123
  0
LINE
  8
0
 62
     1
 10
129.058569
 20
325.092123
 11
127.801946
 21
325.316937
  0
LINE
  8
0
 62
     1
 10
127.801946
 20
325.316937
 11
126.507303
 21
325.479082
  0
LINE
  8
0
 62
     1
 10
126.507303
 20
325.479082
 11
125.187108
 21
325.576999
  0
LINE
  8
0
 62
     1
 10
125.187108
 20
325.576999
 11
123.854075
 21
325.609743
  0
LINE
  8
0
 62
     1
 10
137.454075
 20
275.508472
 11
137.388587
 21
274.841956
  0
LINE
  8
0
 62
     1
 10
137.388587
 20
274.841956
 11
137.192754
 21
274.181858
  0
LINE
  8
0
 62
     1
 10
137.192754
 20
274.181858
 11
136.868463
 21
273.534537
  0
LINE
  8
0
 62
     1
 10
136.868463
 20
273.534537
 11
136.418836
 21
272.906225
  0
LINE
  8
0
 62
     1
 10
136.418836
 20
272.906225
 11
135.848204
 21
272.302975
  0
LINE
  8
0
 62
     1
 10
135.848204
 20
272.302975
 11
135.162061
 21
271.730595
  0
LINE
  8
0
 62
     1
 10
135.162061
 20
271.730595
 11
134.367017
 21
271.194598
  0
LINE
  8
0
 62
     1
 10
134.367017
 20
271.194598
 11
133.470727
 21
270.700146
  0
LINE
  8
0
 62
     1
 10
133.470727
 20
270.700146
 11
132.481823
 21
270.252001
  0
LINE
  8
0
 62
     1
 10
132.481823
 20
270.252001
 11
131.409830
 21
269.854479
  0
LINE
  8
0
 62
     1
 10
131.409830
 20
269.854479
 11
130.265070
 21
269.511408
  0
LINE
  8
0
 62
     1
 10
130.265070
 20
269.511408
 11
129.058569
 21
269.226091
  0
LINE
  8
0
 62
     1
 10
129.058569
 20
269.226091
 11
127.801946
 21
269.001278
  0
LINE
  8
0
 62
     1
 10
127.801946
 20
269.001278
 11
126.507303
 21
268.839132
  0
LINE
  8
0
 62
     1
 10
126.507303
 20
268.839132
 11
125.187108
 21
268.741216
  0
LINE
  8
0
 62
     1
 10
125.187108
 20
268.741216
 11
123.854075
 21
268.708472
  0
LINE
  8
0
 62
     1
 10
123.854075
 20
268.708472
 11
122.521042
 21
268.741216
  0
LINE
  8
0
 62
     1
 10
122.521042
 20
268.741216
 11
121.200846
 21
268.839132
  0
LINE
  8
0
 62
     1
 10
121.200846
 20
268.839132
 11
119.906203
 21
269.001278
  0
LINE
  8
0
 62
     1
 10
119.906203
 20
269.001278
 11
118.649580
 21
269.226091
  0
LINE
  8
0
 62
     1
 10
118.649580
 20
269.226091
 11
117.443079
 21
269.511408
  0
LINE
  8
0
 62
     1
 10
117.443079
 20
269.511408
 11
116.298319
 21
269.854479
  0
LINE
  8
0
 62
     1
 10
116.298319
 20
269.854479
 11
115.226326
 21
270.252001
  0
LINE
  8
0
 62
     1
 10
115.226326
 20
270.252001
 11
114.237422
 21
270.700146
  0
LINE
  8
0
 62
     1
 10
114.237422
 20
270.700146
 11
113.341132
 21
271.194598
  0
LINE
  8
0
 62
     1
 10
113.341132
 20
271.194598
 11
112.546088
 21
271.730595
  0
LINE
  8
0
 62
     1
 10
112.546088
 20
271.730595
 11
111.859945
 21
272.302975
  0
LINE
  8
0
 62
     1
 10
111.859945
 20
272.302975
 11
111.289313
 21
272.906225
  0
LINE
  8
0
 62
     1
 10
111.289313
 20
272.906225
 11
110.839686
 21
273.534537
  0
LINE
  8
0
 62
     1
 10
110.839686
 20
273.534537
 11
110.515395
 21
274.181858
  0
LINE
  8
0
 62
     1
 10
110.515395
 20
274.181858
 11
110.319562
 21
274.841956
  0
LINE
  8
0
 62
     1
 10
110.319562
 20
274.841956
 11
110.254075
 21
275.508472
  0
LINE
  8
0
 62
     1
 10
123.854075
 20
322.268543
 11
123.176031
 21
322.251887
  0
LINE
  8
0
 62
     1
 10
123.176031
 20
322.251887
 11
122.504518
 21
322.202083
  0
LINE
  8
0
 62
     1
 10
122.504518
 20
322.202083
 11
121.846001
 21
322.119608
  0
LINE
  8
0
 62
     1
 10
121.846001
 20
322.119608
 11
121.206824
 21
322.005257
  0
LINE
  8
0
 62
     1
 10
121.206824
 20
322.005257
 11
120.593141
 21
321.860132
  0
LINE
  8
0
 62
     1
 10
120.593141
 20
321.860132
 11
120.010862
 21
321.685630
  0
LINE
  8
0
 62
     1
 10
120.010862
 20
321.685630
 11
119.465596
 21
321.483431
  0
LINE
  8
0
 62
     1
 10
119.465596
 20
321.483431
 11
118.962593
 21
321.255483
  0
LINE
  8
0
 62
     1
 10
118.962593
 20
321.255483
 11
118.506698
 21
321.003982
  0
LINE
  8
0
 62
     1
 10
118.506698
 20
321.003982
 11
118.102300
 21
320.731349
  0
LINE
  8
0
 62
     1
 10
118.102300
 20
320.731349
 11
117.753296
 21
320.440210
  0
LINE
  8
0
 62
     1
 10
117.753296
 20
320.440210
 11
117.463046
 21
320.133368
  0
LINE
  8
0
 62
     1
 10
117.463046
 20
320.133368
 11
117.234344
 21
319.813779
  0
LINE
  8
0
 62
     1
 10
117.234344
 20
319.813779
 11
117.069394
 21
319.484521
  0
LINE
  8
0
 62
     1
 10
117.069394
 20
319.484521
 11
116.969785
 21
319.148764
  0
LINE
  8
0
 62
     1
 10
116.969785
 20
319.148764
 11
116.936475
 21
318.809743
  0
LINE
  8
0
 62
     1
 10
116.936475
 20
318.809743
 11
116.969785
 21
318.470721
  0
LINE
  8
0
 62
     1
 10
116.969785
 20
318.470721
 11
117.069394
 21
318.134964
  0
LINE
  8
0
 62
     1
 10
117.069394
 20
318.134964
 11
117.234344
 21
317.805706
  0
LINE
  8
0
 62
     1
 10
117.234344
 20
317.805706
 11
117.463046
 21
317.486117
  0
LINE
  8
0
 62
     1
 10
117.463046
 20
317.486117
 11
117.753296
 21
317.179275
  0
LINE
  8
0
 62
     1
 10
117.753296
 20
317.179275
 11
118.102300
 21
316.888136
  0
LINE
  8
0
 62
     1
 10
118.102300
 20
316.888136
 11
118.506698
 21
316.615503
  0
LINE
  8
0
 62
     1
 10
118.506698
 20
316.615503
 11
118.962593
 21
316.364002
  0
LINE
  8
0
 62
     1
 10
118.962593
 20
316.364002
 11
119.465596
 21
316.136054
  0
LINE
  8
0
 62
     1
 10
119.465596
 20
316.136054
 11
120.010862
 21
315.933855
  0
LINE
  8
0
 62
     1
 10
120.010862
 20
315.933855
 11
120.593141
 21
315.759353
  0
LINE
  8
0
 62
     1
 10
120.593141
 20
315.759353
 11
121.206824
 21
315.614228
  0
LINE
  8
0
 62
     1
 10
121.206824
 20
315.614228
 11
121.846001
 21
315.499877
  0
LINE
  8
0
 62
     1
 10
121.846001
 20
315.499877
 11
122.504518
 21
315.417402
  0
LINE
  8
0
 62
     1
 10
122.504518
 20
315.417402
 11
123.176031
 21
315.367598
  0
LINE
  8
0
 62
     1
 10
123.176031
 20
315.367598
 11
123.854075
 21
315.350943
  0
LINE
  8
0
 62
     1
 10
123.854075
 20
315.350943
 11
124.532118
 21
315.367598
  0
LINE
  8
0
 62
     1
 10
124.532118
 20
315.367598
 11
125.203631
 21
315.417402
  0
LINE
  8
0
 62
     1
 10
125.203631
 20
315.417402
 11
125.862148
 21
315.499877
  0
LINE
  8
0
 62
     1
 10
125.862148
 20
315.499877
 11
126.501326
 21
315.614228
  0
LINE
  8
0
 62
     1
 10
126.501326
 20
315.614228
 11
127.115009
 21
315.759353
  0
LINE
  8
0
 62
     1
 10
127.115009
 20
315.759353
 11
127.697287
 21
315.933855
  0
LINE
  8
0
 62
     1
 10
127.697287
 20
315.933855
 11
128.242554
 21
316.136054
  0
LINE
  8
0
 62
     1
 10
128.242554
 20
316.136054
 11
128.745557
 21
316.364002
  0
LINE
  8
0
 62
     1
 10
128.745557
 20
316.364002
 11
129.201452
 21
316.615503
  0
LINE
  8
0
 62
     1
 10
129.201452
 20
316.615503
 11
129.605849
 21
316.888136
  0
LINE
  8
0
 62
     1
 10
129.605849
 20
316.888136
 11
129.954853
 21
317.179275
  0
LINE
  8
0
 62
     1
 10
129.954853
 20
317.179275
 11
130.245104
 21
317.486117
  0
LINE
  8
0
 62
     1
 10
130.245104
 20
317.486117
 11
130.473805
 21
317.805706
  0
LINE
  8
0
 62
     1
 10
130.473805
 20
317.805706
 11
130.638755
 21
318.134964
  0
LINE
  8
0
 62
     1
 10
130.638755
 20
318.134964
 11
130.738365
 21
318.470721
  0
LINE
  8
0
 62
     1
 10
130.738365
 20
318.470721
 11
130.771675
 21
318.809743
  0
LINE
  8
0
 62
     1
 10
130.771675
 20
318.809743
 11
130.738365
 21
319.148764
  0
LINE
  8
0
 62
     1
 10
130.738365
 20
319.148764
 11
130.638755
 21
319.484521
  0
LINE
  8
0
 62
     1
 10
130.638755
 20
319.484521
 11
130.473805
 21
319.813779
  0
LINE
  8
0
 62
     1
 10
130.473805
 20
319.813779
 11
130.245104
 21
320.133368
  0
LINE
  8
0
 62
     1
 10
130.245104
 20
320.133368
 11
129.954853
 21
320.440210
  0
LINE
  8
0
 62
     1
 10
129.954853
 20
320.440210
 11
129.605849
 21
320.731349
  0
LINE
  8
0
 62
     1
 10
129.605849
 20
320.731349
 11
129.201452
 21
321.003982
  0
LINE
  8
0
 62
     1
 10
129.201452
 20
321.003982
 11
128.745557
 21
321.255483
  0
LINE
  8
0
 62
     1
 10
128.745557
 20
321.255483
 11
128.242554
 21
321.483431
  0
LINE
  8
0
 62
     1
 10
128.242554
 20
321.483431
 11
127.697287
 21
321.685630
  0
LINE
  8
0
 62
     1
 10
127.697287
 20
321.685630
 11
127.115009
 21
321.860132
  0
LINE
  8
0
 62
     1
 10
127.115009
 20
321.860132
 11
126.501326
 21
322.005257
  0
LINE
  8
0
 62
     1
 10
126.501326
 20
322.005257
 11
125.862148
 21
322.119608
  0
LINE
  8
0
 62
     1
 10
125.862148
 20
322.119608
 11
125.203631
 21
322.202083
  0
LINE
  8
0
 62
     1
 10
125.203631
 20
322.202083
 11
124.532118
 21
322.251887
  0
LINE
  8
0
 62
     1
 10
124.532118
 20
322.251887
 11
123.854075
 21
322.268543
  0
LINE
  8
0
 62
     1
 10
428.178131
 20
-27.415901
 11
423.651182
 21
-24.802586
  0
LINE
  8
0
 62
     1
 10
435.651475
 20
-31.730958
 11
431.124804
 21
-29.117164
  0
LINE
  8
0
 62
     1
 10
423.651182
 20
-24.802586
 11
419.124771
 21
-27.415917
  0
LINE
  8
0
 62
     1
 10
416.178154
 20
-29.117147
 11
411.651455
 21
-31.730958
  0
LINE
  8
0
 62
     1
 10
411.651455
 20
-31.730958
 11
411.651461
 21
-36.957611
  0
LINE
  8
0
 62
     1
 10
411.651461
 20
-40.360071
 11
411.651737
 21
-45.587213
  0
LINE
  8
0
 62
     1
 10
411.651737
 20
-45.587213
 11
416.178126
 21
-48.200518
  0
LINE
  8
0
 62
     1
 10
419.124799
 20
-49.901781
 11
423.651748
 21
-52.515096
  0
LINE
  8
0
 62
     1
 10
423.651748
 20
-52.515096
 11
428.178159
 21
-49.901765
  0
LINE
  8
0
 62
     1
 10
431.124776
 20
-48.200535
 11
435.651475
 21
-45.586724
  0
LINE
  8
0
 62
     1
 10
435.651475
 20
-45.586724
 11
435.651469
 21
-40.360071
  0
LINE
  8
0
 62
     1
 10
435.651469
 20
-36.957611
 11
435.651475
 21
-31.730958
  0
ARC
  8
0
 62
     1
 10
423.651465
 20
-38.658841
 40
12.120000
 50
68.069301
 51
111.930699
  0
ARC
  8
0
 62
     1
 10
423.651465
 20
-38.658841
 40
12.120000
 50
248.069301
 51
291.930699
  0
ARC
  8
0
 62
     1
 10
423.651465
 20
-38.658841
 40
12.120000
 50
128.069301
 51
171.930699
  0
ARC
  8
0
 62
     1
 10
423.651465
 20
-38.658841
 40
12.120000
 50
188.069301
 51
231.930699
  0
ARC
  8
0
 62
     1
 10
423.651465
 20
-38.658841
 40
12.120000
 50
308.069301
 51
351.930699
  0
ARC
  8
0
 62
     1
 10
423.651465
 20
-38.658841
 40
12.120000
 50
8.069301
 51
51.930699
  0
LINE
  8
0
 62
     1
 10
435.651465
 20
-40.360135
 11
435.651465
 21
-36.957547
  0
LINE
  8
0
 62
     1
 10
428.178102
 20
-49.901793
 11
431.124829
 21
-48.200499
  0
LINE
  8
0
 62
     1
 10
416.178102
 20
-48.200499
 11
419.124829
 21
-49.901793
  0
LINE
  8
0
 62
     1
 10
411.651465
 20
-36.957547
 11
411.651465
 21
-40.360135
  0
LINE
  8
0
 62
     1
 10
419.124829
 20
-27.415889
 11
416.178102
 21
-29.117183
  0
LINE
  8
0
 62
     1
 10
431.124829
 20
-29.117183
 11
428.178102
 21
-27.415889
  0
CIRCLE
  8
0
 62
     1
 10
423.651465
 20
-38.658841
 40
15.000000
  0
LINE
  8
0
 62
     1
 10
386.027752
 20
-18.113207
 11
337.660677
 21
9.811536
  0
LINE
  8
0
 62
     1
 10
394.321107
 20
-4.426169
 11
345.660677
 21
23.667943
  0
LINE
  8
0
 62
     6
 10
345.119477
 20
22.730557
 11
393.576856
 21
-5.246324
  0
LINE
  8
0
 62
     6
 10
338.201877
 20
10.748922
 11
386.403668
 21
-17.080395
  0
LINE
  8
0
 62
     1
 10
383.928813
 20
-26.979462
 11
368.681031
 21
-52.009924
  0
LINE
  8
0
 62
     1
 10
410.300382
 20
16.311593
 11
401.378395
 21
1.665432
  0
LINE
  8
0
 62
     1
 10
410.300382
 20
16.311593
 11
417.132533
 21
12.149658
  0
LINE
  8
0
 62
     1
 10
414.148893
 20
7.251771
 11
417.132533
 21
12.149658
  0
LINE
  8
0
 62
     1
 10
375.513183
 20
-56.171859
 11
383.651465
 21
-42.812214
  0
LINE
  8
0
 62
     1
 10
375.513183
 20
-56.171859
 11
368.681031
 21
-52.009924
  0
LINE
  8
0
 62
     1
 10
401.378395
 20
1.665432
 11
410.300382
 21
16.311593
  0
LINE
  8
0
 62
     1
 10
368.681031
 20
-52.009924
 11
383.928813
 21
-26.979462
  0
LINE
  8
0
 62
     1
 10
423.225175
 20
8.438209
 11
417.132533
 21
12.149658
  0
LINE
  8
0
 62
     1
 10
383.651465
 20
-61.129448
 11
375.513183
 21
-56.171859
  0
LINE
  8
0
 62
     1
 10
383.651465
 20
-111.557666
 11
463.651465
 21
-111.557666
  0
LINE
  8
0
 62
     1
 10
383.651465
 20
-111.557666
 11
383.651465
 21
-103.557666
  0
LINE
  8
0
 62
     1
 10
463.651465
 20
-103.557666
 11
383.651465
 21
-103.557666
  0
LINE
  8
0
 62
     1
 10
463.651465
 20
-103.557666
 11
463.651465
 21
-111.557666
  0
LINE
  8
0
 62
     1
 10
463.651465
 20
-111.557666
 11
383.651465
 21
-111.557666
  0
ARC
  8
0
 62
     1
 10
423.651465
 20
-38.658841
 40
8.000000
 50
39.097094
 51
39.117202
  0
LINE
  8
0
 62
     1
 10
383.651465
 20
-31.557666
 11
383.651465
 21
-103.557666
  0
ARC
  8
0
 62
     1
 10
423.651465
 20
-31.557666
 40
40.000000
 50
90.000000
 51
180.000000
  0
ARC
  8
0
 62
     1
 10
423.651465
 20
-31.557666
 40
40.000000
 50
0.000000
 51
90.000000
  0
LINE
  8
0
 62
     1
 10
463.651465
 20
-31.557666
 11
463.651465
 21
-103.557666
  0
LINE
  8
0
 62
     1
 10
291.559407
 20
29.961794
 11
305.159407
 21
53.517685
  0
LINE
  8
0
 62
     1
 10
348.460677
 20
28.517685
 11
334.860677
 21
4.961794
  0
LINE
  8
0
 62
     1
 10
291.559407
 20
29.961794
 11
334.860677
 21
4.961794
  0
LINE
  8
0
 62
     1
 10
305.159407
 20
53.517685
 11
348.460677
 21
28.517685
  0
LINE
  8
0
 62
     1
 10
108.854075
 20
-15.088607
 11
108.854075
 21
-16.588607
  0
LINE
  8
0
 62
     1
 10
138.854075
 20
-15.088607
 11
138.854075
 21
-16.588607
  0
LINE
  8
0
 62
     1
 10
128.579763
 20
-21.207089
 11
128.576422
 21
-21.209235
  0
LINE
  8
0
 62
     1
 10
131.988067
 20
-17.225455
 11
131.985322
 21
-17.232101
  0
LINE
  8
0
 62
     1
 10
135.701386
 20
-24.535177
 11
136.326119
 21
-23.805676
  0
LINE
  8
0
 62
     1
 10
136.326119
 20
-23.805676
 11
137.082894
 21
-22.712230
  0
LINE
  8
0
 62
     1
 10
137.082894
 20
-22.712230
 11
137.712268
 21
-21.559811
  0
LINE
  8
0
 62
     1
 10
137.712268
 20
-21.559811
 11
138.208180
 21
-20.359516
  0
LINE
  8
0
 62
     1
 10
138.208180
 20
-20.359516
 11
138.565854
 21
-19.122905
  0
LINE
  8
0
 62
     1
 10
138.565854
 20
-19.122905
 11
138.781846
 21
-17.861887
  0
LINE
  8
0
 62
     1
 10
138.781846
 20
-17.861887
 11
138.854075
 21
-16.588607
  0
LINE
  8
0
 62
     1
 10
138.854075
 20
-16.588607
 11
138.781846
 21
-15.315327
  0
LINE
  8
0
 62
     1
 10
138.781846
 20
-15.315327
 11
138.565854
 21
-14.054310
  0
LINE
  8
0
 62
     1
 10
138.565854
 20
-14.054310
 11
138.208180
 21
-12.817699
  0
LINE
  8
0
 62
     1
 10
138.208180
 20
-12.817699
 11
137.712268
 21
-11.617404
  0
LINE
  8
0
 62
     1
 10
137.712268
 20
-11.617404
 11
137.082894
 21
-10.464984
  0
LINE
  8
0
 62
     1
 10
137.082894
 20
-10.464984
 11
136.326119
 21
-9.371538
  0
LINE
  8
0
 62
     1
 10
136.326119
 20
-9.371538
 11
135.449231
 21
-8.347597
  0
LINE
  8
0
 62
     1
 10
135.449231
 20
-8.347597
 11
134.460676
 21
-7.403021
  0
LINE
  8
0
 62
     1
 10
134.460676
 20
-7.403021
 11
133.369974
 21
-6.546907
  0
LINE
  8
0
 62
     1
 10
133.369974
 20
-6.546907
 11
132.187628
 21
-5.787500
  0
LINE
  8
0
 62
     1
 10
132.187628
 20
-5.787500
 11
130.925026
 21
-5.132114
  0
LINE
  8
0
 62
     1
 10
130.925026
 20
-5.132114
 11
129.594326
 21
-4.587060
  0
LINE
  8
0
 62
     1
 10
129.594326
 20
-4.587060
 11
128.208345
 21
-4.157588
  0
LINE
  8
0
 62
     1
 10
128.208345
 20
-4.157588
 11
126.780429
 21
-3.847833
  0
LINE
  8
0
 62
     1
 10
126.780429
 20
-3.847833
 11
125.324332
 21
-3.660778
  0
LINE
  8
0
 62
     1
 10
125.324332
 20
-3.660778
 11
123.854075
 21
-3.598226
  0
LINE
  8
0
 62
     1
 10
123.854075
 20
-3.598226
 11
122.383818
 21
-3.660778
  0
LINE
  8
0
 62
     1
 10
122.383818
 20
-3.660778
 11
120.927720
 21
-3.847833
  0
LINE
  8
0
 62
     1
 10
120.927720
 20
-3.847833
 11
119.499804
 21
-4.157588
  0
LINE
  8
0
 62
     1
 10
119.499804
 20
-4.157588
 11
118.113823
 21
-4.587060
  0
LINE
  8
0
 62
     1
 10
118.113823
 20
-4.587060
 11
116.783124
 21
-5.132114
  0
LINE
  8
0
 62
     1
 10
116.783124
 20
-5.132114
 11
115.520521
 21
-5.787500
  0
LINE
  8
0
 62
     1
 10
115.520521
 20
-5.787500
 11
114.338175
 21
-6.546907
  0
LINE
  8
0
 62
     1
 10
114.338175
 20
-6.546907
 11
113.247473
 21
-7.403021
  0
LINE
  8
0
 62
     1
 10
113.247473
 20
-7.403021
 11
112.258918
 21
-8.347597
  0
LINE
  8
0
 62
     1
 10
112.258918
 20
-8.347597
 11
111.382030
 21
-9.371538
  0
LINE
  8
0
 62
     1
 10
111.382030
 20
-9.371538
 11
110.625256
 21
-10.464984
  0
LINE
  8
0
 62
     1
 10
110.625256
 20
-10.464984
 11
109.995882
 21
-11.617404
  0
LINE
  8
0
 62
     1
 10
109.995882
 20
-11.617404
 11
109.499970
 21
-12.817699
  0
LINE
  8
0
 62
     1
 10
109.499970
 20
-12.817699
 11
109.142295
 21
-14.054310
  0
LINE
  8
0
 62
     1
 10
109.142295
 20
-14.054310
 11
108.926304
 21
-15.315327
  0
LINE
  8
0
 62
     1
 10
108.926304
 20
-15.315327
 11
108.854075
 21
-16.588607
  0
LINE
  8
0
 62
     1
 10
108.854075
 20
-16.588607
 11
108.926304
 21
-17.861887
  0
LINE
  8
0
 62
     1
 10
108.926304
 20
-17.861887
 11
109.142295
 21
-19.122905
  0
LINE
  8
0
 62
     1
 10
109.142295
 20
-19.122905
 11
109.499970
 21
-20.359516
  0
LINE
  8
0
 62
     1
 10
109.499970
 20
-20.359516
 11
109.995882
 21
-21.559811
  0
LINE
  8
0
 62
     1
 10
109.995882
 20
-21.559811
 11
110.625256
 21
-22.712230
  0
LINE
  8
0
 62
     1
 10
110.625256
 20
-22.712230
 11
111.382030
 21
-23.805676
  0
LINE
  8
0
 62
     1
 10
111.382030
 20
-23.805676
 11
112.006764
 21
-24.535177
  0
LINE
  8
0
 62
     1
 10
108.854075
 20
-15.088607
 11
108.926304
 21
-13.815327
  0
LINE
  8
0
 62
     1
 10
108.926304
 20
-13.815327
 11
109.142295
 21
-12.554310
  0
LINE
  8
0
 62
     1
 10
109.142295
 20
-12.554310
 11
109.499970
 21
-11.317699
  0
LINE
  8
0
 62
     1
 10
109.499970
 20
-11.317699
 11
109.995882
 21
-10.117404
  0
LINE
  8
0
 62
     1
 10
109.995882
 20
-10.117404
 11
110.625256
 21
-8.964984
  0
LINE
  8
0
 62
     1
 10
110.625256
 20
-8.964984
 11
111.382030
 21
-7.871538
  0
LINE
  8
0
 62
     1
 10
111.382030
 20
-7.871538
 11
112.258918
 21
-6.847597
  0
LINE
  8
0
 62
     1
 10
112.258918
 20
-6.847597
 11
113.247473
 21
-5.903021
  0
LINE
  8
0
 62
     1
 10
113.247473
 20
-5.903021
 11
114.338175
 21
-5.046907
  0
LINE
  8
0
 62
     1
 10
114.338175
 20
-5.046907
 11
115.520521
 21
-4.287500
  0
LINE
  8
0
 62
     1
 10
115.520521
 20
-4.287500
 11
116.783124
 21
-3.632114
  0
LINE
  8
0
 62
     1
 10
116.783124
 20
-3.632114
 11
118.113823
 21
-3.087060
  0
LINE
  8
0
 62
     1
 10
118.113823
 20
-3.087060
 11
119.499804
 21
-2.657588
  0
LINE
  8
0
 62
     1
 10
119.499804
 20
-2.657588
 11
120.927720
 21
-2.347833
  0
LINE
  8
0
 62
     1
 10
120.927720
 20
-2.347833
 11
122.383818
 21
-2.160778
  0
LINE
  8
0
 62
     1
 10
122.383818
 20
-2.160778
 11
123.854075
 21
-2.098226
  0
LINE
  8
0
 62
     1
 10
123.854075
 20
-2.098226
 11
125.324332
 21
-2.160778
  0
LINE
  8
0
 62
     1
 10
125.324332
 20
-2.160778
 11
126.780429
 21
-2.347833
  0
LINE
  8
0
 62
     1
 10
126.780429
 20
-2.347833
 11
128.208345
 21
-2.657588
  0
LINE
  8
0
 62
     1
 10
128.208345
 20
-2.657588
 11
129.594326
 21
-3.087060
  0
LINE
  8
0
 62
     1
 10
129.594326
 20
-3.087060
 11
130.925026
 21
-3.632114
  0
LINE
  8
0
 62
     1
 10
130.925026
 20
-3.632114
 11
132.187628
 21
-4.287500
  0
LINE
  8
0
 62
     1
 10
132.187628
 20
-4.287500
 11
133.369974
 21
-5.046907
  0
LINE
  8
0
 62
     1
 10
133.369974
 20
-5.046907
 11
134.460676
 21
-5.903021
  0
LINE
  8
0
 62
     1
 10
134.460676
 20
-5.903021
 11
135.449231
 21
-6.847597
  0
LINE
  8
0
 62
     1
 10
135.449231
 20
-6.847597
 11
136.326119
 21
-7.871538
  0
LINE
  8
0
 62
     1
 10
136.326119
 20
-7.871538
 11
137.082894
 21
-8.964984
  0
LINE
  8
0
 62
     1
 10
137.082894
 20
-8.964984
 11
137.712268
 21
-10.117404
  0
LINE
  8
0
 62
     1
 10
137.712268
 20
-10.117404
 11
138.208180
 21
-11.317699
  0
LINE
  8
0
 62
     1
 10
138.208180
 20
-11.317699
 11
138.565854
 21
-12.554310
  0
LINE
  8
0
 62
     1
 10
138.565854
 20
-12.554310
 11
138.781846
 21
-13.815327
  0
LINE
  8
0
 62
     1
 10
138.781846
 20
-13.815327
 11
138.854075
 21
-15.088607
  0
LINE
  8
0
 62
     1
 10
182.359407
 20
-30.658841
 11
190.477007
 21
-30.658841
  0
LINE
  8
0
 62
     1
 10
158.854075
 20
-30.658841
 11
160.559407
 21
-30.658841
  0
LINE
  8
0
 62
     1
 10
153.559407
 20
-30.658841
 11
154.854075
 21
-30.658841
  0
LINE
  8
0
 62
     1
 10
182.359407
 20
-46.658841
 11
190.477007
 21
-46.658841
  0
LINE
  8
0
 62
     1
 10
158.854075
 20
-46.658841
 11
160.559407
 21
-46.658841
  0
LINE
  8
0
 62
     1
 10
153.559407
 20
-46.658841
 11
154.854075
 21
-46.658841
  0
LINE
  8
0
 62
     1
 10
88.854075
 20
-46.658841
 11
88.559407
 21
-46.658841
  0
LINE
  8
0
 62
     1
 10
153.559407
 20
-46.658841
 11
92.854075
 21
-46.658841
  0
LINE
  8
0
 62
     6
 10
154.854075
 20
-45.576441
 11
153.559407
 21
-45.576441
  0
LINE
  8
0
 62
     6
 10
160.559407
 20
-45.576441
 11
158.854075
 21
-45.576441
  0
LINE
  8
0
 62
     6
 10
191.559407
 20
-45.576441
 11
182.359407
 21
-45.576441
  0
LINE
  8
0
 62
     1
 10
88.854075
 20
-30.658841
 11
88.559407
 21
-30.658841
  0
LINE
  8
0
 62
     1
 10
153.559407
 20
-30.658841
 11
92.854075
 21
-30.658841
  0
LINE
  8
0
 62
     6
 10
154.854075
 20
-31.741241
 11
153.559407
 21
-31.741241
  0
LINE
  8
0
 62
     6
 10
160.559407
 20
-31.741241
 11
158.854075
 21
-31.741241
  0
LINE
  8
0
 62
     6
 10
191.559407
 20
-31.741241
 11
182.359407
 21
-31.741241
  0
LINE
  8
0
 62
     1
 10
71.559407
 20
-50.778841
 11
72.561835
 21
-52.515096
  0
LINE
  8
0
 62
     1
 10
71.559407
 20
-26.538841
 11
72.561835
 21
-24.802586
  0
LINE
  8
0
 62
     1
 10
190.477007
 20
-30.658841
 11
191.559407
 21
-31.741241
  0
LINE
  8
0
 62
     1
 10
190.477007
 20
-46.658841
 11
191.559407
 21
-45.576441
  0
LINE
  8
0
 62
     1
 10
190.477007
 20
-30.658841
 11
190.477007
 21
-31.730638
  0
LINE
  8
0
 62
     1
 10
190.477007
 20
-31.730638
 11
190.477007
 21
-46.658841
  0
LINE
  8
0
 62
     1
 10
71.559407
 20
-27.415901
 11
71.676000
 21
-26.867473
  0
LINE
  8
0
 62
     1
 10
71.676000
 20
-26.867473
 11
71.878465
 21
-26.229717
  0
LINE
  8
0
 62
     1
 10
71.878465
 20
-26.229717
 11
72.168123
 21
-25.547953
  0
LINE
  8
0
 62
     1
 10
72.168123
 20
-25.547953
 11
72.561835
 21
-24.802586
  0
LINE
  8
0
 62
     1
 10
72.561835
 20
-24.802586
 11
72.561835
 21
-24.802586
  0
LINE
  8
0
 62
     1
 10
72.561835
 20
-31.730958
 11
72.286725
 21
-31.225463
  0
LINE
  8
0
 62
     1
 10
72.286725
 20
-31.225463
 11
71.964683
 21
-30.524692
  0
LINE
  8
0
 62
     1
 10
71.964683
 20
-30.524692
 11
71.734531
 21
-29.874230
  0
LINE
  8
0
 62
     1
 10
71.734531
 20
-29.874230
 11
71.583941
 21
-29.257123
  0
LINE
  8
0
 62
     1
 10
71.583941
 20
-29.257123
 11
71.559407
 21
-29.117164
  0
LINE
  8
0
 62
     1
 10
72.561835
 20
-52.515096
 11
72.168123
 21
-51.769729
  0
LINE
  8
0
 62
     1
 10
72.168123
 20
-51.769729
 11
71.878465
 21
-51.087965
  0
LINE
  8
0
 62
     1
 10
71.878465
 20
-51.087965
 11
71.676000
 21
-50.450208
  0
LINE
  8
0
 62
     1
 10
71.676000
 20
-50.450208
 11
71.559405
 21
-49.901765
  0
LINE
  8
0
 62
     1
 10
71.559405
 20
-48.200535
 11
71.583941
 21
-48.060556
  0
LINE
  8
0
 62
     1
 10
71.583941
 20
-48.060556
 11
71.734531
 21
-47.443453
  0
LINE
  8
0
 62
     1
 10
71.734531
 20
-47.443453
 11
71.964683
 21
-46.792990
  0
LINE
  8
0
 62
     1
 10
71.964683
 20
-46.792990
 11
72.286725
 21
-46.092219
  0
LINE
  8
0
 62
     1
 10
72.286725
 20
-46.092219
 11
72.561835
 21
-45.586724
  0
LINE
  8
0
 62
     1
 10
72.561835
 20
-45.586724
 11
72.417702
 21
-45.072990
  0
LINE
  8
0
 62
     1
 10
72.417702
 20
-45.072990
 11
72.061033
 21
-43.629474
  0
LINE
  8
0
 62
     1
 10
72.061033
 20
-43.629474
 11
71.801890
 21
-42.299037
  0
LINE
  8
0
 62
     1
 10
71.801890
 20
-42.299037
 11
71.625900
 21
-41.045806
  0
LINE
  8
0
 62
     1
 10
71.625900
 20
-41.045806
 11
71.559405
 21
-40.360071
  0
LINE
  8
0
 62
     1
 10
71.559405
 20
-36.957611
 11
71.625900
 21
-36.271876
  0
LINE
  8
0
 62
     1
 10
71.625900
 20
-36.271876
 11
71.801891
 21
-35.018639
  0
LINE
  8
0
 62
     1
 10
71.801891
 20
-35.018639
 11
72.061031
 21
-33.688214
  0
LINE
  8
0
 62
     1
 10
72.061031
 20
-33.688214
 11
72.417702
 21
-32.244692
  0
LINE
  8
0
 62
     1
 10
72.417702
 20
-32.244692
 11
72.561835
 21
-31.730958
  0
LINE
  8
0
 62
     1
 10
71.559407
 20
-27.415889
 11
71.559407
 21
-26.538841
  0
LINE
  8
0
 62
     1
 10
71.559407
 20
-50.778841
 11
71.559407
 21
-49.901793
  0
LINE
  8
0
 62
     1
 10
71.559407
 20
-48.200499
 11
71.559407
 21
-40.360135
  0
LINE
  8
0
 62
     1
 10
71.559407
 20
-36.957547
 11
71.559407
 21
-29.117183
  0
LINE
  8
0
 62
     2
 10
153.559407
 20
-46.658841
 11
153.559407
 21
-31.730638
  0
LINE
  8
0
 62
     2
 10
153.559407
 20
-31.730638
 11
153.559407
 21
-30.658841
  0
LINE
  8
0
 62
     1
 10
191.559407
 20
-31.741241
 11
191.559407
 21
-45.576441
  0
LINE
  8
0
 62
     1
 10
71.559407
 20
-40.360135
 11
71.559407
 21
-36.957547
  0
LINE
  8
0
 62
     1
 10
71.559407
 20
-49.901793
 11
71.559407
 21
-48.200499
  0
LINE
  8
0
 62
     1
 10
71.559407
 20
-29.117183
 11
71.559407
 21
-27.415889
  0
LINE
  8
0
 62
     1
 10
81.559407
 20
-45.587044
 11
72.561835
 21
-45.587044
  0
LINE
  8
0
 62
     1
 10
81.559407
 20
-52.515247
 11
72.561835
 21
-52.515247
  0
LINE
  8
0
 62
     1
 10
81.559407
 20
-24.802434
 11
72.561835
 21
-24.802434
  0
LINE
  8
0
 62
     1
 10
81.559407
 20
-31.730638
 11
72.561835
 21
-31.730638
  0
LINE
  8
0
 62
     1
 10
181.356980
 20
-52.515096
 11
182.359407
 21
-50.778841
  0
LINE
  8
0
 62
     1
 10
181.356980
 20
-24.802586
 11
182.359407
 21
-26.538841
  0
LINE
  8
0
 62
     1
 10
167.559407
 20
-50.778841
 11
168.561835
 21
-52.515096
  0
LINE
  8
0
 62
     1
 10
167.559407
 20
-26.538841
 11
168.561835
 21
-24.802586
  0
LINE
  8
0
 62
     1
 10
182.359407
 20
-27.415901
 11
182.242815
 21
-26.867473
  0
LINE
  8
0
 62
     1
 10
182.242815
 20
-26.867473
 11
182.040350
 21
-26.229717
  0
LINE
  8
0
 62
     1
 10
182.040350
 20
-26.229717
 11
181.750692
 21
-25.547953
  0
LINE
  8
0
 62
     1
 10
181.750692
 20
-25.547953
 11
181.356980
 21
-24.802586
  0
LINE
  8
0
 62
     1
 10
181.356980
 20
-24.802586
 11
181.356980
 21
-24.802586
  0
LINE
  8
0
 62
     1
 10
181.356980
 20
-31.730958
 11
181.632089
 21
-31.225463
  0
LINE
  8
0
 62
     1
 10
181.632089
 20
-31.225463
 11
181.954132
 21
-30.524692
  0
LINE
  8
0
 62
     1
 10
181.954132
 20
-30.524692
 11
182.184284
 21
-29.874230
  0
LINE
  8
0
 62
     1
 10
182.184284
 20
-29.874230
 11
182.334874
 21
-29.257123
  0
LINE
  8
0
 62
     1
 10
182.334874
 20
-29.257123
 11
182.359407
 21
-29.117164
  0
LINE
  8
0
 62
     1
 10
182.359407
 20
-29.117183
 11
182.359407
 21
-36.957547
  0
LINE
  8
0
 62
     1
 10
182.359407
 20
-26.538841
 11
182.359407
 21
-27.415889
  0
LINE
  8
0
 62
     1
 10
182.359407
 20
-40.360135
 11
182.359407
 21
-48.200499
  0
LINE
  8
0
 62
     1
 10
182.359407
 20
-49.901793
 11
182.359407
 21
-50.778841
  0
LINE
  8
0
 62
     1
 10
181.356980
 20
-52.515096
 11
181.750692
 21
-51.769729
  0
LINE
  8
0
 62
     1
 10
181.750692
 20
-51.769729
 11
182.040350
 21
-51.087965
  0
LINE
  8
0
 62
     1
 10
182.040350
 20
-51.087965
 11
182.242815
 21
-50.450208
  0
LINE
  8
0
 62
     1
 10
182.242815
 20
-50.450208
 11
182.359407
 21
-49.901782
  0
LINE
  8
0
 62
     1
 10
182.359407
 20
-48.200518
 11
182.334873
 21
-48.060556
  0
LINE
  8
0
 62
     1
 10
182.334873
 20
-48.060556
 11
182.184284
 21
-47.443453
  0
LINE
  8
0
 62
     1
 10
182.184284
 20
-47.443453
 11
181.954132
 21
-46.792990
  0
LINE
  8
0
 62
     1
 10
181.954132
 20
-46.792990
 11
181.632089
 21
-46.092219
  0
LINE
  8
0
 62
     1
 10
181.632089
 20
-46.092219
 11
181.356980
 21
-45.586724
  0
LINE
  8
0
 62
     1
 10
181.356980
 20
-45.586724
 11
181.501112
 21
-45.072990
  0
LINE
  8
0
 62
     1
 10
181.501112
 20
-45.072990
 11
181.857782
 21
-43.629474
  0
LINE
  8
0
 62
     1
 10
181.857782
 20
-43.629474
 11
182.116925
 21
-42.299037
  0
LINE
  8
0
 62
     1
 10
182.116925
 20
-42.299037
 11
182.292914
 21
-41.045806
  0
LINE
  8
0
 62
     1
 10
182.292914
 20
-41.045806
 11
182.359407
 21
-40.360105
  0
LINE
  8
0
 62
     1
 10
182.359407
 20
-36.957577
 11
182.292914
 21
-36.271876
  0
LINE
  8
0
 62
     1
 10
182.292914
 20
-36.271876
 11
182.116924
 21
-35.018639
  0
LINE
  8
0
 62
     1
 10
182.116924
 20
-35.018639
 11
181.857783
 21
-33.688214
  0
LINE
  8
0
 62
     1
 10
181.857783
 20
-33.688214
 11
181.501112
 21
-32.244692
  0
LINE
  8
0
 62
     1
 10
181.501112
 20
-32.244692
 11
181.356980
 21
-31.730958
  0
LINE
  8
0
 62
     1
 10
167.559407
 20
-27.415901
 11
167.676000
 21
-26.867473
  0
LINE
  8
0
 62
     1
 10
167.676000
 20
-26.867473
 11
167.878465
 21
-26.229717
  0
LINE
  8
0
 62
     1
 10
167.878465
 20
-26.229717
 11
168.168123
 21
-25.547953
  0
LINE
  8
0
 62
     1
 10
168.168123
 20
-25.547953
 11
168.561835
 21
-24.802586
  0
LINE
  8
0
 62
     1
 10
168.561835
 20
-24.802586
 11
168.561835
 21
-24.802586
  0
LINE
  8
0
 62
     1
 10
168.561835
 20
-31.730958
 11
168.286725
 21
-31.225463
  0
LINE
  8
0
 62
     1
 10
168.286725
 20
-31.225463
 11
167.964683
 21
-30.524692
  0
LINE
  8
0
 62
     1
 10
167.964683
 20
-30.524692
 11
167.734531
 21
-29.874230
  0
LINE
  8
0
 62
     1
 10
167.734531
 20
-29.874230
 11
167.583941
 21
-29.257123
  0
LINE
  8
0
 62
     1
 10
167.583941
 20
-29.257123
 11
167.559407
 21
-29.117164
  0
LINE
  8
0
 62
     1
 10
168.561835
 20
-52.515096
 11
168.168123
 21
-51.769729
  0
LINE
  8
0
 62
     1
 10
168.168123
 20
-51.769729
 11
167.878465
 21
-51.087965
  0
LINE
  8
0
 62
     1
 10
167.878465
 20
-51.087965
 11
167.676000
 21
-50.450208
  0
LINE
  8
0
 62
     1
 10
167.676000
 20
-50.450208
 11
167.559407
 21
-49.901782
  0
LINE
  8
0
 62
     1
 10
167.559407
 20
-48.200518
 11
167.583941
 21
-48.060556
  0
LINE
  8
0
 62
     1
 10
167.583941
 20
-48.060556
 11
167.734531
 21
-47.443453
  0
LINE
  8
0
 62
     1
 10
167.734531
 20
-47.443453
 11
167.964683
 21
-46.792990
  0
LINE
  8
0
 62
     1
 10
167.964683
 20
-46.792990
 11
168.286725
 21
-46.092219
  0
LINE
  8
0
 62
     1
 10
168.286725
 20
-46.092219
 11
168.561835
 21
-45.586724
  0
LINE
  8
0
 62
     1
 10
168.561835
 20
-45.586724
 11
168.417702
 21
-45.072990
  0
LINE
  8
0
 62
     1
 10
168.417702
 20
-45.072990
 11
168.061033
 21
-43.629474
  0
LINE
  8
0
 62
     1
 10
168.061033
 20
-43.629474
 11
167.801890
 21
-42.299037
  0
LINE
  8
0
 62
     1
 10
167.801890
 20
-42.299037
 11
167.625900
 21
-41.045806
  0
LINE
  8
0
 62
     1
 10
167.625900
 20
-41.045806
 11
167.559407
 21
-40.360105
  0
LINE
  8
0
 62
     1
 10
167.559407
 20
-36.957577
 11
167.625900
 21
-36.271876
  0
LINE
  8
0
 62
     1
 10
167.625900
 20
-36.271876
 11
167.801891
 21
-35.018639
  0
LINE
  8
0
 62
     1
 10
167.801891
 20
-35.018639
 11
168.061031
 21
-33.688214
  0
LINE
  8
0
 62
     1
 10
168.061031
 20
-33.688214
 11
168.417702
 21
-32.244692
  0
LINE
  8
0
 62
     1
 10
168.417702
 20
-32.244692
 11
168.561835
 21
-31.730958
  0
LINE
  8
0
 62
     1
 10
168.561835
 20
-24.802434
 11
181.356980
 21
-24.802434
  0
LINE
  8
0
 62
     1
 10
168.561835
 20
-31.730638
 11
181.356980
 21
-31.730638
  0
LINE
  8
0
 62
     1
 10
168.561835
 20
-45.587044
 11
181.356980
 21
-45.587044
  0
LINE
  8
0
 62
     1
 10
168.561835
 20
-52.515247
 11
181.356980
 21
-52.515247
  0
LINE
  8
0
 62
     1
 10
182.359407
 20
-27.415889
 11
182.359407
 21
-29.117183
  0
LINE
  8
0
 62
     1
 10
182.359407
 20
-36.957554
 11
182.359407
 21
-40.360128
  0
LINE
  8
0
 62
     1
 10
182.359407
 20
-48.200502
 11
182.359407
 21
-49.901789
  0
LINE
  8
0
 62
     1
 10
164.559407
 20
-53.658841
 11
167.559407
 21
-53.658841
  0
LINE
  8
0
 62
     1
 10
164.559407
 20
-23.658841
 11
167.559407
 21
-23.658841
  0
LINE
  8
0
 62
     1
 10
167.559407
 20
-23.658841
 11
167.559407
 21
-53.658841
  0
LINE
  8
0
 62
     1
 10
84.559407
 20
-23.658841
 11
81.559407
 21
-23.658841
  0
LINE
  8
0
 62
     1
 10
84.559407
 20
-53.658841
 11
81.559407
 21
-53.658841
  0
LINE
  8
0
 62
     1
 10
81.559407
 20
-53.658841
 11
81.559407
 21
-23.658841
  0
LINE
  8
0
 62
     1
 10
115.854075
 20
16.311593
 11
115.854075
 21
16.739739
  0
LINE
  8
0
 62
     1
 10
131.854075
 20
16.311593
 11
131.854075
 21
16.739739
  0
LINE
  8
0
 62
     1
 10
122.152812
 20
-11.196299
 11
121.467110
 21
-11.162992
  0
LINE
  8
0
 62
     1
 10
121.467110
 20
-11.162992
 11
120.213872
 21
-11.075048
  0
LINE
  8
0
 62
     1
 10
120.213872
 20
-11.075048
 11
118.883448
 21
-10.945390
  0
LINE
  8
0
 62
     1
 10
118.883448
 20
-10.945390
 11
117.439927
 21
-10.767208
  0
LINE
  8
0
 62
     1
 10
117.439927
 20
-10.767208
 11
116.925702
 21
-10.695325
  0
LINE
  8
0
 62
     1
 10
130.782447
 20
-10.695325
 11
130.268222
 21
-10.767208
  0
LINE
  8
0
 62
     1
 10
130.268222
 20
-10.767208
 11
128.824708
 21
-10.945389
  0
LINE
  8
0
 62
     1
 10
128.824708
 20
-10.945389
 11
127.494271
 21
-11.075048
  0
LINE
  8
0
 62
     1
 10
127.494271
 20
-11.075048
 11
126.241040
 21
-11.162992
  0
LINE
  8
0
 62
     1
 10
126.241040
 20
-11.162992
 11
125.555337
 21
-11.196299
  0
LINE
  8
0
 62
     1
 10
116.925702
 20
-10.695325
 11
116.420696
 21
-11.590531
  0
LINE
  8
0
 62
     1
 10
116.420696
 20
-11.590531
 11
115.719925
 21
-12.802342
  0
LINE
  8
0
 62
     1
 10
115.719925
 20
-12.802342
 11
115.069464
 21
-13.893340
  0
LINE
  8
0
 62
     1
 10
115.069464
 20
-13.893340
 11
114.452356
 21
-14.894242
  0
LINE
  8
0
 62
     1
 10
114.452356
 20
-14.894242
 11
114.312381
 21
-15.116532
  0
LINE
  8
0
 62
     1
 10
112.611151
 20
-17.668377
 11
112.062707
 21
-18.432654
  0
LINE
  8
0
 62
     1
 10
112.062707
 20
-18.432654
 11
111.424951
 21
-19.288003
  0
LINE
  8
0
 62
     1
 10
111.424951
 20
-19.288003
 11
110.743187
 21
-20.165943
  0
LINE
  8
0
 62
     1
 10
110.743187
 20
-20.165943
 11
109.997820
 21
-21.087149
  0
LINE
  8
0
 62
     1
 10
109.997820
 20
-21.087149
 11
109.997820
 21
-21.087638
  0
LINE
  8
0
 62
     1
 10
109.997820
 20
-21.087638
 11
110.743187
 21
-22.402556
  0
LINE
  8
0
 62
     1
 10
110.743187
 20
-22.402556
 11
111.424951
 21
-23.570154
  0
LINE
  8
0
 62
     1
 10
111.424951
 20
-23.570154
 11
112.062707
 21
-24.627968
  0
LINE
  8
0
 62
     1
 10
112.062707
 20
-24.627968
 11
112.611151
 21
-25.508840
  0
LINE
  8
0
 62
     1
 10
114.312381
 20
-28.060685
 11
114.452359
 21
-28.258444
  0
LINE
  8
0
 62
     1
 10
114.452359
 20
-28.258444
 11
115.069462
 21
-29.108749
  0
LINE
  8
0
 62
     1
 10
115.069462
 20
-29.108749
 11
115.719925
 21
-29.969597
  0
LINE
  8
0
 62
     1
 10
115.719925
 20
-29.969597
 11
116.262766
 21
-30.658841
  0
LINE
  8
0
 62
     1
 10
131.445383
 20
-30.658841
 11
131.988224
 21
-29.969597
  0
LINE
  8
0
 62
     1
 10
131.988224
 20
-29.969597
 11
132.638686
 21
-29.108751
  0
LINE
  8
0
 62
     1
 10
132.638686
 20
-29.108751
 11
133.255793
 21
-28.258439
  0
LINE
  8
0
 62
     1
 10
133.255793
 20
-28.258439
 11
133.395768
 21
-28.060685
  0
LINE
  8
0
 62
     1
 10
135.096998
 20
-25.508840
 11
135.645442
 21
-24.627968
  0
LINE
  8
0
 62
     1
 10
135.645442
 20
-24.627968
 11
136.283199
 21
-23.570154
  0
LINE
  8
0
 62
     1
 10
136.283199
 20
-23.570154
 11
136.964963
 21
-22.402556
  0
LINE
  8
0
 62
     1
 10
136.964963
 20
-22.402556
 11
137.710330
 21
-21.087638
  0
LINE
  8
0
 62
     1
 10
137.710330
 20
-21.087638
 11
137.710330
 21
-21.087149
  0
LINE
  8
0
 62
     1
 10
137.710330
 20
-21.087149
 11
136.964963
 21
-20.165943
  0
LINE
  8
0
 62
     1
 10
136.964963
 20
-20.165943
 11
136.283199
 21
-19.288003
  0
LINE
  8
0
 62
     1
 10
136.283199
 20
-19.288003
 11
135.645442
 21
-18.432654
  0
LINE
  8
0
 62
     1
 10
135.645442
 20
-18.432654
 11
135.096998
 21
-17.668377
  0
LINE
  8
0
 62
     1
 10
133.395768
 20
-15.116532
 11
133.255790
 21
-14.894237
  0
LINE
  8
0
 62
     1
 10
133.255790
 20
-14.894237
 11
132.638687
 21
-13.893343
  0
LINE
  8
0
 62
     1
 10
132.638687
 20
-13.893343
 11
131.988224
 21
-12.802342
  0
LINE
  8
0
 62
     1
 10
131.988224
 20
-12.802342
 11
131.287453
 21
-11.590531
  0
LINE
  8
0
 62
     1
 10
131.287453
 20
-11.590531
 11
130.782447
 21
-10.695325
  0
LINE
  8
0
 62
     1
 10
122.152781
 20
-11.196302
 11
121.489590
 21
-11.294060
  0
LINE
  8
0
 62
     1
 10
121.489590
 20
-11.294060
 11
120.335867
 21
-11.544332
  0
LINE
  8
0
 62
     1
 10
120.335867
 20
-11.544332
 11
119.215975
 21
-11.891349
  0
LINE
  8
0
 62
     1
 10
119.215975
 20
-11.891349
 11
118.140752
 21
-12.331758
  0
LINE
  8
0
 62
     1
 10
118.140752
 20
-12.331758
 11
117.120553
 21
-12.861319
  0
LINE
  8
0
 62
     1
 10
117.120553
 20
-12.861319
 11
116.165204
 21
-13.474931
  0
LINE
  8
0
 62
     1
 10
116.165204
 20
-13.474931
 11
115.283905
 21
-14.166684
  0
LINE
  8
0
 62
     1
 10
115.283905
 20
-14.166684
 11
114.485204
 21
-14.929853
  0
LINE
  8
0
 62
     1
 10
114.485204
 20
-14.929853
 11
114.312417
 21
-15.116485
  0
LINE
  8
0
 62
     1
 10
129.926912
 20
-30.658841
 11
130.587596
 21
-30.315896
  0
LINE
  8
0
 62
     1
 10
130.587596
 20
-30.315896
 11
131.542946
 21
-29.702284
  0
LINE
  8
0
 62
     1
 10
131.542946
 20
-29.702284
 11
132.424245
 21
-29.010530
  0
LINE
  8
0
 62
     1
 10
132.424245
 20
-29.010530
 11
133.222945
 21
-28.247361
  0
LINE
  8
0
 62
     1
 10
133.222945
 20
-28.247361
 11
133.395733
 21
-28.060730
  0
LINE
  8
0
 62
     1
 10
112.611123
 20
-17.668425
 11
112.255971
 21
-18.541674
  0
LINE
  8
0
 62
     1
 10
112.255971
 20
-18.541674
 11
111.966964
 21
-19.540863
  0
LINE
  8
0
 62
     1
 10
111.966964
 20
-19.540863
 11
111.792438
 21
-20.559781
  0
LINE
  8
0
 62
     1
 10
111.792438
 20
-20.559781
 11
111.734075
 21
-21.588607
  0
LINE
  8
0
 62
     1
 10
111.734075
 20
-21.588607
 11
111.792438
 21
-22.617434
  0
LINE
  8
0
 62
     1
 10
111.792438
 20
-22.617434
 11
111.966964
 21
-23.636352
  0
LINE
  8
0
 62
     1
 10
111.966964
 20
-23.636352
 11
112.255971
 21
-24.635540
  0
LINE
  8
0
 62
     1
 10
112.255971
 20
-24.635540
 11
112.611123
 21
-25.508789
  0
LINE
  8
0
 62
     1
 10
114.312417
 20
-28.060730
 11
114.485204
 21
-28.247361
  0
LINE
  8
0
 62
     1
 10
114.485204
 20
-28.247361
 11
115.283905
 21
-29.010530
  0
LINE
  8
0
 62
     1
 10
115.283905
 20
-29.010530
 11
116.165204
 21
-29.702284
  0
LINE
  8
0
 62
     1
 10
116.165204
 20
-29.702284
 11
117.120553
 21
-30.315896
  0
LINE
  8
0
 62
     1
 10
117.120553
 20
-30.315896
 11
117.781237
 21
-30.658841
  0
LINE
  8
0
 62
     1
 10
135.097026
 20
-25.508789
 11
135.452178
 21
-24.635540
  0
LINE
  8
0
 62
     1
 10
135.452178
 20
-24.635540
 11
135.741185
 21
-23.636352
  0
LINE
  8
0
 62
     1
 10
135.741185
 20
-23.636352
 11
135.915712
 21
-22.617434
  0
LINE
  8
0
 62
     1
 10
135.915712
 20
-22.617434
 11
135.974075
 21
-21.588607
  0
LINE
  8
0
 62
     1
 10
135.974075
 20
-21.588607
 11
135.915712
 21
-20.559781
  0
LINE
  8
0
 62
     1
 10
135.915712
 20
-20.559781
 11
135.741185
 21
-19.540863
  0
LINE
  8
0
 62
     1
 10
135.741185
 20
-19.540863
 11
135.452178
 21
-18.541674
  0
LINE
  8
0
 62
     1
 10
135.452178
 20
-18.541674
 11
135.097026
 21
-17.668425
  0
LINE
  8
0
 62
     1
 10
133.395733
 20
-15.116485
 11
133.222945
 21
-14.929853
  0
LINE
  8
0
 62
     1
 10
133.222945
 20
-14.929853
 11
132.424245
 21
-14.166684
  0
LINE
  8
0
 62
     1
 10
132.424245
 20
-14.166684
 11
131.542946
 21
-13.474931
  0
LINE
  8
0
 62
     1
 10
131.542946
 20
-13.474931
 11
130.587596
 21
-12.861319
  0
LINE
  8
0
 62
     1
 10
130.587596
 20
-12.861319
 11
129.567398
 21
-12.331758
  0
LINE
  8
0
 62
     1
 10
129.567398
 20
-12.331758
 11
128.492175
 21
-11.891349
  0
LINE
  8
0
 62
     1
 10
128.492175
 20
-11.891349
 11
127.372283
 21
-11.544332
  0
LINE
  8
0
 62
     1
 10
127.372283
 20
-11.544332
 11
126.218559
 21
-11.294060
  0
LINE
  8
0
 62
     1
 10
126.218559
 20
-11.294060
 11
125.555368
 21
-11.196302
  0
LINE
  8
0
 62
     1
 10
135.097026
 20
-17.668425
 11
133.395733
 21
-15.116485
  0
LINE
  8
0
 62
     1
 10
133.395733
 20
-28.060730
 11
135.097026
 21
-25.508789
  0
LINE
  8
0
 62
     1
 10
112.611123
 20
-25.508789
 11
114.312417
 21
-28.060730
  0
LINE
  8
0
 62
     1
 10
114.312417
 20
-15.116485
 11
112.611123
 21
-17.668425
  0
LINE
  8
0
 62
     1
 10
125.555368
 20
-11.196302
 11
122.152781
 21
-11.196302
  0
LINE
  8
0
 62
     1
 10
137.710481
 20
-16.588607
 11
130.782278
 21
-6.196302
  0
LINE
  8
0
 62
     1
 10
116.925871
 20
-6.196302
 11
109.997668
 21
-16.588607
  0
LINE
  8
0
 62
     1
 10
130.782278
 20
-6.196302
 11
116.925871
 21
-6.196302
  0
LINE
  8
0
 62
     1
 10
137.710481
 20
-16.588607
 11
137.710481
 21
-21.087394
  0
LINE
  8
0
 62
     1
 10
109.997668
 20
-16.588607
 11
109.997668
 21
-21.087394
  0
LINE
  8
0
 62
     1
 10
116.925871
 20
-6.196302
 11
116.925871
 21
-10.695089
  0
LINE
  8
0
 62
     1
 10
130.782278
 20
-6.196302
 11
130.782278
 21
-10.695089
  0
LINE
  8
0
 62
     1
 10
154.854075
 20
-78.658841
 11
158.854075
 21
-78.658841
  0
LINE
  8
0
 62
     1
 10
88.854075
 20
-78.658841
 11
92.854075
 21
-78.658841
  0
LINE
  8
0
 62
     1
 10
92.854075
 20
-59.468516
 11
92.854075
 21
-78.658841
  0
LINE
  8
0
 62
     1
 10
88.854075
 20
-78.658841
 11
88.854075
 21
-59.468516
  0
LINE
  8
0
 62
     1
 10
92.854263
 20
-56.151690
 11
92.876812
 21
-55.950296
  0
LINE
  8
0
 62
     1
 10
92.876812
 20
-55.950296
 11
92.936697
 21
-55.751089
  0
LINE
  8
0
 62
     1
 10
92.936697
 20
-55.751089
 11
93.033427
 21
-55.555719
  0
LINE
  8
0
 62
     1
 10
93.033427
 20
-55.555719
 11
93.166062
 21
-55.366146
  0
LINE
  8
0
 62
     1
 10
93.166062
 20
-55.366146
 11
93.333251
 21
-55.184248
  0
LINE
  8
0
 62
     1
 10
93.333251
 20
-55.184248
 11
93.533622
 21
-55.011522
  0
LINE
  8
0
 62
     1
 10
93.533622
 20
-55.011522
 11
93.765050
 21
-54.849797
  0
LINE
  8
0
 62
     1
 10
93.765050
 20
-54.849797
 11
94.025648
 21
-54.700393
  0
LINE
  8
0
 62
     1
 10
94.025648
 20
-54.700393
 11
94.312830
 21
-54.564819
  0
LINE
  8
0
 62
     1
 10
94.312830
 20
-54.564819
 11
94.623695
 21
-54.444421
  0
LINE
  8
0
 62
     1
 10
94.623695
 20
-54.444421
 11
94.955706
 21
-54.340180
  0
LINE
  8
0
 62
     1
 10
94.955706
 20
-54.340180
 11
95.305346
 21
-54.253200
  0
LINE
  8
0
 62
     1
 10
95.305346
 20
-54.253200
 11
95.669740
 21
-54.184198
  0
LINE
  8
0
 62
     1
 10
95.669740
 20
-54.184198
 11
96.045277
 21
-54.133875
  0
LINE
  8
0
 62
     1
 10
96.045277
 20
-54.133875
 11
96.428189
 21
-54.102720
  0
LINE
  8
0
 62
     1
 10
96.428189
 20
-54.102720
 11
96.815306
 21
-54.090989
  0
LINE
  8
0
 62
     1
 10
96.815306
 20
-54.090989
 11
96.854075
 21
-54.090892
  0
LINE
  8
0
 62
     1
 10
96.854075
 20
14.230625
 11
96.815306
 21
14.230527
  0
LINE
  8
0
 62
     1
 10
96.815306
 20
14.230527
 11
96.428189
 21
14.218796
  0
LINE
  8
0
 62
     1
 10
96.428189
 20
14.218796
 11
96.045277
 21
14.187642
  0
LINE
  8
0
 62
     1
 10
96.045277
 20
14.187642
 11
95.669740
 21
14.137319
  0
LINE
  8
0
 62
     1
 10
95.669740
 20
14.137319
 11
95.305346
 21
14.068316
  0
LINE
  8
0
 62
     1
 10
95.305346
 20
14.068316
 11
94.955706
 21
13.981337
  0
LINE
  8
0
 62
     1
 10
94.955706
 20
13.981337
 11
94.623695
 21
13.877096
  0
LINE
  8
0
 62
     1
 10
94.623695
 20
13.877096
 11
94.312830
 21
13.756698
  0
LINE
  8
0
 62
     1
 10
94.312830
 20
13.756698
 11
94.025648
 21
13.621124
  0
LINE
  8
0
 62
     1
 10
94.025648
 20
13.621124
 11
93.765050
 21
13.471720
  0
LINE
  8
0
 62
     1
 10
93.765050
 20
13.471720
 11
93.533622
 21
13.309995
  0
LINE
  8
0
 62
     1
 10
93.533622
 20
13.309995
 11
93.333251
 21
13.137269
  0
LINE
  8
0
 62
     1
 10
93.333251
 20
13.137269
 11
93.166062
 21
12.955371
  0
LINE
  8
0
 62
     1
 10
93.166062
 20
12.955371
 11
93.033427
 21
12.765798
  0
LINE
  8
0
 62
     1
 10
93.033427
 20
12.765798
 11
92.936697
 21
12.570428
  0
LINE
  8
0
 62
     1
 10
92.936697
 20
12.570428
 11
92.876812
 21
12.371221
  0
LINE
  8
0
 62
     1
 10
92.876812
 20
12.371221
 11
92.854263
 21
12.169827
  0
LINE
  8
0
 62
     1
 10
92.854263
 20
12.169827
 11
92.854075
 21
12.149658
  0
LINE
  8
0
 62
     1
 10
96.854075
 20
-30.658841
 11
96.854075
 21
14.230625
  0
LINE
  8
0
 62
     1
 10
96.854075
 20
-54.090892
 11
96.854075
 21
-46.658841
  0
LINE
  8
0
 62
     1
 10
96.854075
 20
16.311593
 11
96.776561
 21
16.311397
  0
LINE
  8
0
 62
     1
 10
96.776561
 20
16.311397
 11
96.002509
 21
16.287947
  0
LINE
  8
0
 62
     1
 10
96.002509
 20
16.287947
 11
95.236252
 21
16.225601
  0
LINE
  8
0
 62
     1
 10
95.236252
 20
16.225601
 11
94.485420
 21
16.124982
  0
LINE
  8
0
 62
     1
 10
94.485420
 20
16.124982
 11
93.756836
 21
15.987023
  0
LINE
  8
0
 62
     1
 10
93.756836
 20
15.987023
 11
93.057337
 21
15.813017
  0
LINE
  8
0
 62
     1
 10
93.057337
 20
15.813017
 11
92.393309
 21
15.604533
  0
LINE
  8
0
 62
     1
 10
92.393309
 20
15.604533
 11
91.771394
 21
15.363656
  0
LINE
  8
0
 62
     1
 10
91.771394
 20
15.363656
 11
91.197220
 21
15.092590
  0
LINE
  8
0
 62
     1
 10
91.197220
 20
15.092590
 11
90.676182
 21
14.793881
  0
LINE
  8
0
 62
     1
 10
90.676182
 20
14.793881
 11
90.213173
 21
14.470335
  0
LINE
  8
0
 62
     1
 10
90.213173
 20
14.470335
 11
89.812428
 21
14.124880
  0
LINE
  8
0
 62
     1
 10
89.812428
 20
14.124880
 11
89.477957
 21
13.760971
  0
LINE
  8
0
 62
     1
 10
89.477957
 20
13.760971
 11
89.212774
 21
13.381931
  0
LINE
  8
0
 62
     1
 10
89.212774
 20
13.381931
 11
89.019367
 21
12.991317
  0
LINE
  8
0
 62
     1
 10
89.019367
 20
12.991317
 11
88.899527
 21
12.592678
  0
LINE
  8
0
 62
     1
 10
88.899527
 20
12.592678
 11
88.854450
 21
12.189983
  0
LINE
  8
0
 62
     1
 10
88.854450
 20
12.189983
 11
88.854075
 21
12.149658
  0
LINE
  8
0
 62
     1
 10
150.854075
 20
-54.090892
 11
150.892844
 21
-54.090989
  0
LINE
  8
0
 62
     1
 10
150.892844
 20
-54.090989
 11
151.279961
 21
-54.102720
  0
LINE
  8
0
 62
     1
 10
151.279961
 20
-54.102720
 11
151.662872
 21
-54.133875
  0
LINE
  8
0
 62
     1
 10
151.662872
 20
-54.133875
 11
152.038409
 21
-54.184198
  0
LINE
  8
0
 62
     1
 10
152.038409
 20
-54.184198
 11
152.402803
 21
-54.253200
  0
LINE
  8
0
 62
     1
 10
152.402803
 20
-54.253200
 11
152.752444
 21
-54.340180
  0
LINE
  8
0
 62
     1
 10
152.752444
 20
-54.340180
 11
153.084455
 21
-54.444421
  0
LINE
  8
0
 62
     1
 10
153.084455
 20
-54.444421
 11
153.395320
 21
-54.564819
  0
LINE
  8
0
 62
     1
 10
153.395320
 20
-54.564819
 11
153.682502
 21
-54.700393
  0
LINE
  8
0
 62
     1
 10
153.682502
 20
-54.700393
 11
153.943099
 21
-54.849797
  0
LINE
  8
0
 62
     1
 10
153.943099
 20
-54.849797
 11
154.174527
 21
-55.011522
  0
LINE
  8
0
 62
     1
 10
154.174527
 20
-55.011522
 11
154.374898
 21
-55.184248
  0
LINE
  8
0
 62
     1
 10
154.374898
 20
-55.184248
 11
154.542088
 21
-55.366146
  0
LINE
  8
0
 62
     1
 10
154.542088
 20
-55.366146
 11
154.674723
 21
-55.555719
  0
LINE
  8
0
 62
     1
 10
154.674723
 20
-55.555719
 11
154.771452
 21
-55.751089
  0
LINE
  8
0
 62
     1
 10
154.771452
 20
-55.751089
 11
154.831338
 21
-55.950296
  0
LINE
  8
0
 62
     1
 10
154.831338
 20
-55.950296
 11
154.853887
 21
-56.151690
  0
LINE
  8
0
 62
     1
 10
150.854075
 20
-30.658841
 11
150.854075
 21
14.230625
  0
LINE
  8
0
 62
     1
 10
150.854075
 20
-54.090892
 11
150.854075
 21
-46.658841
  0
LINE
  8
0
 62
     1
 10
154.854075
 20
12.149658
 11
154.853887
 21
12.169827
  0
LINE
  8
0
 62
     1
 10
154.853887
 20
12.169827
 11
154.831338
 21
12.371221
  0
LINE
  8
0
 62
     1
 10
154.831338
 20
12.371221
 11
154.771452
 21
12.570428
  0
LINE
  8
0
 62
     1
 10
154.771452
 20
12.570428
 11
154.674723
 21
12.765798
  0
LINE
  8
0
 62
     1
 10
154.674723
 20
12.765798
 11
154.542088
 21
12.955371
  0
LINE
  8
0
 62
     1
 10
154.542088
 20
12.955371
 11
154.374898
 21
13.137269
  0
LINE
  8
0
 62
     1
 10
154.374898
 20
13.137269
 11
154.174527
 21
13.309995
  0
LINE
  8
0
 62
     1
 10
154.174527
 20
13.309995
 11
153.943099
 21
13.471720
  0
LINE
  8
0
 62
     1
 10
153.943099
 20
13.471720
 11
153.682502
 21
13.621124
  0
LINE
  8
0
 62
     1
 10
153.682502
 20
13.621124
 11
153.395320
 21
13.756698
  0
LINE
  8
0
 62
     1
 10
153.395320
 20
13.756698
 11
153.084455
 21
13.877096
  0
LINE
  8
0
 62
     1
 10
153.084455
 20
13.877096
 11
152.752444
 21
13.981337
  0
LINE
  8
0
 62
     1
 10
152.752444
 20
13.981337
 11
152.402803
 21
14.068316
  0
LINE
  8
0
 62
     1
 10
152.402803
 20
14.068316
 11
152.038409
 21
14.137319
  0
LINE
  8
0
 62
     1
 10
152.038409
 20
14.137319
 11
151.662872
 21
14.187642
  0
LINE
  8
0
 62
     1
 10
151.662872
 20
14.187642
 11
151.279961
 21
14.218796
  0
LINE
  8
0
 62
     1
 10
151.279961
 20
14.218796
 11
150.892844
 21
14.230527
  0
LINE
  8
0
 62
     1
 10
150.892844
 20
14.230527
 11
150.854075
 21
14.230625
  0
LINE
  8
0
 62
     1
 10
158.854075
 20
12.149658
 11
158.853699
 21
12.189983
  0
LINE
  8
0
 62
     1
 10
158.853699
 20
12.189983
 11
158.808623
 21
12.592678
  0
LINE
  8
0
 62
     1
 10
158.808623
 20
12.592678
 11
158.688783
 21
12.991317
  0
LINE
  8
0
 62
     1
 10
158.688783
 20
12.991317
 11
158.495375
 21
13.381931
  0
LINE
  8
0
 62
     1
 10
158.495375
 20
13.381931
 11
158.230192
 21
13.760971
  0
LINE
  8
0
 62
     1
 10
158.230192
 20
13.760971
 11
157.895721
 21
14.124880
  0
LINE
  8
0
 62
     1
 10
157.895721
 20
14.124880
 11
157.494976
 21
14.470335
  0
LINE
  8
0
 62
     1
 10
157.494976
 20
14.470335
 11
157.031967
 21
14.793881
  0
LINE
  8
0
 62
     1
 10
157.031967
 20
14.793881
 11
156.510929
 21
15.092590
  0
LINE
  8
0
 62
     1
 10
156.510929
 20
15.092590
 11
155.936755
 21
15.363656
  0
LINE
  8
0
 62
     1
 10
155.936755
 20
15.363656
 11
155.314840
 21
15.604533
  0
LINE
  8
0
 62
     1
 10
155.314840
 20
15.604533
 11
154.650812
 21
15.813017
  0
LINE
  8
0
 62
     1
 10
154.650812
 20
15.813017
 11
153.951313
 21
15.987023
  0
LINE
  8
0
 62
     1
 10
153.951313
 20
15.987023
 11
153.222729
 21
16.124982
  0
LINE
  8
0
 62
     1
 10
153.222729
 20
16.124982
 11
152.471897
 21
16.225601
  0
LINE
  8
0
 62
     1
 10
152.471897
 20
16.225601
 11
151.705641
 21
16.287947
  0
LINE
  8
0
 62
     1
 10
151.705641
 20
16.287947
 11
150.931588
 21
16.311397
  0
LINE
  8
0
 62
     1
 10
150.931588
 20
16.311397
 11
150.854075
 21
16.311593
  0
LINE
  8
0
 62
     1
 10
92.854075
 20
-4.498082
 11
92.854075
 21
-59.468516
  0
LINE
  8
0
 62
     1
 10
92.854075
 20
-4.498082
 11
92.854075
 21
12.149658
  0
LINE
  8
0
 62
     1
 10
88.854075
 20
-4.498082
 11
88.854075
 21
12.149658
  0
LINE
  8
0
 62
     1
 10
88.854075
 20
-59.468516
 11
88.854075
 21
-4.498082
  0
LINE
  8
0
 62
     1
 10
96.854075
 20
14.230625
 11
150.854075
 21
14.230625
  0
LINE
  8
0
 62
     1
 10
96.854075
 20
-54.090892
 11
150.854075
 21
-54.090892
  0
LINE
  8
0
 62
     1
 10
96.854075
 20
16.311593
 11
150.854075
 21
16.311593
  0
LINE
  8
0
 62
     1
 10
154.854075
 20
12.149658
 11
154.854075
 21
-4.498082
  0
LINE
  8
0
 62
     1
 10
154.854075
 20
-59.468516
 11
154.854075
 21
-4.498082
  0
LINE
  8
0
 62
     1
 10
154.854075
 20
-78.658841
 11
154.854075
 21
-59.468516
  0
LINE
  8
0
 62
     1
 10
158.854075
 20
-4.498082
 11
158.854075
 21
-59.468516
  0
LINE
  8
0
 62
     1
 10
158.854075
 20
12.149658
 11
158.854075
 21
-4.498082
  0
LINE
  8
0
 62
     1
 10
158.854075
 20
-59.468516
 11
158.854075
 21
-78.658841
  0
LINE
  8
0
 62
     1
 10
88.854075
 20
-4.498082
 11
92.854075
 21
-4.498082
  0
LINE
  8
0
 62
     1
 10
158.854075
 20
-4.498082
 11
154.854075
 21
-4.498082
  0
LINE
  8
0
 62
     1
 10
160.559407
 20
8.442334
 11
164.559407
 21
8.442334
  0
LINE
  8
0
 62
     1
 10
160.559407
 20
8.442334
 11
164.559407
 21
8.442334
  0
LINE
  8
0
 62
     1
 10
88.559407
 20
8.442334
 11
84.559407
 21
8.442334
  0
LINE
  8
0
 62
     1
 10
88.559407
 20
8.442334
 11
84.559407
 21
8.442334
  0
ARC
  8
0
 62
     1
 10
92.559407
 20
-103.557666
 40
4.000000
 50
180.000000
 51
270.000000
  0
ARC
  8
0
 62
     1
 10
92.559407
 20
-103.557666
 40
8.000000
 50
180.000000
 51
270.000000
  0
ARC
  8
0
 62
     1
 10
156.559407
 20
-103.557666
 40
4.000000
 50
270.000000
 51
360.000000
  0
ARC
  8
0
 62
     1
 10
156.559407
 20
-103.557666
 40
8.000000
 50
270.000000
 51
360.000000
  0
LINE
  8
0
 62
     1
 10
88.559407
 20
-31.557666
 11
88.559407
 21
-103.557666
  0
LINE
  8
0
 62
     1
 10
88.559407
 20
8.442334
 11
88.559407
 21
-31.557666
  0
LINE
  8
0
 62
     1
 10
84.559407
 20
-31.557666
 11
84.559407
 21
8.442334
  0
LINE
  8
0
 62
     1
 10
84.559407
 20
-31.557666
 11
84.559407
 21
-103.557666
  0
LINE
  8
0
 62
     1
 10
92.559407
 20
-107.557666
 11
156.559407
 21
-107.557666
  0
LINE
  8
0
 62
     1
 10
92.559407
 20
-111.557666
 11
156.559407
 21
-111.557666
  0
LINE
  8
0
 62
     1
 10
160.559407
 20
-31.557666
 11
160.559407
 21
8.442334
  0
LINE
  8
0
 62
     1
 10
160.559407
 20
-103.557666
 11
160.559407
 21
-31.557666
  0
LINE
  8
0
 62
     1
 10
164.559407
 20
-103.557666
 11
164.559407
 21
-31.557666
  0
LINE
  8
0
 62
     1
 10
164.559407
 20
8.442334
 11
164.559407
 21
-31.557666
  0
LINE
  8
0
 62
     1
 10
84.559407
 20
-31.557666
 11
88.559407
 21
-31.557666
  0
LINE
  8
0
 62
     1
 10
164.559407
 20
-31.557666
 11
160.559407
 21
-31.557666
  0
LINE
  8
0
 62
     1
 10
110.254075
 20
41.739739
 11
110.254075
 21
16.739739
  0
LINE
  8
0
 62
     1
 10
137.454075
 20
41.739739
 11
137.454075
 21
16.739739
  0
LINE
  8
0
 62
     1
 10
131.854075
 20
16.739739
 11
131.815552
 21
17.418822
  0
LINE
  8
0
 62
     1
 10
131.815552
 20
17.418822
 11
131.700357
 21
18.091365
  0
LINE
  8
0
 62
     1
 10
131.700357
 20
18.091365
 11
131.509597
 21
18.750891
  0
LINE
  8
0
 62
     1
 10
131.509597
 20
18.750891
 11
131.245111
 21
19.391048
  0
LINE
  8
0
 62
     1
 10
131.245111
 20
19.391048
 11
130.909445
 21
20.005672
  0
LINE
  8
0
 62
     1
 10
130.909445
 20
20.005672
 11
130.505832
 21
20.588843
  0
LINE
  8
0
 62
     1
 10
130.505832
 20
20.588843
 11
130.038158
 21
21.134945
  0
LINE
  8
0
 62
     1
 10
130.038158
 20
21.134945
 11
129.510929
 21
21.638719
  0
LINE
  8
0
 62
     1
 10
129.510929
 20
21.638719
 11
128.929221
 21
22.095313
  0
LINE
  8
0
 62
     1
 10
128.929221
 20
22.095313
 11
128.298637
 21
22.500330
  0
LINE
  8
0
 62
     1
 10
128.298637
 20
22.500330
 11
127.625249
 21
22.849869
  0
LINE
  8
0
 62
     1
 10
127.625249
 20
22.849869
 11
126.915542
 21
23.140564
  0
LINE
  8
0
 62
     1
 10
126.915542
 20
23.140564
 11
126.176352
 21
23.369616
  0
LINE
  8
0
 62
     1
 10
126.176352
 20
23.369616
 11
125.414797
 21
23.534819
  0
LINE
  8
0
 62
     1
 10
125.414797
 20
23.534819
 11
124.638212
 21
23.634581
  0
LINE
  8
0
 62
     1
 10
124.638212
 20
23.634581
 11
123.854075
 21
23.667943
  0
LINE
  8
0
 62
     1
 10
123.854075
 20
23.667943
 11
123.069938
 21
23.634581
  0
LINE
  8
0
 62
     1
 10
123.069938
 20
23.634581
 11
122.293352
 21
23.534819
  0
LINE
  8
0
 62
     1
 10
122.293352
 20
23.534819
 11
121.531797
 21
23.369616
  0
LINE
  8
0
 62
     1
 10
121.531797
 20
23.369616
 11
120.792607
 21
23.140564
  0
LINE
  8
0
 62
     1
 10
120.792607
 20
23.140564
 11
120.082901
 21
22.849869
  0
LINE
  8
0
 62
     1
 10
120.082901
 20
22.849869
 11
119.409513
 21
22.500330
  0
LINE
  8
0
 62
     1
 10
119.409513
 20
22.500330
 11
118.778928
 21
22.095313
  0
LINE
  8
0
 62
     1
 10
118.778928
 20
22.095313
 11
118.197220
 21
21.638719
  0
LINE
  8
0
 62
     1
 10
118.197220
 20
21.638719
 11
117.669991
 21
21.134945
  0
LINE
  8
0
 62
     1
 10
117.669991
 20
21.134945
 11
117.202318
 21
20.588843
  0
LINE
  8
0
 62
     1
 10
117.202318
 20
20.588843
 11
116.798705
 21
20.005672
  0
LINE
  8
0
 62
     1
 10
116.798705
 20
20.005672
 11
116.463038
 21
19.391048
  0
LINE
  8
0
 62
     1
 10
116.463038
 20
19.391048
 11
116.198552
 21
18.750891
  0
LINE
  8
0
 62
     1
 10
116.198552
 20
18.750891
 11
116.007792
 21
18.091365
  0
LINE
  8
0
 62
     1
 10
116.007792
 20
18.091365
 11
115.892597
 21
17.418822
  0
LINE
  8
0
 62
     1
 10
115.892597
 20
17.418822
 11
115.854075
 21
16.739739
  0
LINE
  8
0
 62
     1
 10
110.254075
 20
41.739739
 11
110.319562
 21
42.894180
  0
LINE
  8
0
 62
     1
 10
110.319562
 20
42.894180
 11
110.515395
 21
44.037502
  0
LINE
  8
0
 62
     1
 10
110.515395
 20
44.037502
 11
110.839686
 21
45.158696
  0
LINE
  8
0
 62
     1
 10
110.839686
 20
45.158696
 11
111.289313
 21
46.246964
  0
LINE
  8
0
 62
     1
 10
111.289313
 20
46.246964
 11
111.859945
 21
47.291824
  0
LINE
  8
0
 62
     1
 10
111.859945
 20
47.291824
 11
112.546088
 21
48.283215
  0
LINE
  8
0
 62
     1
 10
112.546088
 20
48.283215
 11
113.341132
 21
49.211589
  0
LINE
  8
0
 62
     1
 10
113.341132
 20
49.211589
 11
114.237422
 21
50.068004
  0
LINE
  8
0
 62
     1
 10
114.237422
 20
50.068004
 11
115.226326
 21
50.844214
  0
LINE
  8
0
 62
     1
 10
115.226326
 20
50.844214
 11
116.298319
 21
51.532743
  0
LINE
  8
0
 62
     1
 10
116.298319
 20
51.532743
 11
117.443079
 21
52.126960
  0
LINE
  8
0
 62
     1
 10
117.443079
 20
52.126960
 11
118.649580
 21
52.621142
  0
LINE
  8
0
 62
     1
 10
118.649580
 20
52.621142
 11
119.906203
 21
53.010530
  0
LINE
  8
0
 62
     1
 10
119.906203
 20
53.010530
 11
121.200846
 21
53.291375
  0
LINE
  8
0
 62
     1
 10
121.200846
 20
53.291375
 11
122.521042
 21
53.460971
  0
LINE
  8
0
 62
     1
 10
122.521042
 20
53.460971
 11
123.854075
 21
53.517685
  0
LINE
  8
0
 62
     1
 10
123.854075
 20
53.517685
 11
125.187108
 21
53.460971
  0
LINE
  8
0
 62
     1
 10
125.187108
 20
53.460971
 11
126.507303
 21
53.291375
  0
LINE
  8
0
 62
     1
 10
126.507303
 20
53.291375
 11
127.801946
 21
53.010530
  0
LINE
  8
0
 62
     1
 10
127.801946
 20
53.010530
 11
129.058569
 21
52.621142
  0
LINE
  8
0
 62
     1
 10
129.058569
 20
52.621142
 11
130.265070
 21
52.126960
  0
LINE
  8
0
 62
     1
 10
130.265070
 20
52.126960
 11
131.409830
 21
51.532743
  0
LINE
  8
0
 62
     1
 10
131.409830
 20
51.532743
 11
132.481823
 21
50.844214
  0
LINE
  8
0
 62
     1
 10
132.481823
 20
50.844214
 11
133.470727
 21
50.068004
  0
LINE
  8
0
 62
     1
 10
133.470727
 20
50.068004
 11
134.367017
 21
49.211589
  0
LINE
  8
0
 62
     1
 10
134.367017
 20
49.211589
 11
135.162061
 21
48.283215
  0
LINE
  8
0
 62
     1
 10
135.162061
 20
48.283215
 11
135.848204
 21
47.291824
  0
LINE
  8
0
 62
     1
 10
135.848204
 20
47.291824
 11
136.418836
 21
46.246964
  0
LINE
  8
0
 62
     1
 10
136.418836
 20
46.246964
 11
136.868463
 21
45.158696
  0
LINE
  8
0
 62
     1
 10
136.868463
 20
45.158696
 11
137.192754
 21
44.037502
  0
LINE
  8
0
 62
     1
 10
137.192754
 20
44.037502
 11
137.388587
 21
42.894180
  0
LINE
  8
0
 62
     1
 10
137.388587
 20
42.894180
 11
137.454075
 21
41.739739
  0
LINE
  8
0
 62
     1
 10
137.429787
 20
16.311593
 11
137.454075
 21
16.739739
  0
LINE
  8
0
 62
     1
 10
137.454075
 20
16.739739
 11
137.388587
 21
17.894180
  0
LINE
  8
0
 62
     1
 10
137.388587
 20
17.894180
 11
137.192754
 21
19.037502
  0
LINE
  8
0
 62
     1
 10
137.192754
 20
19.037502
 11
136.868463
 21
20.158696
  0
LINE
  8
0
 62
     1
 10
136.868463
 20
20.158696
 11
136.418836
 21
21.246964
  0
LINE
  8
0
 62
     1
 10
136.418836
 20
21.246964
 11
135.848204
 21
22.291824
  0
LINE
  8
0
 62
     1
 10
135.848204
 20
22.291824
 11
135.162061
 21
23.283215
  0
LINE
  8
0
 62
     1
 10
135.162061
 20
23.283215
 11
134.367017
 21
24.211589
  0
LINE
  8
0
 62
     1
 10
134.367017
 20
24.211589
 11
133.470727
 21
25.068004
  0
LINE
  8
0
 62
     1
 10
133.470727
 20
25.068004
 11
132.481823
 21
25.844214
  0
LINE
  8
0
 62
     1
 10
132.481823
 20
25.844214
 11
131.409830
 21
26.532743
  0
LINE
  8
0
 62
     1
 10
131.409830
 20
26.532743
 11
130.265070
 21
27.126960
  0
LINE
  8
0
 62
     1
 10
130.265070
 20
27.126960
 11
129.058569
 21
27.621142
  0
LINE
  8
0
 62
     1
 10
129.058569
 20
27.621142
 11
127.801946
 21
28.010530
  0
LINE
  8
0
 62
     1
 10
127.801946
 20
28.010530
 11
126.507303
 21
28.291375
  0
LINE
  8
0
 62
     1
 10
126.507303
 20
28.291375
 11
125.187108
 21
28.460971
  0
LINE
  8
0
 62
     1
 10
125.187108
 20
28.460971
 11
123.854075
 21
28.517685
  0
LINE
  8
0
 62
     1
 10
123.854075
 20
28.517685
 11
122.521042
 21
28.460971
  0
LINE
  8
0
 62
     1
 10
122.521042
 20
28.460971
 11
121.200846
 21
28.291375
  0
LINE
  8
0
 62
     1
 10
121.200846
 20
28.291375
 11
119.906203
 21
28.010530
  0
LINE
  8
0
 62
     1
 10
119.906203
 20
28.010530
 11
118.649580
 21
27.621142
  0
LINE
  8
0
 62
     1
 10
118.649580
 20
27.621142
 11
117.443079
 21
27.126960
  0
LINE
  8
0
 62
     1
 10
117.443079
 20
27.126960
 11
116.298319
 21
26.532743
  0
LINE
  8
0
 62
     1
 10
116.298319
 20
26.532743
 11
115.226326
 21
25.844214
  0
LINE
  8
0
 62
     1
 10
115.226326
 20
25.844214
 11
114.237422
 21
25.068004
  0
LINE
  8
0
 62
     1
 10
114.237422
 20
25.068004
 11
113.341132
 21
24.211589
  0
LINE
  8
0
 62
     1
 10
113.341132
 20
24.211589
 11
112.546088
 21
23.283215
  0
LINE
  8
0
 62
     1
 10
112.546088
 20
23.283215
 11
111.859945
 21
22.291824
  0
LINE
  8
0
 62
     1
 10
111.859945
 20
22.291824
 11
111.289313
 21
21.246964
  0
LINE
  8
0
 62
     1
 10
111.289313
 20
21.246964
 11
110.839686
 21
20.158696
  0
LINE
  8
0
 62
     1
 10
110.839686
 20
20.158696
 11
110.515395
 21
19.037502
  0
LINE
  8
0
 62
     1
 10
110.515395
 20
19.037502
 11
110.319562
 21
17.894180
  0
LINE
  8
0
 62
     1
 10
110.319562
 20
17.894180
 11
110.254075
 21
16.739739
  0
LINE
  8
0
 62
     1
 10
110.254075
 20
16.739739
 11
110.278362
 21
16.311593
  0
ENDSEC
  0
EOF

